G04 #@! TF.GenerationSoftware,KiCad,Pcbnew,8.0.3*
G04 #@! TF.CreationDate,2024-07-12T16:59:52+02:00*
G04 #@! TF.ProjectId,Sally2,53616c6c-7932-42e6-9b69-6361645f7063,rev?*
G04 #@! TF.SameCoordinates,Original*
G04 #@! TF.FileFunction,Copper,L1,Top*
G04 #@! TF.FilePolarity,Positive*
%FSLAX46Y46*%
G04 Gerber Fmt 4.6, Leading zero omitted, Abs format (unit mm)*
G04 Created by KiCad (PCBNEW 8.0.3) date 2024-07-12 16:59:52*
%MOMM*%
%LPD*%
G01*
G04 APERTURE LIST*
G04 Aperture macros list*
%AMRoundRect*
0 Rectangle with rounded corners*
0 $1 Rounding radius*
0 $2 $3 $4 $5 $6 $7 $8 $9 X,Y pos of 4 corners*
0 Add a 4 corners polygon primitive as box body*
4,1,4,$2,$3,$4,$5,$6,$7,$8,$9,$2,$3,0*
0 Add four circle primitives for the rounded corners*
1,1,$1+$1,$2,$3*
1,1,$1+$1,$4,$5*
1,1,$1+$1,$6,$7*
1,1,$1+$1,$8,$9*
0 Add four rect primitives between the rounded corners*
20,1,$1+$1,$2,$3,$4,$5,0*
20,1,$1+$1,$4,$5,$6,$7,0*
20,1,$1+$1,$6,$7,$8,$9,0*
20,1,$1+$1,$8,$9,$2,$3,0*%
G04 Aperture macros list end*
G04 #@! TA.AperFunction,ComponentPad*
%ADD10R,1.700000X1.700000*%
G04 #@! TD*
G04 #@! TA.AperFunction,ComponentPad*
%ADD11O,1.700000X1.700000*%
G04 #@! TD*
G04 #@! TA.AperFunction,ComponentPad*
%ADD12R,1.800000X1.800000*%
G04 #@! TD*
G04 #@! TA.AperFunction,ComponentPad*
%ADD13C,1.800000*%
G04 #@! TD*
G04 #@! TA.AperFunction,ComponentPad*
%ADD14C,1.600000*%
G04 #@! TD*
G04 #@! TA.AperFunction,ComponentPad*
%ADD15R,1.600000X1.600000*%
G04 #@! TD*
G04 #@! TA.AperFunction,ComponentPad*
%ADD16C,4.000000*%
G04 #@! TD*
G04 #@! TA.AperFunction,ComponentPad*
%ADD17O,1.600000X1.600000*%
G04 #@! TD*
G04 #@! TA.AperFunction,ComponentPad*
%ADD18C,1.676400*%
G04 #@! TD*
G04 #@! TA.AperFunction,ComponentPad*
%ADD19R,1.676400X1.676400*%
G04 #@! TD*
G04 #@! TA.AperFunction,ComponentPad*
%ADD20R,1.600000X2.400000*%
G04 #@! TD*
G04 #@! TA.AperFunction,ComponentPad*
%ADD21O,1.600000X2.400000*%
G04 #@! TD*
G04 #@! TA.AperFunction,ComponentPad*
%ADD22C,1.400000*%
G04 #@! TD*
G04 #@! TA.AperFunction,ComponentPad*
%ADD23O,1.400000X1.400000*%
G04 #@! TD*
G04 #@! TA.AperFunction,ComponentPad*
%ADD24RoundRect,0.250000X-0.600000X0.600000X-0.600000X-0.600000X0.600000X-0.600000X0.600000X0.600000X0*%
G04 #@! TD*
G04 #@! TA.AperFunction,ComponentPad*
%ADD25C,1.700000*%
G04 #@! TD*
G04 #@! TA.AperFunction,ComponentPad*
%ADD26R,3.500000X3.500000*%
G04 #@! TD*
G04 #@! TA.AperFunction,ComponentPad*
%ADD27RoundRect,0.750000X-1.000000X0.750000X-1.000000X-0.750000X1.000000X-0.750000X1.000000X0.750000X0*%
G04 #@! TD*
G04 #@! TA.AperFunction,ComponentPad*
%ADD28RoundRect,0.875000X-0.875000X0.875000X-0.875000X-0.875000X0.875000X-0.875000X0.875000X0.875000X0*%
G04 #@! TD*
G04 #@! TA.AperFunction,ViaPad*
%ADD29C,0.800000*%
G04 #@! TD*
G04 #@! TA.AperFunction,Conductor*
%ADD30C,0.350000*%
G04 #@! TD*
G04 #@! TA.AperFunction,Conductor*
%ADD31C,0.800000*%
G04 #@! TD*
G04 APERTURE END LIST*
D10*
X137414000Y-146812000D03*
D11*
X139954000Y-146812000D03*
X142494000Y-146812000D03*
X145034000Y-146812000D03*
X147574000Y-146812000D03*
X150114000Y-146812000D03*
X152654000Y-146812000D03*
X155194000Y-146812000D03*
X157734000Y-146812000D03*
X160274000Y-146812000D03*
X162814000Y-146812000D03*
X165354000Y-146812000D03*
X167894000Y-146812000D03*
X170434000Y-146812000D03*
X172974000Y-146812000D03*
X175514000Y-146812000D03*
X178054000Y-146812000D03*
X180594000Y-146812000D03*
X183134000Y-146812000D03*
X185674000Y-146812000D03*
X188214000Y-146812000D03*
X190754000Y-146812000D03*
X193294000Y-146812000D03*
X195834000Y-146812000D03*
X198374000Y-146812000D03*
X200914000Y-146812000D03*
X203454000Y-146812000D03*
X205994000Y-146812000D03*
X208534000Y-146812000D03*
X211074000Y-146812000D03*
X213614000Y-146812000D03*
X216154000Y-146812000D03*
X218694000Y-146812000D03*
X221234000Y-146812000D03*
D10*
X20574000Y-146812000D03*
D11*
X23114000Y-146812000D03*
X25654000Y-146812000D03*
X28194000Y-146812000D03*
X30734000Y-146812000D03*
X33274000Y-146812000D03*
X35814000Y-146812000D03*
X38354000Y-146812000D03*
X40894000Y-146812000D03*
X43434000Y-146812000D03*
X45974000Y-146812000D03*
X48514000Y-146812000D03*
X51054000Y-146812000D03*
X53594000Y-146812000D03*
X56134000Y-146812000D03*
X58674000Y-146812000D03*
X61214000Y-146812000D03*
X63754000Y-146812000D03*
X66294000Y-146812000D03*
X68834000Y-146812000D03*
X71374000Y-146812000D03*
X73914000Y-146812000D03*
X76454000Y-146812000D03*
X78994000Y-146812000D03*
X81534000Y-146812000D03*
X84074000Y-146812000D03*
X86614000Y-146812000D03*
X89154000Y-146812000D03*
X91694000Y-146812000D03*
X94234000Y-146812000D03*
X96774000Y-146812000D03*
X99314000Y-146812000D03*
X101854000Y-146812000D03*
X104394000Y-146812000D03*
D10*
X137414000Y-141732000D03*
D11*
X137414000Y-144272000D03*
X139954000Y-141732000D03*
X139954000Y-144272000D03*
X142494000Y-141732000D03*
X142494000Y-144272000D03*
X145034000Y-141732000D03*
X145034000Y-144272000D03*
X147574000Y-141732000D03*
X147574000Y-144272000D03*
X150114000Y-141732000D03*
X150114000Y-144272000D03*
X152654000Y-141732000D03*
X152654000Y-144272000D03*
X155194000Y-141732000D03*
X155194000Y-144272000D03*
X157734000Y-141732000D03*
X157734000Y-144272000D03*
X160274000Y-141732000D03*
X160274000Y-144272000D03*
X162814000Y-141732000D03*
X162814000Y-144272000D03*
X165354000Y-141732000D03*
X165354000Y-144272000D03*
X167894000Y-141732000D03*
X167894000Y-144272000D03*
X170434000Y-141732000D03*
X170434000Y-144272000D03*
X172974000Y-141732000D03*
X172974000Y-144272000D03*
X175514000Y-141732000D03*
X175514000Y-144272000D03*
X178054000Y-141732000D03*
X178054000Y-144272000D03*
X180594000Y-141732000D03*
X180594000Y-144272000D03*
X183134000Y-141732000D03*
X183134000Y-144272000D03*
X185674000Y-141732000D03*
X185674000Y-144272000D03*
X188214000Y-141732000D03*
X188214000Y-144272000D03*
X190754000Y-141732000D03*
X190754000Y-144272000D03*
X193294000Y-141732000D03*
X193294000Y-144272000D03*
X195834000Y-141732000D03*
X195834000Y-144272000D03*
X198374000Y-141732000D03*
X198374000Y-144272000D03*
X200914000Y-141732000D03*
X200914000Y-144272000D03*
X203454000Y-141732000D03*
X203454000Y-144272000D03*
X205994000Y-141732000D03*
X205994000Y-144272000D03*
X208534000Y-141732000D03*
X208534000Y-144272000D03*
X211074000Y-141732000D03*
X211074000Y-144272000D03*
X213614000Y-141732000D03*
X213614000Y-144272000D03*
X216154000Y-141732000D03*
X216154000Y-144272000D03*
X218694000Y-141732000D03*
X218694000Y-144272000D03*
X221234000Y-141732000D03*
X221234000Y-144272000D03*
D10*
X20574000Y-141732000D03*
D11*
X20574000Y-144272000D03*
X23114000Y-141732000D03*
X23114000Y-144272000D03*
X25654000Y-141732000D03*
X25654000Y-144272000D03*
X28194000Y-141732000D03*
X28194000Y-144272000D03*
X30734000Y-141732000D03*
X30734000Y-144272000D03*
X33274000Y-141732000D03*
X33274000Y-144272000D03*
X35814000Y-141732000D03*
X35814000Y-144272000D03*
X38354000Y-141732000D03*
X38354000Y-144272000D03*
X40894000Y-141732000D03*
X40894000Y-144272000D03*
X43434000Y-141732000D03*
X43434000Y-144272000D03*
X45974000Y-141732000D03*
X45974000Y-144272000D03*
X48514000Y-141732000D03*
X48514000Y-144272000D03*
X51054000Y-141732000D03*
X51054000Y-144272000D03*
X53594000Y-141732000D03*
X53594000Y-144272000D03*
X56134000Y-141732000D03*
X56134000Y-144272000D03*
X58674000Y-141732000D03*
X58674000Y-144272000D03*
X61214000Y-141732000D03*
X61214000Y-144272000D03*
X63754000Y-141732000D03*
X63754000Y-144272000D03*
X66294000Y-141732000D03*
X66294000Y-144272000D03*
X68834000Y-141732000D03*
X68834000Y-144272000D03*
X71374000Y-141732000D03*
X71374000Y-144272000D03*
X73914000Y-141732000D03*
X73914000Y-144272000D03*
X76454000Y-141732000D03*
X76454000Y-144272000D03*
X78994000Y-141732000D03*
X78994000Y-144272000D03*
X81534000Y-141732000D03*
X81534000Y-144272000D03*
X84074000Y-141732000D03*
X84074000Y-144272000D03*
X86614000Y-141732000D03*
X86614000Y-144272000D03*
X89154000Y-141732000D03*
X89154000Y-144272000D03*
X91694000Y-141732000D03*
X91694000Y-144272000D03*
X94234000Y-141732000D03*
X94234000Y-144272000D03*
X96774000Y-141732000D03*
X96774000Y-144272000D03*
X99314000Y-141732000D03*
X99314000Y-144272000D03*
X101854000Y-141732000D03*
X101854000Y-144272000D03*
X104394000Y-141732000D03*
X104394000Y-144272000D03*
D10*
X226314000Y-106172000D03*
D11*
X226314000Y-108712000D03*
X226314000Y-111252000D03*
X226314000Y-113792000D03*
X226314000Y-116332000D03*
X226314000Y-118872000D03*
X226314000Y-121412000D03*
X226314000Y-123952000D03*
X226314000Y-126492000D03*
X226314000Y-129032000D03*
X226314000Y-131572000D03*
X226314000Y-134112000D03*
X226314000Y-136652000D03*
X226314000Y-139192000D03*
D10*
X223774000Y-106172000D03*
D11*
X221234000Y-106172000D03*
X223774000Y-108712000D03*
X221234000Y-108712000D03*
X223774000Y-111252000D03*
X221234000Y-111252000D03*
X223774000Y-113792000D03*
X221234000Y-113792000D03*
X223774000Y-116332000D03*
X221234000Y-116332000D03*
X223774000Y-118872000D03*
X221234000Y-118872000D03*
X223774000Y-121412000D03*
X221234000Y-121412000D03*
X223774000Y-123952000D03*
X221234000Y-123952000D03*
X223774000Y-126492000D03*
X221234000Y-126492000D03*
X223774000Y-129032000D03*
X221234000Y-129032000D03*
X223774000Y-131572000D03*
X221234000Y-131572000D03*
X223774000Y-134112000D03*
X221234000Y-134112000D03*
X223774000Y-136652000D03*
X221234000Y-136652000D03*
X223774000Y-139192000D03*
X221234000Y-139192000D03*
D10*
X218694000Y-106172000D03*
D11*
X216154000Y-106172000D03*
X218694000Y-108712000D03*
X216154000Y-108712000D03*
X218694000Y-111252000D03*
X216154000Y-111252000D03*
X218694000Y-113792000D03*
X216154000Y-113792000D03*
X218694000Y-116332000D03*
X216154000Y-116332000D03*
X218694000Y-118872000D03*
X216154000Y-118872000D03*
X218694000Y-121412000D03*
X216154000Y-121412000D03*
X218694000Y-123952000D03*
X216154000Y-123952000D03*
X218694000Y-126492000D03*
X216154000Y-126492000D03*
X218694000Y-129032000D03*
X216154000Y-129032000D03*
X218694000Y-131572000D03*
X216154000Y-131572000D03*
X218694000Y-134112000D03*
X216154000Y-134112000D03*
X218694000Y-136652000D03*
X216154000Y-136652000D03*
X218694000Y-139192000D03*
X216154000Y-139192000D03*
D10*
X175514000Y-80772000D03*
D11*
X175514000Y-83312000D03*
X178054000Y-80772000D03*
X178054000Y-83312000D03*
X180594000Y-80772000D03*
X180594000Y-83312000D03*
X183134000Y-80772000D03*
X183134000Y-83312000D03*
X185674000Y-80772000D03*
X185674000Y-83312000D03*
X188214000Y-80772000D03*
X188214000Y-83312000D03*
X190754000Y-80772000D03*
X190754000Y-83312000D03*
X193294000Y-80772000D03*
X193294000Y-83312000D03*
X195834000Y-80772000D03*
X195834000Y-83312000D03*
X198374000Y-80772000D03*
X198374000Y-83312000D03*
X200914000Y-80772000D03*
X200914000Y-83312000D03*
X203454000Y-80772000D03*
X203454000Y-83312000D03*
X205994000Y-80772000D03*
X205994000Y-83312000D03*
X208534000Y-80772000D03*
X208534000Y-83312000D03*
X211074000Y-80772000D03*
X211074000Y-83312000D03*
X213614000Y-80772000D03*
X213614000Y-83312000D03*
X216154000Y-80772000D03*
X216154000Y-83312000D03*
X218694000Y-80772000D03*
X218694000Y-83312000D03*
X221234000Y-80772000D03*
X221234000Y-83312000D03*
X223774000Y-80772000D03*
X223774000Y-83312000D03*
X226314000Y-80772000D03*
X226314000Y-83312000D03*
D10*
X170434000Y-85852000D03*
D11*
X170434000Y-88392000D03*
X172974000Y-85852000D03*
X172974000Y-88392000D03*
X175514000Y-85852000D03*
X175514000Y-88392000D03*
X178054000Y-85852000D03*
X178054000Y-88392000D03*
X180594000Y-85852000D03*
X180594000Y-88392000D03*
X183134000Y-85852000D03*
X183134000Y-88392000D03*
X185674000Y-85852000D03*
X185674000Y-88392000D03*
X188214000Y-85852000D03*
X188214000Y-88392000D03*
X190754000Y-85852000D03*
X190754000Y-88392000D03*
X193294000Y-85852000D03*
X193294000Y-88392000D03*
X195834000Y-85852000D03*
X195834000Y-88392000D03*
X198374000Y-85852000D03*
X198374000Y-88392000D03*
X200914000Y-85852000D03*
X200914000Y-88392000D03*
X203454000Y-85852000D03*
X203454000Y-88392000D03*
X205994000Y-85852000D03*
X205994000Y-88392000D03*
X208534000Y-85852000D03*
X208534000Y-88392000D03*
X211074000Y-85852000D03*
X211074000Y-88392000D03*
X213614000Y-85852000D03*
X213614000Y-88392000D03*
X216154000Y-85852000D03*
X216154000Y-88392000D03*
X218694000Y-85852000D03*
X218694000Y-88392000D03*
X221234000Y-85852000D03*
X221234000Y-88392000D03*
X223774000Y-85852000D03*
X223774000Y-88392000D03*
X226314000Y-85852000D03*
X226314000Y-88392000D03*
D10*
X165354000Y-90932000D03*
D11*
X165354000Y-93472000D03*
X167894000Y-90932000D03*
X167894000Y-93472000D03*
X170434000Y-90932000D03*
X170434000Y-93472000D03*
X172974000Y-90932000D03*
X172974000Y-93472000D03*
X175514000Y-90932000D03*
X175514000Y-93472000D03*
X178054000Y-90932000D03*
X178054000Y-93472000D03*
X180594000Y-90932000D03*
X180594000Y-93472000D03*
X183134000Y-90932000D03*
X183134000Y-93472000D03*
X185674000Y-90932000D03*
X185674000Y-93472000D03*
X188214000Y-90932000D03*
X188214000Y-93472000D03*
X190754000Y-90932000D03*
X190754000Y-93472000D03*
X193294000Y-90932000D03*
X193294000Y-93472000D03*
X195834000Y-90932000D03*
X195834000Y-93472000D03*
X198374000Y-90932000D03*
X198374000Y-93472000D03*
X200914000Y-90932000D03*
X200914000Y-93472000D03*
X203454000Y-90932000D03*
X203454000Y-93472000D03*
X205994000Y-90932000D03*
X205994000Y-93472000D03*
X208534000Y-90932000D03*
X208534000Y-93472000D03*
X211074000Y-90932000D03*
X211074000Y-93472000D03*
X213614000Y-90932000D03*
X213614000Y-93472000D03*
X216154000Y-90932000D03*
X216154000Y-93472000D03*
X218694000Y-90932000D03*
X218694000Y-93472000D03*
X221234000Y-90932000D03*
X221234000Y-93472000D03*
X223774000Y-90932000D03*
X223774000Y-93472000D03*
X226314000Y-90932000D03*
X226314000Y-93472000D03*
D10*
X160274000Y-96012000D03*
D11*
X160274000Y-98552000D03*
X162814000Y-96012000D03*
X162814000Y-98552000D03*
X165354000Y-96012000D03*
X165354000Y-98552000D03*
X167894000Y-96012000D03*
X167894000Y-98552000D03*
X170434000Y-96012000D03*
X170434000Y-98552000D03*
X172974000Y-96012000D03*
X172974000Y-98552000D03*
X175514000Y-96012000D03*
X175514000Y-98552000D03*
X178054000Y-96012000D03*
X178054000Y-98552000D03*
X180594000Y-96012000D03*
X180594000Y-98552000D03*
X183134000Y-96012000D03*
X183134000Y-98552000D03*
X185674000Y-96012000D03*
X185674000Y-98552000D03*
X188214000Y-96012000D03*
X188214000Y-98552000D03*
X190754000Y-96012000D03*
X190754000Y-98552000D03*
X193294000Y-96012000D03*
X193294000Y-98552000D03*
X195834000Y-96012000D03*
X195834000Y-98552000D03*
X198374000Y-96012000D03*
X198374000Y-98552000D03*
X200914000Y-96012000D03*
X200914000Y-98552000D03*
X203454000Y-96012000D03*
X203454000Y-98552000D03*
X205994000Y-96012000D03*
X205994000Y-98552000D03*
X208534000Y-96012000D03*
X208534000Y-98552000D03*
X211074000Y-96012000D03*
X211074000Y-98552000D03*
X213614000Y-96012000D03*
X213614000Y-98552000D03*
X216154000Y-96012000D03*
X216154000Y-98552000D03*
X218694000Y-96012000D03*
X218694000Y-98552000D03*
X221234000Y-96012000D03*
X221234000Y-98552000D03*
X223774000Y-96012000D03*
X223774000Y-98552000D03*
X226314000Y-96012000D03*
X226314000Y-98552000D03*
D10*
X155194000Y-101092000D03*
D11*
X155194000Y-103632000D03*
X157734000Y-101092000D03*
X157734000Y-103632000D03*
X160274000Y-101092000D03*
X160274000Y-103632000D03*
X162814000Y-101092000D03*
X162814000Y-103632000D03*
X165354000Y-101092000D03*
X165354000Y-103632000D03*
X167894000Y-101092000D03*
X167894000Y-103632000D03*
X170434000Y-101092000D03*
X170434000Y-103632000D03*
X172974000Y-101092000D03*
X172974000Y-103632000D03*
X175514000Y-101092000D03*
X175514000Y-103632000D03*
X178054000Y-101092000D03*
X178054000Y-103632000D03*
X180594000Y-101092000D03*
X180594000Y-103632000D03*
X183134000Y-101092000D03*
X183134000Y-103632000D03*
X185674000Y-101092000D03*
X185674000Y-103632000D03*
X188214000Y-101092000D03*
X188214000Y-103632000D03*
X190754000Y-101092000D03*
X190754000Y-103632000D03*
X193294000Y-101092000D03*
X193294000Y-103632000D03*
X195834000Y-101092000D03*
X195834000Y-103632000D03*
X198374000Y-101092000D03*
X198374000Y-103632000D03*
X200914000Y-101092000D03*
X200914000Y-103632000D03*
X203454000Y-101092000D03*
X203454000Y-103632000D03*
X205994000Y-101092000D03*
X205994000Y-103632000D03*
X208534000Y-101092000D03*
X208534000Y-103632000D03*
X211074000Y-101092000D03*
X211074000Y-103632000D03*
X213614000Y-101092000D03*
X213614000Y-103632000D03*
X216154000Y-101092000D03*
X216154000Y-103632000D03*
X218694000Y-101092000D03*
X218694000Y-103632000D03*
X221234000Y-101092000D03*
X221234000Y-103632000D03*
X223774000Y-101092000D03*
X223774000Y-103632000D03*
X226314000Y-101092000D03*
X226314000Y-103632000D03*
X213614000Y-113792000D03*
X213614000Y-111252000D03*
X211074000Y-113792000D03*
X211074000Y-111252000D03*
X208534000Y-113792000D03*
X208534000Y-111252000D03*
X205994000Y-113792000D03*
X205994000Y-111252000D03*
X203454000Y-113792000D03*
X203454000Y-111252000D03*
X200914000Y-113792000D03*
X200914000Y-111252000D03*
X198374000Y-113792000D03*
X198374000Y-111252000D03*
X195834000Y-113792000D03*
X195834000Y-111252000D03*
X193294000Y-113792000D03*
X193294000Y-111252000D03*
X190754000Y-113792000D03*
X190754000Y-111252000D03*
X188214000Y-113792000D03*
X188214000Y-111252000D03*
X185674000Y-113792000D03*
X185674000Y-111252000D03*
X183134000Y-113792000D03*
X183134000Y-111252000D03*
X180594000Y-113792000D03*
X180594000Y-111252000D03*
X178054000Y-113792000D03*
X178054000Y-111252000D03*
X175514000Y-113792000D03*
X175514000Y-111252000D03*
X172974000Y-113792000D03*
X172974000Y-111252000D03*
X170434000Y-113792000D03*
X170434000Y-111252000D03*
X167894000Y-113792000D03*
X167894000Y-111252000D03*
X165354000Y-113792000D03*
X165354000Y-111252000D03*
X162814000Y-113792000D03*
X162814000Y-111252000D03*
X160274000Y-113792000D03*
X160274000Y-111252000D03*
X157734000Y-113792000D03*
X157734000Y-111252000D03*
X155194000Y-113792000D03*
X155194000Y-111252000D03*
X152654000Y-113792000D03*
X152654000Y-111252000D03*
X150114000Y-113792000D03*
X150114000Y-111252000D03*
X147574000Y-113792000D03*
X147574000Y-111252000D03*
X145034000Y-113792000D03*
X145034000Y-111252000D03*
X142494000Y-113792000D03*
X142494000Y-111252000D03*
X139954000Y-113792000D03*
X139954000Y-111252000D03*
X137414000Y-113792000D03*
X137414000Y-111252000D03*
X134874000Y-113792000D03*
X134874000Y-111252000D03*
X132334000Y-113792000D03*
X132334000Y-111252000D03*
X129794000Y-113792000D03*
X129794000Y-111252000D03*
X127254000Y-113792000D03*
X127254000Y-111252000D03*
X124714000Y-113792000D03*
X124714000Y-111252000D03*
X122174000Y-113792000D03*
X122174000Y-111252000D03*
X119634000Y-113792000D03*
X119634000Y-111252000D03*
X117094000Y-113792000D03*
X117094000Y-111252000D03*
X114554000Y-113792000D03*
D10*
X114554000Y-111252000D03*
D11*
X112014000Y-108712000D03*
X112014000Y-106172000D03*
X109474000Y-108712000D03*
X109474000Y-106172000D03*
X106934000Y-108712000D03*
X106934000Y-106172000D03*
X104394000Y-108712000D03*
X104394000Y-106172000D03*
X101854000Y-108712000D03*
X101854000Y-106172000D03*
X99314000Y-108712000D03*
X99314000Y-106172000D03*
X96774000Y-108712000D03*
X96774000Y-106172000D03*
X94234000Y-108712000D03*
X94234000Y-106172000D03*
X91694000Y-108712000D03*
X91694000Y-106172000D03*
X89154000Y-108712000D03*
X89154000Y-106172000D03*
X86614000Y-108712000D03*
X86614000Y-106172000D03*
X84074000Y-108712000D03*
X84074000Y-106172000D03*
X81534000Y-108712000D03*
X81534000Y-106172000D03*
X78994000Y-108712000D03*
X78994000Y-106172000D03*
X76454000Y-108712000D03*
X76454000Y-106172000D03*
X73914000Y-108712000D03*
X73914000Y-106172000D03*
X71374000Y-108712000D03*
X71374000Y-106172000D03*
X68834000Y-108712000D03*
X68834000Y-106172000D03*
X66294000Y-108712000D03*
X66294000Y-106172000D03*
X63754000Y-108712000D03*
X63754000Y-106172000D03*
X61214000Y-108712000D03*
X61214000Y-106172000D03*
X58674000Y-108712000D03*
X58674000Y-106172000D03*
X56134000Y-108712000D03*
X56134000Y-106172000D03*
X53594000Y-108712000D03*
X53594000Y-106172000D03*
X51054000Y-108712000D03*
X51054000Y-106172000D03*
X48514000Y-108712000D03*
X48514000Y-106172000D03*
X45974000Y-108712000D03*
X45974000Y-106172000D03*
X43434000Y-108712000D03*
X43434000Y-106172000D03*
X40894000Y-108712000D03*
X40894000Y-106172000D03*
X38354000Y-108712000D03*
X38354000Y-106172000D03*
X35814000Y-108712000D03*
X35814000Y-106172000D03*
X33274000Y-108712000D03*
X33274000Y-106172000D03*
X30734000Y-108712000D03*
X30734000Y-106172000D03*
X28194000Y-108712000D03*
X28194000Y-106172000D03*
X25654000Y-108712000D03*
X25654000Y-106172000D03*
X23114000Y-108712000D03*
X23114000Y-106172000D03*
X20574000Y-108712000D03*
X20574000Y-106172000D03*
X18034000Y-108712000D03*
X18034000Y-106172000D03*
X15494000Y-108712000D03*
X15494000Y-106172000D03*
X12954000Y-108712000D03*
D10*
X12954000Y-106172000D03*
D11*
X112014000Y-113792000D03*
X112014000Y-111252000D03*
X109474000Y-113792000D03*
X109474000Y-111252000D03*
X106934000Y-113792000D03*
X106934000Y-111252000D03*
X104394000Y-113792000D03*
X104394000Y-111252000D03*
X101854000Y-113792000D03*
X101854000Y-111252000D03*
X99314000Y-113792000D03*
X99314000Y-111252000D03*
X96774000Y-113792000D03*
X96774000Y-111252000D03*
X94234000Y-113792000D03*
X94234000Y-111252000D03*
X91694000Y-113792000D03*
X91694000Y-111252000D03*
X89154000Y-113792000D03*
X89154000Y-111252000D03*
X86614000Y-113792000D03*
X86614000Y-111252000D03*
X84074000Y-113792000D03*
X84074000Y-111252000D03*
X81534000Y-113792000D03*
X81534000Y-111252000D03*
X78994000Y-113792000D03*
X78994000Y-111252000D03*
X76454000Y-113792000D03*
X76454000Y-111252000D03*
X73914000Y-113792000D03*
X73914000Y-111252000D03*
X71374000Y-113792000D03*
X71374000Y-111252000D03*
X68834000Y-113792000D03*
X68834000Y-111252000D03*
X66294000Y-113792000D03*
X66294000Y-111252000D03*
X63754000Y-113792000D03*
X63754000Y-111252000D03*
X61214000Y-113792000D03*
X61214000Y-111252000D03*
X58674000Y-113792000D03*
X58674000Y-111252000D03*
X56134000Y-113792000D03*
X56134000Y-111252000D03*
X53594000Y-113792000D03*
X53594000Y-111252000D03*
X51054000Y-113792000D03*
X51054000Y-111252000D03*
X48514000Y-113792000D03*
X48514000Y-111252000D03*
X45974000Y-113792000D03*
X45974000Y-111252000D03*
X43434000Y-113792000D03*
X43434000Y-111252000D03*
X40894000Y-113792000D03*
X40894000Y-111252000D03*
X38354000Y-113792000D03*
X38354000Y-111252000D03*
X35814000Y-113792000D03*
X35814000Y-111252000D03*
X33274000Y-113792000D03*
X33274000Y-111252000D03*
X30734000Y-113792000D03*
X30734000Y-111252000D03*
X28194000Y-113792000D03*
X28194000Y-111252000D03*
X25654000Y-113792000D03*
X25654000Y-111252000D03*
X23114000Y-113792000D03*
X23114000Y-111252000D03*
X20574000Y-113792000D03*
X20574000Y-111252000D03*
X18034000Y-113792000D03*
X18034000Y-111252000D03*
X15494000Y-113792000D03*
X15494000Y-111252000D03*
X12954000Y-113792000D03*
D10*
X12954000Y-111252000D03*
X12954000Y-116332000D03*
D11*
X12954000Y-118872000D03*
X15494000Y-116332000D03*
X15494000Y-118872000D03*
X18034000Y-116332000D03*
X18034000Y-118872000D03*
X20574000Y-116332000D03*
X20574000Y-118872000D03*
X23114000Y-116332000D03*
X23114000Y-118872000D03*
X25654000Y-116332000D03*
X25654000Y-118872000D03*
X28194000Y-116332000D03*
X28194000Y-118872000D03*
X30734000Y-116332000D03*
X30734000Y-118872000D03*
X33274000Y-116332000D03*
X33274000Y-118872000D03*
X35814000Y-116332000D03*
X35814000Y-118872000D03*
X38354000Y-116332000D03*
X38354000Y-118872000D03*
X40894000Y-116332000D03*
X40894000Y-118872000D03*
X43434000Y-116332000D03*
X43434000Y-118872000D03*
X45974000Y-116332000D03*
X45974000Y-118872000D03*
X48514000Y-116332000D03*
X48514000Y-118872000D03*
X51054000Y-116332000D03*
X51054000Y-118872000D03*
X53594000Y-116332000D03*
X53594000Y-118872000D03*
X56134000Y-116332000D03*
X56134000Y-118872000D03*
X58674000Y-116332000D03*
X58674000Y-118872000D03*
X61214000Y-116332000D03*
X61214000Y-118872000D03*
X63754000Y-116332000D03*
X63754000Y-118872000D03*
X66294000Y-116332000D03*
X66294000Y-118872000D03*
X68834000Y-116332000D03*
X68834000Y-118872000D03*
X71374000Y-116332000D03*
X71374000Y-118872000D03*
X73914000Y-116332000D03*
X73914000Y-118872000D03*
X76454000Y-116332000D03*
X76454000Y-118872000D03*
X78994000Y-116332000D03*
X78994000Y-118872000D03*
X81534000Y-116332000D03*
X81534000Y-118872000D03*
X84074000Y-116332000D03*
X84074000Y-118872000D03*
X86614000Y-116332000D03*
X86614000Y-118872000D03*
X89154000Y-116332000D03*
X89154000Y-118872000D03*
X91694000Y-116332000D03*
X91694000Y-118872000D03*
X94234000Y-116332000D03*
X94234000Y-118872000D03*
X96774000Y-116332000D03*
X96774000Y-118872000D03*
X99314000Y-116332000D03*
X99314000Y-118872000D03*
X101854000Y-116332000D03*
X101854000Y-118872000D03*
X104394000Y-116332000D03*
X104394000Y-118872000D03*
X106934000Y-116332000D03*
X106934000Y-118872000D03*
X109474000Y-116332000D03*
X109474000Y-118872000D03*
X112014000Y-116332000D03*
X112014000Y-118872000D03*
X213614000Y-108712000D03*
X213614000Y-106172000D03*
X211074000Y-108712000D03*
X211074000Y-106172000D03*
X208534000Y-108712000D03*
X208534000Y-106172000D03*
X205994000Y-108712000D03*
X205994000Y-106172000D03*
X203454000Y-108712000D03*
X203454000Y-106172000D03*
X200914000Y-108712000D03*
X200914000Y-106172000D03*
X198374000Y-108712000D03*
X198374000Y-106172000D03*
X195834000Y-108712000D03*
X195834000Y-106172000D03*
X193294000Y-108712000D03*
X193294000Y-106172000D03*
X190754000Y-108712000D03*
X190754000Y-106172000D03*
X188214000Y-108712000D03*
X188214000Y-106172000D03*
X185674000Y-108712000D03*
X185674000Y-106172000D03*
X183134000Y-108712000D03*
X183134000Y-106172000D03*
X180594000Y-108712000D03*
X180594000Y-106172000D03*
X178054000Y-108712000D03*
X178054000Y-106172000D03*
X175514000Y-108712000D03*
X175514000Y-106172000D03*
X172974000Y-108712000D03*
X172974000Y-106172000D03*
X170434000Y-108712000D03*
X170434000Y-106172000D03*
X167894000Y-108712000D03*
X167894000Y-106172000D03*
X165354000Y-108712000D03*
X165354000Y-106172000D03*
X162814000Y-108712000D03*
X162814000Y-106172000D03*
X160274000Y-108712000D03*
X160274000Y-106172000D03*
X157734000Y-108712000D03*
X157734000Y-106172000D03*
X155194000Y-108712000D03*
X155194000Y-106172000D03*
X152654000Y-108712000D03*
X152654000Y-106172000D03*
X150114000Y-108712000D03*
X150114000Y-106172000D03*
X147574000Y-108712000D03*
X147574000Y-106172000D03*
X145034000Y-108712000D03*
X145034000Y-106172000D03*
X142494000Y-108712000D03*
X142494000Y-106172000D03*
X139954000Y-108712000D03*
X139954000Y-106172000D03*
X137414000Y-108712000D03*
X137414000Y-106172000D03*
X134874000Y-108712000D03*
X134874000Y-106172000D03*
X132334000Y-108712000D03*
X132334000Y-106172000D03*
X129794000Y-108712000D03*
X129794000Y-106172000D03*
X127254000Y-108712000D03*
X127254000Y-106172000D03*
X124714000Y-108712000D03*
X124714000Y-106172000D03*
X122174000Y-108712000D03*
X122174000Y-106172000D03*
X119634000Y-108712000D03*
X119634000Y-106172000D03*
X117094000Y-108712000D03*
X117094000Y-106172000D03*
X114554000Y-108712000D03*
D10*
X114554000Y-106172000D03*
X114554000Y-116332000D03*
D11*
X114554000Y-118872000D03*
X117094000Y-116332000D03*
X117094000Y-118872000D03*
X119634000Y-116332000D03*
X119634000Y-118872000D03*
X122174000Y-116332000D03*
X122174000Y-118872000D03*
X124714000Y-116332000D03*
X124714000Y-118872000D03*
X127254000Y-116332000D03*
X127254000Y-118872000D03*
X129794000Y-116332000D03*
X129794000Y-118872000D03*
X132334000Y-116332000D03*
X132334000Y-118872000D03*
X134874000Y-116332000D03*
X134874000Y-118872000D03*
X137414000Y-116332000D03*
X137414000Y-118872000D03*
X139954000Y-116332000D03*
X139954000Y-118872000D03*
X142494000Y-116332000D03*
X142494000Y-118872000D03*
X145034000Y-116332000D03*
X145034000Y-118872000D03*
X147574000Y-116332000D03*
X147574000Y-118872000D03*
X150114000Y-116332000D03*
X150114000Y-118872000D03*
X152654000Y-116332000D03*
X152654000Y-118872000D03*
X155194000Y-116332000D03*
X155194000Y-118872000D03*
X157734000Y-116332000D03*
X157734000Y-118872000D03*
X160274000Y-116332000D03*
X160274000Y-118872000D03*
X162814000Y-116332000D03*
X162814000Y-118872000D03*
X165354000Y-116332000D03*
X165354000Y-118872000D03*
X167894000Y-116332000D03*
X167894000Y-118872000D03*
X170434000Y-116332000D03*
X170434000Y-118872000D03*
X172974000Y-116332000D03*
X172974000Y-118872000D03*
X175514000Y-116332000D03*
X175514000Y-118872000D03*
X178054000Y-116332000D03*
X178054000Y-118872000D03*
X180594000Y-116332000D03*
X180594000Y-118872000D03*
X183134000Y-116332000D03*
X183134000Y-118872000D03*
X185674000Y-116332000D03*
X185674000Y-118872000D03*
X188214000Y-116332000D03*
X188214000Y-118872000D03*
X190754000Y-116332000D03*
X190754000Y-118872000D03*
X193294000Y-116332000D03*
X193294000Y-118872000D03*
X195834000Y-116332000D03*
X195834000Y-118872000D03*
X198374000Y-116332000D03*
X198374000Y-118872000D03*
X200914000Y-116332000D03*
X200914000Y-118872000D03*
X203454000Y-116332000D03*
X203454000Y-118872000D03*
X205994000Y-116332000D03*
X205994000Y-118872000D03*
X208534000Y-116332000D03*
X208534000Y-118872000D03*
X211074000Y-116332000D03*
X211074000Y-118872000D03*
X213614000Y-116332000D03*
X213614000Y-118872000D03*
X112014000Y-123952000D03*
X112014000Y-121412000D03*
X109474000Y-123952000D03*
X109474000Y-121412000D03*
X106934000Y-123952000D03*
X106934000Y-121412000D03*
X104394000Y-123952000D03*
X104394000Y-121412000D03*
X101854000Y-123952000D03*
X101854000Y-121412000D03*
X99314000Y-123952000D03*
X99314000Y-121412000D03*
X96774000Y-123952000D03*
X96774000Y-121412000D03*
X94234000Y-123952000D03*
X94234000Y-121412000D03*
X91694000Y-123952000D03*
X91694000Y-121412000D03*
X89154000Y-123952000D03*
X89154000Y-121412000D03*
X86614000Y-123952000D03*
X86614000Y-121412000D03*
X84074000Y-123952000D03*
X84074000Y-121412000D03*
X81534000Y-123952000D03*
X81534000Y-121412000D03*
X78994000Y-123952000D03*
X78994000Y-121412000D03*
X76454000Y-123952000D03*
X76454000Y-121412000D03*
X73914000Y-123952000D03*
X73914000Y-121412000D03*
X71374000Y-123952000D03*
X71374000Y-121412000D03*
X68834000Y-123952000D03*
X68834000Y-121412000D03*
X66294000Y-123952000D03*
X66294000Y-121412000D03*
X63754000Y-123952000D03*
X63754000Y-121412000D03*
X61214000Y-123952000D03*
X61214000Y-121412000D03*
X58674000Y-123952000D03*
X58674000Y-121412000D03*
X56134000Y-123952000D03*
X56134000Y-121412000D03*
X53594000Y-123952000D03*
X53594000Y-121412000D03*
X51054000Y-123952000D03*
X51054000Y-121412000D03*
X48514000Y-123952000D03*
X48514000Y-121412000D03*
X45974000Y-123952000D03*
X45974000Y-121412000D03*
X43434000Y-123952000D03*
X43434000Y-121412000D03*
X40894000Y-123952000D03*
X40894000Y-121412000D03*
X38354000Y-123952000D03*
X38354000Y-121412000D03*
X35814000Y-123952000D03*
X35814000Y-121412000D03*
X33274000Y-123952000D03*
X33274000Y-121412000D03*
X30734000Y-123952000D03*
X30734000Y-121412000D03*
X28194000Y-123952000D03*
X28194000Y-121412000D03*
X25654000Y-123952000D03*
X25654000Y-121412000D03*
X23114000Y-123952000D03*
X23114000Y-121412000D03*
X20574000Y-123952000D03*
X20574000Y-121412000D03*
X18034000Y-123952000D03*
X18034000Y-121412000D03*
X15494000Y-123952000D03*
X15494000Y-121412000D03*
X12954000Y-123952000D03*
D10*
X12954000Y-121412000D03*
D11*
X213614000Y-129032000D03*
X213614000Y-126492000D03*
X211074000Y-129032000D03*
X211074000Y-126492000D03*
X208534000Y-129032000D03*
X208534000Y-126492000D03*
X205994000Y-129032000D03*
X205994000Y-126492000D03*
X203454000Y-129032000D03*
X203454000Y-126492000D03*
X200914000Y-129032000D03*
X200914000Y-126492000D03*
X198374000Y-129032000D03*
X198374000Y-126492000D03*
X195834000Y-129032000D03*
X195834000Y-126492000D03*
X193294000Y-129032000D03*
X193294000Y-126492000D03*
X190754000Y-129032000D03*
X190754000Y-126492000D03*
X188214000Y-129032000D03*
X188214000Y-126492000D03*
X185674000Y-129032000D03*
X185674000Y-126492000D03*
X183134000Y-129032000D03*
X183134000Y-126492000D03*
X180594000Y-129032000D03*
X180594000Y-126492000D03*
X178054000Y-129032000D03*
X178054000Y-126492000D03*
X175514000Y-129032000D03*
X175514000Y-126492000D03*
X172974000Y-129032000D03*
X172974000Y-126492000D03*
X170434000Y-129032000D03*
X170434000Y-126492000D03*
X167894000Y-129032000D03*
X167894000Y-126492000D03*
X165354000Y-129032000D03*
X165354000Y-126492000D03*
X162814000Y-129032000D03*
X162814000Y-126492000D03*
X160274000Y-129032000D03*
X160274000Y-126492000D03*
X157734000Y-129032000D03*
X157734000Y-126492000D03*
X155194000Y-129032000D03*
X155194000Y-126492000D03*
X152654000Y-129032000D03*
X152654000Y-126492000D03*
X150114000Y-129032000D03*
X150114000Y-126492000D03*
X147574000Y-129032000D03*
X147574000Y-126492000D03*
X145034000Y-129032000D03*
X145034000Y-126492000D03*
X142494000Y-129032000D03*
X142494000Y-126492000D03*
X139954000Y-129032000D03*
X139954000Y-126492000D03*
X137414000Y-129032000D03*
X137414000Y-126492000D03*
X134874000Y-129032000D03*
X134874000Y-126492000D03*
X132334000Y-129032000D03*
X132334000Y-126492000D03*
X129794000Y-129032000D03*
X129794000Y-126492000D03*
X127254000Y-129032000D03*
X127254000Y-126492000D03*
X124714000Y-129032000D03*
X124714000Y-126492000D03*
X122174000Y-129032000D03*
X122174000Y-126492000D03*
X119634000Y-129032000D03*
X119634000Y-126492000D03*
X117094000Y-129032000D03*
X117094000Y-126492000D03*
X114554000Y-129032000D03*
D10*
X114554000Y-126492000D03*
D11*
X213614000Y-123952000D03*
X213614000Y-121412000D03*
X211074000Y-123952000D03*
X211074000Y-121412000D03*
X208534000Y-123952000D03*
X208534000Y-121412000D03*
X205994000Y-123952000D03*
X205994000Y-121412000D03*
X203454000Y-123952000D03*
X203454000Y-121412000D03*
X200914000Y-123952000D03*
X200914000Y-121412000D03*
X198374000Y-123952000D03*
X198374000Y-121412000D03*
X195834000Y-123952000D03*
X195834000Y-121412000D03*
X193294000Y-123952000D03*
X193294000Y-121412000D03*
X190754000Y-123952000D03*
X190754000Y-121412000D03*
X188214000Y-123952000D03*
X188214000Y-121412000D03*
X185674000Y-123952000D03*
X185674000Y-121412000D03*
X183134000Y-123952000D03*
X183134000Y-121412000D03*
X180594000Y-123952000D03*
X180594000Y-121412000D03*
X178054000Y-123952000D03*
X178054000Y-121412000D03*
X175514000Y-123952000D03*
X175514000Y-121412000D03*
X172974000Y-123952000D03*
X172974000Y-121412000D03*
X170434000Y-123952000D03*
X170434000Y-121412000D03*
X167894000Y-123952000D03*
X167894000Y-121412000D03*
X165354000Y-123952000D03*
X165354000Y-121412000D03*
X162814000Y-123952000D03*
X162814000Y-121412000D03*
X160274000Y-123952000D03*
X160274000Y-121412000D03*
X157734000Y-123952000D03*
X157734000Y-121412000D03*
X155194000Y-123952000D03*
X155194000Y-121412000D03*
X152654000Y-123952000D03*
X152654000Y-121412000D03*
X150114000Y-123952000D03*
X150114000Y-121412000D03*
X147574000Y-123952000D03*
X147574000Y-121412000D03*
X145034000Y-123952000D03*
X145034000Y-121412000D03*
X142494000Y-123952000D03*
X142494000Y-121412000D03*
X139954000Y-123952000D03*
X139954000Y-121412000D03*
X137414000Y-123952000D03*
X137414000Y-121412000D03*
X134874000Y-123952000D03*
X134874000Y-121412000D03*
X132334000Y-123952000D03*
X132334000Y-121412000D03*
X129794000Y-123952000D03*
X129794000Y-121412000D03*
X127254000Y-123952000D03*
X127254000Y-121412000D03*
X124714000Y-123952000D03*
X124714000Y-121412000D03*
X122174000Y-123952000D03*
X122174000Y-121412000D03*
X119634000Y-123952000D03*
X119634000Y-121412000D03*
X117094000Y-123952000D03*
X117094000Y-121412000D03*
X114554000Y-123952000D03*
D10*
X114554000Y-121412000D03*
D11*
X112014000Y-129032000D03*
X112014000Y-126492000D03*
X109474000Y-129032000D03*
X109474000Y-126492000D03*
X106934000Y-129032000D03*
X106934000Y-126492000D03*
X104394000Y-129032000D03*
X104394000Y-126492000D03*
X101854000Y-129032000D03*
X101854000Y-126492000D03*
X99314000Y-129032000D03*
X99314000Y-126492000D03*
X96774000Y-129032000D03*
X96774000Y-126492000D03*
X94234000Y-129032000D03*
X94234000Y-126492000D03*
X91694000Y-129032000D03*
X91694000Y-126492000D03*
X89154000Y-129032000D03*
X89154000Y-126492000D03*
X86614000Y-129032000D03*
X86614000Y-126492000D03*
X84074000Y-129032000D03*
X84074000Y-126492000D03*
X81534000Y-129032000D03*
X81534000Y-126492000D03*
X78994000Y-129032000D03*
X78994000Y-126492000D03*
X76454000Y-129032000D03*
X76454000Y-126492000D03*
X73914000Y-129032000D03*
X73914000Y-126492000D03*
X71374000Y-129032000D03*
X71374000Y-126492000D03*
X68834000Y-129032000D03*
X68834000Y-126492000D03*
X66294000Y-129032000D03*
X66294000Y-126492000D03*
X63754000Y-129032000D03*
X63754000Y-126492000D03*
X61214000Y-129032000D03*
X61214000Y-126492000D03*
X58674000Y-129032000D03*
X58674000Y-126492000D03*
X56134000Y-129032000D03*
X56134000Y-126492000D03*
X53594000Y-129032000D03*
X53594000Y-126492000D03*
X51054000Y-129032000D03*
X51054000Y-126492000D03*
X48514000Y-129032000D03*
X48514000Y-126492000D03*
X45974000Y-129032000D03*
X45974000Y-126492000D03*
X43434000Y-129032000D03*
X43434000Y-126492000D03*
X40894000Y-129032000D03*
X40894000Y-126492000D03*
X38354000Y-129032000D03*
X38354000Y-126492000D03*
X35814000Y-129032000D03*
X35814000Y-126492000D03*
X33274000Y-129032000D03*
X33274000Y-126492000D03*
X30734000Y-129032000D03*
X30734000Y-126492000D03*
X28194000Y-129032000D03*
X28194000Y-126492000D03*
X25654000Y-129032000D03*
X25654000Y-126492000D03*
X23114000Y-129032000D03*
X23114000Y-126492000D03*
X20574000Y-129032000D03*
X20574000Y-126492000D03*
X18034000Y-129032000D03*
X18034000Y-126492000D03*
X15494000Y-129032000D03*
X15494000Y-126492000D03*
X12954000Y-129032000D03*
D10*
X12954000Y-126492000D03*
X114554000Y-131572000D03*
D11*
X114554000Y-134112000D03*
X117094000Y-131572000D03*
X117094000Y-134112000D03*
X119634000Y-131572000D03*
X119634000Y-134112000D03*
X122174000Y-131572000D03*
X122174000Y-134112000D03*
X124714000Y-131572000D03*
X124714000Y-134112000D03*
X127254000Y-131572000D03*
X127254000Y-134112000D03*
X129794000Y-131572000D03*
X129794000Y-134112000D03*
X132334000Y-131572000D03*
X132334000Y-134112000D03*
X134874000Y-131572000D03*
X134874000Y-134112000D03*
X137414000Y-131572000D03*
X137414000Y-134112000D03*
X139954000Y-131572000D03*
X139954000Y-134112000D03*
X142494000Y-131572000D03*
X142494000Y-134112000D03*
X145034000Y-131572000D03*
X145034000Y-134112000D03*
X147574000Y-131572000D03*
X147574000Y-134112000D03*
X150114000Y-131572000D03*
X150114000Y-134112000D03*
X152654000Y-131572000D03*
X152654000Y-134112000D03*
X155194000Y-131572000D03*
X155194000Y-134112000D03*
X157734000Y-131572000D03*
X157734000Y-134112000D03*
X160274000Y-131572000D03*
X160274000Y-134112000D03*
X162814000Y-131572000D03*
X162814000Y-134112000D03*
X165354000Y-131572000D03*
X165354000Y-134112000D03*
X167894000Y-131572000D03*
X167894000Y-134112000D03*
X170434000Y-131572000D03*
X170434000Y-134112000D03*
X172974000Y-131572000D03*
X172974000Y-134112000D03*
X175514000Y-131572000D03*
X175514000Y-134112000D03*
X178054000Y-131572000D03*
X178054000Y-134112000D03*
X180594000Y-131572000D03*
X180594000Y-134112000D03*
X183134000Y-131572000D03*
X183134000Y-134112000D03*
X185674000Y-131572000D03*
X185674000Y-134112000D03*
X188214000Y-131572000D03*
X188214000Y-134112000D03*
X190754000Y-131572000D03*
X190754000Y-134112000D03*
X193294000Y-131572000D03*
X193294000Y-134112000D03*
X195834000Y-131572000D03*
X195834000Y-134112000D03*
X198374000Y-131572000D03*
X198374000Y-134112000D03*
X200914000Y-131572000D03*
X200914000Y-134112000D03*
X203454000Y-131572000D03*
X203454000Y-134112000D03*
X205994000Y-131572000D03*
X205994000Y-134112000D03*
X208534000Y-131572000D03*
X208534000Y-134112000D03*
X211074000Y-131572000D03*
X211074000Y-134112000D03*
X213614000Y-131572000D03*
X213614000Y-134112000D03*
D10*
X12954000Y-131572000D03*
D11*
X12954000Y-134112000D03*
X15494000Y-131572000D03*
X15494000Y-134112000D03*
X18034000Y-131572000D03*
X18034000Y-134112000D03*
X20574000Y-131572000D03*
X20574000Y-134112000D03*
X23114000Y-131572000D03*
X23114000Y-134112000D03*
X25654000Y-131572000D03*
X25654000Y-134112000D03*
X28194000Y-131572000D03*
X28194000Y-134112000D03*
X30734000Y-131572000D03*
X30734000Y-134112000D03*
X33274000Y-131572000D03*
X33274000Y-134112000D03*
X35814000Y-131572000D03*
X35814000Y-134112000D03*
X38354000Y-131572000D03*
X38354000Y-134112000D03*
X40894000Y-131572000D03*
X40894000Y-134112000D03*
X43434000Y-131572000D03*
X43434000Y-134112000D03*
X45974000Y-131572000D03*
X45974000Y-134112000D03*
X48514000Y-131572000D03*
X48514000Y-134112000D03*
X51054000Y-131572000D03*
X51054000Y-134112000D03*
X53594000Y-131572000D03*
X53594000Y-134112000D03*
X56134000Y-131572000D03*
X56134000Y-134112000D03*
X58674000Y-131572000D03*
X58674000Y-134112000D03*
X61214000Y-131572000D03*
X61214000Y-134112000D03*
X63754000Y-131572000D03*
X63754000Y-134112000D03*
X66294000Y-131572000D03*
X66294000Y-134112000D03*
X68834000Y-131572000D03*
X68834000Y-134112000D03*
X71374000Y-131572000D03*
X71374000Y-134112000D03*
X73914000Y-131572000D03*
X73914000Y-134112000D03*
X76454000Y-131572000D03*
X76454000Y-134112000D03*
X78994000Y-131572000D03*
X78994000Y-134112000D03*
X81534000Y-131572000D03*
X81534000Y-134112000D03*
X84074000Y-131572000D03*
X84074000Y-134112000D03*
X86614000Y-131572000D03*
X86614000Y-134112000D03*
X89154000Y-131572000D03*
X89154000Y-134112000D03*
X91694000Y-131572000D03*
X91694000Y-134112000D03*
X94234000Y-131572000D03*
X94234000Y-134112000D03*
X96774000Y-131572000D03*
X96774000Y-134112000D03*
X99314000Y-131572000D03*
X99314000Y-134112000D03*
X101854000Y-131572000D03*
X101854000Y-134112000D03*
X104394000Y-131572000D03*
X104394000Y-134112000D03*
X106934000Y-131572000D03*
X106934000Y-134112000D03*
X109474000Y-131572000D03*
X109474000Y-134112000D03*
X112014000Y-131572000D03*
X112014000Y-134112000D03*
D10*
X114554000Y-136652000D03*
D11*
X114554000Y-139192000D03*
X117094000Y-136652000D03*
X117094000Y-139192000D03*
X119634000Y-136652000D03*
X119634000Y-139192000D03*
X122174000Y-136652000D03*
X122174000Y-139192000D03*
X124714000Y-136652000D03*
X124714000Y-139192000D03*
X127254000Y-136652000D03*
X127254000Y-139192000D03*
X129794000Y-136652000D03*
X129794000Y-139192000D03*
X132334000Y-136652000D03*
X132334000Y-139192000D03*
X134874000Y-136652000D03*
X134874000Y-139192000D03*
X137414000Y-136652000D03*
X137414000Y-139192000D03*
X139954000Y-136652000D03*
X139954000Y-139192000D03*
X142494000Y-136652000D03*
X142494000Y-139192000D03*
X145034000Y-136652000D03*
X145034000Y-139192000D03*
X147574000Y-136652000D03*
X147574000Y-139192000D03*
X150114000Y-136652000D03*
X150114000Y-139192000D03*
X152654000Y-136652000D03*
X152654000Y-139192000D03*
X155194000Y-136652000D03*
X155194000Y-139192000D03*
X157734000Y-136652000D03*
X157734000Y-139192000D03*
X160274000Y-136652000D03*
X160274000Y-139192000D03*
X162814000Y-136652000D03*
X162814000Y-139192000D03*
X165354000Y-136652000D03*
X165354000Y-139192000D03*
X167894000Y-136652000D03*
X167894000Y-139192000D03*
X170434000Y-136652000D03*
X170434000Y-139192000D03*
X172974000Y-136652000D03*
X172974000Y-139192000D03*
X175514000Y-136652000D03*
X175514000Y-139192000D03*
X178054000Y-136652000D03*
X178054000Y-139192000D03*
X180594000Y-136652000D03*
X180594000Y-139192000D03*
X183134000Y-136652000D03*
X183134000Y-139192000D03*
X185674000Y-136652000D03*
X185674000Y-139192000D03*
X188214000Y-136652000D03*
X188214000Y-139192000D03*
X190754000Y-136652000D03*
X190754000Y-139192000D03*
X193294000Y-136652000D03*
X193294000Y-139192000D03*
X195834000Y-136652000D03*
X195834000Y-139192000D03*
X198374000Y-136652000D03*
X198374000Y-139192000D03*
X200914000Y-136652000D03*
X200914000Y-139192000D03*
X203454000Y-136652000D03*
X203454000Y-139192000D03*
X205994000Y-136652000D03*
X205994000Y-139192000D03*
X208534000Y-136652000D03*
X208534000Y-139192000D03*
X211074000Y-136652000D03*
X211074000Y-139192000D03*
X213614000Y-136652000D03*
X213614000Y-139192000D03*
D10*
X12954000Y-136652000D03*
D11*
X12954000Y-139192000D03*
X15494000Y-136652000D03*
X15494000Y-139192000D03*
X18034000Y-136652000D03*
X18034000Y-139192000D03*
X20574000Y-136652000D03*
X20574000Y-139192000D03*
X23114000Y-136652000D03*
X23114000Y-139192000D03*
X25654000Y-136652000D03*
X25654000Y-139192000D03*
X28194000Y-136652000D03*
X28194000Y-139192000D03*
X30734000Y-136652000D03*
X30734000Y-139192000D03*
X33274000Y-136652000D03*
X33274000Y-139192000D03*
X35814000Y-136652000D03*
X35814000Y-139192000D03*
X38354000Y-136652000D03*
X38354000Y-139192000D03*
X40894000Y-136652000D03*
X40894000Y-139192000D03*
X43434000Y-136652000D03*
X43434000Y-139192000D03*
X45974000Y-136652000D03*
X45974000Y-139192000D03*
X48514000Y-136652000D03*
X48514000Y-139192000D03*
X51054000Y-136652000D03*
X51054000Y-139192000D03*
X53594000Y-136652000D03*
X53594000Y-139192000D03*
X56134000Y-136652000D03*
X56134000Y-139192000D03*
X58674000Y-136652000D03*
X58674000Y-139192000D03*
X61214000Y-136652000D03*
X61214000Y-139192000D03*
X63754000Y-136652000D03*
X63754000Y-139192000D03*
X66294000Y-136652000D03*
X66294000Y-139192000D03*
X68834000Y-136652000D03*
X68834000Y-139192000D03*
X71374000Y-136652000D03*
X71374000Y-139192000D03*
X73914000Y-136652000D03*
X73914000Y-139192000D03*
X76454000Y-136652000D03*
X76454000Y-139192000D03*
X78994000Y-136652000D03*
X78994000Y-139192000D03*
X81534000Y-136652000D03*
X81534000Y-139192000D03*
X84074000Y-136652000D03*
X84074000Y-139192000D03*
X86614000Y-136652000D03*
X86614000Y-139192000D03*
X89154000Y-136652000D03*
X89154000Y-139192000D03*
X91694000Y-136652000D03*
X91694000Y-139192000D03*
X94234000Y-136652000D03*
X94234000Y-139192000D03*
X96774000Y-136652000D03*
X96774000Y-139192000D03*
X99314000Y-136652000D03*
X99314000Y-139192000D03*
X101854000Y-136652000D03*
X101854000Y-139192000D03*
X104394000Y-136652000D03*
X104394000Y-139192000D03*
X106934000Y-136652000D03*
X106934000Y-139192000D03*
X109474000Y-136652000D03*
X109474000Y-139192000D03*
X112014000Y-136652000D03*
X112014000Y-139192000D03*
D12*
X24135000Y-22860000D03*
D13*
X24135000Y-25400000D03*
D10*
X225298000Y-37592000D03*
D11*
X225298000Y-35052000D03*
D10*
X13965000Y-65278000D03*
D11*
X16505000Y-65278000D03*
D14*
X45506000Y-44958000D03*
X50506000Y-44958000D03*
D15*
X18308000Y-13391500D03*
D14*
X20808000Y-13391500D03*
X20808000Y-11391500D03*
X18308000Y-11391500D03*
D16*
X13558000Y-8531500D03*
X25558000Y-8531500D03*
D15*
X176271000Y-47498000D03*
D17*
X178811000Y-47498000D03*
X181351000Y-47498000D03*
X183891000Y-47498000D03*
X186431000Y-47498000D03*
X188971000Y-47498000D03*
X191511000Y-47498000D03*
X191511000Y-39878000D03*
X188971000Y-39878000D03*
X186431000Y-39878000D03*
X183891000Y-39878000D03*
X181351000Y-39878000D03*
X178811000Y-39878000D03*
X176271000Y-39878000D03*
D10*
X50546000Y-41656000D03*
D11*
X48006000Y-41656000D03*
X45466000Y-41656000D03*
D10*
X225298000Y-42941000D03*
D11*
X225298000Y-45481000D03*
X225298000Y-48021000D03*
D14*
X39756000Y-22733000D03*
D17*
X39756000Y-32893000D03*
D15*
X71189900Y-22850000D03*
D14*
X73689900Y-22850000D03*
X33406000Y-22733000D03*
D17*
X33406000Y-32893000D03*
D15*
X81793000Y-100828000D03*
D17*
X84333000Y-100828000D03*
X86873000Y-100828000D03*
X89413000Y-100828000D03*
X91953000Y-100828000D03*
X94493000Y-100828000D03*
X97033000Y-100828000D03*
X99573000Y-100828000D03*
X102113000Y-100828000D03*
X104653000Y-100828000D03*
X104653000Y-93208000D03*
X102113000Y-93208000D03*
X99573000Y-93208000D03*
X97033000Y-93208000D03*
X94493000Y-93208000D03*
X91953000Y-93208000D03*
X89413000Y-93208000D03*
X86873000Y-93208000D03*
X84333000Y-93208000D03*
X81793000Y-93208000D03*
D15*
X170947000Y-66030000D03*
D17*
X173487000Y-66030000D03*
X176027000Y-66030000D03*
X178567000Y-66030000D03*
X181107000Y-66030000D03*
X183647000Y-66030000D03*
X186187000Y-66030000D03*
X188727000Y-66030000D03*
X191267000Y-66030000D03*
X193807000Y-66030000D03*
X193807000Y-58410000D03*
X191267000Y-58410000D03*
X188727000Y-58410000D03*
X186187000Y-58410000D03*
X183647000Y-58410000D03*
X181107000Y-58410000D03*
X178567000Y-58410000D03*
X176027000Y-58410000D03*
X173487000Y-58410000D03*
X170947000Y-58410000D03*
D15*
X109474000Y-66040000D03*
D17*
X112014000Y-66040000D03*
X114554000Y-66040000D03*
X117094000Y-66040000D03*
X119634000Y-66040000D03*
X122174000Y-66040000D03*
X124714000Y-66040000D03*
X127254000Y-66040000D03*
X129794000Y-66040000D03*
X132334000Y-66040000D03*
X132334000Y-58420000D03*
X129794000Y-58420000D03*
X127254000Y-58420000D03*
X124714000Y-58420000D03*
X122174000Y-58420000D03*
X119634000Y-58420000D03*
X117094000Y-58420000D03*
X114554000Y-58420000D03*
X112014000Y-58420000D03*
X109474000Y-58420000D03*
D15*
X47757000Y-101082000D03*
D17*
X50297000Y-101082000D03*
X52837000Y-101082000D03*
X55377000Y-101082000D03*
X57917000Y-101082000D03*
X60457000Y-101082000D03*
X62997000Y-101082000D03*
X65537000Y-101082000D03*
X68077000Y-101082000D03*
X70617000Y-101082000D03*
X70617000Y-93462000D03*
X68077000Y-93462000D03*
X65537000Y-93462000D03*
X62997000Y-93462000D03*
X60457000Y-93462000D03*
X57917000Y-93462000D03*
X55377000Y-93462000D03*
X52837000Y-93462000D03*
X50297000Y-93462000D03*
X47757000Y-93462000D03*
D15*
X109474000Y-45720000D03*
D17*
X112014000Y-45720000D03*
X114554000Y-45720000D03*
X117094000Y-45720000D03*
X119634000Y-45720000D03*
X122174000Y-45720000D03*
X124714000Y-45720000D03*
X127254000Y-45720000D03*
X129794000Y-45720000D03*
X132334000Y-45720000D03*
X132334000Y-38100000D03*
X129794000Y-38100000D03*
X127254000Y-38100000D03*
X124714000Y-38100000D03*
X122174000Y-38100000D03*
X119634000Y-38100000D03*
X117094000Y-38100000D03*
X114554000Y-38100000D03*
X112014000Y-38100000D03*
X109474000Y-38100000D03*
D18*
X147606000Y-20580700D03*
D19*
X165306000Y-20580700D03*
D18*
X154686000Y-20580700D03*
X163496000Y-17310700D03*
X161766000Y-20580700D03*
X158226000Y-20580700D03*
X159956000Y-17310700D03*
X156416000Y-17310700D03*
D16*
X135091000Y-8540700D03*
X174281000Y-8540700D03*
D18*
X144066000Y-20580700D03*
X152876000Y-17310700D03*
X145796000Y-17310700D03*
X151146000Y-20580700D03*
X149336000Y-17310700D03*
D20*
X112024000Y-100818000D03*
D21*
X114564000Y-100818000D03*
X117104000Y-100818000D03*
X119644000Y-100818000D03*
X122184000Y-100818000D03*
X124724000Y-100818000D03*
X127264000Y-100818000D03*
X129804000Y-100818000D03*
X132344000Y-100818000D03*
X134884000Y-100818000D03*
X137424000Y-100818000D03*
X139964000Y-100818000D03*
X142504000Y-100818000D03*
X145044000Y-100818000D03*
X145044000Y-85578000D03*
X142504000Y-85578000D03*
X139964000Y-85578000D03*
X137424000Y-85578000D03*
X134884000Y-85578000D03*
X132344000Y-85578000D03*
X129804000Y-85578000D03*
X127264000Y-85578000D03*
X124724000Y-85578000D03*
X122184000Y-85578000D03*
X119644000Y-85578000D03*
X117104000Y-85578000D03*
X114564000Y-85578000D03*
X112024000Y-85578000D03*
D15*
X48648800Y-31994000D03*
D14*
X51148800Y-31994000D03*
D22*
X28961000Y-22733000D03*
D23*
X28961000Y-24633000D03*
D15*
X62865000Y-44323000D03*
D17*
X62865000Y-46863000D03*
X62865000Y-49403000D03*
X62865000Y-51943000D03*
X62865000Y-54483000D03*
X62865000Y-57023000D03*
X62865000Y-59563000D03*
X62865000Y-62103000D03*
X62865000Y-64643000D03*
X62865000Y-67183000D03*
X62865000Y-69723000D03*
X62865000Y-72263000D03*
X62865000Y-74803000D03*
X62865000Y-77343000D03*
X62865000Y-79883000D03*
X62865000Y-82423000D03*
X78105000Y-82423000D03*
X78105000Y-79883000D03*
X78105000Y-77343000D03*
X78105000Y-74803000D03*
X78105000Y-72263000D03*
X78105000Y-69723000D03*
X78105000Y-67183000D03*
X78105000Y-64643000D03*
X78105000Y-62103000D03*
X78105000Y-59563000D03*
X78105000Y-57023000D03*
X78105000Y-54483000D03*
X78105000Y-51943000D03*
X78105000Y-49403000D03*
X78105000Y-46863000D03*
X78105000Y-44323000D03*
D15*
X216140000Y-68580000D03*
D17*
X216140000Y-58420000D03*
D15*
X56203900Y-31994000D03*
D14*
X58703900Y-31994000D03*
D16*
X125399000Y-9566300D03*
X78299000Y-9566300D03*
D15*
X85229000Y-10986300D03*
D14*
X87999000Y-10986300D03*
X90769000Y-10986300D03*
X93539000Y-10986300D03*
X96309000Y-10986300D03*
X99079000Y-10986300D03*
X101849000Y-10986300D03*
X104619000Y-10986300D03*
X107389000Y-10986300D03*
X110159000Y-10986300D03*
X112929000Y-10986300D03*
X115699000Y-10986300D03*
X118469000Y-10986300D03*
X86614000Y-8146300D03*
X89384000Y-8146300D03*
X92154000Y-8146300D03*
X94924000Y-8146300D03*
X97694000Y-8146300D03*
X100464000Y-8146300D03*
X103234000Y-8146300D03*
X106004000Y-8146300D03*
X108774000Y-8146300D03*
X111544000Y-8146300D03*
X114314000Y-8146300D03*
X117084000Y-8146300D03*
X87122000Y-44958000D03*
X92122000Y-44958000D03*
D15*
X23876000Y-44948000D03*
D17*
X26416000Y-44948000D03*
X28956000Y-44948000D03*
X31496000Y-44948000D03*
X34036000Y-44948000D03*
X36576000Y-44948000D03*
X39116000Y-44948000D03*
X39116000Y-37328000D03*
X36576000Y-37328000D03*
X34036000Y-37328000D03*
X31496000Y-37328000D03*
X28956000Y-37328000D03*
X26416000Y-37328000D03*
X23876000Y-37328000D03*
D15*
X198369000Y-47488000D03*
D17*
X200909000Y-47488000D03*
X203449000Y-47488000D03*
X205989000Y-47488000D03*
X208529000Y-47488000D03*
X211069000Y-47488000D03*
X213609000Y-47488000D03*
X213609000Y-39868000D03*
X211069000Y-39868000D03*
X208529000Y-39868000D03*
X205989000Y-39868000D03*
X203449000Y-39868000D03*
X200909000Y-39868000D03*
X198369000Y-39868000D03*
D24*
X213614000Y-30743500D03*
D25*
X213614000Y-33283500D03*
X211074000Y-30743500D03*
X211074000Y-33283500D03*
X208534000Y-30743500D03*
X208534000Y-33283500D03*
X205994000Y-30743500D03*
X205994000Y-33283500D03*
X203454000Y-30743500D03*
X203454000Y-33283500D03*
X200914000Y-30743500D03*
X200914000Y-33283500D03*
X198374000Y-30743500D03*
X198374000Y-33283500D03*
X195834000Y-30743500D03*
X195834000Y-33283500D03*
X193294000Y-30743500D03*
X193294000Y-33283500D03*
X190754000Y-30743500D03*
X190754000Y-33283500D03*
X188214000Y-30743500D03*
X188214000Y-33283500D03*
X185674000Y-30743500D03*
X185674000Y-33283500D03*
X183134000Y-30743500D03*
X183134000Y-33283500D03*
X180594000Y-30743500D03*
X180594000Y-33283500D03*
X178054000Y-30743500D03*
X178054000Y-33283500D03*
X175514000Y-30743500D03*
X175514000Y-33283500D03*
X172974000Y-30743500D03*
X172974000Y-33283500D03*
D15*
X48280000Y-26269000D03*
D17*
X50820000Y-26269000D03*
X53360000Y-26269000D03*
X55900000Y-26269000D03*
X58440000Y-26269000D03*
X60980000Y-26269000D03*
X63520000Y-26269000D03*
X66060000Y-26269000D03*
X66060000Y-18649000D03*
X63520000Y-18649000D03*
X60980000Y-18649000D03*
X58440000Y-18649000D03*
X55900000Y-18649000D03*
X53360000Y-18649000D03*
X50820000Y-18649000D03*
X48280000Y-18649000D03*
D18*
X197898000Y-20542000D03*
D19*
X215598000Y-20542000D03*
D18*
X204978000Y-20542000D03*
X213788000Y-17272000D03*
X212058000Y-20542000D03*
X208518000Y-20542000D03*
X210248000Y-17272000D03*
X206708000Y-17272000D03*
D16*
X185383000Y-8502000D03*
X224573000Y-8502000D03*
D18*
X194358000Y-20542000D03*
X203168000Y-17272000D03*
X196088000Y-17272000D03*
X199628000Y-17272000D03*
X201438000Y-20542000D03*
D14*
X95798000Y-87122000D03*
X100798000Y-87122000D03*
D10*
X13970000Y-53848000D03*
D11*
X16510000Y-53848000D03*
D14*
X203948000Y-68580000D03*
D17*
X203948000Y-58420000D03*
D14*
X29290000Y-101600000D03*
X34290000Y-101600000D03*
X72863000Y-40640000D03*
X67863000Y-40640000D03*
X197852000Y-58420000D03*
D17*
X197852000Y-68580000D03*
D10*
X225298000Y-56139000D03*
D11*
X225298000Y-58679000D03*
X225298000Y-61219000D03*
X225298000Y-63759000D03*
X225298000Y-66299000D03*
D15*
X86365000Y-26152000D03*
D17*
X88905000Y-26152000D03*
X91445000Y-26152000D03*
X93985000Y-26152000D03*
X96525000Y-26152000D03*
X99065000Y-26152000D03*
X101605000Y-26152000D03*
X104145000Y-26152000D03*
X106685000Y-26152000D03*
X109225000Y-26152000D03*
X109225000Y-18532000D03*
X106685000Y-18532000D03*
X104145000Y-18532000D03*
X101605000Y-18532000D03*
X99065000Y-18532000D03*
X96525000Y-18532000D03*
X93985000Y-18532000D03*
X91445000Y-18532000D03*
X88905000Y-18532000D03*
X86365000Y-18532000D03*
D14*
X91948000Y-87122000D03*
D17*
X81788000Y-87122000D03*
D15*
X18223100Y-92456000D03*
D14*
X15723100Y-92456000D03*
D10*
X14986000Y-17526000D03*
D11*
X17526000Y-17526000D03*
D15*
X140213000Y-45710000D03*
D17*
X142753000Y-45710000D03*
X145293000Y-45710000D03*
X147833000Y-45710000D03*
X150373000Y-45710000D03*
X152913000Y-45710000D03*
X155453000Y-45710000D03*
X157993000Y-45710000D03*
X160533000Y-45710000D03*
X163073000Y-45710000D03*
X163073000Y-38090000D03*
X160533000Y-38090000D03*
X157993000Y-38090000D03*
X155453000Y-38090000D03*
X152913000Y-38090000D03*
X150373000Y-38090000D03*
X147833000Y-38090000D03*
X145293000Y-38090000D03*
X142753000Y-38090000D03*
X140213000Y-38090000D03*
D10*
X13965000Y-85598000D03*
D11*
X16505000Y-85598000D03*
D14*
X210044000Y-68580000D03*
D17*
X210044000Y-58420000D03*
D14*
X213176000Y-68580000D03*
D17*
X213176000Y-58420000D03*
D15*
X43820000Y-49403000D03*
D17*
X43820000Y-51943000D03*
X43820000Y-54483000D03*
X43820000Y-57023000D03*
X43820000Y-59563000D03*
X43820000Y-62103000D03*
X43820000Y-64643000D03*
X43820000Y-67183000D03*
X43820000Y-69723000D03*
X43820000Y-72263000D03*
X43820000Y-74803000D03*
X43820000Y-77343000D03*
X43820000Y-79883000D03*
X43820000Y-82423000D03*
X59060000Y-82423000D03*
X59060000Y-79883000D03*
X59060000Y-77343000D03*
X59060000Y-74803000D03*
X59060000Y-72263000D03*
X59060000Y-69723000D03*
X59060000Y-67183000D03*
X59060000Y-64643000D03*
X59060000Y-62103000D03*
X59060000Y-59563000D03*
X59060000Y-57023000D03*
X59060000Y-54483000D03*
X59060000Y-51943000D03*
X59060000Y-49403000D03*
D14*
X42931000Y-22733000D03*
D17*
X42931000Y-32893000D03*
D14*
X207010000Y-68580000D03*
D17*
X207010000Y-58420000D03*
D26*
X35501500Y-11842000D03*
D27*
X35501500Y-5842000D03*
D28*
X30801500Y-8842000D03*
D15*
X81920000Y-49540000D03*
D17*
X81920000Y-52080000D03*
X81920000Y-54620000D03*
X81920000Y-57160000D03*
X81920000Y-59700000D03*
X81920000Y-62240000D03*
X81920000Y-64780000D03*
X81920000Y-67320000D03*
X81920000Y-69860000D03*
X81920000Y-72400000D03*
X81920000Y-74940000D03*
X81920000Y-77480000D03*
X81920000Y-80020000D03*
X81920000Y-82560000D03*
X97160000Y-82560000D03*
X97160000Y-80020000D03*
X97160000Y-77480000D03*
X97160000Y-74940000D03*
X97160000Y-72400000D03*
X97160000Y-69860000D03*
X97160000Y-67320000D03*
X97160000Y-64780000D03*
X97160000Y-62240000D03*
X97160000Y-59700000D03*
X97160000Y-57160000D03*
X97160000Y-54620000D03*
X97160000Y-52080000D03*
X97160000Y-49540000D03*
D15*
X63888800Y-31994000D03*
D14*
X66388800Y-31994000D03*
D15*
X23876000Y-49408000D03*
D17*
X23876000Y-51948000D03*
X23876000Y-54488000D03*
X23876000Y-57028000D03*
X23876000Y-59568000D03*
X23876000Y-62108000D03*
X23876000Y-64648000D03*
X23876000Y-67188000D03*
X23876000Y-69728000D03*
X23876000Y-72268000D03*
X23876000Y-74808000D03*
X23876000Y-77348000D03*
X23876000Y-79888000D03*
X23876000Y-82428000D03*
X23876000Y-84968000D03*
X23876000Y-87508000D03*
X23876000Y-90048000D03*
X23876000Y-92588000D03*
X23876000Y-95128000D03*
X23876000Y-97668000D03*
X39116000Y-97668000D03*
X39116000Y-95128000D03*
X39116000Y-92588000D03*
X39116000Y-90048000D03*
X39116000Y-87508000D03*
X39116000Y-84968000D03*
X39116000Y-82428000D03*
X39116000Y-79888000D03*
X39116000Y-77348000D03*
X39116000Y-74808000D03*
X39116000Y-72268000D03*
X39116000Y-69728000D03*
X39116000Y-67188000D03*
X39116000Y-64648000D03*
X39116000Y-62108000D03*
X39116000Y-59568000D03*
X39116000Y-57028000D03*
X39116000Y-54488000D03*
X39116000Y-51948000D03*
X39116000Y-49408000D03*
D14*
X172466000Y-41188000D03*
X172466000Y-46188000D03*
D10*
X13960000Y-81788000D03*
D11*
X16500000Y-81788000D03*
D14*
X200900000Y-68580000D03*
D17*
X200900000Y-58420000D03*
D14*
X14518000Y-99060000D03*
X19518000Y-99060000D03*
D15*
X145303000Y-66030000D03*
D17*
X147843000Y-66030000D03*
X150383000Y-66030000D03*
X152923000Y-66030000D03*
X155463000Y-66030000D03*
X158003000Y-66030000D03*
X160543000Y-66030000D03*
X163083000Y-66030000D03*
X163083000Y-58410000D03*
X160543000Y-58410000D03*
X158003000Y-58410000D03*
X155463000Y-58410000D03*
X152923000Y-58410000D03*
X150383000Y-58410000D03*
X147843000Y-58410000D03*
X145303000Y-58410000D03*
D14*
X36581000Y-22733000D03*
D17*
X36581000Y-32893000D03*
D15*
X71189900Y-31994000D03*
D14*
X73689900Y-31994000D03*
D10*
X193802000Y-70358000D03*
D11*
X191262000Y-70358000D03*
D10*
X34036000Y-17526000D03*
D11*
X36576000Y-17526000D03*
D14*
X149098000Y-90464000D03*
X149098000Y-95464000D03*
D10*
X58928000Y-44323000D03*
D11*
X58928000Y-41783000D03*
D10*
X168148000Y-70358000D03*
D11*
X165608000Y-70358000D03*
X163068000Y-70358000D03*
D10*
X13970000Y-59436000D03*
D11*
X16510000Y-59436000D03*
D16*
X69698000Y-8336000D03*
X44698000Y-8336000D03*
D15*
X62738000Y-8636000D03*
D14*
X59968000Y-8636000D03*
X57198000Y-8636000D03*
X54428000Y-8636000D03*
X51658000Y-8636000D03*
X61353000Y-5796000D03*
X58583000Y-5796000D03*
X55813000Y-5796000D03*
X53043000Y-5796000D03*
D29*
X166878000Y-86614000D03*
X169154100Y-23141600D03*
X144328400Y-54215900D03*
X161340700Y-75027600D03*
X172185800Y-54252500D03*
X151083300Y-74622800D03*
X168921800Y-39970900D03*
X176547300Y-54361900D03*
X180437600Y-64653100D03*
X157278300Y-35681600D03*
X124740700Y-50999500D03*
X146485800Y-62853300D03*
X101022600Y-67719100D03*
X125093900Y-55312700D03*
X131395000Y-62345800D03*
X113002700Y-62555400D03*
X138878000Y-77275600D03*
X125796200Y-84002900D03*
X176466100Y-61784800D03*
X94286500Y-37054500D03*
X117305300Y-51867900D03*
X122863000Y-49136100D03*
X136186200Y-41884400D03*
X136154900Y-67547300D03*
X105980300Y-99242900D03*
X87542000Y-31735700D03*
X98733700Y-45068700D03*
X126732500Y-55305000D03*
X176996700Y-73589100D03*
X100496900Y-43464200D03*
X135341800Y-45627000D03*
X105290700Y-42384100D03*
X134171400Y-49071400D03*
X143710100Y-99632000D03*
X154193400Y-93779200D03*
X195024600Y-39670900D03*
X113889700Y-35283700D03*
X62035700Y-89599500D03*
X178072500Y-62504800D03*
X118242700Y-17155200D03*
X115779400Y-31304400D03*
X83339000Y-63415200D03*
X89733400Y-98357500D03*
X195048800Y-34618900D03*
X114026300Y-34025700D03*
X140174100Y-98454800D03*
X141196400Y-34830400D03*
X102626700Y-73670000D03*
X60423200Y-85592400D03*
X145806500Y-73586200D03*
X145049100Y-70673800D03*
X198336300Y-61675900D03*
X64462800Y-79769300D03*
X83150900Y-83335500D03*
X92380100Y-40907100D03*
X92053700Y-75820000D03*
X57165300Y-87460500D03*
X146509700Y-87403200D03*
X109809100Y-93859500D03*
X103222200Y-80719400D03*
X12753700Y-63784300D03*
X37727700Y-99339200D03*
X54375300Y-59563000D03*
X65288100Y-86275700D03*
X95169900Y-71087800D03*
X101047000Y-70275700D03*
X40839300Y-84403100D03*
X80574500Y-61219800D03*
X107566500Y-96113200D03*
X138817500Y-72167700D03*
X151380300Y-69310500D03*
X76229900Y-70914900D03*
X29101700Y-76169300D03*
X37322700Y-76169300D03*
X40241800Y-71092800D03*
X63829600Y-76310600D03*
X36795000Y-70254900D03*
X37652200Y-69253300D03*
X42768700Y-76083300D03*
X33591500Y-68293600D03*
X35263900Y-81247800D03*
X72755500Y-83057300D03*
X54583400Y-57350300D03*
X34528500Y-47453700D03*
X90703400Y-81783100D03*
X71168600Y-82137100D03*
X83941000Y-43967500D03*
X25992300Y-88301300D03*
D30*
X166878000Y-86614000D02*
X166856200Y-86592200D01*
X166856200Y-86592200D02*
X146158300Y-86592200D01*
X213176000Y-58420000D02*
X216140000Y-58420000D01*
X163001700Y-21816400D02*
X161766000Y-20580700D01*
X192869000Y-21816400D02*
X163001700Y-21816400D01*
X193423800Y-22371200D02*
X192869000Y-21816400D01*
X205690900Y-22371200D02*
X193423800Y-22371200D01*
X207304600Y-20757500D02*
X205690900Y-22371200D01*
X207304600Y-20039500D02*
X207304600Y-20757500D01*
X208031300Y-19312800D02*
X207304600Y-20039500D01*
X210828800Y-19312800D02*
X208031300Y-19312800D01*
X212058000Y-20542000D02*
X210828800Y-19312800D01*
X194815000Y-18545000D02*
X196088000Y-17272000D01*
X147030300Y-18545000D02*
X194815000Y-18545000D01*
X145796000Y-17310700D02*
X147030300Y-18545000D01*
X150166900Y-23141600D02*
X147606000Y-20580700D01*
X169154100Y-23141600D02*
X150166900Y-23141600D01*
X154151100Y-16035600D02*
X152876000Y-17310700D01*
X196567700Y-16035600D02*
X154151100Y-16035600D01*
X199023400Y-18491300D02*
X196567700Y-16035600D01*
X201948700Y-18491300D02*
X199023400Y-18491300D01*
X203168000Y-17272000D02*
X201948700Y-18491300D01*
X97160000Y-69860000D02*
X95984900Y-69860000D01*
X81920000Y-69860000D02*
X83095100Y-69860000D01*
X95984900Y-69860000D02*
X83095100Y-69860000D01*
X215598000Y-20542000D02*
X214384700Y-20542000D01*
X165306000Y-20580700D02*
X166519300Y-20580700D01*
X192411300Y-20580700D02*
X166519300Y-20580700D01*
X193624600Y-21794000D02*
X192411300Y-20580700D01*
X205490000Y-21794000D02*
X193624600Y-21794000D01*
X206667600Y-20616400D02*
X205490000Y-21794000D01*
X206667600Y-19898400D02*
X206667600Y-20616400D01*
X207805400Y-18760600D02*
X206667600Y-19898400D01*
X212603300Y-18760600D02*
X207805400Y-18760600D01*
X214384700Y-20542000D02*
X212603300Y-18760600D01*
X168378000Y-54215900D02*
X175095900Y-47498000D01*
X144328400Y-54215900D02*
X168378000Y-54215900D01*
X176271000Y-47498000D02*
X175095900Y-47498000D01*
X185255900Y-47863200D02*
X185255900Y-47498000D01*
X183084500Y-50034600D02*
X185255900Y-47863200D01*
X176403700Y-50034600D02*
X183084500Y-50034600D01*
X172185800Y-54252500D02*
X176403700Y-50034600D01*
X186431000Y-47498000D02*
X185255900Y-47498000D01*
X129804000Y-85578000D02*
X129804000Y-84002900D01*
X152365400Y-84002900D02*
X161340700Y-75027600D01*
X129804000Y-84002900D02*
X152365400Y-84002900D01*
X142253400Y-83452700D02*
X151083300Y-74622800D01*
X127814200Y-83452700D02*
X142253400Y-83452700D01*
X127264000Y-84002900D02*
X127814200Y-83452700D01*
X187795900Y-39512800D02*
X187795900Y-39878000D01*
X186969500Y-38686400D02*
X187795900Y-39512800D01*
X170206300Y-38686400D02*
X186969500Y-38686400D01*
X168921800Y-39970900D02*
X170206300Y-38686400D01*
X188971000Y-39878000D02*
X187795900Y-39878000D01*
X127264000Y-85578000D02*
X127264000Y-84002900D01*
X209893900Y-40233200D02*
X209893900Y-39868000D01*
X204364400Y-45762700D02*
X209893900Y-40233200D01*
X195748300Y-45762700D02*
X204364400Y-45762700D01*
X184276100Y-57234900D02*
X195748300Y-45762700D01*
X183089900Y-57234900D02*
X184276100Y-57234900D01*
X182282100Y-58042700D02*
X183089900Y-57234900D01*
X182282100Y-58410000D02*
X182282100Y-58042700D01*
X181107000Y-58410000D02*
X182282100Y-58410000D01*
X211069000Y-39868000D02*
X209893900Y-39868000D01*
X204813900Y-40233200D02*
X204813900Y-39868000D01*
X203596900Y-41450200D02*
X204813900Y-40233200D01*
X199256200Y-41450200D02*
X203596900Y-41450200D01*
X186344500Y-54361900D02*
X199256200Y-41450200D01*
X176547300Y-54361900D02*
X186344500Y-54361900D01*
X205989000Y-39868000D02*
X204813900Y-39868000D01*
X207353900Y-47853200D02*
X207353900Y-47488000D01*
X205843200Y-49363900D02*
X207353900Y-47853200D01*
X193502100Y-49363900D02*
X205843200Y-49363900D01*
X184822100Y-58043900D02*
X193502100Y-49363900D01*
X184822100Y-58410000D02*
X184822100Y-58043900D01*
X183647000Y-58410000D02*
X184822100Y-58410000D01*
X208529000Y-47488000D02*
X207353900Y-47488000D01*
X175671800Y-64653100D02*
X180437600Y-64653100D01*
X174662100Y-65662800D02*
X175671800Y-64653100D01*
X174662100Y-66030000D02*
X174662100Y-65662800D01*
X173487000Y-66030000D02*
X174662100Y-66030000D01*
X60980000Y-18649000D02*
X62155100Y-18649000D01*
X157218000Y-35621300D02*
X157278300Y-35681600D01*
X125785700Y-35621300D02*
X157218000Y-35621300D01*
X123392000Y-33227600D02*
X125785700Y-35621300D01*
X77402200Y-33227600D02*
X123392000Y-33227600D01*
X64500600Y-20326000D02*
X77402200Y-33227600D01*
X63466800Y-20326000D02*
X64500600Y-20326000D01*
X62155100Y-19014300D02*
X63466800Y-20326000D01*
X62155100Y-18649000D02*
X62155100Y-19014300D01*
X120196300Y-55543900D02*
X124740700Y-50999500D01*
X113130600Y-55543900D02*
X120196300Y-55543900D01*
X110744000Y-57930500D02*
X113130600Y-55543900D01*
X110744000Y-58812200D02*
X110744000Y-57930500D01*
X107316200Y-62240000D02*
X110744000Y-58812200D01*
X97160000Y-62240000D02*
X107316200Y-62240000D01*
X78299000Y-9566300D02*
X125399000Y-9566300D01*
X81920000Y-67320000D02*
X83095100Y-67320000D01*
X140213000Y-45710000D02*
X139037900Y-45710000D01*
X94486100Y-55929000D02*
X83095100Y-67320000D01*
X109370900Y-55929000D02*
X94486100Y-55929000D01*
X111481500Y-53818400D02*
X109370900Y-55929000D01*
X120682100Y-53818400D02*
X111481500Y-53818400D01*
X124276100Y-50224400D02*
X120682100Y-53818400D01*
X134523500Y-50224400D02*
X124276100Y-50224400D01*
X139037900Y-45710000D02*
X134523500Y-50224400D01*
X39116000Y-84968000D02*
X40291100Y-84968000D01*
X96572500Y-77480000D02*
X95984900Y-77480000D01*
X96572500Y-77480000D02*
X97160000Y-77480000D01*
X170947000Y-66030000D02*
X169771900Y-66030000D01*
X158508300Y-62853300D02*
X146485800Y-62853300D01*
X159959700Y-64304700D02*
X158508300Y-62853300D01*
X163816400Y-64304700D02*
X159959700Y-64304700D01*
X165541700Y-66030000D02*
X163816400Y-64304700D01*
X169771900Y-66030000D02*
X165541700Y-66030000D01*
X112054500Y-67719100D02*
X101022600Y-67719100D01*
X113284000Y-66489600D02*
X112054500Y-67719100D01*
X113284000Y-65613000D02*
X113284000Y-66489600D01*
X115703100Y-63193900D02*
X113284000Y-65613000D01*
X146145200Y-63193900D02*
X115703100Y-63193900D01*
X146485800Y-62853300D02*
X146145200Y-63193900D01*
X43597400Y-88274300D02*
X40291100Y-84968000D01*
X62584700Y-88274300D02*
X43597400Y-88274300D01*
X62607500Y-88297100D02*
X62584700Y-88274300D01*
X82633400Y-88297100D02*
X62607500Y-88297100D01*
X93450400Y-77480100D02*
X82633400Y-88297100D01*
X95984900Y-77480100D02*
X93450400Y-77480100D01*
X95984900Y-77480000D02*
X95984900Y-77480100D01*
X118269100Y-66405300D02*
X118269100Y-66040000D01*
X119093300Y-67229500D02*
X118269100Y-66405300D01*
X134216600Y-67229500D02*
X119093300Y-67229500D01*
X137151800Y-64294300D02*
X134216600Y-67229500D01*
X150329000Y-64294300D02*
X137151800Y-64294300D01*
X151653000Y-65618300D02*
X150329000Y-64294300D01*
X151653000Y-66443100D02*
X151653000Y-65618300D01*
X156827400Y-71617500D02*
X151653000Y-66443100D01*
X191776800Y-71617500D02*
X156827400Y-71617500D01*
X192576900Y-70817400D02*
X191776800Y-71617500D01*
X192576900Y-70358000D02*
X192576900Y-70817400D01*
X193802000Y-70358000D02*
X192576900Y-70358000D01*
X117094000Y-66040000D02*
X118269100Y-66040000D01*
X217922500Y-37592000D02*
X225298000Y-37592000D01*
X213614000Y-33283500D02*
X217922500Y-37592000D01*
X147833000Y-45710000D02*
X146657900Y-45710000D01*
X146657900Y-46075200D02*
X146657900Y-45710000D01*
X139827700Y-52905400D02*
X146657900Y-46075200D01*
X127501200Y-52905400D02*
X139827700Y-52905400D01*
X125093900Y-55312700D02*
X127501200Y-52905400D01*
X186187000Y-66030000D02*
X185011900Y-66030000D01*
X185011900Y-65662700D02*
X185011900Y-66030000D01*
X183227200Y-63878000D02*
X185011900Y-65662700D01*
X165020400Y-63878000D02*
X183227200Y-63878000D01*
X164493500Y-63351100D02*
X165020400Y-63878000D01*
X160059000Y-63351100D02*
X164493500Y-63351100D01*
X158718100Y-62010200D02*
X160059000Y-63351100D01*
X131730600Y-62010200D02*
X158718100Y-62010200D01*
X131395000Y-62345800D02*
X131730600Y-62010200D01*
X114792700Y-62555400D02*
X118415600Y-58932500D01*
X113002700Y-62555400D02*
X114792700Y-62555400D01*
X121828900Y-62345800D02*
X131395000Y-62345800D01*
X118415600Y-58932500D02*
X121828900Y-62345800D01*
X123492000Y-57198000D02*
X124714000Y-58420000D01*
X119147700Y-57198000D02*
X123492000Y-57198000D01*
X118415600Y-57930100D02*
X119147700Y-57198000D01*
X118415600Y-58932500D02*
X118415600Y-57930100D01*
X134127500Y-82026100D02*
X138878000Y-77275600D01*
X116540800Y-82026100D02*
X134127500Y-82026100D01*
X114564000Y-84002900D02*
X116540800Y-82026100D01*
X114564000Y-85578000D02*
X114564000Y-84002900D01*
X122184000Y-85578000D02*
X122184000Y-84002900D01*
X122184000Y-84002900D02*
X125796200Y-84002900D01*
X122174000Y-66040000D02*
X123349100Y-66040000D01*
X165608000Y-70358000D02*
X164382900Y-70358000D01*
X123349100Y-65743000D02*
X123349100Y-66040000D01*
X125348000Y-63744100D02*
X123349100Y-65743000D01*
X152338900Y-63744100D02*
X125348000Y-63744100D01*
X154147400Y-65552600D02*
X152338900Y-63744100D01*
X154147400Y-66379400D02*
X154147400Y-65552600D01*
X156128200Y-68360200D02*
X154147400Y-66379400D01*
X162892800Y-68360200D02*
X156128200Y-68360200D01*
X164382900Y-69850300D02*
X162892800Y-68360200D01*
X164382900Y-70358000D02*
X164382900Y-69850300D01*
X129794000Y-58420000D02*
X130969100Y-58420000D01*
X176225100Y-61543800D02*
X176466100Y-61784800D01*
X160585700Y-61543800D02*
X176225100Y-61543800D01*
X159401800Y-60359900D02*
X160585700Y-61543800D01*
X132543700Y-60359900D02*
X159401800Y-60359900D01*
X130969100Y-58785300D02*
X132543700Y-60359900D01*
X130969100Y-58420000D02*
X130969100Y-58785300D01*
X119634000Y-38100000D02*
X118458900Y-38100000D01*
X118458900Y-37734800D02*
X118458900Y-38100000D01*
X117333000Y-36608900D02*
X118458900Y-37734800D01*
X113340800Y-36608900D02*
X117333000Y-36608900D01*
X113098800Y-36366900D02*
X113340800Y-36608900D01*
X94974100Y-36366900D02*
X113098800Y-36366900D01*
X94286500Y-37054500D02*
X94974100Y-36366900D01*
X97160000Y-49540000D02*
X98335100Y-49540000D01*
X188727000Y-66030000D02*
X187551900Y-66030000D01*
X119634000Y-58420000D02*
X120809100Y-58420000D01*
X187551900Y-65662800D02*
X187551900Y-66030000D01*
X185171400Y-63282300D02*
X187551900Y-65662800D01*
X165202700Y-63282300D02*
X185171400Y-63282300D01*
X164564400Y-62644000D02*
X165202700Y-63282300D01*
X160129900Y-62644000D02*
X164564400Y-62644000D01*
X158946000Y-61460100D02*
X160129900Y-62644000D01*
X123483900Y-61460100D02*
X158946000Y-61460100D01*
X120809100Y-58785300D02*
X123483900Y-61460100D01*
X120809100Y-58420000D02*
X120809100Y-58785300D01*
X100663000Y-51867900D02*
X117305300Y-51867900D01*
X98335100Y-49540000D02*
X100663000Y-51867900D01*
X120037100Y-49136100D02*
X122863000Y-49136100D01*
X117305300Y-51867900D02*
X120037100Y-49136100D01*
X200909000Y-39868000D02*
X199733900Y-39868000D01*
X199733900Y-40194400D02*
X199733900Y-39868000D01*
X197502000Y-42426300D02*
X199733900Y-40194400D01*
X160885600Y-42426300D02*
X197502000Y-42426300D01*
X160343700Y-41884400D02*
X160885600Y-42426300D01*
X136186200Y-41884400D02*
X160343700Y-41884400D01*
X115729100Y-66405300D02*
X115729100Y-66040000D01*
X117158500Y-67834700D02*
X115729100Y-66405300D01*
X135867500Y-67834700D02*
X117158500Y-67834700D01*
X136154900Y-67547300D02*
X135867500Y-67834700D01*
X114554000Y-66040000D02*
X115729100Y-66040000D01*
X142504000Y-100818000D02*
X142504000Y-99242900D01*
X142504000Y-99242900D02*
X105980300Y-99242900D01*
X97160000Y-67320000D02*
X98335100Y-67320000D01*
X112014000Y-66040000D02*
X110838900Y-66040000D01*
X100842400Y-64812700D02*
X110442600Y-64812700D01*
X98335100Y-67320000D02*
X100842400Y-64812700D01*
X110838900Y-65209000D02*
X110838900Y-66040000D01*
X110442600Y-64812700D02*
X110838900Y-65209000D01*
X216454200Y-42941000D02*
X225298000Y-42941000D01*
X212339000Y-47056200D02*
X216454200Y-42941000D01*
X212339000Y-48073200D02*
X212339000Y-47056200D01*
X202075200Y-58337000D02*
X212339000Y-48073200D01*
X202075200Y-58906800D02*
X202075200Y-58337000D01*
X200785800Y-60196200D02*
X202075200Y-58906800D01*
X179086000Y-60196200D02*
X200785800Y-60196200D01*
X178764400Y-59874600D02*
X179086000Y-60196200D01*
X169424300Y-59874600D02*
X178764400Y-59874600D01*
X166194000Y-56644300D02*
X169424300Y-59874600D01*
X117207700Y-56644300D02*
X166194000Y-56644300D01*
X115729200Y-58122800D02*
X117207700Y-56644300D01*
X115729200Y-58921400D02*
X115729200Y-58122800D01*
X114596400Y-60054200D02*
X115729200Y-58921400D01*
X114314800Y-60054200D02*
X114596400Y-60054200D01*
X110442600Y-63926400D02*
X114314800Y-60054200D01*
X110442600Y-64812700D02*
X110442600Y-63926400D01*
X66060000Y-19859800D02*
X66060000Y-18649000D01*
X77935900Y-31735700D02*
X66060000Y-19859800D01*
X87542000Y-31735700D02*
X77935900Y-31735700D01*
X137424000Y-85578000D02*
X137424000Y-87153100D01*
X97033000Y-93208000D02*
X98208100Y-93208000D01*
X103897700Y-87153100D02*
X137424000Y-87153100D01*
X98208100Y-92842700D02*
X103897700Y-87153100D01*
X98208100Y-93208000D02*
X98208100Y-92842700D01*
X33376300Y-15641200D02*
X34036000Y-16300900D01*
X33376300Y-7967200D02*
X33376300Y-15641200D01*
X35501500Y-5842000D02*
X33376300Y-7967200D01*
X34036000Y-17526000D02*
X34036000Y-16300900D01*
X90080100Y-18897300D02*
X90080100Y-18532000D01*
X90912200Y-19729400D02*
X90080100Y-18897300D01*
X97085700Y-19729400D02*
X90912200Y-19729400D01*
X97795000Y-19020100D02*
X97085700Y-19729400D01*
X97795000Y-18136600D02*
X97795000Y-19020100D01*
X101331200Y-14600400D02*
X97795000Y-18136600D01*
X103774900Y-14600400D02*
X101331200Y-14600400D01*
X107389000Y-10986300D02*
X103774900Y-14600400D01*
X88905000Y-18532000D02*
X90080100Y-18532000D01*
X104070700Y-10986300D02*
X96525000Y-18532000D01*
X104619000Y-10986300D02*
X104070700Y-10986300D01*
X206354200Y-46312900D02*
X205989000Y-46312900D01*
X212284100Y-40383000D02*
X206354200Y-46312900D01*
X212284100Y-39400000D02*
X212284100Y-40383000D01*
X208324700Y-35440600D02*
X212284100Y-39400000D01*
X177671100Y-35440600D02*
X208324700Y-35440600D01*
X175514000Y-33283500D02*
X177671100Y-35440600D01*
X205989000Y-47488000D02*
X205989000Y-46312900D01*
X81920000Y-57160000D02*
X83095100Y-57160000D01*
X114554000Y-45720000D02*
X113378900Y-45720000D01*
X176027000Y-58410000D02*
X174851900Y-58410000D01*
X86642400Y-57160000D02*
X98733700Y-45068700D01*
X83095100Y-57160000D02*
X86642400Y-57160000D01*
X113378900Y-45354800D02*
X113378900Y-45720000D01*
X112568900Y-44544800D02*
X113378900Y-45354800D01*
X101513800Y-44544800D02*
X112568900Y-44544800D01*
X100989900Y-45068700D02*
X101513800Y-44544800D01*
X98733700Y-45068700D02*
X100989900Y-45068700D01*
X174851900Y-58044800D02*
X174851900Y-58410000D01*
X172934900Y-56127800D02*
X174851900Y-58044800D01*
X171409000Y-56127800D02*
X172934900Y-56127800D01*
X171375300Y-56094100D02*
X171409000Y-56127800D01*
X116879900Y-56094100D02*
X171375300Y-56094100D01*
X114554000Y-58420000D02*
X116879900Y-56094100D01*
X178567000Y-58410000D02*
X177391900Y-58410000D01*
X177391900Y-58112900D02*
X177391900Y-58410000D01*
X174856700Y-55577700D02*
X177391900Y-58112900D01*
X171636900Y-55577700D02*
X174856700Y-55577700D01*
X171600300Y-55541100D02*
X171636900Y-55577700D01*
X126968600Y-55541100D02*
X171600300Y-55541100D01*
X126732500Y-55305000D02*
X126968600Y-55541100D01*
X87352900Y-54620000D02*
X81920000Y-54620000D01*
X97688600Y-44284300D02*
X87352900Y-54620000D01*
X100996200Y-44284300D02*
X97688600Y-44284300D01*
X101285900Y-43994600D02*
X100996200Y-44284300D01*
X114499300Y-43994600D02*
X101285900Y-43994600D01*
X115824000Y-45319300D02*
X114499300Y-43994600D01*
X115824000Y-46141100D02*
X115824000Y-45319300D01*
X116627500Y-46944600D02*
X115824000Y-46141100D01*
X118409400Y-46944600D02*
X116627500Y-46944600D01*
X119634000Y-45720000D02*
X118409400Y-46944600D01*
X117104000Y-85578000D02*
X117104000Y-84002900D01*
X148507800Y-73589100D02*
X176996700Y-73589100D01*
X139203600Y-82893300D02*
X148507800Y-73589100D01*
X118213600Y-82893300D02*
X139203600Y-82893300D01*
X117104000Y-84002900D02*
X118213600Y-82893300D01*
X81920000Y-52080000D02*
X83095100Y-52080000D01*
X100577000Y-43384100D02*
X100496900Y-43464200D01*
X121568200Y-43384100D02*
X100577000Y-43384100D01*
X123538900Y-45354800D02*
X121568200Y-43384100D01*
X123538900Y-45720000D02*
X123538900Y-45354800D01*
X91710900Y-43464200D02*
X83095100Y-52080000D01*
X100496900Y-43464200D02*
X91710900Y-43464200D01*
X124714000Y-45720000D02*
X124126500Y-45720000D01*
X124126500Y-45720000D02*
X123538900Y-45720000D01*
X134032600Y-46936200D02*
X135341800Y-45627000D01*
X125342700Y-46936200D02*
X134032600Y-46936200D01*
X124126500Y-45720000D02*
X125342700Y-46936200D01*
X129794000Y-45720000D02*
X128618900Y-45720000D01*
X125648200Y-42384100D02*
X105290700Y-42384100D01*
X128618900Y-45354800D02*
X125648200Y-42384100D01*
X128618900Y-45720000D02*
X128618900Y-45354800D01*
X81920000Y-49540000D02*
X83095100Y-49540000D01*
X188727000Y-58410000D02*
X187551900Y-58410000D01*
X84483400Y-49540000D02*
X83095100Y-49540000D01*
X91341100Y-42682300D02*
X84483400Y-49540000D01*
X104992500Y-42682300D02*
X91341100Y-42682300D01*
X105290700Y-42384100D02*
X104992500Y-42682300D01*
X187551900Y-58777200D02*
X187551900Y-58410000D01*
X186729500Y-59599600D02*
X187551900Y-58777200D01*
X180634600Y-59599600D02*
X186729500Y-59599600D01*
X179837000Y-58802000D02*
X180634600Y-59599600D01*
X179837000Y-57946800D02*
X179837000Y-58802000D01*
X177335300Y-55445100D02*
X179837000Y-57946800D01*
X175727700Y-55445100D02*
X177335300Y-55445100D01*
X175310200Y-55027600D02*
X175727700Y-55445100D01*
X171864800Y-55027600D02*
X175310200Y-55027600D01*
X171828200Y-54991000D02*
X171864800Y-55027600D01*
X144007400Y-54991000D02*
X171828200Y-54991000D01*
X143550400Y-54534000D02*
X144007400Y-54991000D01*
X143550400Y-51702000D02*
X143550400Y-54534000D01*
X149015100Y-46237300D02*
X143550400Y-51702000D01*
X149015100Y-45149700D02*
X149015100Y-46237300D01*
X148400200Y-44534800D02*
X149015100Y-45149700D01*
X139218100Y-44534800D02*
X148400200Y-44534800D01*
X134681500Y-49071400D02*
X139218100Y-44534800D01*
X134171400Y-49071400D02*
X134681500Y-49071400D01*
X122184000Y-100818000D02*
X122184000Y-102393100D01*
X143710100Y-101697400D02*
X143710100Y-99632000D01*
X143014400Y-102393100D02*
X143710100Y-101697400D01*
X122184000Y-102393100D02*
X143014400Y-102393100D01*
X94876400Y-97904600D02*
X91953000Y-100828000D01*
X107660300Y-97904600D02*
X94876400Y-97904600D01*
X111785700Y-93779200D02*
X107660300Y-97904600D01*
X154193400Y-93779200D02*
X111785700Y-93779200D01*
X174288800Y-32758900D02*
X174288800Y-36462400D01*
X175034200Y-32013500D02*
X174288800Y-32758900D01*
X176784000Y-32013500D02*
X175034200Y-32013500D01*
X178054000Y-33283500D02*
X176784000Y-32013500D01*
X191816100Y-36462400D02*
X174288800Y-36462400D01*
X195024600Y-39670900D02*
X191816100Y-36462400D01*
X156842000Y-36462400D02*
X174288800Y-36462400D01*
X156566800Y-36187200D02*
X156842000Y-36462400D01*
X121781900Y-36187200D02*
X156566800Y-36187200D01*
X120878400Y-35283700D02*
X121781900Y-36187200D01*
X113889700Y-35283700D02*
X120878400Y-35283700D01*
X151161300Y-15485400D02*
X149336000Y-17310700D01*
X197841400Y-15485400D02*
X151161300Y-15485400D01*
X199628000Y-17272000D02*
X197841400Y-15485400D01*
X155453000Y-45710000D02*
X154277900Y-45710000D01*
X117094000Y-45720000D02*
X118269100Y-45720000D01*
X154277900Y-45344800D02*
X154277900Y-45710000D01*
X152367700Y-43434600D02*
X154277900Y-45344800D01*
X138699800Y-43434600D02*
X152367700Y-43434600D01*
X134648000Y-47486400D02*
X138699800Y-43434600D01*
X122182900Y-47486400D02*
X134648000Y-47486400D01*
X120904000Y-46207500D02*
X122182900Y-47486400D01*
X120904000Y-45323200D02*
X120904000Y-46207500D01*
X120115700Y-44534900D02*
X120904000Y-45323200D01*
X119088900Y-44534900D02*
X120115700Y-44534900D01*
X118269100Y-45354700D02*
X119088900Y-44534900D01*
X118269100Y-45720000D02*
X118269100Y-45354700D01*
X155990700Y-19276000D02*
X154686000Y-20580700D01*
X203712000Y-19276000D02*
X155990700Y-19276000D01*
X204978000Y-20542000D02*
X203712000Y-19276000D01*
X152913000Y-45710000D02*
X151737900Y-45710000D01*
X151737900Y-45342800D02*
X151737900Y-45710000D01*
X150379800Y-43984700D02*
X151737900Y-45342800D01*
X138927700Y-43984700D02*
X150379800Y-43984700D01*
X134837300Y-48075100D02*
X138927700Y-43984700D01*
X114369100Y-48075100D02*
X134837300Y-48075100D01*
X112014000Y-45720000D02*
X114369100Y-48075100D01*
X160011800Y-22366500D02*
X158226000Y-20580700D01*
X169475200Y-22366500D02*
X160011800Y-22366500D01*
X170030100Y-22921400D02*
X169475200Y-22366500D01*
X206138600Y-22921400D02*
X170030100Y-22921400D01*
X208518000Y-20542000D02*
X206138600Y-22921400D01*
X25558000Y-8531500D02*
X13558000Y-8531500D01*
X86405400Y-89599500D02*
X62035700Y-89599500D01*
X95984900Y-80020000D02*
X86405400Y-89599500D01*
X97160000Y-80020000D02*
X95984900Y-80020000D01*
X122174000Y-58420000D02*
X123349100Y-58420000D01*
X207010000Y-58420000D02*
X205834900Y-58420000D01*
X178016700Y-62560600D02*
X178072500Y-62504800D01*
X165259000Y-62560600D02*
X178016700Y-62560600D01*
X164792300Y-62093900D02*
X165259000Y-62560600D01*
X160357800Y-62093900D02*
X164792300Y-62093900D01*
X159173900Y-60910000D02*
X160357800Y-62093900D01*
X125471900Y-60910000D02*
X159173900Y-60910000D01*
X123349100Y-58787200D02*
X125471900Y-60910000D01*
X123349100Y-58420000D02*
X123349100Y-58787200D01*
X201750100Y-62504800D02*
X205834900Y-58420000D01*
X178072500Y-62504800D02*
X201750100Y-62504800D01*
X118242700Y-13530000D02*
X118242700Y-17155200D01*
X115699000Y-10986300D02*
X118242700Y-13530000D01*
X115779400Y-13836700D02*
X115779400Y-31304400D01*
X112929000Y-10986300D02*
X115779400Y-13836700D01*
X78105000Y-46863000D02*
X76929900Y-46863000D01*
X89733400Y-99332500D02*
X89413000Y-99652900D01*
X89733400Y-98357500D02*
X89733400Y-99332500D01*
X89413000Y-100828000D02*
X89413000Y-99652900D01*
X81428400Y-63415200D02*
X83339000Y-63415200D01*
X79684900Y-61671700D02*
X81428400Y-63415200D01*
X79684900Y-56912000D02*
X79684900Y-61671700D01*
X78525900Y-55753000D02*
X79684900Y-56912000D01*
X77648100Y-55753000D02*
X78525900Y-55753000D01*
X73174800Y-51279700D02*
X77648100Y-55753000D01*
X73174800Y-50618100D02*
X73174800Y-51279700D01*
X73174800Y-50618100D02*
X76929900Y-46863000D01*
X47271200Y-50618100D02*
X73174800Y-50618100D01*
X44838500Y-48185400D02*
X47271200Y-50618100D01*
X34893000Y-48185400D02*
X44838500Y-48185400D01*
X34828100Y-48250300D02*
X34893000Y-48185400D01*
X33796200Y-48250300D02*
X34828100Y-48250300D01*
X33731300Y-48185400D02*
X33796200Y-48250300D01*
X22903300Y-48185400D02*
X33731300Y-48185400D01*
X22111700Y-48977000D02*
X22903300Y-48185400D01*
X22111700Y-57803700D02*
X22111700Y-48977000D01*
X23876000Y-59568000D02*
X22111700Y-57803700D01*
X184469400Y-34618900D02*
X183134000Y-33283500D01*
X195048800Y-34618900D02*
X184469400Y-34618900D01*
X128429100Y-58054700D02*
X128429100Y-58420000D01*
X129289300Y-57194500D02*
X128429100Y-58054700D01*
X165191100Y-57194500D02*
X129289300Y-57194500D01*
X168440000Y-60443400D02*
X165191100Y-57194500D01*
X178449500Y-60443400D02*
X168440000Y-60443400D01*
X178752500Y-60746400D02*
X178449500Y-60443400D01*
X201034000Y-60746400D02*
X178752500Y-60746400D01*
X202772900Y-59007500D02*
X201034000Y-60746400D01*
X202772900Y-58420000D02*
X202772900Y-59007500D01*
X203948000Y-58420000D02*
X202772900Y-58420000D01*
X127254000Y-58420000D02*
X128429100Y-58420000D01*
X16300900Y-18646900D02*
X16300900Y-17526000D01*
X11767400Y-23180400D02*
X16300900Y-18646900D01*
X11767400Y-85676000D02*
X11767400Y-23180400D01*
X12964900Y-86873500D02*
X11767400Y-85676000D01*
X14923200Y-86873500D02*
X12964900Y-86873500D01*
X15279900Y-86516800D02*
X14923200Y-86873500D01*
X15279900Y-85598000D02*
X15279900Y-86516800D01*
X16505000Y-85598000D02*
X15279900Y-85598000D01*
X17526000Y-17526000D02*
X16300900Y-17526000D01*
X60457000Y-93462000D02*
X61632100Y-93462000D01*
X143947100Y-88803400D02*
X146158300Y-86592200D01*
X104769000Y-88803400D02*
X143947100Y-88803400D01*
X100843000Y-92729400D02*
X104769000Y-88803400D01*
X100843000Y-93625000D02*
X100843000Y-92729400D01*
X98833300Y-95634700D02*
X100843000Y-93625000D01*
X87868000Y-95634700D02*
X98833300Y-95634700D01*
X87677800Y-95824900D02*
X87868000Y-95634700D01*
X65191300Y-95824900D02*
X87677800Y-95824900D01*
X64003500Y-94637100D02*
X65191300Y-95824900D01*
X62439900Y-94637100D02*
X64003500Y-94637100D01*
X61632100Y-93829300D02*
X62439900Y-94637100D01*
X61632100Y-93462000D02*
X61632100Y-93829300D01*
X58440000Y-18649000D02*
X59615100Y-18649000D01*
X77384100Y-34025700D02*
X114026300Y-34025700D01*
X64784600Y-21426200D02*
X77384100Y-34025700D01*
X62025100Y-21426200D02*
X64784600Y-21426200D01*
X59615100Y-19016200D02*
X62025100Y-21426200D01*
X59615100Y-18649000D02*
X59615100Y-19016200D01*
X99573000Y-100828000D02*
X100748100Y-100828000D01*
X100748100Y-100462700D02*
X100748100Y-100828000D01*
X102756000Y-98454800D02*
X100748100Y-100462700D01*
X140174100Y-98454800D02*
X102756000Y-98454800D01*
X63520000Y-18649000D02*
X64695100Y-18649000D01*
X221903800Y-48021000D02*
X225298000Y-48021000D01*
X211610000Y-58314800D02*
X221903800Y-48021000D01*
X211610000Y-58561900D02*
X211610000Y-58314800D01*
X202927100Y-67244800D02*
X211610000Y-58561900D01*
X157485700Y-67244800D02*
X202927100Y-67244800D01*
X156638100Y-66397200D02*
X157485700Y-67244800D01*
X156638100Y-66030000D02*
X156638100Y-66397200D01*
X155463000Y-66030000D02*
X156638100Y-66030000D01*
X138876800Y-32510800D02*
X141196400Y-34830400D01*
X77907800Y-32510800D02*
X138876800Y-32510800D01*
X64695100Y-19298100D02*
X77907800Y-32510800D01*
X64695100Y-18649000D02*
X64695100Y-19298100D01*
X64097300Y-85592400D02*
X60423200Y-85592400D01*
X64739200Y-84950500D02*
X64097300Y-85592400D01*
X77773100Y-84950500D02*
X64739200Y-84950500D01*
X78211700Y-84511900D02*
X77773100Y-84950500D01*
X83117600Y-84511900D02*
X78211700Y-84511900D01*
X84094800Y-83534700D02*
X83117600Y-84511900D01*
X84094800Y-82682800D02*
X84094800Y-83534700D01*
X93107600Y-73670000D02*
X84094800Y-82682800D01*
X102626700Y-73670000D02*
X93107600Y-73670000D01*
X64172100Y-93788400D02*
X64172100Y-93462000D01*
X65600400Y-95216700D02*
X64172100Y-93788400D01*
X87507900Y-95216700D02*
X65600400Y-95216700D01*
X87681700Y-95042900D02*
X87507900Y-95216700D01*
X91877700Y-95042900D02*
X87681700Y-95042900D01*
X93223000Y-93697600D02*
X91877700Y-95042900D01*
X93223000Y-92816000D02*
X93223000Y-93697600D01*
X104645400Y-81393600D02*
X93223000Y-92816000D01*
X133514700Y-81393600D02*
X104645400Y-81393600D01*
X141322100Y-73586200D02*
X133514700Y-81393600D01*
X145806500Y-73586200D02*
X141322100Y-73586200D01*
X62997000Y-93462000D02*
X64172100Y-93462000D01*
X68839700Y-30818900D02*
X70014800Y-31994000D01*
X56177700Y-30818900D02*
X68839700Y-30818900D01*
X51995100Y-26636300D02*
X56177700Y-30818900D01*
X51995100Y-26269000D02*
X51995100Y-26636300D01*
X50820000Y-26269000D02*
X51995100Y-26269000D01*
X71189900Y-31994000D02*
X70014800Y-31994000D01*
X23876000Y-92588000D02*
X25051100Y-92588000D01*
X26370700Y-91268400D02*
X25051100Y-92588000D01*
X61847300Y-91268400D02*
X26370700Y-91268400D01*
X62379000Y-90736700D02*
X61847300Y-91268400D01*
X86083700Y-90736700D02*
X62379000Y-90736700D01*
X91979400Y-84841000D02*
X86083700Y-90736700D01*
X97587100Y-84841000D02*
X91979400Y-84841000D01*
X102557200Y-79870900D02*
X97587100Y-84841000D01*
X116707300Y-79870900D02*
X102557200Y-79870900D01*
X125904400Y-70673800D02*
X116707300Y-79870900D01*
X145049100Y-70673800D02*
X125904400Y-70673800D01*
X132334000Y-58420000D02*
X133509100Y-58420000D01*
X178339800Y-61675900D02*
X198336300Y-61675900D01*
X177657500Y-60993600D02*
X178339800Y-61675900D01*
X163176000Y-60993600D02*
X177657500Y-60993600D01*
X161992100Y-59809700D02*
X163176000Y-60993600D01*
X134898800Y-59809700D02*
X161992100Y-59809700D01*
X133509100Y-58420000D02*
X134898800Y-59809700D01*
X207264000Y-32013500D02*
X205994000Y-33283500D01*
X208999900Y-32013500D02*
X207264000Y-32013500D01*
X209759200Y-32772800D02*
X208999900Y-32013500D01*
X209759200Y-34065000D02*
X209759200Y-32772800D01*
X214833100Y-39138900D02*
X209759200Y-34065000D01*
X214833100Y-40484300D02*
X214833100Y-39138900D01*
X209799000Y-45518400D02*
X214833100Y-40484300D01*
X209799000Y-48345900D02*
X209799000Y-45518400D01*
X200900000Y-57244900D02*
X209799000Y-48345900D01*
X200900000Y-58420000D02*
X200900000Y-57244900D01*
X208534000Y-33617900D02*
X213609000Y-38692900D01*
X208534000Y-33283500D02*
X208534000Y-33617900D01*
X213609000Y-39868000D02*
X213609000Y-38692900D01*
X65888700Y-81195200D02*
X64462800Y-79769300D01*
X82229100Y-81195200D02*
X65888700Y-81195200D01*
X83150900Y-82117000D02*
X82229100Y-81195200D01*
X83150900Y-83335500D02*
X83150900Y-82117000D01*
X112014000Y-38100000D02*
X110838900Y-38100000D01*
X63007300Y-87460500D02*
X57165300Y-87460500D01*
X64967200Y-85500600D02*
X63007300Y-87460500D01*
X78001000Y-85500600D02*
X64967200Y-85500600D01*
X78439600Y-85062000D02*
X78001000Y-85500600D01*
X83409800Y-85062000D02*
X78439600Y-85062000D01*
X92053700Y-76418100D02*
X83409800Y-85062000D01*
X92053700Y-75820000D02*
X92053700Y-76418100D01*
X96362300Y-36924900D02*
X92380100Y-40907100D01*
X110031100Y-36924900D02*
X96362300Y-36924900D01*
X110838900Y-37732700D02*
X110031100Y-36924900D01*
X110838900Y-38100000D02*
X110838900Y-37732700D01*
X86873000Y-100828000D02*
X86873000Y-99652900D01*
X89171400Y-97354500D02*
X86873000Y-99652900D01*
X107432400Y-97354500D02*
X89171400Y-97354500D01*
X115433400Y-89353500D02*
X107432400Y-97354500D01*
X144559400Y-89353500D02*
X115433400Y-89353500D01*
X146509700Y-87403200D02*
X144559400Y-89353500D01*
X55377000Y-93462000D02*
X56552100Y-93462000D01*
X107541700Y-93859500D02*
X109809100Y-93859500D01*
X105209800Y-96191400D02*
X107541700Y-93859500D01*
X88089300Y-96191400D02*
X105209800Y-96191400D01*
X87901600Y-96379100D02*
X88089300Y-96191400D01*
X64778800Y-96379100D02*
X87901600Y-96379100D01*
X63787600Y-95387900D02*
X64778800Y-96379100D01*
X58112700Y-95387900D02*
X63787600Y-95387900D01*
X56552100Y-93827300D02*
X58112700Y-95387900D01*
X56552100Y-93462000D02*
X56552100Y-93827300D01*
X103222200Y-81359800D02*
X103222200Y-80719400D01*
X94305100Y-90276900D02*
X103222200Y-81359800D01*
X90581500Y-90276900D02*
X94305100Y-90276900D01*
X88143000Y-92715400D02*
X90581500Y-90276900D01*
X88143000Y-93600000D02*
X88143000Y-92715400D01*
X87076500Y-94666500D02*
X88143000Y-93600000D01*
X67549400Y-94666500D02*
X87076500Y-94666500D01*
X66712100Y-93829200D02*
X67549400Y-94666500D01*
X66712100Y-93462000D02*
X66712100Y-93829200D01*
X65537000Y-93462000D02*
X66712100Y-93462000D01*
X15195200Y-61342800D02*
X12753700Y-63784300D01*
X15195200Y-58850800D02*
X15195200Y-61342800D01*
X18697600Y-55348400D02*
X15195200Y-58850800D01*
X18697600Y-51613000D02*
X18697600Y-55348400D01*
X23626000Y-46684600D02*
X18697600Y-51613000D01*
X26411300Y-46684600D02*
X23626000Y-46684600D01*
X27686000Y-45409900D02*
X26411300Y-46684600D01*
X27686000Y-44492800D02*
X27686000Y-45409900D01*
X33675700Y-38503100D02*
X27686000Y-44492800D01*
X37133100Y-38503100D02*
X33675700Y-38503100D01*
X37940900Y-37695300D02*
X37133100Y-38503100D01*
X37940900Y-37328000D02*
X37940900Y-37695300D01*
X39116000Y-37328000D02*
X37940900Y-37328000D01*
X75739300Y-65992400D02*
X76929900Y-67183000D01*
X61425700Y-65992400D02*
X75739300Y-65992400D01*
X60235100Y-67183000D02*
X61425700Y-65992400D01*
X59060000Y-67183000D02*
X60235100Y-67183000D01*
X78105000Y-67183000D02*
X76929900Y-67183000D01*
X75735700Y-58368800D02*
X76929900Y-59563000D01*
X61484500Y-58368800D02*
X75735700Y-58368800D01*
X60290300Y-59563000D02*
X61484500Y-58368800D01*
X59060000Y-59563000D02*
X60290300Y-59563000D01*
X78105000Y-59563000D02*
X76929900Y-59563000D01*
X59060000Y-57023000D02*
X57884900Y-57023000D01*
X39116000Y-54488000D02*
X40291100Y-54488000D01*
X56918700Y-57023000D02*
X57884900Y-57023000D01*
X55743600Y-55847900D02*
X56918700Y-57023000D01*
X41651000Y-55847900D02*
X55743600Y-55847900D01*
X40291100Y-54488000D02*
X41651000Y-55847900D01*
X60499300Y-55673600D02*
X61689900Y-54483000D01*
X56441500Y-55673600D02*
X60499300Y-55673600D01*
X55250900Y-54483000D02*
X56441500Y-55673600D01*
X43820000Y-54483000D02*
X55250900Y-54483000D01*
X62865000Y-54483000D02*
X61689900Y-54483000D01*
X62865000Y-57023000D02*
X61689900Y-57023000D01*
X43820000Y-57023000D02*
X44995100Y-57023000D01*
X42644900Y-57214200D02*
X42644900Y-57023000D01*
X40291100Y-59568000D02*
X42644900Y-57214200D01*
X39116000Y-59568000D02*
X40291100Y-59568000D01*
X43820000Y-57023000D02*
X42644900Y-57023000D01*
X51661900Y-100716800D02*
X51661900Y-101082000D01*
X50338400Y-99393300D02*
X51661900Y-100716800D01*
X37781800Y-99393300D02*
X50338400Y-99393300D01*
X37727700Y-99339200D02*
X37781800Y-99393300D01*
X52837000Y-101082000D02*
X51661900Y-101082000D01*
X45442900Y-56575200D02*
X44995100Y-57023000D01*
X54904500Y-56575200D02*
X45442900Y-56575200D01*
X56564200Y-58234900D02*
X54904500Y-56575200D01*
X60478000Y-58234900D02*
X56564200Y-58234900D01*
X61689900Y-57023000D02*
X60478000Y-58234900D01*
X42644900Y-59754200D02*
X42644900Y-59563000D01*
X40291100Y-62108000D02*
X42644900Y-59754200D01*
X39116000Y-62108000D02*
X40291100Y-62108000D01*
X43820000Y-59563000D02*
X42644900Y-59563000D01*
X43820000Y-59563000D02*
X54375300Y-59563000D01*
X61034400Y-62103000D02*
X62865000Y-62103000D01*
X59811000Y-63326400D02*
X61034400Y-62103000D01*
X46218500Y-63326400D02*
X59811000Y-63326400D01*
X44995100Y-62103000D02*
X46218500Y-63326400D01*
X43820000Y-62103000D02*
X44995100Y-62103000D01*
X40291100Y-64456800D02*
X42644900Y-62103000D01*
X40291100Y-64648000D02*
X40291100Y-64456800D01*
X43820000Y-62103000D02*
X42644900Y-62103000D01*
X39116000Y-64648000D02*
X40291100Y-64648000D01*
X61013200Y-64643000D02*
X62865000Y-64643000D01*
X59789800Y-65866400D02*
X61013200Y-64643000D01*
X46218500Y-65866400D02*
X59789800Y-65866400D01*
X44995100Y-64643000D02*
X46218500Y-65866400D01*
X43820000Y-64643000D02*
X44995100Y-64643000D01*
X42644900Y-67374200D02*
X42644900Y-67183000D01*
X40291100Y-69728000D02*
X42644900Y-67374200D01*
X39116000Y-69728000D02*
X40291100Y-69728000D01*
X43820000Y-67183000D02*
X42644900Y-67183000D01*
X150383000Y-66030000D02*
X150383000Y-67205100D01*
X152204600Y-69026700D02*
X150383000Y-67205100D01*
X152204600Y-69586800D02*
X152204600Y-69026700D01*
X151695000Y-70096400D02*
X152204600Y-69586800D01*
X145761900Y-70096400D02*
X151695000Y-70096400D01*
X145540900Y-69875400D02*
X145761900Y-70096400D01*
X144751400Y-69875400D02*
X145540900Y-69875400D01*
X144503100Y-70123700D02*
X144751400Y-69875400D01*
X105571700Y-70123700D02*
X144503100Y-70123700D01*
X104286000Y-71409400D02*
X105571700Y-70123700D01*
X104286000Y-73152000D02*
X104286000Y-71409400D01*
X101228000Y-76210000D02*
X104286000Y-73152000D01*
X93942500Y-76210000D02*
X101228000Y-76210000D01*
X84540400Y-85612100D02*
X93942500Y-76210000D01*
X78942700Y-85612100D02*
X84540400Y-85612100D01*
X78279100Y-86275700D02*
X78942700Y-85612100D01*
X65288100Y-86275700D02*
X78279100Y-86275700D01*
X60499300Y-68532400D02*
X61689900Y-69723000D01*
X46185700Y-68532400D02*
X60499300Y-68532400D01*
X44995100Y-69723000D02*
X46185700Y-68532400D01*
X43820000Y-69723000D02*
X44995100Y-69723000D01*
X42644900Y-69914200D02*
X42644900Y-69723000D01*
X40291100Y-72268000D02*
X42644900Y-69914200D01*
X39116000Y-72268000D02*
X40291100Y-72268000D01*
X43820000Y-69723000D02*
X42644900Y-69723000D01*
X62277500Y-69723000D02*
X61689900Y-69723000D01*
X62277500Y-69723000D02*
X62865000Y-69723000D01*
X62865000Y-69723000D02*
X64040100Y-69723000D01*
X147843000Y-66030000D02*
X146667900Y-66030000D01*
X146667900Y-66861000D02*
X146667900Y-66030000D01*
X145605600Y-67923300D02*
X146667900Y-66861000D01*
X137459000Y-67923300D02*
X145605600Y-67923300D01*
X136908900Y-68473400D02*
X137459000Y-67923300D01*
X101963300Y-68473400D02*
X136908900Y-68473400D01*
X101888800Y-68547900D02*
X101963300Y-68473400D01*
X65215200Y-68547900D02*
X101888800Y-68547900D01*
X64040100Y-69723000D02*
X65215200Y-68547900D01*
X46185700Y-73453600D02*
X44995100Y-72263000D01*
X60499300Y-73453600D02*
X46185700Y-73453600D01*
X61689900Y-72263000D02*
X60499300Y-73453600D01*
X43820000Y-72263000D02*
X44995100Y-72263000D01*
X62625600Y-72263000D02*
X61689900Y-72263000D01*
X40291100Y-74616800D02*
X42644900Y-72263000D01*
X40291100Y-74808000D02*
X40291100Y-74616800D01*
X43820000Y-72263000D02*
X42644900Y-72263000D01*
X39116000Y-74808000D02*
X40291100Y-74808000D01*
X62625600Y-72263000D02*
X62865000Y-72263000D01*
X77200900Y-71087800D02*
X95169900Y-71087800D01*
X76025700Y-72263000D02*
X77200900Y-71087800D01*
X62865000Y-72263000D02*
X76025700Y-72263000D01*
X146488500Y-64844500D02*
X145303000Y-66030000D01*
X148387000Y-64844500D02*
X146488500Y-64844500D01*
X149023500Y-65481000D02*
X148387000Y-64844500D01*
X149023500Y-66580300D02*
X149023500Y-65481000D01*
X147130300Y-68473500D02*
X149023500Y-66580300D01*
X137686800Y-68473500D02*
X147130300Y-68473500D01*
X137136800Y-69023500D02*
X137686800Y-68473500D01*
X102299200Y-69023500D02*
X137136800Y-69023500D01*
X101047000Y-70275700D02*
X102299200Y-69023500D01*
X81920000Y-82560000D02*
X80744900Y-82560000D01*
X41172400Y-84736200D02*
X40839300Y-84403100D01*
X64175500Y-84736200D02*
X41172400Y-84736200D01*
X64511300Y-84400400D02*
X64175500Y-84736200D01*
X77545200Y-84400400D02*
X64511300Y-84400400D01*
X77983800Y-83961800D02*
X77545200Y-84400400D01*
X79343100Y-83961800D02*
X77983800Y-83961800D01*
X80744900Y-82560000D02*
X79343100Y-83961800D01*
X99178600Y-45720000D02*
X109474000Y-45720000D01*
X83928600Y-60970000D02*
X99178600Y-45720000D01*
X80824300Y-60970000D02*
X83928600Y-60970000D01*
X80574500Y-61219800D02*
X80824300Y-60970000D01*
X61821900Y-100716800D02*
X61821900Y-101082000D01*
X57728600Y-96623500D02*
X61821900Y-100716800D01*
X41786600Y-96623500D02*
X57728600Y-96623500D01*
X40291100Y-95128000D02*
X41786600Y-96623500D01*
X39116000Y-95128000D02*
X40291100Y-95128000D01*
X62997000Y-101082000D02*
X62409500Y-101082000D01*
X62409500Y-101082000D02*
X61821900Y-101082000D01*
X106875400Y-96804300D02*
X107566500Y-96113200D01*
X88940800Y-96804300D02*
X106875400Y-96804300D01*
X85651900Y-100093200D02*
X88940800Y-96804300D01*
X85651900Y-101207800D02*
X85651900Y-100093200D01*
X84576000Y-102283700D02*
X85651900Y-101207800D01*
X63611200Y-102283700D02*
X84576000Y-102283700D01*
X62409500Y-101082000D02*
X63611200Y-102283700D01*
X59060000Y-64643000D02*
X60235100Y-64643000D01*
X78105000Y-64643000D02*
X76929900Y-64643000D01*
X75739300Y-63452400D02*
X76929900Y-64643000D01*
X61425700Y-63452400D02*
X75739300Y-63452400D01*
X60235100Y-64643000D02*
X61425700Y-63452400D01*
X59281900Y-100716800D02*
X59281900Y-101082000D01*
X56233100Y-97668000D02*
X59281900Y-100716800D01*
X39116000Y-97668000D02*
X56233100Y-97668000D01*
X60457000Y-101082000D02*
X59281900Y-101082000D01*
X23876000Y-97668000D02*
X25051100Y-97668000D01*
X57917000Y-101082000D02*
X56741900Y-101082000D01*
X56741900Y-100716800D02*
X56741900Y-101082000D01*
X54868200Y-98843100D02*
X56741900Y-100716800D01*
X38616700Y-98843100D02*
X54868200Y-98843100D01*
X37441600Y-97668000D02*
X38616700Y-98843100D01*
X25051100Y-97668000D02*
X37441600Y-97668000D01*
X83157900Y-99997000D02*
X83157900Y-100828000D01*
X82813700Y-99652800D02*
X83157900Y-99997000D01*
X65124500Y-99652800D02*
X82813700Y-99652800D01*
X61409800Y-95938100D02*
X65124500Y-99652800D01*
X41879300Y-95938100D02*
X61409800Y-95938100D01*
X39884800Y-93943600D02*
X41879300Y-95938100D01*
X26235500Y-93943600D02*
X39884800Y-93943600D01*
X25051100Y-95128000D02*
X26235500Y-93943600D01*
X23876000Y-95128000D02*
X25051100Y-95128000D01*
X84333000Y-100828000D02*
X83157900Y-100828000D01*
X216140000Y-68580000D02*
X214964900Y-68580000D01*
X211377200Y-72167700D02*
X138817500Y-72167700D01*
X214964900Y-68580000D02*
X211377200Y-72167700D01*
X23876000Y-84968000D02*
X25051100Y-84968000D01*
X43820000Y-77343000D02*
X42644900Y-77343000D01*
X31465600Y-78553500D02*
X25051100Y-84968000D01*
X41434400Y-78553500D02*
X31465600Y-78553500D01*
X42644900Y-77343000D02*
X41434400Y-78553500D01*
X23876000Y-82428000D02*
X25051100Y-82428000D01*
X43232500Y-74803000D02*
X42644900Y-74803000D01*
X43232500Y-74803000D02*
X43820000Y-74803000D01*
X46170200Y-75978100D02*
X62865000Y-75978100D01*
X44995100Y-74803000D02*
X46170200Y-75978100D01*
X43820000Y-74803000D02*
X44995100Y-74803000D01*
X62865000Y-74803000D02*
X62865000Y-75978100D01*
X62865000Y-74803000D02*
X64040100Y-74803000D01*
X41369900Y-76078000D02*
X42644900Y-74803000D01*
X38541600Y-76078000D02*
X41369900Y-76078000D01*
X37675200Y-76944400D02*
X38541600Y-76078000D01*
X30534700Y-76944400D02*
X37675200Y-76944400D01*
X25051100Y-82428000D02*
X30534700Y-76944400D01*
X139174400Y-69310500D02*
X151380300Y-69310500D01*
X138911300Y-69573600D02*
X139174400Y-69310500D01*
X103957200Y-69573600D02*
X138911300Y-69573600D01*
X102350300Y-71180500D02*
X103957200Y-69573600D01*
X96590700Y-71180500D02*
X102350300Y-71180500D01*
X94844800Y-72926400D02*
X96590700Y-71180500D01*
X88325300Y-72926400D02*
X94844800Y-72926400D01*
X85134700Y-76117000D02*
X88325300Y-72926400D01*
X65354100Y-76117000D02*
X85134700Y-76117000D01*
X64040100Y-74803000D02*
X65354100Y-76117000D01*
X23876000Y-79888000D02*
X25051100Y-79888000D01*
X59060000Y-72263000D02*
X57884900Y-72263000D01*
X59060000Y-72263000D02*
X60235100Y-72263000D01*
X61583200Y-70914900D02*
X76229900Y-70914900D01*
X60235100Y-72263000D02*
X61583200Y-70914900D01*
X25051100Y-79123800D02*
X25051100Y-79888000D01*
X30685800Y-73489100D02*
X25051100Y-79123800D01*
X40411200Y-73489100D02*
X30685800Y-73489100D01*
X42827900Y-71072400D02*
X40411200Y-73489100D01*
X56694300Y-71072400D02*
X42827900Y-71072400D01*
X57884900Y-72263000D02*
X56694300Y-71072400D01*
X29101700Y-76169300D02*
X37322700Y-76169300D01*
X26226300Y-71092800D02*
X40241800Y-71092800D01*
X25051100Y-72268000D02*
X26226300Y-71092800D01*
X23876000Y-72268000D02*
X25051100Y-72268000D01*
X75739300Y-73612400D02*
X76929900Y-74803000D01*
X61480900Y-73612400D02*
X75739300Y-73612400D01*
X60290300Y-74803000D02*
X61480900Y-73612400D01*
X59060000Y-74803000D02*
X60290300Y-74803000D01*
X78105000Y-74803000D02*
X76929900Y-74803000D01*
X64862000Y-77343000D02*
X63829600Y-76310600D01*
X78105000Y-77343000D02*
X64862000Y-77343000D01*
X25578000Y-70254900D02*
X36795000Y-70254900D01*
X25051100Y-69728000D02*
X25578000Y-70254900D01*
X23876000Y-69728000D02*
X25051100Y-69728000D01*
X78105000Y-82423000D02*
X76929900Y-82423000D01*
X59647600Y-82423000D02*
X60235100Y-82423000D01*
X59647600Y-82423000D02*
X59060000Y-82423000D01*
X23876000Y-67188000D02*
X23876000Y-68363100D01*
X59060000Y-82423000D02*
X57884900Y-82423000D01*
X23508800Y-68363100D02*
X23876000Y-68363100D01*
X22700800Y-69171100D02*
X23508800Y-68363100D01*
X22700800Y-72789200D02*
X22700800Y-69171100D01*
X23400900Y-73489300D02*
X22700800Y-72789200D01*
X24226100Y-73489300D02*
X23400900Y-73489300D01*
X25051200Y-74314400D02*
X24226100Y-73489300D01*
X25051200Y-77871500D02*
X25051200Y-74314400D01*
X24304700Y-78618000D02*
X25051200Y-77871500D01*
X23470300Y-78618000D02*
X24304700Y-78618000D01*
X22687800Y-79400500D02*
X23470300Y-78618000D01*
X22687800Y-85519400D02*
X22687800Y-79400500D01*
X23357500Y-86189100D02*
X22687800Y-85519400D01*
X26370000Y-86189100D02*
X23357500Y-86189100D01*
X28925600Y-83633500D02*
X26370000Y-86189100D01*
X40297600Y-83633500D02*
X28925600Y-83633500D01*
X40351600Y-83579500D02*
X40297600Y-83633500D01*
X41111900Y-83579500D02*
X40351600Y-83579500D01*
X41165900Y-83633500D02*
X41111900Y-83579500D01*
X56674400Y-83633500D02*
X41165900Y-83633500D01*
X57884900Y-82423000D02*
X56674400Y-83633500D01*
X61998200Y-84186100D02*
X60235100Y-82423000D01*
X63947600Y-84186100D02*
X61998200Y-84186100D01*
X64283400Y-83850300D02*
X63947600Y-84186100D01*
X75502600Y-83850300D02*
X64283400Y-83850300D01*
X76929900Y-82423000D02*
X75502600Y-83850300D01*
X23876000Y-64648000D02*
X25051100Y-64648000D01*
X29656400Y-69253300D02*
X37652200Y-69253300D01*
X25051100Y-64648000D02*
X29656400Y-69253300D01*
X78105000Y-79883000D02*
X76929900Y-79883000D01*
X48021800Y-79883000D02*
X59060000Y-79883000D01*
X44222100Y-76083300D02*
X48021800Y-79883000D01*
X42768700Y-76083300D02*
X44222100Y-76083300D01*
X75747900Y-78701000D02*
X76929900Y-79883000D01*
X61417100Y-78701000D02*
X75747900Y-78701000D01*
X60235100Y-79883000D02*
X61417100Y-78701000D01*
X59060000Y-79883000D02*
X60235100Y-79883000D01*
X23876000Y-62108000D02*
X25051100Y-62108000D01*
X59838000Y-81247800D02*
X35263900Y-81247800D01*
X62223100Y-83632900D02*
X59838000Y-81247800D01*
X63722800Y-83632900D02*
X62223100Y-83632900D01*
X64055500Y-83300200D02*
X63722800Y-83632900D01*
X72512600Y-83300200D02*
X64055500Y-83300200D01*
X72755500Y-83057300D02*
X72512600Y-83300200D01*
X31236700Y-68293600D02*
X33591500Y-68293600D01*
X25051100Y-62108000D02*
X31236700Y-68293600D01*
X53689600Y-58244100D02*
X54583400Y-57350300D01*
X42659800Y-58244100D02*
X53689600Y-58244100D01*
X40147000Y-60756900D02*
X42659800Y-58244100D01*
X36341300Y-60756900D02*
X40147000Y-60756900D01*
X32612400Y-57028000D02*
X36341300Y-60756900D01*
X23876000Y-57028000D02*
X32612400Y-57028000D01*
X56694300Y-53292400D02*
X57884900Y-54483000D01*
X26246700Y-53292400D02*
X56694300Y-53292400D01*
X25051100Y-54488000D02*
X26246700Y-53292400D01*
X23876000Y-54488000D02*
X25051100Y-54488000D01*
X59060000Y-54483000D02*
X57884900Y-54483000D01*
X41469900Y-50768000D02*
X42644900Y-51943000D01*
X26231100Y-50768000D02*
X41469900Y-50768000D01*
X25051100Y-51948000D02*
X26231100Y-50768000D01*
X23876000Y-51948000D02*
X25051100Y-51948000D01*
X43820000Y-51943000D02*
X42644900Y-51943000D01*
X78105000Y-62103000D02*
X76929900Y-62103000D01*
X59060000Y-62103000D02*
X59060000Y-60974000D01*
X59130500Y-60903500D02*
X59060000Y-60974000D01*
X75730400Y-60903500D02*
X59130500Y-60903500D01*
X76929900Y-62103000D02*
X75730400Y-60903500D01*
X23876000Y-49408000D02*
X23876000Y-50583100D01*
X59060000Y-62103000D02*
X57884900Y-62103000D01*
X56663800Y-60881900D02*
X57884900Y-62103000D01*
X42562000Y-60881900D02*
X56663800Y-60881900D01*
X40143900Y-63300000D02*
X42562000Y-60881900D01*
X36355000Y-63300000D02*
X40143900Y-63300000D01*
X31353000Y-58298000D02*
X36355000Y-63300000D01*
X23415100Y-58298000D02*
X31353000Y-58298000D01*
X22700600Y-57583500D02*
X23415100Y-58298000D01*
X22700600Y-51391300D02*
X22700600Y-57583500D01*
X23508800Y-50583100D02*
X22700600Y-51391300D01*
X23876000Y-50583100D02*
X23508800Y-50583100D01*
X145293000Y-38090000D02*
X144117900Y-38090000D01*
X144117900Y-37724800D02*
X144117900Y-38090000D01*
X143130500Y-36737400D02*
X144117900Y-37724800D01*
X119518800Y-36737400D02*
X143130500Y-36737400D01*
X118840200Y-36058800D02*
X119518800Y-36737400D01*
X113568700Y-36058800D02*
X118840200Y-36058800D01*
X113295600Y-35785700D02*
X113568700Y-36058800D01*
X46557700Y-35785700D02*
X113295600Y-35785700D01*
X37846000Y-44497400D02*
X46557700Y-35785700D01*
X37846000Y-45353400D02*
X37846000Y-44497400D01*
X35745700Y-47453700D02*
X37846000Y-45353400D01*
X34528500Y-47453700D02*
X35745700Y-47453700D01*
D31*
X91948000Y-87122000D02*
X95798000Y-87122000D01*
X213176000Y-68580000D02*
X210044000Y-68580000D01*
X210044000Y-68580000D02*
X207010000Y-68580000D01*
X207010000Y-68580000D02*
X203948000Y-68580000D01*
X203948000Y-68580000D02*
X200900000Y-68580000D01*
X75507900Y-18532000D02*
X71189900Y-22850000D01*
X86365000Y-18532000D02*
X75507900Y-18532000D01*
X200900000Y-68580000D02*
X197852000Y-68580000D01*
X33406000Y-22733000D02*
X36581000Y-22733000D01*
X59060000Y-49403000D02*
X59060000Y-48002900D01*
X20412200Y-78271800D02*
X23876000Y-74808000D01*
X20412200Y-79930900D02*
X20412200Y-78271800D01*
X16650100Y-83693000D02*
X20412200Y-79930900D01*
X15870000Y-83693000D02*
X16650100Y-83693000D01*
X13965000Y-85598000D02*
X15870000Y-83693000D01*
X87336600Y-91733400D02*
X91948000Y-87122000D01*
X83267600Y-91733400D02*
X87336600Y-91733400D01*
X81793000Y-93208000D02*
X83267600Y-91733400D01*
X109474000Y-38100000D02*
X108073900Y-38100000D01*
X198369000Y-39868000D02*
X196968900Y-39868000D01*
X23876000Y-37328000D02*
X23876000Y-35927900D01*
X30304400Y-29499500D02*
X23876000Y-35927900D01*
X30304400Y-22733000D02*
X30304400Y-29499500D01*
X28961000Y-22733000D02*
X30304400Y-22733000D01*
X30304400Y-22733000D02*
X33406000Y-22733000D01*
X59060000Y-48002900D02*
X59060000Y-46930400D01*
X47478400Y-46930400D02*
X45506000Y-44958000D01*
X59060000Y-46930400D02*
X47478400Y-46930400D01*
X78105000Y-44323000D02*
X79505100Y-44323000D01*
X78105000Y-49403000D02*
X79505100Y-49403000D01*
X176271000Y-39878000D02*
X174870900Y-39878000D01*
X104266700Y-41907200D02*
X108073900Y-38100000D01*
X90172800Y-41907200D02*
X104266700Y-41907200D01*
X87122000Y-44958000D02*
X90172800Y-41907200D01*
X106793900Y-59700000D02*
X97160000Y-59700000D01*
X108073900Y-58420000D02*
X106793900Y-59700000D01*
X109474000Y-58420000D02*
X108073900Y-58420000D01*
X110877700Y-39503700D02*
X109474000Y-38100000D01*
X137399200Y-39503700D02*
X110877700Y-39503700D01*
X138812900Y-38090000D02*
X137399200Y-39503700D01*
X140213000Y-38090000D02*
X138812900Y-38090000D01*
X195502300Y-41334600D02*
X196968900Y-39868000D01*
X177727600Y-41334600D02*
X195502300Y-41334600D01*
X176271000Y-39878000D02*
X177727600Y-41334600D01*
X81793000Y-93208000D02*
X80392900Y-93208000D01*
X49157100Y-92061900D02*
X47757000Y-93462000D01*
X79246800Y-92061900D02*
X49157100Y-92061900D01*
X80392900Y-93208000D02*
X79246800Y-92061900D01*
X171376100Y-68580000D02*
X197852000Y-68580000D01*
X169598100Y-70358000D02*
X171376100Y-68580000D01*
X168148000Y-70358000D02*
X169598100Y-70358000D01*
X143094000Y-40971000D02*
X172466000Y-40971000D01*
X140213000Y-38090000D02*
X143094000Y-40971000D01*
X172466000Y-41188000D02*
X172466000Y-40971000D01*
X173559000Y-39878000D02*
X174870900Y-39878000D01*
X172466000Y-40971000D02*
X173559000Y-39878000D01*
X42931000Y-22733000D02*
X39756000Y-22733000D01*
X39756000Y-22733000D02*
X36581000Y-22733000D01*
X69565900Y-44323000D02*
X78105000Y-44323000D01*
X68159500Y-42916600D02*
X69565900Y-44323000D01*
X61817900Y-42916600D02*
X68159500Y-42916600D01*
X61417600Y-43316900D02*
X61817900Y-42916600D01*
X61417600Y-44572800D02*
X61417600Y-43316900D01*
X59060000Y-46930400D02*
X61417600Y-44572800D01*
X87112400Y-44967600D02*
X87122000Y-44958000D01*
X80140100Y-44967600D02*
X87112400Y-44967600D01*
X80140100Y-44958000D02*
X80140100Y-44967600D01*
X79505100Y-44323000D02*
X80140100Y-44958000D01*
X80140100Y-48768000D02*
X79505100Y-49403000D01*
X80140100Y-44967600D02*
X80140100Y-48768000D01*
D30*
X23876000Y-87508000D02*
X25051100Y-87508000D01*
X26295200Y-87508000D02*
X25051100Y-87508000D01*
X27611600Y-88824400D02*
X26295200Y-87508000D01*
X62356800Y-88824400D02*
X27611600Y-88824400D01*
X62379600Y-88847200D02*
X62356800Y-88824400D01*
X83639300Y-88847200D02*
X62379600Y-88847200D01*
X90703400Y-81783100D02*
X83639300Y-88847200D01*
D31*
X58928000Y-41783000D02*
X60378100Y-41783000D01*
X206708000Y-17272000D02*
X210248000Y-17272000D01*
X172974000Y-30743500D02*
X175514000Y-30743500D01*
X180594000Y-30743500D02*
X183134000Y-30743500D01*
X183134000Y-30743500D02*
X185674000Y-30743500D01*
X185674000Y-30743500D02*
X188214000Y-30743500D01*
X188214000Y-30743500D02*
X190754000Y-30743500D01*
X190754000Y-30743500D02*
X193294000Y-30743500D01*
X193294000Y-30743500D02*
X195834000Y-30743500D01*
X195834000Y-30743500D02*
X198374000Y-30743500D01*
X203454000Y-30743500D02*
X205994000Y-30743500D01*
X205994000Y-30743500D02*
X208534000Y-30743500D01*
X208534000Y-30743500D02*
X211074000Y-30743500D01*
X211074000Y-30743500D02*
X213614000Y-30743500D01*
X117084000Y-8146300D02*
X114314000Y-8146300D01*
X103234000Y-8146300D02*
X100464000Y-8146300D01*
X100464000Y-8146300D02*
X97694000Y-8146300D01*
X97694000Y-8146300D02*
X94924000Y-8146300D01*
X156416000Y-17310700D02*
X159956000Y-17310700D01*
X132334000Y-45720000D02*
X133734100Y-45720000D01*
X208527000Y-53970100D02*
X213609000Y-48888100D01*
X208527000Y-58920500D02*
X208527000Y-53970100D01*
X201417500Y-66030000D02*
X208527000Y-58920500D01*
X193807000Y-66030000D02*
X201417500Y-66030000D01*
X213609000Y-47488000D02*
X213609000Y-48888100D01*
X217016100Y-45481000D02*
X215009100Y-47488000D01*
X225298000Y-45481000D02*
X217016100Y-45481000D01*
X213609000Y-47488000D02*
X215009100Y-47488000D01*
X172556200Y-46097800D02*
X172466000Y-46188000D01*
X190110800Y-46097800D02*
X172556200Y-46097800D01*
X191511000Y-47498000D02*
X190110800Y-46097800D01*
X64551000Y-82137100D02*
X64265100Y-82423000D01*
X71168600Y-82137100D02*
X64551000Y-82137100D01*
X62865000Y-82423000D02*
X64265100Y-82423000D01*
X198374000Y-30743500D02*
X200914000Y-30743500D01*
X200914000Y-30743500D02*
X203454000Y-30743500D01*
X103234000Y-8146300D02*
X106004000Y-8146300D01*
X106004000Y-8146300D02*
X108774000Y-8146300D01*
X160022500Y-42659500D02*
X163073000Y-45710000D01*
X136825500Y-42659500D02*
X160022500Y-42659500D01*
X133765000Y-45720000D02*
X136825500Y-42659500D01*
X133734100Y-45720000D02*
X133765000Y-45720000D01*
X175514000Y-30743500D02*
X178054000Y-30743500D01*
X178054000Y-30743500D02*
X180594000Y-30743500D01*
X108774000Y-8146300D02*
X111544000Y-8146300D01*
X111544000Y-8146300D02*
X114314000Y-8146300D01*
X144490200Y-103171900D02*
X145044000Y-102618100D01*
X108397000Y-103171900D02*
X144490200Y-103171900D01*
X106053100Y-100828000D02*
X108397000Y-103171900D01*
X104653000Y-100828000D02*
X106053100Y-100828000D01*
X145044000Y-100818000D02*
X145044000Y-102618100D01*
X15942300Y-97635700D02*
X14518000Y-99060000D01*
X20232100Y-97635700D02*
X15942300Y-97635700D01*
X24196400Y-101600000D02*
X20232100Y-97635700D01*
X29290000Y-101600000D02*
X24196400Y-101600000D01*
X217922500Y-35052000D02*
X225298000Y-35052000D01*
X213614000Y-30743500D02*
X217922500Y-35052000D01*
X226748100Y-35052000D02*
X226748100Y-45481000D01*
X225298000Y-35052000D02*
X226748100Y-35052000D01*
X225298000Y-45481000D02*
X226498100Y-45481000D01*
X226498100Y-45481000D02*
X226748100Y-45481000D01*
X226748100Y-53238800D02*
X225298000Y-54688900D01*
X226748100Y-45481000D02*
X226748100Y-53238800D01*
X225298000Y-56139000D02*
X225298000Y-54688900D01*
X41909600Y-43554500D02*
X40516100Y-44948000D01*
X49102500Y-43554500D02*
X41909600Y-43554500D01*
X50506000Y-44958000D02*
X49102500Y-43554500D01*
X39116000Y-44948000D02*
X40516100Y-44948000D01*
X28396900Y-20098200D02*
X25635100Y-22860000D01*
X49370800Y-20098200D02*
X28396900Y-20098200D01*
X50820000Y-18649000D02*
X49370800Y-20098200D01*
X24135000Y-22860000D02*
X25635100Y-22860000D01*
X61521100Y-40640000D02*
X67863000Y-40640000D01*
X60378100Y-41783000D02*
X61521100Y-40640000D01*
X82023400Y-42049900D02*
X83941000Y-43967500D01*
X69272900Y-42049900D02*
X82023400Y-42049900D01*
X67863000Y-40640000D02*
X69272900Y-42049900D01*
D30*
X93317900Y-101193200D02*
X93317900Y-100828000D01*
X91677200Y-102833900D02*
X93317900Y-101193200D01*
X23291900Y-102833900D02*
X91677200Y-102833900D01*
X19518000Y-99060000D02*
X23291900Y-102833900D01*
X94493000Y-100828000D02*
X93317900Y-100828000D01*
X25469400Y-88824200D02*
X25992300Y-88301300D01*
X23030000Y-88824200D02*
X25469400Y-88824200D01*
X19398200Y-92456000D02*
X23030000Y-88824200D01*
X18223100Y-92456000D02*
X19398200Y-92456000D01*
M02*
