G04 #@! TF.GenerationSoftware,KiCad,Pcbnew,8.0.3*
G04 #@! TF.CreationDate,2024-07-12T16:59:53+02:00*
G04 #@! TF.ProjectId,Sally2,53616c6c-7932-42e6-9b69-6361645f7063,rev?*
G04 #@! TF.SameCoordinates,Original*
G04 #@! TF.FileFunction,Soldermask,Bot*
G04 #@! TF.FilePolarity,Negative*
%FSLAX46Y46*%
G04 Gerber Fmt 4.6, Leading zero omitted, Abs format (unit mm)*
G04 Created by KiCad (PCBNEW 8.0.3) date 2024-07-12 16:59:53*
%MOMM*%
%LPD*%
G01*
G04 APERTURE LIST*
G04 Aperture macros list*
%AMRoundRect*
0 Rectangle with rounded corners*
0 $1 Rounding radius*
0 $2 $3 $4 $5 $6 $7 $8 $9 X,Y pos of 4 corners*
0 Add a 4 corners polygon primitive as box body*
4,1,4,$2,$3,$4,$5,$6,$7,$8,$9,$2,$3,0*
0 Add four circle primitives for the rounded corners*
1,1,$1+$1,$2,$3*
1,1,$1+$1,$4,$5*
1,1,$1+$1,$6,$7*
1,1,$1+$1,$8,$9*
0 Add four rect primitives between the rounded corners*
20,1,$1+$1,$2,$3,$4,$5,0*
20,1,$1+$1,$4,$5,$6,$7,0*
20,1,$1+$1,$6,$7,$8,$9,0*
20,1,$1+$1,$8,$9,$2,$3,0*%
G04 Aperture macros list end*
%ADD10R,1.700000X1.700000*%
%ADD11O,1.700000X1.700000*%
%ADD12R,1.800000X1.800000*%
%ADD13C,1.800000*%
%ADD14C,1.600000*%
%ADD15R,1.600000X1.600000*%
%ADD16C,4.000000*%
%ADD17C,4.300000*%
%ADD18O,1.600000X1.600000*%
%ADD19C,3.000000*%
%ADD20C,1.879600*%
%ADD21RoundRect,0.101600X-0.838200X-0.838200X0.838200X-0.838200X0.838200X0.838200X-0.838200X0.838200X0*%
%ADD22C,4.203200*%
%ADD23R,1.600000X2.400000*%
%ADD24O,1.600000X2.400000*%
%ADD25C,1.400000*%
%ADD26O,1.400000X1.400000*%
%ADD27RoundRect,0.250000X-0.600000X0.600000X-0.600000X-0.600000X0.600000X-0.600000X0.600000X0.600000X0*%
%ADD28C,1.700000*%
%ADD29R,3.500000X3.500000*%
%ADD30RoundRect,0.750000X-1.000000X0.750000X-1.000000X-0.750000X1.000000X-0.750000X1.000000X0.750000X0*%
%ADD31RoundRect,0.875000X-0.875000X0.875000X-0.875000X-0.875000X0.875000X-0.875000X0.875000X0.875000X0*%
%ADD32C,0.800000*%
G04 APERTURE END LIST*
D10*
X137414000Y-146812000D03*
D11*
X139954000Y-146812000D03*
X142494000Y-146812000D03*
X145034000Y-146812000D03*
X147574000Y-146812000D03*
X150114000Y-146812000D03*
X152654000Y-146812000D03*
X155194000Y-146812000D03*
X157734000Y-146812000D03*
X160274000Y-146812000D03*
X162814000Y-146812000D03*
X165354000Y-146812000D03*
X167894000Y-146812000D03*
X170434000Y-146812000D03*
X172974000Y-146812000D03*
X175514000Y-146812000D03*
X178054000Y-146812000D03*
X180594000Y-146812000D03*
X183134000Y-146812000D03*
X185674000Y-146812000D03*
X188214000Y-146812000D03*
X190754000Y-146812000D03*
X193294000Y-146812000D03*
X195834000Y-146812000D03*
X198374000Y-146812000D03*
X200914000Y-146812000D03*
X203454000Y-146812000D03*
X205994000Y-146812000D03*
X208534000Y-146812000D03*
X211074000Y-146812000D03*
X213614000Y-146812000D03*
X216154000Y-146812000D03*
X218694000Y-146812000D03*
X221234000Y-146812000D03*
D10*
X20574000Y-146812000D03*
D11*
X23114000Y-146812000D03*
X25654000Y-146812000D03*
X28194000Y-146812000D03*
X30734000Y-146812000D03*
X33274000Y-146812000D03*
X35814000Y-146812000D03*
X38354000Y-146812000D03*
X40894000Y-146812000D03*
X43434000Y-146812000D03*
X45974000Y-146812000D03*
X48514000Y-146812000D03*
X51054000Y-146812000D03*
X53594000Y-146812000D03*
X56134000Y-146812000D03*
X58674000Y-146812000D03*
X61214000Y-146812000D03*
X63754000Y-146812000D03*
X66294000Y-146812000D03*
X68834000Y-146812000D03*
X71374000Y-146812000D03*
X73914000Y-146812000D03*
X76454000Y-146812000D03*
X78994000Y-146812000D03*
X81534000Y-146812000D03*
X84074000Y-146812000D03*
X86614000Y-146812000D03*
X89154000Y-146812000D03*
X91694000Y-146812000D03*
X94234000Y-146812000D03*
X96774000Y-146812000D03*
X99314000Y-146812000D03*
X101854000Y-146812000D03*
X104394000Y-146812000D03*
D10*
X137414000Y-141732000D03*
D11*
X137414000Y-144272000D03*
X139954000Y-141732000D03*
X139954000Y-144272000D03*
X142494000Y-141732000D03*
X142494000Y-144272000D03*
X145034000Y-141732000D03*
X145034000Y-144272000D03*
X147574000Y-141732000D03*
X147574000Y-144272000D03*
X150114000Y-141732000D03*
X150114000Y-144272000D03*
X152654000Y-141732000D03*
X152654000Y-144272000D03*
X155194000Y-141732000D03*
X155194000Y-144272000D03*
X157734000Y-141732000D03*
X157734000Y-144272000D03*
X160274000Y-141732000D03*
X160274000Y-144272000D03*
X162814000Y-141732000D03*
X162814000Y-144272000D03*
X165354000Y-141732000D03*
X165354000Y-144272000D03*
X167894000Y-141732000D03*
X167894000Y-144272000D03*
X170434000Y-141732000D03*
X170434000Y-144272000D03*
X172974000Y-141732000D03*
X172974000Y-144272000D03*
X175514000Y-141732000D03*
X175514000Y-144272000D03*
X178054000Y-141732000D03*
X178054000Y-144272000D03*
X180594000Y-141732000D03*
X180594000Y-144272000D03*
X183134000Y-141732000D03*
X183134000Y-144272000D03*
X185674000Y-141732000D03*
X185674000Y-144272000D03*
X188214000Y-141732000D03*
X188214000Y-144272000D03*
X190754000Y-141732000D03*
X190754000Y-144272000D03*
X193294000Y-141732000D03*
X193294000Y-144272000D03*
X195834000Y-141732000D03*
X195834000Y-144272000D03*
X198374000Y-141732000D03*
X198374000Y-144272000D03*
X200914000Y-141732000D03*
X200914000Y-144272000D03*
X203454000Y-141732000D03*
X203454000Y-144272000D03*
X205994000Y-141732000D03*
X205994000Y-144272000D03*
X208534000Y-141732000D03*
X208534000Y-144272000D03*
X211074000Y-141732000D03*
X211074000Y-144272000D03*
X213614000Y-141732000D03*
X213614000Y-144272000D03*
X216154000Y-141732000D03*
X216154000Y-144272000D03*
X218694000Y-141732000D03*
X218694000Y-144272000D03*
X221234000Y-141732000D03*
X221234000Y-144272000D03*
D10*
X20574000Y-141732000D03*
D11*
X20574000Y-144272000D03*
X23114000Y-141732000D03*
X23114000Y-144272000D03*
X25654000Y-141732000D03*
X25654000Y-144272000D03*
X28194000Y-141732000D03*
X28194000Y-144272000D03*
X30734000Y-141732000D03*
X30734000Y-144272000D03*
X33274000Y-141732000D03*
X33274000Y-144272000D03*
X35814000Y-141732000D03*
X35814000Y-144272000D03*
X38354000Y-141732000D03*
X38354000Y-144272000D03*
X40894000Y-141732000D03*
X40894000Y-144272000D03*
X43434000Y-141732000D03*
X43434000Y-144272000D03*
X45974000Y-141732000D03*
X45974000Y-144272000D03*
X48514000Y-141732000D03*
X48514000Y-144272000D03*
X51054000Y-141732000D03*
X51054000Y-144272000D03*
X53594000Y-141732000D03*
X53594000Y-144272000D03*
X56134000Y-141732000D03*
X56134000Y-144272000D03*
X58674000Y-141732000D03*
X58674000Y-144272000D03*
X61214000Y-141732000D03*
X61214000Y-144272000D03*
X63754000Y-141732000D03*
X63754000Y-144272000D03*
X66294000Y-141732000D03*
X66294000Y-144272000D03*
X68834000Y-141732000D03*
X68834000Y-144272000D03*
X71374000Y-141732000D03*
X71374000Y-144272000D03*
X73914000Y-141732000D03*
X73914000Y-144272000D03*
X76454000Y-141732000D03*
X76454000Y-144272000D03*
X78994000Y-141732000D03*
X78994000Y-144272000D03*
X81534000Y-141732000D03*
X81534000Y-144272000D03*
X84074000Y-141732000D03*
X84074000Y-144272000D03*
X86614000Y-141732000D03*
X86614000Y-144272000D03*
X89154000Y-141732000D03*
X89154000Y-144272000D03*
X91694000Y-141732000D03*
X91694000Y-144272000D03*
X94234000Y-141732000D03*
X94234000Y-144272000D03*
X96774000Y-141732000D03*
X96774000Y-144272000D03*
X99314000Y-141732000D03*
X99314000Y-144272000D03*
X101854000Y-141732000D03*
X101854000Y-144272000D03*
X104394000Y-141732000D03*
X104394000Y-144272000D03*
D10*
X226314000Y-106172000D03*
D11*
X226314000Y-108712000D03*
X226314000Y-111252000D03*
X226314000Y-113792000D03*
X226314000Y-116332000D03*
X226314000Y-118872000D03*
X226314000Y-121412000D03*
X226314000Y-123952000D03*
X226314000Y-126492000D03*
X226314000Y-129032000D03*
X226314000Y-131572000D03*
X226314000Y-134112000D03*
X226314000Y-136652000D03*
X226314000Y-139192000D03*
D10*
X223774000Y-106172000D03*
D11*
X221234000Y-106172000D03*
X223774000Y-108712000D03*
X221234000Y-108712000D03*
X223774000Y-111252000D03*
X221234000Y-111252000D03*
X223774000Y-113792000D03*
X221234000Y-113792000D03*
X223774000Y-116332000D03*
X221234000Y-116332000D03*
X223774000Y-118872000D03*
X221234000Y-118872000D03*
X223774000Y-121412000D03*
X221234000Y-121412000D03*
X223774000Y-123952000D03*
X221234000Y-123952000D03*
X223774000Y-126492000D03*
X221234000Y-126492000D03*
X223774000Y-129032000D03*
X221234000Y-129032000D03*
X223774000Y-131572000D03*
X221234000Y-131572000D03*
X223774000Y-134112000D03*
X221234000Y-134112000D03*
X223774000Y-136652000D03*
X221234000Y-136652000D03*
X223774000Y-139192000D03*
X221234000Y-139192000D03*
D10*
X218694000Y-106172000D03*
D11*
X216154000Y-106172000D03*
X218694000Y-108712000D03*
X216154000Y-108712000D03*
X218694000Y-111252000D03*
X216154000Y-111252000D03*
X218694000Y-113792000D03*
X216154000Y-113792000D03*
X218694000Y-116332000D03*
X216154000Y-116332000D03*
X218694000Y-118872000D03*
X216154000Y-118872000D03*
X218694000Y-121412000D03*
X216154000Y-121412000D03*
X218694000Y-123952000D03*
X216154000Y-123952000D03*
X218694000Y-126492000D03*
X216154000Y-126492000D03*
X218694000Y-129032000D03*
X216154000Y-129032000D03*
X218694000Y-131572000D03*
X216154000Y-131572000D03*
X218694000Y-134112000D03*
X216154000Y-134112000D03*
X218694000Y-136652000D03*
X216154000Y-136652000D03*
X218694000Y-139192000D03*
X216154000Y-139192000D03*
D10*
X175514000Y-80772000D03*
D11*
X175514000Y-83312000D03*
X178054000Y-80772000D03*
X178054000Y-83312000D03*
X180594000Y-80772000D03*
X180594000Y-83312000D03*
X183134000Y-80772000D03*
X183134000Y-83312000D03*
X185674000Y-80772000D03*
X185674000Y-83312000D03*
X188214000Y-80772000D03*
X188214000Y-83312000D03*
X190754000Y-80772000D03*
X190754000Y-83312000D03*
X193294000Y-80772000D03*
X193294000Y-83312000D03*
X195834000Y-80772000D03*
X195834000Y-83312000D03*
X198374000Y-80772000D03*
X198374000Y-83312000D03*
X200914000Y-80772000D03*
X200914000Y-83312000D03*
X203454000Y-80772000D03*
X203454000Y-83312000D03*
X205994000Y-80772000D03*
X205994000Y-83312000D03*
X208534000Y-80772000D03*
X208534000Y-83312000D03*
X211074000Y-80772000D03*
X211074000Y-83312000D03*
X213614000Y-80772000D03*
X213614000Y-83312000D03*
X216154000Y-80772000D03*
X216154000Y-83312000D03*
X218694000Y-80772000D03*
X218694000Y-83312000D03*
X221234000Y-80772000D03*
X221234000Y-83312000D03*
X223774000Y-80772000D03*
X223774000Y-83312000D03*
X226314000Y-80772000D03*
X226314000Y-83312000D03*
D10*
X170434000Y-85852000D03*
D11*
X170434000Y-88392000D03*
X172974000Y-85852000D03*
X172974000Y-88392000D03*
X175514000Y-85852000D03*
X175514000Y-88392000D03*
X178054000Y-85852000D03*
X178054000Y-88392000D03*
X180594000Y-85852000D03*
X180594000Y-88392000D03*
X183134000Y-85852000D03*
X183134000Y-88392000D03*
X185674000Y-85852000D03*
X185674000Y-88392000D03*
X188214000Y-85852000D03*
X188214000Y-88392000D03*
X190754000Y-85852000D03*
X190754000Y-88392000D03*
X193294000Y-85852000D03*
X193294000Y-88392000D03*
X195834000Y-85852000D03*
X195834000Y-88392000D03*
X198374000Y-85852000D03*
X198374000Y-88392000D03*
X200914000Y-85852000D03*
X200914000Y-88392000D03*
X203454000Y-85852000D03*
X203454000Y-88392000D03*
X205994000Y-85852000D03*
X205994000Y-88392000D03*
X208534000Y-85852000D03*
X208534000Y-88392000D03*
X211074000Y-85852000D03*
X211074000Y-88392000D03*
X213614000Y-85852000D03*
X213614000Y-88392000D03*
X216154000Y-85852000D03*
X216154000Y-88392000D03*
X218694000Y-85852000D03*
X218694000Y-88392000D03*
X221234000Y-85852000D03*
X221234000Y-88392000D03*
X223774000Y-85852000D03*
X223774000Y-88392000D03*
X226314000Y-85852000D03*
X226314000Y-88392000D03*
D10*
X165354000Y-90932000D03*
D11*
X165354000Y-93472000D03*
X167894000Y-90932000D03*
X167894000Y-93472000D03*
X170434000Y-90932000D03*
X170434000Y-93472000D03*
X172974000Y-90932000D03*
X172974000Y-93472000D03*
X175514000Y-90932000D03*
X175514000Y-93472000D03*
X178054000Y-90932000D03*
X178054000Y-93472000D03*
X180594000Y-90932000D03*
X180594000Y-93472000D03*
X183134000Y-90932000D03*
X183134000Y-93472000D03*
X185674000Y-90932000D03*
X185674000Y-93472000D03*
X188214000Y-90932000D03*
X188214000Y-93472000D03*
X190754000Y-90932000D03*
X190754000Y-93472000D03*
X193294000Y-90932000D03*
X193294000Y-93472000D03*
X195834000Y-90932000D03*
X195834000Y-93472000D03*
X198374000Y-90932000D03*
X198374000Y-93472000D03*
X200914000Y-90932000D03*
X200914000Y-93472000D03*
X203454000Y-90932000D03*
X203454000Y-93472000D03*
X205994000Y-90932000D03*
X205994000Y-93472000D03*
X208534000Y-90932000D03*
X208534000Y-93472000D03*
X211074000Y-90932000D03*
X211074000Y-93472000D03*
X213614000Y-90932000D03*
X213614000Y-93472000D03*
X216154000Y-90932000D03*
X216154000Y-93472000D03*
X218694000Y-90932000D03*
X218694000Y-93472000D03*
X221234000Y-90932000D03*
X221234000Y-93472000D03*
X223774000Y-90932000D03*
X223774000Y-93472000D03*
X226314000Y-90932000D03*
X226314000Y-93472000D03*
D10*
X160274000Y-96012000D03*
D11*
X160274000Y-98552000D03*
X162814000Y-96012000D03*
X162814000Y-98552000D03*
X165354000Y-96012000D03*
X165354000Y-98552000D03*
X167894000Y-96012000D03*
X167894000Y-98552000D03*
X170434000Y-96012000D03*
X170434000Y-98552000D03*
X172974000Y-96012000D03*
X172974000Y-98552000D03*
X175514000Y-96012000D03*
X175514000Y-98552000D03*
X178054000Y-96012000D03*
X178054000Y-98552000D03*
X180594000Y-96012000D03*
X180594000Y-98552000D03*
X183134000Y-96012000D03*
X183134000Y-98552000D03*
X185674000Y-96012000D03*
X185674000Y-98552000D03*
X188214000Y-96012000D03*
X188214000Y-98552000D03*
X190754000Y-96012000D03*
X190754000Y-98552000D03*
X193294000Y-96012000D03*
X193294000Y-98552000D03*
X195834000Y-96012000D03*
X195834000Y-98552000D03*
X198374000Y-96012000D03*
X198374000Y-98552000D03*
X200914000Y-96012000D03*
X200914000Y-98552000D03*
X203454000Y-96012000D03*
X203454000Y-98552000D03*
X205994000Y-96012000D03*
X205994000Y-98552000D03*
X208534000Y-96012000D03*
X208534000Y-98552000D03*
X211074000Y-96012000D03*
X211074000Y-98552000D03*
X213614000Y-96012000D03*
X213614000Y-98552000D03*
X216154000Y-96012000D03*
X216154000Y-98552000D03*
X218694000Y-96012000D03*
X218694000Y-98552000D03*
X221234000Y-96012000D03*
X221234000Y-98552000D03*
X223774000Y-96012000D03*
X223774000Y-98552000D03*
X226314000Y-96012000D03*
X226314000Y-98552000D03*
D10*
X155194000Y-101092000D03*
D11*
X155194000Y-103632000D03*
X157734000Y-101092000D03*
X157734000Y-103632000D03*
X160274000Y-101092000D03*
X160274000Y-103632000D03*
X162814000Y-101092000D03*
X162814000Y-103632000D03*
X165354000Y-101092000D03*
X165354000Y-103632000D03*
X167894000Y-101092000D03*
X167894000Y-103632000D03*
X170434000Y-101092000D03*
X170434000Y-103632000D03*
X172974000Y-101092000D03*
X172974000Y-103632000D03*
X175514000Y-101092000D03*
X175514000Y-103632000D03*
X178054000Y-101092000D03*
X178054000Y-103632000D03*
X180594000Y-101092000D03*
X180594000Y-103632000D03*
X183134000Y-101092000D03*
X183134000Y-103632000D03*
X185674000Y-101092000D03*
X185674000Y-103632000D03*
X188214000Y-101092000D03*
X188214000Y-103632000D03*
X190754000Y-101092000D03*
X190754000Y-103632000D03*
X193294000Y-101092000D03*
X193294000Y-103632000D03*
X195834000Y-101092000D03*
X195834000Y-103632000D03*
X198374000Y-101092000D03*
X198374000Y-103632000D03*
X200914000Y-101092000D03*
X200914000Y-103632000D03*
X203454000Y-101092000D03*
X203454000Y-103632000D03*
X205994000Y-101092000D03*
X205994000Y-103632000D03*
X208534000Y-101092000D03*
X208534000Y-103632000D03*
X211074000Y-101092000D03*
X211074000Y-103632000D03*
X213614000Y-101092000D03*
X213614000Y-103632000D03*
X216154000Y-101092000D03*
X216154000Y-103632000D03*
X218694000Y-101092000D03*
X218694000Y-103632000D03*
X221234000Y-101092000D03*
X221234000Y-103632000D03*
X223774000Y-101092000D03*
X223774000Y-103632000D03*
X226314000Y-101092000D03*
X226314000Y-103632000D03*
X213614000Y-113792000D03*
X213614000Y-111252000D03*
X211074000Y-113792000D03*
X211074000Y-111252000D03*
X208534000Y-113792000D03*
X208534000Y-111252000D03*
X205994000Y-113792000D03*
X205994000Y-111252000D03*
X203454000Y-113792000D03*
X203454000Y-111252000D03*
X200914000Y-113792000D03*
X200914000Y-111252000D03*
X198374000Y-113792000D03*
X198374000Y-111252000D03*
X195834000Y-113792000D03*
X195834000Y-111252000D03*
X193294000Y-113792000D03*
X193294000Y-111252000D03*
X190754000Y-113792000D03*
X190754000Y-111252000D03*
X188214000Y-113792000D03*
X188214000Y-111252000D03*
X185674000Y-113792000D03*
X185674000Y-111252000D03*
X183134000Y-113792000D03*
X183134000Y-111252000D03*
X180594000Y-113792000D03*
X180594000Y-111252000D03*
X178054000Y-113792000D03*
X178054000Y-111252000D03*
X175514000Y-113792000D03*
X175514000Y-111252000D03*
X172974000Y-113792000D03*
X172974000Y-111252000D03*
X170434000Y-113792000D03*
X170434000Y-111252000D03*
X167894000Y-113792000D03*
X167894000Y-111252000D03*
X165354000Y-113792000D03*
X165354000Y-111252000D03*
X162814000Y-113792000D03*
X162814000Y-111252000D03*
X160274000Y-113792000D03*
X160274000Y-111252000D03*
X157734000Y-113792000D03*
X157734000Y-111252000D03*
X155194000Y-113792000D03*
X155194000Y-111252000D03*
X152654000Y-113792000D03*
X152654000Y-111252000D03*
X150114000Y-113792000D03*
X150114000Y-111252000D03*
X147574000Y-113792000D03*
X147574000Y-111252000D03*
X145034000Y-113792000D03*
X145034000Y-111252000D03*
X142494000Y-113792000D03*
X142494000Y-111252000D03*
X139954000Y-113792000D03*
X139954000Y-111252000D03*
X137414000Y-113792000D03*
X137414000Y-111252000D03*
X134874000Y-113792000D03*
X134874000Y-111252000D03*
X132334000Y-113792000D03*
X132334000Y-111252000D03*
X129794000Y-113792000D03*
X129794000Y-111252000D03*
X127254000Y-113792000D03*
X127254000Y-111252000D03*
X124714000Y-113792000D03*
X124714000Y-111252000D03*
X122174000Y-113792000D03*
X122174000Y-111252000D03*
X119634000Y-113792000D03*
X119634000Y-111252000D03*
X117094000Y-113792000D03*
X117094000Y-111252000D03*
X114554000Y-113792000D03*
D10*
X114554000Y-111252000D03*
D11*
X112014000Y-108712000D03*
X112014000Y-106172000D03*
X109474000Y-108712000D03*
X109474000Y-106172000D03*
X106934000Y-108712000D03*
X106934000Y-106172000D03*
X104394000Y-108712000D03*
X104394000Y-106172000D03*
X101854000Y-108712000D03*
X101854000Y-106172000D03*
X99314000Y-108712000D03*
X99314000Y-106172000D03*
X96774000Y-108712000D03*
X96774000Y-106172000D03*
X94234000Y-108712000D03*
X94234000Y-106172000D03*
X91694000Y-108712000D03*
X91694000Y-106172000D03*
X89154000Y-108712000D03*
X89154000Y-106172000D03*
X86614000Y-108712000D03*
X86614000Y-106172000D03*
X84074000Y-108712000D03*
X84074000Y-106172000D03*
X81534000Y-108712000D03*
X81534000Y-106172000D03*
X78994000Y-108712000D03*
X78994000Y-106172000D03*
X76454000Y-108712000D03*
X76454000Y-106172000D03*
X73914000Y-108712000D03*
X73914000Y-106172000D03*
X71374000Y-108712000D03*
X71374000Y-106172000D03*
X68834000Y-108712000D03*
X68834000Y-106172000D03*
X66294000Y-108712000D03*
X66294000Y-106172000D03*
X63754000Y-108712000D03*
X63754000Y-106172000D03*
X61214000Y-108712000D03*
X61214000Y-106172000D03*
X58674000Y-108712000D03*
X58674000Y-106172000D03*
X56134000Y-108712000D03*
X56134000Y-106172000D03*
X53594000Y-108712000D03*
X53594000Y-106172000D03*
X51054000Y-108712000D03*
X51054000Y-106172000D03*
X48514000Y-108712000D03*
X48514000Y-106172000D03*
X45974000Y-108712000D03*
X45974000Y-106172000D03*
X43434000Y-108712000D03*
X43434000Y-106172000D03*
X40894000Y-108712000D03*
X40894000Y-106172000D03*
X38354000Y-108712000D03*
X38354000Y-106172000D03*
X35814000Y-108712000D03*
X35814000Y-106172000D03*
X33274000Y-108712000D03*
X33274000Y-106172000D03*
X30734000Y-108712000D03*
X30734000Y-106172000D03*
X28194000Y-108712000D03*
X28194000Y-106172000D03*
X25654000Y-108712000D03*
X25654000Y-106172000D03*
X23114000Y-108712000D03*
X23114000Y-106172000D03*
X20574000Y-108712000D03*
X20574000Y-106172000D03*
X18034000Y-108712000D03*
X18034000Y-106172000D03*
X15494000Y-108712000D03*
X15494000Y-106172000D03*
X12954000Y-108712000D03*
D10*
X12954000Y-106172000D03*
D11*
X112014000Y-113792000D03*
X112014000Y-111252000D03*
X109474000Y-113792000D03*
X109474000Y-111252000D03*
X106934000Y-113792000D03*
X106934000Y-111252000D03*
X104394000Y-113792000D03*
X104394000Y-111252000D03*
X101854000Y-113792000D03*
X101854000Y-111252000D03*
X99314000Y-113792000D03*
X99314000Y-111252000D03*
X96774000Y-113792000D03*
X96774000Y-111252000D03*
X94234000Y-113792000D03*
X94234000Y-111252000D03*
X91694000Y-113792000D03*
X91694000Y-111252000D03*
X89154000Y-113792000D03*
X89154000Y-111252000D03*
X86614000Y-113792000D03*
X86614000Y-111252000D03*
X84074000Y-113792000D03*
X84074000Y-111252000D03*
X81534000Y-113792000D03*
X81534000Y-111252000D03*
X78994000Y-113792000D03*
X78994000Y-111252000D03*
X76454000Y-113792000D03*
X76454000Y-111252000D03*
X73914000Y-113792000D03*
X73914000Y-111252000D03*
X71374000Y-113792000D03*
X71374000Y-111252000D03*
X68834000Y-113792000D03*
X68834000Y-111252000D03*
X66294000Y-113792000D03*
X66294000Y-111252000D03*
X63754000Y-113792000D03*
X63754000Y-111252000D03*
X61214000Y-113792000D03*
X61214000Y-111252000D03*
X58674000Y-113792000D03*
X58674000Y-111252000D03*
X56134000Y-113792000D03*
X56134000Y-111252000D03*
X53594000Y-113792000D03*
X53594000Y-111252000D03*
X51054000Y-113792000D03*
X51054000Y-111252000D03*
X48514000Y-113792000D03*
X48514000Y-111252000D03*
X45974000Y-113792000D03*
X45974000Y-111252000D03*
X43434000Y-113792000D03*
X43434000Y-111252000D03*
X40894000Y-113792000D03*
X40894000Y-111252000D03*
X38354000Y-113792000D03*
X38354000Y-111252000D03*
X35814000Y-113792000D03*
X35814000Y-111252000D03*
X33274000Y-113792000D03*
X33274000Y-111252000D03*
X30734000Y-113792000D03*
X30734000Y-111252000D03*
X28194000Y-113792000D03*
X28194000Y-111252000D03*
X25654000Y-113792000D03*
X25654000Y-111252000D03*
X23114000Y-113792000D03*
X23114000Y-111252000D03*
X20574000Y-113792000D03*
X20574000Y-111252000D03*
X18034000Y-113792000D03*
X18034000Y-111252000D03*
X15494000Y-113792000D03*
X15494000Y-111252000D03*
X12954000Y-113792000D03*
D10*
X12954000Y-111252000D03*
X12954000Y-116332000D03*
D11*
X12954000Y-118872000D03*
X15494000Y-116332000D03*
X15494000Y-118872000D03*
X18034000Y-116332000D03*
X18034000Y-118872000D03*
X20574000Y-116332000D03*
X20574000Y-118872000D03*
X23114000Y-116332000D03*
X23114000Y-118872000D03*
X25654000Y-116332000D03*
X25654000Y-118872000D03*
X28194000Y-116332000D03*
X28194000Y-118872000D03*
X30734000Y-116332000D03*
X30734000Y-118872000D03*
X33274000Y-116332000D03*
X33274000Y-118872000D03*
X35814000Y-116332000D03*
X35814000Y-118872000D03*
X38354000Y-116332000D03*
X38354000Y-118872000D03*
X40894000Y-116332000D03*
X40894000Y-118872000D03*
X43434000Y-116332000D03*
X43434000Y-118872000D03*
X45974000Y-116332000D03*
X45974000Y-118872000D03*
X48514000Y-116332000D03*
X48514000Y-118872000D03*
X51054000Y-116332000D03*
X51054000Y-118872000D03*
X53594000Y-116332000D03*
X53594000Y-118872000D03*
X56134000Y-116332000D03*
X56134000Y-118872000D03*
X58674000Y-116332000D03*
X58674000Y-118872000D03*
X61214000Y-116332000D03*
X61214000Y-118872000D03*
X63754000Y-116332000D03*
X63754000Y-118872000D03*
X66294000Y-116332000D03*
X66294000Y-118872000D03*
X68834000Y-116332000D03*
X68834000Y-118872000D03*
X71374000Y-116332000D03*
X71374000Y-118872000D03*
X73914000Y-116332000D03*
X73914000Y-118872000D03*
X76454000Y-116332000D03*
X76454000Y-118872000D03*
X78994000Y-116332000D03*
X78994000Y-118872000D03*
X81534000Y-116332000D03*
X81534000Y-118872000D03*
X84074000Y-116332000D03*
X84074000Y-118872000D03*
X86614000Y-116332000D03*
X86614000Y-118872000D03*
X89154000Y-116332000D03*
X89154000Y-118872000D03*
X91694000Y-116332000D03*
X91694000Y-118872000D03*
X94234000Y-116332000D03*
X94234000Y-118872000D03*
X96774000Y-116332000D03*
X96774000Y-118872000D03*
X99314000Y-116332000D03*
X99314000Y-118872000D03*
X101854000Y-116332000D03*
X101854000Y-118872000D03*
X104394000Y-116332000D03*
X104394000Y-118872000D03*
X106934000Y-116332000D03*
X106934000Y-118872000D03*
X109474000Y-116332000D03*
X109474000Y-118872000D03*
X112014000Y-116332000D03*
X112014000Y-118872000D03*
X213614000Y-108712000D03*
X213614000Y-106172000D03*
X211074000Y-108712000D03*
X211074000Y-106172000D03*
X208534000Y-108712000D03*
X208534000Y-106172000D03*
X205994000Y-108712000D03*
X205994000Y-106172000D03*
X203454000Y-108712000D03*
X203454000Y-106172000D03*
X200914000Y-108712000D03*
X200914000Y-106172000D03*
X198374000Y-108712000D03*
X198374000Y-106172000D03*
X195834000Y-108712000D03*
X195834000Y-106172000D03*
X193294000Y-108712000D03*
X193294000Y-106172000D03*
X190754000Y-108712000D03*
X190754000Y-106172000D03*
X188214000Y-108712000D03*
X188214000Y-106172000D03*
X185674000Y-108712000D03*
X185674000Y-106172000D03*
X183134000Y-108712000D03*
X183134000Y-106172000D03*
X180594000Y-108712000D03*
X180594000Y-106172000D03*
X178054000Y-108712000D03*
X178054000Y-106172000D03*
X175514000Y-108712000D03*
X175514000Y-106172000D03*
X172974000Y-108712000D03*
X172974000Y-106172000D03*
X170434000Y-108712000D03*
X170434000Y-106172000D03*
X167894000Y-108712000D03*
X167894000Y-106172000D03*
X165354000Y-108712000D03*
X165354000Y-106172000D03*
X162814000Y-108712000D03*
X162814000Y-106172000D03*
X160274000Y-108712000D03*
X160274000Y-106172000D03*
X157734000Y-108712000D03*
X157734000Y-106172000D03*
X155194000Y-108712000D03*
X155194000Y-106172000D03*
X152654000Y-108712000D03*
X152654000Y-106172000D03*
X150114000Y-108712000D03*
X150114000Y-106172000D03*
X147574000Y-108712000D03*
X147574000Y-106172000D03*
X145034000Y-108712000D03*
X145034000Y-106172000D03*
X142494000Y-108712000D03*
X142494000Y-106172000D03*
X139954000Y-108712000D03*
X139954000Y-106172000D03*
X137414000Y-108712000D03*
X137414000Y-106172000D03*
X134874000Y-108712000D03*
X134874000Y-106172000D03*
X132334000Y-108712000D03*
X132334000Y-106172000D03*
X129794000Y-108712000D03*
X129794000Y-106172000D03*
X127254000Y-108712000D03*
X127254000Y-106172000D03*
X124714000Y-108712000D03*
X124714000Y-106172000D03*
X122174000Y-108712000D03*
X122174000Y-106172000D03*
X119634000Y-108712000D03*
X119634000Y-106172000D03*
X117094000Y-108712000D03*
X117094000Y-106172000D03*
X114554000Y-108712000D03*
D10*
X114554000Y-106172000D03*
X114554000Y-116332000D03*
D11*
X114554000Y-118872000D03*
X117094000Y-116332000D03*
X117094000Y-118872000D03*
X119634000Y-116332000D03*
X119634000Y-118872000D03*
X122174000Y-116332000D03*
X122174000Y-118872000D03*
X124714000Y-116332000D03*
X124714000Y-118872000D03*
X127254000Y-116332000D03*
X127254000Y-118872000D03*
X129794000Y-116332000D03*
X129794000Y-118872000D03*
X132334000Y-116332000D03*
X132334000Y-118872000D03*
X134874000Y-116332000D03*
X134874000Y-118872000D03*
X137414000Y-116332000D03*
X137414000Y-118872000D03*
X139954000Y-116332000D03*
X139954000Y-118872000D03*
X142494000Y-116332000D03*
X142494000Y-118872000D03*
X145034000Y-116332000D03*
X145034000Y-118872000D03*
X147574000Y-116332000D03*
X147574000Y-118872000D03*
X150114000Y-116332000D03*
X150114000Y-118872000D03*
X152654000Y-116332000D03*
X152654000Y-118872000D03*
X155194000Y-116332000D03*
X155194000Y-118872000D03*
X157734000Y-116332000D03*
X157734000Y-118872000D03*
X160274000Y-116332000D03*
X160274000Y-118872000D03*
X162814000Y-116332000D03*
X162814000Y-118872000D03*
X165354000Y-116332000D03*
X165354000Y-118872000D03*
X167894000Y-116332000D03*
X167894000Y-118872000D03*
X170434000Y-116332000D03*
X170434000Y-118872000D03*
X172974000Y-116332000D03*
X172974000Y-118872000D03*
X175514000Y-116332000D03*
X175514000Y-118872000D03*
X178054000Y-116332000D03*
X178054000Y-118872000D03*
X180594000Y-116332000D03*
X180594000Y-118872000D03*
X183134000Y-116332000D03*
X183134000Y-118872000D03*
X185674000Y-116332000D03*
X185674000Y-118872000D03*
X188214000Y-116332000D03*
X188214000Y-118872000D03*
X190754000Y-116332000D03*
X190754000Y-118872000D03*
X193294000Y-116332000D03*
X193294000Y-118872000D03*
X195834000Y-116332000D03*
X195834000Y-118872000D03*
X198374000Y-116332000D03*
X198374000Y-118872000D03*
X200914000Y-116332000D03*
X200914000Y-118872000D03*
X203454000Y-116332000D03*
X203454000Y-118872000D03*
X205994000Y-116332000D03*
X205994000Y-118872000D03*
X208534000Y-116332000D03*
X208534000Y-118872000D03*
X211074000Y-116332000D03*
X211074000Y-118872000D03*
X213614000Y-116332000D03*
X213614000Y-118872000D03*
X112014000Y-123952000D03*
X112014000Y-121412000D03*
X109474000Y-123952000D03*
X109474000Y-121412000D03*
X106934000Y-123952000D03*
X106934000Y-121412000D03*
X104394000Y-123952000D03*
X104394000Y-121412000D03*
X101854000Y-123952000D03*
X101854000Y-121412000D03*
X99314000Y-123952000D03*
X99314000Y-121412000D03*
X96774000Y-123952000D03*
X96774000Y-121412000D03*
X94234000Y-123952000D03*
X94234000Y-121412000D03*
X91694000Y-123952000D03*
X91694000Y-121412000D03*
X89154000Y-123952000D03*
X89154000Y-121412000D03*
X86614000Y-123952000D03*
X86614000Y-121412000D03*
X84074000Y-123952000D03*
X84074000Y-121412000D03*
X81534000Y-123952000D03*
X81534000Y-121412000D03*
X78994000Y-123952000D03*
X78994000Y-121412000D03*
X76454000Y-123952000D03*
X76454000Y-121412000D03*
X73914000Y-123952000D03*
X73914000Y-121412000D03*
X71374000Y-123952000D03*
X71374000Y-121412000D03*
X68834000Y-123952000D03*
X68834000Y-121412000D03*
X66294000Y-123952000D03*
X66294000Y-121412000D03*
X63754000Y-123952000D03*
X63754000Y-121412000D03*
X61214000Y-123952000D03*
X61214000Y-121412000D03*
X58674000Y-123952000D03*
X58674000Y-121412000D03*
X56134000Y-123952000D03*
X56134000Y-121412000D03*
X53594000Y-123952000D03*
X53594000Y-121412000D03*
X51054000Y-123952000D03*
X51054000Y-121412000D03*
X48514000Y-123952000D03*
X48514000Y-121412000D03*
X45974000Y-123952000D03*
X45974000Y-121412000D03*
X43434000Y-123952000D03*
X43434000Y-121412000D03*
X40894000Y-123952000D03*
X40894000Y-121412000D03*
X38354000Y-123952000D03*
X38354000Y-121412000D03*
X35814000Y-123952000D03*
X35814000Y-121412000D03*
X33274000Y-123952000D03*
X33274000Y-121412000D03*
X30734000Y-123952000D03*
X30734000Y-121412000D03*
X28194000Y-123952000D03*
X28194000Y-121412000D03*
X25654000Y-123952000D03*
X25654000Y-121412000D03*
X23114000Y-123952000D03*
X23114000Y-121412000D03*
X20574000Y-123952000D03*
X20574000Y-121412000D03*
X18034000Y-123952000D03*
X18034000Y-121412000D03*
X15494000Y-123952000D03*
X15494000Y-121412000D03*
X12954000Y-123952000D03*
D10*
X12954000Y-121412000D03*
D11*
X213614000Y-129032000D03*
X213614000Y-126492000D03*
X211074000Y-129032000D03*
X211074000Y-126492000D03*
X208534000Y-129032000D03*
X208534000Y-126492000D03*
X205994000Y-129032000D03*
X205994000Y-126492000D03*
X203454000Y-129032000D03*
X203454000Y-126492000D03*
X200914000Y-129032000D03*
X200914000Y-126492000D03*
X198374000Y-129032000D03*
X198374000Y-126492000D03*
X195834000Y-129032000D03*
X195834000Y-126492000D03*
X193294000Y-129032000D03*
X193294000Y-126492000D03*
X190754000Y-129032000D03*
X190754000Y-126492000D03*
X188214000Y-129032000D03*
X188214000Y-126492000D03*
X185674000Y-129032000D03*
X185674000Y-126492000D03*
X183134000Y-129032000D03*
X183134000Y-126492000D03*
X180594000Y-129032000D03*
X180594000Y-126492000D03*
X178054000Y-129032000D03*
X178054000Y-126492000D03*
X175514000Y-129032000D03*
X175514000Y-126492000D03*
X172974000Y-129032000D03*
X172974000Y-126492000D03*
X170434000Y-129032000D03*
X170434000Y-126492000D03*
X167894000Y-129032000D03*
X167894000Y-126492000D03*
X165354000Y-129032000D03*
X165354000Y-126492000D03*
X162814000Y-129032000D03*
X162814000Y-126492000D03*
X160274000Y-129032000D03*
X160274000Y-126492000D03*
X157734000Y-129032000D03*
X157734000Y-126492000D03*
X155194000Y-129032000D03*
X155194000Y-126492000D03*
X152654000Y-129032000D03*
X152654000Y-126492000D03*
X150114000Y-129032000D03*
X150114000Y-126492000D03*
X147574000Y-129032000D03*
X147574000Y-126492000D03*
X145034000Y-129032000D03*
X145034000Y-126492000D03*
X142494000Y-129032000D03*
X142494000Y-126492000D03*
X139954000Y-129032000D03*
X139954000Y-126492000D03*
X137414000Y-129032000D03*
X137414000Y-126492000D03*
X134874000Y-129032000D03*
X134874000Y-126492000D03*
X132334000Y-129032000D03*
X132334000Y-126492000D03*
X129794000Y-129032000D03*
X129794000Y-126492000D03*
X127254000Y-129032000D03*
X127254000Y-126492000D03*
X124714000Y-129032000D03*
X124714000Y-126492000D03*
X122174000Y-129032000D03*
X122174000Y-126492000D03*
X119634000Y-129032000D03*
X119634000Y-126492000D03*
X117094000Y-129032000D03*
X117094000Y-126492000D03*
X114554000Y-129032000D03*
D10*
X114554000Y-126492000D03*
D11*
X213614000Y-123952000D03*
X213614000Y-121412000D03*
X211074000Y-123952000D03*
X211074000Y-121412000D03*
X208534000Y-123952000D03*
X208534000Y-121412000D03*
X205994000Y-123952000D03*
X205994000Y-121412000D03*
X203454000Y-123952000D03*
X203454000Y-121412000D03*
X200914000Y-123952000D03*
X200914000Y-121412000D03*
X198374000Y-123952000D03*
X198374000Y-121412000D03*
X195834000Y-123952000D03*
X195834000Y-121412000D03*
X193294000Y-123952000D03*
X193294000Y-121412000D03*
X190754000Y-123952000D03*
X190754000Y-121412000D03*
X188214000Y-123952000D03*
X188214000Y-121412000D03*
X185674000Y-123952000D03*
X185674000Y-121412000D03*
X183134000Y-123952000D03*
X183134000Y-121412000D03*
X180594000Y-123952000D03*
X180594000Y-121412000D03*
X178054000Y-123952000D03*
X178054000Y-121412000D03*
X175514000Y-123952000D03*
X175514000Y-121412000D03*
X172974000Y-123952000D03*
X172974000Y-121412000D03*
X170434000Y-123952000D03*
X170434000Y-121412000D03*
X167894000Y-123952000D03*
X167894000Y-121412000D03*
X165354000Y-123952000D03*
X165354000Y-121412000D03*
X162814000Y-123952000D03*
X162814000Y-121412000D03*
X160274000Y-123952000D03*
X160274000Y-121412000D03*
X157734000Y-123952000D03*
X157734000Y-121412000D03*
X155194000Y-123952000D03*
X155194000Y-121412000D03*
X152654000Y-123952000D03*
X152654000Y-121412000D03*
X150114000Y-123952000D03*
X150114000Y-121412000D03*
X147574000Y-123952000D03*
X147574000Y-121412000D03*
X145034000Y-123952000D03*
X145034000Y-121412000D03*
X142494000Y-123952000D03*
X142494000Y-121412000D03*
X139954000Y-123952000D03*
X139954000Y-121412000D03*
X137414000Y-123952000D03*
X137414000Y-121412000D03*
X134874000Y-123952000D03*
X134874000Y-121412000D03*
X132334000Y-123952000D03*
X132334000Y-121412000D03*
X129794000Y-123952000D03*
X129794000Y-121412000D03*
X127254000Y-123952000D03*
X127254000Y-121412000D03*
X124714000Y-123952000D03*
X124714000Y-121412000D03*
X122174000Y-123952000D03*
X122174000Y-121412000D03*
X119634000Y-123952000D03*
X119634000Y-121412000D03*
X117094000Y-123952000D03*
X117094000Y-121412000D03*
X114554000Y-123952000D03*
D10*
X114554000Y-121412000D03*
D11*
X112014000Y-129032000D03*
X112014000Y-126492000D03*
X109474000Y-129032000D03*
X109474000Y-126492000D03*
X106934000Y-129032000D03*
X106934000Y-126492000D03*
X104394000Y-129032000D03*
X104394000Y-126492000D03*
X101854000Y-129032000D03*
X101854000Y-126492000D03*
X99314000Y-129032000D03*
X99314000Y-126492000D03*
X96774000Y-129032000D03*
X96774000Y-126492000D03*
X94234000Y-129032000D03*
X94234000Y-126492000D03*
X91694000Y-129032000D03*
X91694000Y-126492000D03*
X89154000Y-129032000D03*
X89154000Y-126492000D03*
X86614000Y-129032000D03*
X86614000Y-126492000D03*
X84074000Y-129032000D03*
X84074000Y-126492000D03*
X81534000Y-129032000D03*
X81534000Y-126492000D03*
X78994000Y-129032000D03*
X78994000Y-126492000D03*
X76454000Y-129032000D03*
X76454000Y-126492000D03*
X73914000Y-129032000D03*
X73914000Y-126492000D03*
X71374000Y-129032000D03*
X71374000Y-126492000D03*
X68834000Y-129032000D03*
X68834000Y-126492000D03*
X66294000Y-129032000D03*
X66294000Y-126492000D03*
X63754000Y-129032000D03*
X63754000Y-126492000D03*
X61214000Y-129032000D03*
X61214000Y-126492000D03*
X58674000Y-129032000D03*
X58674000Y-126492000D03*
X56134000Y-129032000D03*
X56134000Y-126492000D03*
X53594000Y-129032000D03*
X53594000Y-126492000D03*
X51054000Y-129032000D03*
X51054000Y-126492000D03*
X48514000Y-129032000D03*
X48514000Y-126492000D03*
X45974000Y-129032000D03*
X45974000Y-126492000D03*
X43434000Y-129032000D03*
X43434000Y-126492000D03*
X40894000Y-129032000D03*
X40894000Y-126492000D03*
X38354000Y-129032000D03*
X38354000Y-126492000D03*
X35814000Y-129032000D03*
X35814000Y-126492000D03*
X33274000Y-129032000D03*
X33274000Y-126492000D03*
X30734000Y-129032000D03*
X30734000Y-126492000D03*
X28194000Y-129032000D03*
X28194000Y-126492000D03*
X25654000Y-129032000D03*
X25654000Y-126492000D03*
X23114000Y-129032000D03*
X23114000Y-126492000D03*
X20574000Y-129032000D03*
X20574000Y-126492000D03*
X18034000Y-129032000D03*
X18034000Y-126492000D03*
X15494000Y-129032000D03*
X15494000Y-126492000D03*
X12954000Y-129032000D03*
D10*
X12954000Y-126492000D03*
X114554000Y-131572000D03*
D11*
X114554000Y-134112000D03*
X117094000Y-131572000D03*
X117094000Y-134112000D03*
X119634000Y-131572000D03*
X119634000Y-134112000D03*
X122174000Y-131572000D03*
X122174000Y-134112000D03*
X124714000Y-131572000D03*
X124714000Y-134112000D03*
X127254000Y-131572000D03*
X127254000Y-134112000D03*
X129794000Y-131572000D03*
X129794000Y-134112000D03*
X132334000Y-131572000D03*
X132334000Y-134112000D03*
X134874000Y-131572000D03*
X134874000Y-134112000D03*
X137414000Y-131572000D03*
X137414000Y-134112000D03*
X139954000Y-131572000D03*
X139954000Y-134112000D03*
X142494000Y-131572000D03*
X142494000Y-134112000D03*
X145034000Y-131572000D03*
X145034000Y-134112000D03*
X147574000Y-131572000D03*
X147574000Y-134112000D03*
X150114000Y-131572000D03*
X150114000Y-134112000D03*
X152654000Y-131572000D03*
X152654000Y-134112000D03*
X155194000Y-131572000D03*
X155194000Y-134112000D03*
X157734000Y-131572000D03*
X157734000Y-134112000D03*
X160274000Y-131572000D03*
X160274000Y-134112000D03*
X162814000Y-131572000D03*
X162814000Y-134112000D03*
X165354000Y-131572000D03*
X165354000Y-134112000D03*
X167894000Y-131572000D03*
X167894000Y-134112000D03*
X170434000Y-131572000D03*
X170434000Y-134112000D03*
X172974000Y-131572000D03*
X172974000Y-134112000D03*
X175514000Y-131572000D03*
X175514000Y-134112000D03*
X178054000Y-131572000D03*
X178054000Y-134112000D03*
X180594000Y-131572000D03*
X180594000Y-134112000D03*
X183134000Y-131572000D03*
X183134000Y-134112000D03*
X185674000Y-131572000D03*
X185674000Y-134112000D03*
X188214000Y-131572000D03*
X188214000Y-134112000D03*
X190754000Y-131572000D03*
X190754000Y-134112000D03*
X193294000Y-131572000D03*
X193294000Y-134112000D03*
X195834000Y-131572000D03*
X195834000Y-134112000D03*
X198374000Y-131572000D03*
X198374000Y-134112000D03*
X200914000Y-131572000D03*
X200914000Y-134112000D03*
X203454000Y-131572000D03*
X203454000Y-134112000D03*
X205994000Y-131572000D03*
X205994000Y-134112000D03*
X208534000Y-131572000D03*
X208534000Y-134112000D03*
X211074000Y-131572000D03*
X211074000Y-134112000D03*
X213614000Y-131572000D03*
X213614000Y-134112000D03*
D10*
X12954000Y-131572000D03*
D11*
X12954000Y-134112000D03*
X15494000Y-131572000D03*
X15494000Y-134112000D03*
X18034000Y-131572000D03*
X18034000Y-134112000D03*
X20574000Y-131572000D03*
X20574000Y-134112000D03*
X23114000Y-131572000D03*
X23114000Y-134112000D03*
X25654000Y-131572000D03*
X25654000Y-134112000D03*
X28194000Y-131572000D03*
X28194000Y-134112000D03*
X30734000Y-131572000D03*
X30734000Y-134112000D03*
X33274000Y-131572000D03*
X33274000Y-134112000D03*
X35814000Y-131572000D03*
X35814000Y-134112000D03*
X38354000Y-131572000D03*
X38354000Y-134112000D03*
X40894000Y-131572000D03*
X40894000Y-134112000D03*
X43434000Y-131572000D03*
X43434000Y-134112000D03*
X45974000Y-131572000D03*
X45974000Y-134112000D03*
X48514000Y-131572000D03*
X48514000Y-134112000D03*
X51054000Y-131572000D03*
X51054000Y-134112000D03*
X53594000Y-131572000D03*
X53594000Y-134112000D03*
X56134000Y-131572000D03*
X56134000Y-134112000D03*
X58674000Y-131572000D03*
X58674000Y-134112000D03*
X61214000Y-131572000D03*
X61214000Y-134112000D03*
X63754000Y-131572000D03*
X63754000Y-134112000D03*
X66294000Y-131572000D03*
X66294000Y-134112000D03*
X68834000Y-131572000D03*
X68834000Y-134112000D03*
X71374000Y-131572000D03*
X71374000Y-134112000D03*
X73914000Y-131572000D03*
X73914000Y-134112000D03*
X76454000Y-131572000D03*
X76454000Y-134112000D03*
X78994000Y-131572000D03*
X78994000Y-134112000D03*
X81534000Y-131572000D03*
X81534000Y-134112000D03*
X84074000Y-131572000D03*
X84074000Y-134112000D03*
X86614000Y-131572000D03*
X86614000Y-134112000D03*
X89154000Y-131572000D03*
X89154000Y-134112000D03*
X91694000Y-131572000D03*
X91694000Y-134112000D03*
X94234000Y-131572000D03*
X94234000Y-134112000D03*
X96774000Y-131572000D03*
X96774000Y-134112000D03*
X99314000Y-131572000D03*
X99314000Y-134112000D03*
X101854000Y-131572000D03*
X101854000Y-134112000D03*
X104394000Y-131572000D03*
X104394000Y-134112000D03*
X106934000Y-131572000D03*
X106934000Y-134112000D03*
X109474000Y-131572000D03*
X109474000Y-134112000D03*
X112014000Y-131572000D03*
X112014000Y-134112000D03*
D10*
X114554000Y-136652000D03*
D11*
X114554000Y-139192000D03*
X117094000Y-136652000D03*
X117094000Y-139192000D03*
X119634000Y-136652000D03*
X119634000Y-139192000D03*
X122174000Y-136652000D03*
X122174000Y-139192000D03*
X124714000Y-136652000D03*
X124714000Y-139192000D03*
X127254000Y-136652000D03*
X127254000Y-139192000D03*
X129794000Y-136652000D03*
X129794000Y-139192000D03*
X132334000Y-136652000D03*
X132334000Y-139192000D03*
X134874000Y-136652000D03*
X134874000Y-139192000D03*
X137414000Y-136652000D03*
X137414000Y-139192000D03*
X139954000Y-136652000D03*
X139954000Y-139192000D03*
X142494000Y-136652000D03*
X142494000Y-139192000D03*
X145034000Y-136652000D03*
X145034000Y-139192000D03*
X147574000Y-136652000D03*
X147574000Y-139192000D03*
X150114000Y-136652000D03*
X150114000Y-139192000D03*
X152654000Y-136652000D03*
X152654000Y-139192000D03*
X155194000Y-136652000D03*
X155194000Y-139192000D03*
X157734000Y-136652000D03*
X157734000Y-139192000D03*
X160274000Y-136652000D03*
X160274000Y-139192000D03*
X162814000Y-136652000D03*
X162814000Y-139192000D03*
X165354000Y-136652000D03*
X165354000Y-139192000D03*
X167894000Y-136652000D03*
X167894000Y-139192000D03*
X170434000Y-136652000D03*
X170434000Y-139192000D03*
X172974000Y-136652000D03*
X172974000Y-139192000D03*
X175514000Y-136652000D03*
X175514000Y-139192000D03*
X178054000Y-136652000D03*
X178054000Y-139192000D03*
X180594000Y-136652000D03*
X180594000Y-139192000D03*
X183134000Y-136652000D03*
X183134000Y-139192000D03*
X185674000Y-136652000D03*
X185674000Y-139192000D03*
X188214000Y-136652000D03*
X188214000Y-139192000D03*
X190754000Y-136652000D03*
X190754000Y-139192000D03*
X193294000Y-136652000D03*
X193294000Y-139192000D03*
X195834000Y-136652000D03*
X195834000Y-139192000D03*
X198374000Y-136652000D03*
X198374000Y-139192000D03*
X200914000Y-136652000D03*
X200914000Y-139192000D03*
X203454000Y-136652000D03*
X203454000Y-139192000D03*
X205994000Y-136652000D03*
X205994000Y-139192000D03*
X208534000Y-136652000D03*
X208534000Y-139192000D03*
X211074000Y-136652000D03*
X211074000Y-139192000D03*
X213614000Y-136652000D03*
X213614000Y-139192000D03*
D10*
X12954000Y-136652000D03*
D11*
X12954000Y-139192000D03*
X15494000Y-136652000D03*
X15494000Y-139192000D03*
X18034000Y-136652000D03*
X18034000Y-139192000D03*
X20574000Y-136652000D03*
X20574000Y-139192000D03*
X23114000Y-136652000D03*
X23114000Y-139192000D03*
X25654000Y-136652000D03*
X25654000Y-139192000D03*
X28194000Y-136652000D03*
X28194000Y-139192000D03*
X30734000Y-136652000D03*
X30734000Y-139192000D03*
X33274000Y-136652000D03*
X33274000Y-139192000D03*
X35814000Y-136652000D03*
X35814000Y-139192000D03*
X38354000Y-136652000D03*
X38354000Y-139192000D03*
X40894000Y-136652000D03*
X40894000Y-139192000D03*
X43434000Y-136652000D03*
X43434000Y-139192000D03*
X45974000Y-136652000D03*
X45974000Y-139192000D03*
X48514000Y-136652000D03*
X48514000Y-139192000D03*
X51054000Y-136652000D03*
X51054000Y-139192000D03*
X53594000Y-136652000D03*
X53594000Y-139192000D03*
X56134000Y-136652000D03*
X56134000Y-139192000D03*
X58674000Y-136652000D03*
X58674000Y-139192000D03*
X61214000Y-136652000D03*
X61214000Y-139192000D03*
X63754000Y-136652000D03*
X63754000Y-139192000D03*
X66294000Y-136652000D03*
X66294000Y-139192000D03*
X68834000Y-136652000D03*
X68834000Y-139192000D03*
X71374000Y-136652000D03*
X71374000Y-139192000D03*
X73914000Y-136652000D03*
X73914000Y-139192000D03*
X76454000Y-136652000D03*
X76454000Y-139192000D03*
X78994000Y-136652000D03*
X78994000Y-139192000D03*
X81534000Y-136652000D03*
X81534000Y-139192000D03*
X84074000Y-136652000D03*
X84074000Y-139192000D03*
X86614000Y-136652000D03*
X86614000Y-139192000D03*
X89154000Y-136652000D03*
X89154000Y-139192000D03*
X91694000Y-136652000D03*
X91694000Y-139192000D03*
X94234000Y-136652000D03*
X94234000Y-139192000D03*
X96774000Y-136652000D03*
X96774000Y-139192000D03*
X99314000Y-136652000D03*
X99314000Y-139192000D03*
X101854000Y-136652000D03*
X101854000Y-139192000D03*
X104394000Y-136652000D03*
X104394000Y-139192000D03*
X106934000Y-136652000D03*
X106934000Y-139192000D03*
X109474000Y-136652000D03*
X109474000Y-139192000D03*
X112014000Y-136652000D03*
X112014000Y-139192000D03*
D12*
X24135000Y-22860000D03*
D13*
X24135000Y-25400000D03*
D10*
X225298000Y-37592000D03*
D11*
X225298000Y-35052000D03*
D10*
X13965000Y-65278000D03*
D11*
X16505000Y-65278000D03*
D14*
X45506000Y-44958000D03*
X50506000Y-44958000D03*
D15*
X18308000Y-13391500D03*
D14*
X20808000Y-13391500D03*
X20808000Y-11391500D03*
X18308000Y-11391500D03*
D16*
X13558000Y-8531500D03*
X25558000Y-8531500D03*
D17*
X120114000Y-26994000D03*
D15*
X176271000Y-47498000D03*
D18*
X178811000Y-47498000D03*
X181351000Y-47498000D03*
X183891000Y-47498000D03*
X186431000Y-47498000D03*
X188971000Y-47498000D03*
X191511000Y-47498000D03*
X191511000Y-39878000D03*
X188971000Y-39878000D03*
X186431000Y-39878000D03*
X183891000Y-39878000D03*
X181351000Y-39878000D03*
X178811000Y-39878000D03*
X176271000Y-39878000D03*
D10*
X50546000Y-41656000D03*
D11*
X48006000Y-41656000D03*
X45466000Y-41656000D03*
D17*
X16000000Y-26994000D03*
X16000000Y-75000000D03*
D10*
X225298000Y-42941000D03*
D11*
X225298000Y-45481000D03*
X225298000Y-48021000D03*
D14*
X39756000Y-22733000D03*
D18*
X39756000Y-32893000D03*
D17*
X109000000Y-75000000D03*
D15*
X71189900Y-22850000D03*
D14*
X73689900Y-22850000D03*
X33406000Y-22733000D03*
D18*
X33406000Y-32893000D03*
D15*
X81793000Y-100828000D03*
D18*
X84333000Y-100828000D03*
X86873000Y-100828000D03*
X89413000Y-100828000D03*
X91953000Y-100828000D03*
X94493000Y-100828000D03*
X97033000Y-100828000D03*
X99573000Y-100828000D03*
X102113000Y-100828000D03*
X104653000Y-100828000D03*
X104653000Y-93208000D03*
X102113000Y-93208000D03*
X99573000Y-93208000D03*
X97033000Y-93208000D03*
X94493000Y-93208000D03*
X91953000Y-93208000D03*
X89413000Y-93208000D03*
X86873000Y-93208000D03*
X84333000Y-93208000D03*
X81793000Y-93208000D03*
D15*
X170947000Y-66030000D03*
D18*
X173487000Y-66030000D03*
X176027000Y-66030000D03*
X178567000Y-66030000D03*
X181107000Y-66030000D03*
X183647000Y-66030000D03*
X186187000Y-66030000D03*
X188727000Y-66030000D03*
X191267000Y-66030000D03*
X193807000Y-66030000D03*
X193807000Y-58410000D03*
X191267000Y-58410000D03*
X188727000Y-58410000D03*
X186187000Y-58410000D03*
X183647000Y-58410000D03*
X181107000Y-58410000D03*
X178567000Y-58410000D03*
X176027000Y-58410000D03*
X173487000Y-58410000D03*
X170947000Y-58410000D03*
D17*
X16000000Y-145000000D03*
D15*
X109474000Y-66040000D03*
D18*
X112014000Y-66040000D03*
X114554000Y-66040000D03*
X117094000Y-66040000D03*
X119634000Y-66040000D03*
X122174000Y-66040000D03*
X124714000Y-66040000D03*
X127254000Y-66040000D03*
X129794000Y-66040000D03*
X132334000Y-66040000D03*
X132334000Y-58420000D03*
X129794000Y-58420000D03*
X127254000Y-58420000D03*
X124714000Y-58420000D03*
X122174000Y-58420000D03*
X119634000Y-58420000D03*
X117094000Y-58420000D03*
X114554000Y-58420000D03*
X112014000Y-58420000D03*
X109474000Y-58420000D03*
D15*
X47757000Y-101082000D03*
D18*
X50297000Y-101082000D03*
X52837000Y-101082000D03*
X55377000Y-101082000D03*
X57917000Y-101082000D03*
X60457000Y-101082000D03*
X62997000Y-101082000D03*
X65537000Y-101082000D03*
X68077000Y-101082000D03*
X70617000Y-101082000D03*
X70617000Y-93462000D03*
X68077000Y-93462000D03*
X65537000Y-93462000D03*
X62997000Y-93462000D03*
X60457000Y-93462000D03*
X57917000Y-93462000D03*
X55377000Y-93462000D03*
X52837000Y-93462000D03*
X50297000Y-93462000D03*
X47757000Y-93462000D03*
D15*
X109474000Y-45720000D03*
D18*
X112014000Y-45720000D03*
X114554000Y-45720000D03*
X117094000Y-45720000D03*
X119634000Y-45720000D03*
X122174000Y-45720000D03*
X124714000Y-45720000D03*
X127254000Y-45720000D03*
X129794000Y-45720000D03*
X132334000Y-45720000D03*
X132334000Y-38100000D03*
X129794000Y-38100000D03*
X127254000Y-38100000D03*
X124714000Y-38100000D03*
X122174000Y-38100000D03*
X119634000Y-38100000D03*
X117094000Y-38100000D03*
X114554000Y-38100000D03*
X112014000Y-38100000D03*
X109474000Y-38100000D03*
D17*
X224000000Y-145000000D03*
D19*
X135091000Y-8540700D03*
X174281000Y-8540700D03*
D20*
X147606000Y-20580700D03*
D21*
X165306000Y-20580700D03*
D20*
X154686000Y-20580700D03*
X163496000Y-17310700D03*
X161766000Y-20580700D03*
X158226000Y-20580700D03*
X159956000Y-17310700D03*
X156416000Y-17310700D03*
D22*
X135091000Y-8540700D03*
X174281000Y-8540700D03*
D20*
X144066000Y-20580700D03*
X152876000Y-17310700D03*
X145796000Y-17310700D03*
X151146000Y-20580700D03*
X149336000Y-17310700D03*
D23*
X112024000Y-100818000D03*
D24*
X114564000Y-100818000D03*
X117104000Y-100818000D03*
X119644000Y-100818000D03*
X122184000Y-100818000D03*
X124724000Y-100818000D03*
X127264000Y-100818000D03*
X129804000Y-100818000D03*
X132344000Y-100818000D03*
X134884000Y-100818000D03*
X137424000Y-100818000D03*
X139964000Y-100818000D03*
X142504000Y-100818000D03*
X145044000Y-100818000D03*
X145044000Y-85578000D03*
X142504000Y-85578000D03*
X139964000Y-85578000D03*
X137424000Y-85578000D03*
X134884000Y-85578000D03*
X132344000Y-85578000D03*
X129804000Y-85578000D03*
X127264000Y-85578000D03*
X124724000Y-85578000D03*
X122184000Y-85578000D03*
X119644000Y-85578000D03*
X117104000Y-85578000D03*
X114564000Y-85578000D03*
X112024000Y-85578000D03*
D15*
X48648800Y-31994000D03*
D14*
X51148800Y-31994000D03*
D25*
X28961000Y-22733000D03*
D26*
X28961000Y-24633000D03*
D15*
X62865000Y-44323000D03*
D18*
X62865000Y-46863000D03*
X62865000Y-49403000D03*
X62865000Y-51943000D03*
X62865000Y-54483000D03*
X62865000Y-57023000D03*
X62865000Y-59563000D03*
X62865000Y-62103000D03*
X62865000Y-64643000D03*
X62865000Y-67183000D03*
X62865000Y-69723000D03*
X62865000Y-72263000D03*
X62865000Y-74803000D03*
X62865000Y-77343000D03*
X62865000Y-79883000D03*
X62865000Y-82423000D03*
X78105000Y-82423000D03*
X78105000Y-79883000D03*
X78105000Y-77343000D03*
X78105000Y-74803000D03*
X78105000Y-72263000D03*
X78105000Y-69723000D03*
X78105000Y-67183000D03*
X78105000Y-64643000D03*
X78105000Y-62103000D03*
X78105000Y-59563000D03*
X78105000Y-57023000D03*
X78105000Y-54483000D03*
X78105000Y-51943000D03*
X78105000Y-49403000D03*
X78105000Y-46863000D03*
X78105000Y-44323000D03*
D15*
X216140000Y-68580000D03*
D18*
X216140000Y-58420000D03*
D15*
X56203900Y-31994000D03*
D14*
X58703900Y-31994000D03*
D16*
X125399000Y-9566300D03*
X78299000Y-9566300D03*
D15*
X85229000Y-10986300D03*
D14*
X87999000Y-10986300D03*
X90769000Y-10986300D03*
X93539000Y-10986300D03*
X96309000Y-10986300D03*
X99079000Y-10986300D03*
X101849000Y-10986300D03*
X104619000Y-10986300D03*
X107389000Y-10986300D03*
X110159000Y-10986300D03*
X112929000Y-10986300D03*
X115699000Y-10986300D03*
X118469000Y-10986300D03*
X86614000Y-8146300D03*
X89384000Y-8146300D03*
X92154000Y-8146300D03*
X94924000Y-8146300D03*
X97694000Y-8146300D03*
X100464000Y-8146300D03*
X103234000Y-8146300D03*
X106004000Y-8146300D03*
X108774000Y-8146300D03*
X111544000Y-8146300D03*
X114314000Y-8146300D03*
X117084000Y-8146300D03*
X87122000Y-44958000D03*
X92122000Y-44958000D03*
D15*
X23876000Y-44948000D03*
D18*
X26416000Y-44948000D03*
X28956000Y-44948000D03*
X31496000Y-44948000D03*
X34036000Y-44948000D03*
X36576000Y-44948000D03*
X39116000Y-44948000D03*
X39116000Y-37328000D03*
X36576000Y-37328000D03*
X34036000Y-37328000D03*
X31496000Y-37328000D03*
X28956000Y-37328000D03*
X26416000Y-37328000D03*
X23876000Y-37328000D03*
D15*
X198369000Y-47488000D03*
D18*
X200909000Y-47488000D03*
X203449000Y-47488000D03*
X205989000Y-47488000D03*
X208529000Y-47488000D03*
X211069000Y-47488000D03*
X213609000Y-47488000D03*
X213609000Y-39868000D03*
X211069000Y-39868000D03*
X208529000Y-39868000D03*
X205989000Y-39868000D03*
X203449000Y-39868000D03*
X200909000Y-39868000D03*
X198369000Y-39868000D03*
D27*
X213614000Y-30743500D03*
D28*
X213614000Y-33283500D03*
X211074000Y-30743500D03*
X211074000Y-33283500D03*
X208534000Y-30743500D03*
X208534000Y-33283500D03*
X205994000Y-30743500D03*
X205994000Y-33283500D03*
X203454000Y-30743500D03*
X203454000Y-33283500D03*
X200914000Y-30743500D03*
X200914000Y-33283500D03*
X198374000Y-30743500D03*
X198374000Y-33283500D03*
X195834000Y-30743500D03*
X195834000Y-33283500D03*
X193294000Y-30743500D03*
X193294000Y-33283500D03*
X190754000Y-30743500D03*
X190754000Y-33283500D03*
X188214000Y-30743500D03*
X188214000Y-33283500D03*
X185674000Y-30743500D03*
X185674000Y-33283500D03*
X183134000Y-30743500D03*
X183134000Y-33283500D03*
X180594000Y-30743500D03*
X180594000Y-33283500D03*
X178054000Y-30743500D03*
X178054000Y-33283500D03*
X175514000Y-30743500D03*
X175514000Y-33283500D03*
X172974000Y-30743500D03*
X172974000Y-33283500D03*
D15*
X48280000Y-26269000D03*
D18*
X50820000Y-26269000D03*
X53360000Y-26269000D03*
X55900000Y-26269000D03*
X58440000Y-26269000D03*
X60980000Y-26269000D03*
X63520000Y-26269000D03*
X66060000Y-26269000D03*
X66060000Y-18649000D03*
X63520000Y-18649000D03*
X60980000Y-18649000D03*
X58440000Y-18649000D03*
X55900000Y-18649000D03*
X53360000Y-18649000D03*
X50820000Y-18649000D03*
X48280000Y-18649000D03*
D19*
X185383000Y-8502000D03*
X224573000Y-8502000D03*
D20*
X197898000Y-20542000D03*
D21*
X215598000Y-20542000D03*
D20*
X204978000Y-20542000D03*
X213788000Y-17272000D03*
X212058000Y-20542000D03*
X208518000Y-20542000D03*
X210248000Y-17272000D03*
X206708000Y-17272000D03*
D22*
X185383000Y-8502000D03*
X224573000Y-8502000D03*
D20*
X194358000Y-20542000D03*
X203168000Y-17272000D03*
X196088000Y-17272000D03*
X199628000Y-17272000D03*
X201438000Y-20542000D03*
D14*
X95798000Y-87122000D03*
X100798000Y-87122000D03*
D10*
X13970000Y-53848000D03*
D11*
X16510000Y-53848000D03*
D14*
X203948000Y-68580000D03*
D18*
X203948000Y-58420000D03*
D14*
X29290000Y-101600000D03*
X34290000Y-101600000D03*
X72863000Y-40640000D03*
X67863000Y-40640000D03*
X197852000Y-58420000D03*
D18*
X197852000Y-68580000D03*
D10*
X225298000Y-56139000D03*
D11*
X225298000Y-58679000D03*
X225298000Y-61219000D03*
X225298000Y-63759000D03*
X225298000Y-66299000D03*
D15*
X86365000Y-26152000D03*
D18*
X88905000Y-26152000D03*
X91445000Y-26152000D03*
X93985000Y-26152000D03*
X96525000Y-26152000D03*
X99065000Y-26152000D03*
X101605000Y-26152000D03*
X104145000Y-26152000D03*
X106685000Y-26152000D03*
X109225000Y-26152000D03*
X109225000Y-18532000D03*
X106685000Y-18532000D03*
X104145000Y-18532000D03*
X101605000Y-18532000D03*
X99065000Y-18532000D03*
X96525000Y-18532000D03*
X93985000Y-18532000D03*
X91445000Y-18532000D03*
X88905000Y-18532000D03*
X86365000Y-18532000D03*
D14*
X91948000Y-87122000D03*
D18*
X81788000Y-87122000D03*
D15*
X18223100Y-92456000D03*
D14*
X15723100Y-92456000D03*
D10*
X14986000Y-17526000D03*
D11*
X17526000Y-17526000D03*
D15*
X140213000Y-45710000D03*
D18*
X142753000Y-45710000D03*
X145293000Y-45710000D03*
X147833000Y-45710000D03*
X150373000Y-45710000D03*
X152913000Y-45710000D03*
X155453000Y-45710000D03*
X157993000Y-45710000D03*
X160533000Y-45710000D03*
X163073000Y-45710000D03*
X163073000Y-38090000D03*
X160533000Y-38090000D03*
X157993000Y-38090000D03*
X155453000Y-38090000D03*
X152913000Y-38090000D03*
X150373000Y-38090000D03*
X147833000Y-38090000D03*
X145293000Y-38090000D03*
X142753000Y-38090000D03*
X140213000Y-38090000D03*
D10*
X13965000Y-85598000D03*
D11*
X16505000Y-85598000D03*
D14*
X210044000Y-68580000D03*
D18*
X210044000Y-58420000D03*
D14*
X213176000Y-68580000D03*
D18*
X213176000Y-58420000D03*
D17*
X131000000Y-145000000D03*
D15*
X43820000Y-49403000D03*
D18*
X43820000Y-51943000D03*
X43820000Y-54483000D03*
X43820000Y-57023000D03*
X43820000Y-59563000D03*
X43820000Y-62103000D03*
X43820000Y-64643000D03*
X43820000Y-67183000D03*
X43820000Y-69723000D03*
X43820000Y-72263000D03*
X43820000Y-74803000D03*
X43820000Y-77343000D03*
X43820000Y-79883000D03*
X43820000Y-82423000D03*
X59060000Y-82423000D03*
X59060000Y-79883000D03*
X59060000Y-77343000D03*
X59060000Y-74803000D03*
X59060000Y-72263000D03*
X59060000Y-69723000D03*
X59060000Y-67183000D03*
X59060000Y-64643000D03*
X59060000Y-62103000D03*
X59060000Y-59563000D03*
X59060000Y-57023000D03*
X59060000Y-54483000D03*
X59060000Y-51943000D03*
X59060000Y-49403000D03*
D17*
X109000000Y-145000000D03*
D14*
X42931000Y-22733000D03*
D18*
X42931000Y-32893000D03*
D14*
X207010000Y-68580000D03*
D18*
X207010000Y-58420000D03*
D29*
X35501500Y-11842000D03*
D30*
X35501500Y-5842000D03*
D31*
X30801500Y-8842000D03*
D15*
X81920000Y-49540000D03*
D18*
X81920000Y-52080000D03*
X81920000Y-54620000D03*
X81920000Y-57160000D03*
X81920000Y-59700000D03*
X81920000Y-62240000D03*
X81920000Y-64780000D03*
X81920000Y-67320000D03*
X81920000Y-69860000D03*
X81920000Y-72400000D03*
X81920000Y-74940000D03*
X81920000Y-77480000D03*
X81920000Y-80020000D03*
X81920000Y-82560000D03*
X97160000Y-82560000D03*
X97160000Y-80020000D03*
X97160000Y-77480000D03*
X97160000Y-74940000D03*
X97160000Y-72400000D03*
X97160000Y-69860000D03*
X97160000Y-67320000D03*
X97160000Y-64780000D03*
X97160000Y-62240000D03*
X97160000Y-59700000D03*
X97160000Y-57160000D03*
X97160000Y-54620000D03*
X97160000Y-52080000D03*
X97160000Y-49540000D03*
D17*
X224000000Y-26994000D03*
D15*
X63888800Y-31994000D03*
D14*
X66388800Y-31994000D03*
D17*
X224000000Y-75000000D03*
D15*
X23876000Y-49408000D03*
D18*
X23876000Y-51948000D03*
X23876000Y-54488000D03*
X23876000Y-57028000D03*
X23876000Y-59568000D03*
X23876000Y-62108000D03*
X23876000Y-64648000D03*
X23876000Y-67188000D03*
X23876000Y-69728000D03*
X23876000Y-72268000D03*
X23876000Y-74808000D03*
X23876000Y-77348000D03*
X23876000Y-79888000D03*
X23876000Y-82428000D03*
X23876000Y-84968000D03*
X23876000Y-87508000D03*
X23876000Y-90048000D03*
X23876000Y-92588000D03*
X23876000Y-95128000D03*
X23876000Y-97668000D03*
X39116000Y-97668000D03*
X39116000Y-95128000D03*
X39116000Y-92588000D03*
X39116000Y-90048000D03*
X39116000Y-87508000D03*
X39116000Y-84968000D03*
X39116000Y-82428000D03*
X39116000Y-79888000D03*
X39116000Y-77348000D03*
X39116000Y-74808000D03*
X39116000Y-72268000D03*
X39116000Y-69728000D03*
X39116000Y-67188000D03*
X39116000Y-64648000D03*
X39116000Y-62108000D03*
X39116000Y-59568000D03*
X39116000Y-57028000D03*
X39116000Y-54488000D03*
X39116000Y-51948000D03*
X39116000Y-49408000D03*
D14*
X172466000Y-41188000D03*
X172466000Y-46188000D03*
D10*
X13960000Y-81788000D03*
D11*
X16500000Y-81788000D03*
D14*
X200900000Y-68580000D03*
D18*
X200900000Y-58420000D03*
D14*
X14518000Y-99060000D03*
X19518000Y-99060000D03*
D15*
X145303000Y-66030000D03*
D18*
X147843000Y-66030000D03*
X150383000Y-66030000D03*
X152923000Y-66030000D03*
X155463000Y-66030000D03*
X158003000Y-66030000D03*
X160543000Y-66030000D03*
X163083000Y-66030000D03*
X163083000Y-58410000D03*
X160543000Y-58410000D03*
X158003000Y-58410000D03*
X155463000Y-58410000D03*
X152923000Y-58410000D03*
X150383000Y-58410000D03*
X147843000Y-58410000D03*
X145303000Y-58410000D03*
D14*
X36581000Y-22733000D03*
D18*
X36581000Y-32893000D03*
D15*
X71189900Y-31994000D03*
D14*
X73689900Y-31994000D03*
D10*
X193802000Y-70358000D03*
D11*
X191262000Y-70358000D03*
D10*
X34036000Y-17526000D03*
D11*
X36576000Y-17526000D03*
D14*
X149098000Y-90464000D03*
X149098000Y-95464000D03*
D10*
X58928000Y-44323000D03*
D11*
X58928000Y-41783000D03*
D10*
X168148000Y-70358000D03*
D11*
X165608000Y-70358000D03*
X163068000Y-70358000D03*
D17*
X131000000Y-75000000D03*
D10*
X13970000Y-59436000D03*
D11*
X16510000Y-59436000D03*
D16*
X69698000Y-8336000D03*
X44698000Y-8336000D03*
D15*
X62738000Y-8636000D03*
D14*
X59968000Y-8636000D03*
X57198000Y-8636000D03*
X54428000Y-8636000D03*
X51658000Y-8636000D03*
X61353000Y-5796000D03*
X58583000Y-5796000D03*
X55813000Y-5796000D03*
X53043000Y-5796000D03*
D32*
X166878000Y-86614000D03*
X169154100Y-23141600D03*
X144328400Y-54215900D03*
X161340700Y-75027600D03*
X172185800Y-54252500D03*
X151083300Y-74622800D03*
X168921800Y-39970900D03*
X176547300Y-54361900D03*
X180437600Y-64653100D03*
X157278300Y-35681600D03*
X124740700Y-50999500D03*
X146485800Y-62853300D03*
X101022600Y-67719100D03*
X125093900Y-55312700D03*
X131395000Y-62345800D03*
X113002700Y-62555400D03*
X138878000Y-77275600D03*
X125796200Y-84002900D03*
X176466100Y-61784800D03*
X94286500Y-37054500D03*
X117305300Y-51867900D03*
X122863000Y-49136100D03*
X136186200Y-41884400D03*
X136154900Y-67547300D03*
X105980300Y-99242900D03*
X87542000Y-31735700D03*
X98733700Y-45068700D03*
X126732500Y-55305000D03*
X176996700Y-73589100D03*
X100496900Y-43464200D03*
X135341800Y-45627000D03*
X105290700Y-42384100D03*
X134171400Y-49071400D03*
X143710100Y-99632000D03*
X154193400Y-93779200D03*
X195024600Y-39670900D03*
X113889700Y-35283700D03*
X62035700Y-89599500D03*
X178072500Y-62504800D03*
X118242700Y-17155200D03*
X115779400Y-31304400D03*
X83339000Y-63415200D03*
X89733400Y-98357500D03*
X195048800Y-34618900D03*
X114026300Y-34025700D03*
X140174100Y-98454800D03*
X141196400Y-34830400D03*
X102626700Y-73670000D03*
X60423200Y-85592400D03*
X145806500Y-73586200D03*
X145049100Y-70673800D03*
X198336300Y-61675900D03*
X64462800Y-79769300D03*
X83150900Y-83335500D03*
X92380100Y-40907100D03*
X92053700Y-75820000D03*
X57165300Y-87460500D03*
X146509700Y-87403200D03*
X109809100Y-93859500D03*
X103222200Y-80719400D03*
X12753700Y-63784300D03*
X37727700Y-99339200D03*
X54375300Y-59563000D03*
X65288100Y-86275700D03*
X95169900Y-71087800D03*
X101047000Y-70275700D03*
X40839300Y-84403100D03*
X80574500Y-61219800D03*
X107566500Y-96113200D03*
X138817500Y-72167700D03*
X151380300Y-69310500D03*
X76229900Y-70914900D03*
X29101700Y-76169300D03*
X37322700Y-76169300D03*
X40241800Y-71092800D03*
X63829600Y-76310600D03*
X36795000Y-70254900D03*
X37652200Y-69253300D03*
X42768700Y-76083300D03*
X33591500Y-68293600D03*
X35263900Y-81247800D03*
X72755500Y-83057300D03*
X54583400Y-57350300D03*
X34528500Y-47453700D03*
X90703400Y-81783100D03*
X71168600Y-82137100D03*
X83941000Y-43967500D03*
X25992300Y-88301300D03*
M02*
