M48
; DRILL file {KiCad 8.0.3} date 2024-07-12T16:59:56+0200
; FORMAT={-:-/ absolute / metric / decimal}
; #@! TF.CreationDate,2024-07-12T16:59:56+02:00
; #@! TF.GenerationSoftware,Kicad,Pcbnew,8.0.3
; #@! TF.FileFunction,Plated,1,2,PTH
FMAT,2
METRIC
; #@! TA.AperFunction,Plated,PTH,ViaDrill
T1C0.400
; #@! TA.AperFunction,Plated,PTH,ComponentDrill
T2C0.700
; #@! TA.AperFunction,Plated,PTH,ComponentDrill
T3C0.800
; #@! TA.AperFunction,Plated,PTH,ComponentDrill
T4C0.900
; #@! TA.AperFunction,Plated,PTH,ComponentDrill
T5C0.950
; #@! TA.AperFunction,Plated,PTH,ComponentDrill
T6C1.000
; #@! TA.AperFunction,Plated,PTH,ComponentDrill
T7C2.300
; #@! TA.AperFunction,Plated,PTH,ComponentDrill
T8C3.000
; #@! TA.AperFunction,Plated,PTH,ComponentDrill
T9C3.200
%
G90
G05
T1
X12.754Y-63.784
X25.992Y-88.301
X29.102Y-76.169
X33.591Y-68.294
X34.529Y-47.454
X35.264Y-81.248
X36.795Y-70.255
X37.323Y-76.169
X37.652Y-69.253
X37.728Y-99.339
X40.242Y-71.093
X40.839Y-84.403
X42.769Y-76.083
X54.375Y-59.563
X54.583Y-57.35
X57.165Y-87.46
X60.423Y-85.592
X62.036Y-89.599
X63.83Y-76.311
X64.463Y-79.769
X65.288Y-86.276
X71.169Y-82.137
X72.755Y-83.057
X76.23Y-70.915
X80.575Y-61.22
X83.151Y-83.335
X83.339Y-63.415
X83.941Y-43.968
X87.542Y-31.736
X89.733Y-98.358
X90.703Y-81.783
X92.054Y-75.82
X92.38Y-40.907
X94.286Y-37.054
X95.17Y-71.088
X98.734Y-45.069
X100.497Y-43.464
X101.023Y-67.719
X101.047Y-70.276
X102.627Y-73.67
X103.222Y-80.719
X105.291Y-42.384
X105.98Y-99.243
X107.566Y-96.113
X109.809Y-93.859
X113.003Y-62.555
X113.89Y-35.284
X114.026Y-34.026
X115.779Y-31.304
X117.305Y-51.868
X118.243Y-17.155
X122.863Y-49.136
X124.741Y-50.999
X125.094Y-55.313
X125.796Y-84.003
X126.732Y-55.305
X131.395Y-62.346
X134.171Y-49.071
X135.342Y-45.627
X136.155Y-67.547
X136.186Y-41.884
X138.817Y-72.168
X138.878Y-77.276
X140.174Y-98.455
X141.196Y-34.83
X143.71Y-99.632
X144.328Y-54.216
X145.049Y-70.674
X145.806Y-73.586
X146.486Y-62.853
X146.51Y-87.403
X151.083Y-74.623
X151.38Y-69.31
X154.193Y-93.779
X157.278Y-35.682
X161.341Y-75.028
X166.878Y-86.614
X168.922Y-39.971
X169.154Y-23.142
X172.186Y-54.252
X176.466Y-61.785
X176.547Y-54.362
X176.997Y-73.589
X178.072Y-62.505
X180.438Y-64.653
X195.025Y-39.671
X195.049Y-34.619
X198.336Y-61.676
T2
X28.961Y-22.733
X28.961Y-24.633
T3
X14.518Y-99.06
X15.723Y-92.456
X18.223Y-92.456
X19.518Y-99.06
X23.876Y-37.328
X23.876Y-44.948
X23.876Y-49.408
X23.876Y-51.948
X23.876Y-54.488
X23.876Y-57.028
X23.876Y-59.568
X23.876Y-62.108
X23.876Y-64.648
X23.876Y-67.188
X23.876Y-69.728
X23.876Y-72.268
X23.876Y-74.808
X23.876Y-77.348
X23.876Y-79.888
X23.876Y-82.428
X23.876Y-84.968
X23.876Y-87.508
X23.876Y-90.048
X23.876Y-92.588
X23.876Y-95.128
X23.876Y-97.668
X26.416Y-37.328
X26.416Y-44.948
X28.956Y-37.328
X28.956Y-44.948
X29.29Y-101.6
X31.496Y-37.328
X31.496Y-44.948
X33.406Y-22.733
X33.406Y-32.893
X34.036Y-37.328
X34.036Y-44.948
X34.29Y-101.6
X36.576Y-37.328
X36.576Y-44.948
X36.581Y-22.733
X36.581Y-32.893
X39.116Y-37.328
X39.116Y-44.948
X39.116Y-49.408
X39.116Y-51.948
X39.116Y-54.488
X39.116Y-57.028
X39.116Y-59.568
X39.116Y-62.108
X39.116Y-64.648
X39.116Y-67.188
X39.116Y-69.728
X39.116Y-72.268
X39.116Y-74.808
X39.116Y-77.348
X39.116Y-79.888
X39.116Y-82.428
X39.116Y-84.968
X39.116Y-87.508
X39.116Y-90.048
X39.116Y-92.588
X39.116Y-95.128
X39.116Y-97.668
X39.756Y-22.733
X39.756Y-32.893
X42.931Y-22.733
X42.931Y-32.893
X43.82Y-49.403
X43.82Y-51.943
X43.82Y-54.483
X43.82Y-57.023
X43.82Y-59.563
X43.82Y-62.103
X43.82Y-64.643
X43.82Y-67.183
X43.82Y-69.723
X43.82Y-72.263
X43.82Y-74.803
X43.82Y-77.343
X43.82Y-79.883
X43.82Y-82.423
X45.506Y-44.958
X47.757Y-93.462
X47.757Y-101.082
X48.28Y-18.649
X48.28Y-26.269
X48.649Y-31.994
X50.297Y-93.462
X50.297Y-101.082
X50.506Y-44.958
X50.82Y-18.649
X50.82Y-26.269
X51.149Y-31.994
X52.837Y-93.462
X52.837Y-101.082
X53.36Y-18.649
X53.36Y-26.269
X55.377Y-93.462
X55.377Y-101.082
X55.9Y-18.649
X55.9Y-26.269
X56.204Y-31.994
X57.917Y-93.462
X57.917Y-101.082
X58.44Y-18.649
X58.44Y-26.269
X58.704Y-31.994
X59.06Y-49.403
X59.06Y-51.943
X59.06Y-54.483
X59.06Y-57.023
X59.06Y-59.563
X59.06Y-62.103
X59.06Y-64.643
X59.06Y-67.183
X59.06Y-69.723
X59.06Y-72.263
X59.06Y-74.803
X59.06Y-77.343
X59.06Y-79.883
X59.06Y-82.423
X60.457Y-93.462
X60.457Y-101.082
X60.98Y-18.649
X60.98Y-26.269
X62.865Y-44.323
X62.865Y-46.863
X62.865Y-49.403
X62.865Y-51.943
X62.865Y-54.483
X62.865Y-57.023
X62.865Y-59.563
X62.865Y-62.103
X62.865Y-64.643
X62.865Y-67.183
X62.865Y-69.723
X62.865Y-72.263
X62.865Y-74.803
X62.865Y-77.343
X62.865Y-79.883
X62.865Y-82.423
X62.997Y-93.462
X62.997Y-101.082
X63.52Y-18.649
X63.52Y-26.269
X63.889Y-31.994
X65.537Y-93.462
X65.537Y-101.082
X66.06Y-18.649
X66.06Y-26.269
X66.389Y-31.994
X67.863Y-40.64
X68.077Y-93.462
X68.077Y-101.082
X70.617Y-93.462
X70.617Y-101.082
X71.19Y-22.85
X71.19Y-31.994
X72.863Y-40.64
X73.69Y-22.85
X73.69Y-31.994
X78.105Y-44.323
X78.105Y-46.863
X78.105Y-49.403
X78.105Y-51.943
X78.105Y-54.483
X78.105Y-57.023
X78.105Y-59.563
X78.105Y-62.103
X78.105Y-64.643
X78.105Y-67.183
X78.105Y-69.723
X78.105Y-72.263
X78.105Y-74.803
X78.105Y-77.343
X78.105Y-79.883
X78.105Y-82.423
X81.788Y-87.122
X81.793Y-93.208
X81.793Y-100.828
X81.92Y-49.54
X81.92Y-52.08
X81.92Y-54.62
X81.92Y-57.16
X81.92Y-59.7
X81.92Y-62.24
X81.92Y-64.78
X81.92Y-67.32
X81.92Y-69.86
X81.92Y-72.4
X81.92Y-74.94
X81.92Y-77.48
X81.92Y-80.02
X81.92Y-82.56
X84.333Y-93.208
X84.333Y-100.828
X86.365Y-18.532
X86.365Y-26.152
X86.873Y-93.208
X86.873Y-100.828
X87.122Y-44.958
X88.905Y-18.532
X88.905Y-26.152
X89.413Y-93.208
X89.413Y-100.828
X91.445Y-18.532
X91.445Y-26.152
X91.948Y-87.122
X91.953Y-93.208
X91.953Y-100.828
X92.122Y-44.958
X93.985Y-18.532
X93.985Y-26.152
X94.493Y-93.208
X94.493Y-100.828
X95.798Y-87.122
X96.525Y-18.532
X96.525Y-26.152
X97.033Y-93.208
X97.033Y-100.828
X97.16Y-49.54
X97.16Y-52.08
X97.16Y-54.62
X97.16Y-57.16
X97.16Y-59.7
X97.16Y-62.24
X97.16Y-64.78
X97.16Y-67.32
X97.16Y-69.86
X97.16Y-72.4
X97.16Y-74.94
X97.16Y-77.48
X97.16Y-80.02
X97.16Y-82.56
X99.065Y-18.532
X99.065Y-26.152
X99.573Y-93.208
X99.573Y-100.828
X100.798Y-87.122
X101.605Y-18.532
X101.605Y-26.152
X102.113Y-93.208
X102.113Y-100.828
X104.145Y-18.532
X104.145Y-26.152
X104.653Y-93.208
X104.653Y-100.828
X106.685Y-18.532
X106.685Y-26.152
X109.225Y-18.532
X109.225Y-26.152
X109.474Y-38.1
X109.474Y-45.72
X109.474Y-58.42
X109.474Y-66.04
X112.014Y-38.1
X112.014Y-45.72
X112.014Y-58.42
X112.014Y-66.04
X112.024Y-85.578
X112.024Y-100.818
X114.554Y-38.1
X114.554Y-45.72
X114.554Y-58.42
X114.554Y-66.04
X114.564Y-85.578
X114.564Y-100.818
X117.094Y-38.1
X117.094Y-45.72
X117.094Y-58.42
X117.094Y-66.04
X117.104Y-85.578
X117.104Y-100.818
X119.634Y-38.1
X119.634Y-45.72
X119.634Y-58.42
X119.634Y-66.04
X119.644Y-85.578
X119.644Y-100.818
X122.174Y-38.1
X122.174Y-45.72
X122.174Y-58.42
X122.174Y-66.04
X122.184Y-85.578
X122.184Y-100.818
X124.714Y-38.1
X124.714Y-45.72
X124.714Y-58.42
X124.714Y-66.04
X124.724Y-85.578
X124.724Y-100.818
X127.254Y-38.1
X127.254Y-45.72
X127.254Y-58.42
X127.254Y-66.04
X127.264Y-85.578
X127.264Y-100.818
X129.794Y-38.1
X129.794Y-45.72
X129.794Y-58.42
X129.794Y-66.04
X129.804Y-85.578
X129.804Y-100.818
X132.334Y-38.1
X132.334Y-45.72
X132.334Y-58.42
X132.334Y-66.04
X132.344Y-85.578
X132.344Y-100.818
X134.884Y-85.578
X134.884Y-100.818
X137.424Y-85.578
X137.424Y-100.818
X139.964Y-85.578
X139.964Y-100.818
X140.213Y-38.09
X140.213Y-45.71
X142.504Y-85.578
X142.504Y-100.818
X142.753Y-38.09
X142.753Y-45.71
X145.044Y-85.578
X145.044Y-100.818
X145.293Y-38.09
X145.293Y-45.71
X145.303Y-58.41
X145.303Y-66.03
X147.833Y-38.09
X147.833Y-45.71
X147.843Y-58.41
X147.843Y-66.03
X149.098Y-90.464
X149.098Y-95.464
X150.373Y-38.09
X150.373Y-45.71
X150.383Y-58.41
X150.383Y-66.03
X152.913Y-38.09
X152.913Y-45.71
X152.923Y-58.41
X152.923Y-66.03
X155.453Y-38.09
X155.453Y-45.71
X155.463Y-58.41
X155.463Y-66.03
X157.993Y-38.09
X157.993Y-45.71
X158.003Y-58.41
X158.003Y-66.03
X160.533Y-38.09
X160.533Y-45.71
X160.543Y-58.41
X160.543Y-66.03
X163.073Y-38.09
X163.073Y-45.71
X163.083Y-58.41
X163.083Y-66.03
X170.947Y-58.41
X170.947Y-66.03
X172.466Y-41.188
X172.466Y-46.188
X173.487Y-58.41
X173.487Y-66.03
X176.027Y-58.41
X176.027Y-66.03
X176.271Y-39.878
X176.271Y-47.498
X178.567Y-58.41
X178.567Y-66.03
X178.811Y-39.878
X178.811Y-47.498
X181.107Y-58.41
X181.107Y-66.03
X181.351Y-39.878
X181.351Y-47.498
X183.647Y-58.41
X183.647Y-66.03
X183.891Y-39.878
X183.891Y-47.498
X186.187Y-58.41
X186.187Y-66.03
X186.431Y-39.878
X186.431Y-47.498
X188.727Y-58.41
X188.727Y-66.03
X188.971Y-39.878
X188.971Y-47.498
X191.267Y-58.41
X191.267Y-66.03
X191.511Y-39.878
X191.511Y-47.498
X193.807Y-58.41
X193.807Y-66.03
X197.852Y-58.42
X197.852Y-68.58
X198.369Y-39.868
X198.369Y-47.488
X200.9Y-58.42
X200.9Y-68.58
X200.909Y-39.868
X200.909Y-47.488
X203.449Y-39.868
X203.449Y-47.488
X203.948Y-58.42
X203.948Y-68.58
X205.989Y-39.868
X205.989Y-47.488
X207.01Y-58.42
X207.01Y-68.58
X208.529Y-39.868
X208.529Y-47.488
X210.044Y-58.42
X210.044Y-68.58
X211.069Y-39.868
X211.069Y-47.488
X213.176Y-58.42
X213.176Y-68.58
X213.609Y-39.868
X213.609Y-47.488
X216.14Y-58.42
X216.14Y-68.58
T4
X24.135Y-22.86
X24.135Y-25.4
X144.066Y-20.581
X145.796Y-17.311
X147.606Y-20.581
X149.336Y-17.311
X151.146Y-20.581
X152.876Y-17.311
X154.686Y-20.581
X156.416Y-17.311
X158.226Y-20.581
X159.956Y-17.311
X161.766Y-20.581
X163.496Y-17.311
X165.306Y-20.581
X194.358Y-20.542
X196.088Y-17.272
X197.898Y-20.542
X199.628Y-17.272
X201.438Y-20.542
X203.168Y-17.272
X204.978Y-20.542
X206.708Y-17.272
X208.518Y-20.542
X210.248Y-17.272
X212.058Y-20.542
X213.788Y-17.272
X215.598Y-20.542
T5
X18.308Y-11.391
X18.308Y-13.391
X20.808Y-11.391
X20.808Y-13.391
T6
X12.954Y-106.172
X12.954Y-108.712
X12.954Y-111.252
X12.954Y-113.792
X12.954Y-116.332
X12.954Y-118.872
X12.954Y-121.412
X12.954Y-123.952
X12.954Y-126.492
X12.954Y-129.032
X12.954Y-131.572
X12.954Y-134.112
X12.954Y-136.652
X12.954Y-139.192
X13.96Y-81.788
X13.965Y-65.278
X13.965Y-85.598
X13.97Y-53.848
X13.97Y-59.436
X14.986Y-17.526
X15.494Y-106.172
X15.494Y-108.712
X15.494Y-111.252
X15.494Y-113.792
X15.494Y-116.332
X15.494Y-118.872
X15.494Y-121.412
X15.494Y-123.952
X15.494Y-126.492
X15.494Y-129.032
X15.494Y-131.572
X15.494Y-134.112
X15.494Y-136.652
X15.494Y-139.192
X16.5Y-81.788
X16.505Y-65.278
X16.505Y-85.598
X16.51Y-53.848
X16.51Y-59.436
X17.526Y-17.526
X18.034Y-106.172
X18.034Y-108.712
X18.034Y-111.252
X18.034Y-113.792
X18.034Y-116.332
X18.034Y-118.872
X18.034Y-121.412
X18.034Y-123.952
X18.034Y-126.492
X18.034Y-129.032
X18.034Y-131.572
X18.034Y-134.112
X18.034Y-136.652
X18.034Y-139.192
X20.574Y-106.172
X20.574Y-108.712
X20.574Y-111.252
X20.574Y-113.792
X20.574Y-116.332
X20.574Y-118.872
X20.574Y-121.412
X20.574Y-123.952
X20.574Y-126.492
X20.574Y-129.032
X20.574Y-131.572
X20.574Y-134.112
X20.574Y-136.652
X20.574Y-139.192
X20.574Y-141.732
X20.574Y-144.272
X20.574Y-146.812
X23.114Y-106.172
X23.114Y-108.712
X23.114Y-111.252
X23.114Y-113.792
X23.114Y-116.332
X23.114Y-118.872
X23.114Y-121.412
X23.114Y-123.952
X23.114Y-126.492
X23.114Y-129.032
X23.114Y-131.572
X23.114Y-134.112
X23.114Y-136.652
X23.114Y-139.192
X23.114Y-141.732
X23.114Y-144.272
X23.114Y-146.812
X25.654Y-106.172
X25.654Y-108.712
X25.654Y-111.252
X25.654Y-113.792
X25.654Y-116.332
X25.654Y-118.872
X25.654Y-121.412
X25.654Y-123.952
X25.654Y-126.492
X25.654Y-129.032
X25.654Y-131.572
X25.654Y-134.112
X25.654Y-136.652
X25.654Y-139.192
X25.654Y-141.732
X25.654Y-144.272
X25.654Y-146.812
X28.194Y-106.172
X28.194Y-108.712
X28.194Y-111.252
X28.194Y-113.792
X28.194Y-116.332
X28.194Y-118.872
X28.194Y-121.412
X28.194Y-123.952
X28.194Y-126.492
X28.194Y-129.032
X28.194Y-131.572
X28.194Y-134.112
X28.194Y-136.652
X28.194Y-139.192
X28.194Y-141.732
X28.194Y-144.272
X28.194Y-146.812
X30.734Y-106.172
X30.734Y-108.712
X30.734Y-111.252
X30.734Y-113.792
X30.734Y-116.332
X30.734Y-118.872
X30.734Y-121.412
X30.734Y-123.952
X30.734Y-126.492
X30.734Y-129.032
X30.734Y-131.572
X30.734Y-134.112
X30.734Y-136.652
X30.734Y-139.192
X30.734Y-141.732
X30.734Y-144.272
X30.734Y-146.812
X33.274Y-106.172
X33.274Y-108.712
X33.274Y-111.252
X33.274Y-113.792
X33.274Y-116.332
X33.274Y-118.872
X33.274Y-121.412
X33.274Y-123.952
X33.274Y-126.492
X33.274Y-129.032
X33.274Y-131.572
X33.274Y-134.112
X33.274Y-136.652
X33.274Y-139.192
X33.274Y-141.732
X33.274Y-144.272
X33.274Y-146.812
X34.036Y-17.526
X35.814Y-106.172
X35.814Y-108.712
X35.814Y-111.252
X35.814Y-113.792
X35.814Y-116.332
X35.814Y-118.872
X35.814Y-121.412
X35.814Y-123.952
X35.814Y-126.492
X35.814Y-129.032
X35.814Y-131.572
X35.814Y-134.112
X35.814Y-136.652
X35.814Y-139.192
X35.814Y-141.732
X35.814Y-144.272
X35.814Y-146.812
X36.576Y-17.526
X38.354Y-106.172
X38.354Y-108.712
X38.354Y-111.252
X38.354Y-113.792
X38.354Y-116.332
X38.354Y-118.872
X38.354Y-121.412
X38.354Y-123.952
X38.354Y-126.492
X38.354Y-129.032
X38.354Y-131.572
X38.354Y-134.112
X38.354Y-136.652
X38.354Y-139.192
X38.354Y-141.732
X38.354Y-144.272
X38.354Y-146.812
X40.894Y-106.172
X40.894Y-108.712
X40.894Y-111.252
X40.894Y-113.792
X40.894Y-116.332
X40.894Y-118.872
X40.894Y-121.412
X40.894Y-123.952
X40.894Y-126.492
X40.894Y-129.032
X40.894Y-131.572
X40.894Y-134.112
X40.894Y-136.652
X40.894Y-139.192
X40.894Y-141.732
X40.894Y-144.272
X40.894Y-146.812
X43.434Y-106.172
X43.434Y-108.712
X43.434Y-111.252
X43.434Y-113.792
X43.434Y-116.332
X43.434Y-118.872
X43.434Y-121.412
X43.434Y-123.952
X43.434Y-126.492
X43.434Y-129.032
X43.434Y-131.572
X43.434Y-134.112
X43.434Y-136.652
X43.434Y-139.192
X43.434Y-141.732
X43.434Y-144.272
X43.434Y-146.812
X45.466Y-41.656
X45.974Y-106.172
X45.974Y-108.712
X45.974Y-111.252
X45.974Y-113.792
X45.974Y-116.332
X45.974Y-118.872
X45.974Y-121.412
X45.974Y-123.952
X45.974Y-126.492
X45.974Y-129.032
X45.974Y-131.572
X45.974Y-134.112
X45.974Y-136.652
X45.974Y-139.192
X45.974Y-141.732
X45.974Y-144.272
X45.974Y-146.812
X48.006Y-41.656
X48.514Y-106.172
X48.514Y-108.712
X48.514Y-111.252
X48.514Y-113.792
X48.514Y-116.332
X48.514Y-118.872
X48.514Y-121.412
X48.514Y-123.952
X48.514Y-126.492
X48.514Y-129.032
X48.514Y-131.572
X48.514Y-134.112
X48.514Y-136.652
X48.514Y-139.192
X48.514Y-141.732
X48.514Y-144.272
X48.514Y-146.812
X50.546Y-41.656
X51.054Y-106.172
X51.054Y-108.712
X51.054Y-111.252
X51.054Y-113.792
X51.054Y-116.332
X51.054Y-118.872
X51.054Y-121.412
X51.054Y-123.952
X51.054Y-126.492
X51.054Y-129.032
X51.054Y-131.572
X51.054Y-134.112
X51.054Y-136.652
X51.054Y-139.192
X51.054Y-141.732
X51.054Y-144.272
X51.054Y-146.812
X51.658Y-8.636
X53.043Y-5.796
X53.594Y-106.172
X53.594Y-108.712
X53.594Y-111.252
X53.594Y-113.792
X53.594Y-116.332
X53.594Y-118.872
X53.594Y-121.412
X53.594Y-123.952
X53.594Y-126.492
X53.594Y-129.032
X53.594Y-131.572
X53.594Y-134.112
X53.594Y-136.652
X53.594Y-139.192
X53.594Y-141.732
X53.594Y-144.272
X53.594Y-146.812
X54.428Y-8.636
X55.813Y-5.796
X56.134Y-106.172
X56.134Y-108.712
X56.134Y-111.252
X56.134Y-113.792
X56.134Y-116.332
X56.134Y-118.872
X56.134Y-121.412
X56.134Y-123.952
X56.134Y-126.492
X56.134Y-129.032
X56.134Y-131.572
X56.134Y-134.112
X56.134Y-136.652
X56.134Y-139.192
X56.134Y-141.732
X56.134Y-144.272
X56.134Y-146.812
X57.198Y-8.636
X58.583Y-5.796
X58.674Y-106.172
X58.674Y-108.712
X58.674Y-111.252
X58.674Y-113.792
X58.674Y-116.332
X58.674Y-118.872
X58.674Y-121.412
X58.674Y-123.952
X58.674Y-126.492
X58.674Y-129.032
X58.674Y-131.572
X58.674Y-134.112
X58.674Y-136.652
X58.674Y-139.192
X58.674Y-141.732
X58.674Y-144.272
X58.674Y-146.812
X58.928Y-41.783
X58.928Y-44.323
X59.968Y-8.636
X61.214Y-106.172
X61.214Y-108.712
X61.214Y-111.252
X61.214Y-113.792
X61.214Y-116.332
X61.214Y-118.872
X61.214Y-121.412
X61.214Y-123.952
X61.214Y-126.492
X61.214Y-129.032
X61.214Y-131.572
X61.214Y-134.112
X61.214Y-136.652
X61.214Y-139.192
X61.214Y-141.732
X61.214Y-144.272
X61.214Y-146.812
X61.353Y-5.796
X62.738Y-8.636
X63.754Y-106.172
X63.754Y-108.712
X63.754Y-111.252
X63.754Y-113.792
X63.754Y-116.332
X63.754Y-118.872
X63.754Y-121.412
X63.754Y-123.952
X63.754Y-126.492
X63.754Y-129.032
X63.754Y-131.572
X63.754Y-134.112
X63.754Y-136.652
X63.754Y-139.192
X63.754Y-141.732
X63.754Y-144.272
X63.754Y-146.812
X66.294Y-106.172
X66.294Y-108.712
X66.294Y-111.252
X66.294Y-113.792
X66.294Y-116.332
X66.294Y-118.872
X66.294Y-121.412
X66.294Y-123.952
X66.294Y-126.492
X66.294Y-129.032
X66.294Y-131.572
X66.294Y-134.112
X66.294Y-136.652
X66.294Y-139.192
X66.294Y-141.732
X66.294Y-144.272
X66.294Y-146.812
X68.834Y-106.172
X68.834Y-108.712
X68.834Y-111.252
X68.834Y-113.792
X68.834Y-116.332
X68.834Y-118.872
X68.834Y-121.412
X68.834Y-123.952
X68.834Y-126.492
X68.834Y-129.032
X68.834Y-131.572
X68.834Y-134.112
X68.834Y-136.652
X68.834Y-139.192
X68.834Y-141.732
X68.834Y-144.272
X68.834Y-146.812
X71.374Y-106.172
X71.374Y-108.712
X71.374Y-111.252
X71.374Y-113.792
X71.374Y-116.332
X71.374Y-118.872
X71.374Y-121.412
X71.374Y-123.952
X71.374Y-126.492
X71.374Y-129.032
X71.374Y-131.572
X71.374Y-134.112
X71.374Y-136.652
X71.374Y-139.192
X71.374Y-141.732
X71.374Y-144.272
X71.374Y-146.812
X73.914Y-106.172
X73.914Y-108.712
X73.914Y-111.252
X73.914Y-113.792
X73.914Y-116.332
X73.914Y-118.872
X73.914Y-121.412
X73.914Y-123.952
X73.914Y-126.492
X73.914Y-129.032
X73.914Y-131.572
X73.914Y-134.112
X73.914Y-136.652
X73.914Y-139.192
X73.914Y-141.732
X73.914Y-144.272
X73.914Y-146.812
X76.454Y-106.172
X76.454Y-108.712
X76.454Y-111.252
X76.454Y-113.792
X76.454Y-116.332
X76.454Y-118.872
X76.454Y-121.412
X76.454Y-123.952
X76.454Y-126.492
X76.454Y-129.032
X76.454Y-131.572
X76.454Y-134.112
X76.454Y-136.652
X76.454Y-139.192
X76.454Y-141.732
X76.454Y-144.272
X76.454Y-146.812
X78.994Y-106.172
X78.994Y-108.712
X78.994Y-111.252
X78.994Y-113.792
X78.994Y-116.332
X78.994Y-118.872
X78.994Y-121.412
X78.994Y-123.952
X78.994Y-126.492
X78.994Y-129.032
X78.994Y-131.572
X78.994Y-134.112
X78.994Y-136.652
X78.994Y-139.192
X78.994Y-141.732
X78.994Y-144.272
X78.994Y-146.812
X81.534Y-106.172
X81.534Y-108.712
X81.534Y-111.252
X81.534Y-113.792
X81.534Y-116.332
X81.534Y-118.872
X81.534Y-121.412
X81.534Y-123.952
X81.534Y-126.492
X81.534Y-129.032
X81.534Y-131.572
X81.534Y-134.112
X81.534Y-136.652
X81.534Y-139.192
X81.534Y-141.732
X81.534Y-144.272
X81.534Y-146.812
X84.074Y-106.172
X84.074Y-108.712
X84.074Y-111.252
X84.074Y-113.792
X84.074Y-116.332
X84.074Y-118.872
X84.074Y-121.412
X84.074Y-123.952
X84.074Y-126.492
X84.074Y-129.032
X84.074Y-131.572
X84.074Y-134.112
X84.074Y-136.652
X84.074Y-139.192
X84.074Y-141.732
X84.074Y-144.272
X84.074Y-146.812
X85.229Y-10.986
X86.614Y-8.146
X86.614Y-106.172
X86.614Y-108.712
X86.614Y-111.252
X86.614Y-113.792
X86.614Y-116.332
X86.614Y-118.872
X86.614Y-121.412
X86.614Y-123.952
X86.614Y-126.492
X86.614Y-129.032
X86.614Y-131.572
X86.614Y-134.112
X86.614Y-136.652
X86.614Y-139.192
X86.614Y-141.732
X86.614Y-144.272
X86.614Y-146.812
X87.999Y-10.986
X89.154Y-106.172
X89.154Y-108.712
X89.154Y-111.252
X89.154Y-113.792
X89.154Y-116.332
X89.154Y-118.872
X89.154Y-121.412
X89.154Y-123.952
X89.154Y-126.492
X89.154Y-129.032
X89.154Y-131.572
X89.154Y-134.112
X89.154Y-136.652
X89.154Y-139.192
X89.154Y-141.732
X89.154Y-144.272
X89.154Y-146.812
X89.384Y-8.146
X90.769Y-10.986
X91.694Y-106.172
X91.694Y-108.712
X91.694Y-111.252
X91.694Y-113.792
X91.694Y-116.332
X91.694Y-118.872
X91.694Y-121.412
X91.694Y-123.952
X91.694Y-126.492
X91.694Y-129.032
X91.694Y-131.572
X91.694Y-134.112
X91.694Y-136.652
X91.694Y-139.192
X91.694Y-141.732
X91.694Y-144.272
X91.694Y-146.812
X92.154Y-8.146
X93.539Y-10.986
X94.234Y-106.172
X94.234Y-108.712
X94.234Y-111.252
X94.234Y-113.792
X94.234Y-116.332
X94.234Y-118.872
X94.234Y-121.412
X94.234Y-123.952
X94.234Y-126.492
X94.234Y-129.032
X94.234Y-131.572
X94.234Y-134.112
X94.234Y-136.652
X94.234Y-139.192
X94.234Y-141.732
X94.234Y-144.272
X94.234Y-146.812
X94.924Y-8.146
X96.309Y-10.986
X96.774Y-106.172
X96.774Y-108.712
X96.774Y-111.252
X96.774Y-113.792
X96.774Y-116.332
X96.774Y-118.872
X96.774Y-121.412
X96.774Y-123.952
X96.774Y-126.492
X96.774Y-129.032
X96.774Y-131.572
X96.774Y-134.112
X96.774Y-136.652
X96.774Y-139.192
X96.774Y-141.732
X96.774Y-144.272
X96.774Y-146.812
X97.694Y-8.146
X99.079Y-10.986
X99.314Y-106.172
X99.314Y-108.712
X99.314Y-111.252
X99.314Y-113.792
X99.314Y-116.332
X99.314Y-118.872
X99.314Y-121.412
X99.314Y-123.952
X99.314Y-126.492
X99.314Y-129.032
X99.314Y-131.572
X99.314Y-134.112
X99.314Y-136.652
X99.314Y-139.192
X99.314Y-141.732
X99.314Y-144.272
X99.314Y-146.812
X100.464Y-8.146
X101.849Y-10.986
X101.854Y-106.172
X101.854Y-108.712
X101.854Y-111.252
X101.854Y-113.792
X101.854Y-116.332
X101.854Y-118.872
X101.854Y-121.412
X101.854Y-123.952
X101.854Y-126.492
X101.854Y-129.032
X101.854Y-131.572
X101.854Y-134.112
X101.854Y-136.652
X101.854Y-139.192
X101.854Y-141.732
X101.854Y-144.272
X101.854Y-146.812
X103.234Y-8.146
X104.394Y-106.172
X104.394Y-108.712
X104.394Y-111.252
X104.394Y-113.792
X104.394Y-116.332
X104.394Y-118.872
X104.394Y-121.412
X104.394Y-123.952
X104.394Y-126.492
X104.394Y-129.032
X104.394Y-131.572
X104.394Y-134.112
X104.394Y-136.652
X104.394Y-139.192
X104.394Y-141.732
X104.394Y-144.272
X104.394Y-146.812
X104.619Y-10.986
X106.004Y-8.146
X106.934Y-106.172
X106.934Y-108.712
X106.934Y-111.252
X106.934Y-113.792
X106.934Y-116.332
X106.934Y-118.872
X106.934Y-121.412
X106.934Y-123.952
X106.934Y-126.492
X106.934Y-129.032
X106.934Y-131.572
X106.934Y-134.112
X106.934Y-136.652
X106.934Y-139.192
X107.389Y-10.986
X108.774Y-8.146
X109.474Y-106.172
X109.474Y-108.712
X109.474Y-111.252
X109.474Y-113.792
X109.474Y-116.332
X109.474Y-118.872
X109.474Y-121.412
X109.474Y-123.952
X109.474Y-126.492
X109.474Y-129.032
X109.474Y-131.572
X109.474Y-134.112
X109.474Y-136.652
X109.474Y-139.192
X110.159Y-10.986
X111.544Y-8.146
X112.014Y-106.172
X112.014Y-108.712
X112.014Y-111.252
X112.014Y-113.792
X112.014Y-116.332
X112.014Y-118.872
X112.014Y-121.412
X112.014Y-123.952
X112.014Y-126.492
X112.014Y-129.032
X112.014Y-131.572
X112.014Y-134.112
X112.014Y-136.652
X112.014Y-139.192
X112.929Y-10.986
X114.314Y-8.146
X114.554Y-106.172
X114.554Y-108.712
X114.554Y-111.252
X114.554Y-113.792
X114.554Y-116.332
X114.554Y-118.872
X114.554Y-121.412
X114.554Y-123.952
X114.554Y-126.492
X114.554Y-129.032
X114.554Y-131.572
X114.554Y-134.112
X114.554Y-136.652
X114.554Y-139.192
X115.699Y-10.986
X117.084Y-8.146
X117.094Y-106.172
X117.094Y-108.712
X117.094Y-111.252
X117.094Y-113.792
X117.094Y-116.332
X117.094Y-118.872
X117.094Y-121.412
X117.094Y-123.952
X117.094Y-126.492
X117.094Y-129.032
X117.094Y-131.572
X117.094Y-134.112
X117.094Y-136.652
X117.094Y-139.192
X118.469Y-10.986
X119.634Y-106.172
X119.634Y-108.712
X119.634Y-111.252
X119.634Y-113.792
X119.634Y-116.332
X119.634Y-118.872
X119.634Y-121.412
X119.634Y-123.952
X119.634Y-126.492
X119.634Y-129.032
X119.634Y-131.572
X119.634Y-134.112
X119.634Y-136.652
X119.634Y-139.192
X122.174Y-106.172
X122.174Y-108.712
X122.174Y-111.252
X122.174Y-113.792
X122.174Y-116.332
X122.174Y-118.872
X122.174Y-121.412
X122.174Y-123.952
X122.174Y-126.492
X122.174Y-129.032
X122.174Y-131.572
X122.174Y-134.112
X122.174Y-136.652
X122.174Y-139.192
X124.714Y-106.172
X124.714Y-108.712
X124.714Y-111.252
X124.714Y-113.792
X124.714Y-116.332
X124.714Y-118.872
X124.714Y-121.412
X124.714Y-123.952
X124.714Y-126.492
X124.714Y-129.032
X124.714Y-131.572
X124.714Y-134.112
X124.714Y-136.652
X124.714Y-139.192
X127.254Y-106.172
X127.254Y-108.712
X127.254Y-111.252
X127.254Y-113.792
X127.254Y-116.332
X127.254Y-118.872
X127.254Y-121.412
X127.254Y-123.952
X127.254Y-126.492
X127.254Y-129.032
X127.254Y-131.572
X127.254Y-134.112
X127.254Y-136.652
X127.254Y-139.192
X129.794Y-106.172
X129.794Y-108.712
X129.794Y-111.252
X129.794Y-113.792
X129.794Y-116.332
X129.794Y-118.872
X129.794Y-121.412
X129.794Y-123.952
X129.794Y-126.492
X129.794Y-129.032
X129.794Y-131.572
X129.794Y-134.112
X129.794Y-136.652
X129.794Y-139.192
X132.334Y-106.172
X132.334Y-108.712
X132.334Y-111.252
X132.334Y-113.792
X132.334Y-116.332
X132.334Y-118.872
X132.334Y-121.412
X132.334Y-123.952
X132.334Y-126.492
X132.334Y-129.032
X132.334Y-131.572
X132.334Y-134.112
X132.334Y-136.652
X132.334Y-139.192
X134.874Y-106.172
X134.874Y-108.712
X134.874Y-111.252
X134.874Y-113.792
X134.874Y-116.332
X134.874Y-118.872
X134.874Y-121.412
X134.874Y-123.952
X134.874Y-126.492
X134.874Y-129.032
X134.874Y-131.572
X134.874Y-134.112
X134.874Y-136.652
X134.874Y-139.192
X137.414Y-106.172
X137.414Y-108.712
X137.414Y-111.252
X137.414Y-113.792
X137.414Y-116.332
X137.414Y-118.872
X137.414Y-121.412
X137.414Y-123.952
X137.414Y-126.492
X137.414Y-129.032
X137.414Y-131.572
X137.414Y-134.112
X137.414Y-136.652
X137.414Y-139.192
X137.414Y-141.732
X137.414Y-144.272
X137.414Y-146.812
X139.954Y-106.172
X139.954Y-108.712
X139.954Y-111.252
X139.954Y-113.792
X139.954Y-116.332
X139.954Y-118.872
X139.954Y-121.412
X139.954Y-123.952
X139.954Y-126.492
X139.954Y-129.032
X139.954Y-131.572
X139.954Y-134.112
X139.954Y-136.652
X139.954Y-139.192
X139.954Y-141.732
X139.954Y-144.272
X139.954Y-146.812
X142.494Y-106.172
X142.494Y-108.712
X142.494Y-111.252
X142.494Y-113.792
X142.494Y-116.332
X142.494Y-118.872
X142.494Y-121.412
X142.494Y-123.952
X142.494Y-126.492
X142.494Y-129.032
X142.494Y-131.572
X142.494Y-134.112
X142.494Y-136.652
X142.494Y-139.192
X142.494Y-141.732
X142.494Y-144.272
X142.494Y-146.812
X145.034Y-106.172
X145.034Y-108.712
X145.034Y-111.252
X145.034Y-113.792
X145.034Y-116.332
X145.034Y-118.872
X145.034Y-121.412
X145.034Y-123.952
X145.034Y-126.492
X145.034Y-129.032
X145.034Y-131.572
X145.034Y-134.112
X145.034Y-136.652
X145.034Y-139.192
X145.034Y-141.732
X145.034Y-144.272
X145.034Y-146.812
X147.574Y-106.172
X147.574Y-108.712
X147.574Y-111.252
X147.574Y-113.792
X147.574Y-116.332
X147.574Y-118.872
X147.574Y-121.412
X147.574Y-123.952
X147.574Y-126.492
X147.574Y-129.032
X147.574Y-131.572
X147.574Y-134.112
X147.574Y-136.652
X147.574Y-139.192
X147.574Y-141.732
X147.574Y-144.272
X147.574Y-146.812
X150.114Y-106.172
X150.114Y-108.712
X150.114Y-111.252
X150.114Y-113.792
X150.114Y-116.332
X150.114Y-118.872
X150.114Y-121.412
X150.114Y-123.952
X150.114Y-126.492
X150.114Y-129.032
X150.114Y-131.572
X150.114Y-134.112
X150.114Y-136.652
X150.114Y-139.192
X150.114Y-141.732
X150.114Y-144.272
X150.114Y-146.812
X152.654Y-106.172
X152.654Y-108.712
X152.654Y-111.252
X152.654Y-113.792
X152.654Y-116.332
X152.654Y-118.872
X152.654Y-121.412
X152.654Y-123.952
X152.654Y-126.492
X152.654Y-129.032
X152.654Y-131.572
X152.654Y-134.112
X152.654Y-136.652
X152.654Y-139.192
X152.654Y-141.732
X152.654Y-144.272
X152.654Y-146.812
X155.194Y-101.092
X155.194Y-103.632
X155.194Y-106.172
X155.194Y-108.712
X155.194Y-111.252
X155.194Y-113.792
X155.194Y-116.332
X155.194Y-118.872
X155.194Y-121.412
X155.194Y-123.952
X155.194Y-126.492
X155.194Y-129.032
X155.194Y-131.572
X155.194Y-134.112
X155.194Y-136.652
X155.194Y-139.192
X155.194Y-141.732
X155.194Y-144.272
X155.194Y-146.812
X157.734Y-101.092
X157.734Y-103.632
X157.734Y-106.172
X157.734Y-108.712
X157.734Y-111.252
X157.734Y-113.792
X157.734Y-116.332
X157.734Y-118.872
X157.734Y-121.412
X157.734Y-123.952
X157.734Y-126.492
X157.734Y-129.032
X157.734Y-131.572
X157.734Y-134.112
X157.734Y-136.652
X157.734Y-139.192
X157.734Y-141.732
X157.734Y-144.272
X157.734Y-146.812
X160.274Y-96.012
X160.274Y-98.552
X160.274Y-101.092
X160.274Y-103.632
X160.274Y-106.172
X160.274Y-108.712
X160.274Y-111.252
X160.274Y-113.792
X160.274Y-116.332
X160.274Y-118.872
X160.274Y-121.412
X160.274Y-123.952
X160.274Y-126.492
X160.274Y-129.032
X160.274Y-131.572
X160.274Y-134.112
X160.274Y-136.652
X160.274Y-139.192
X160.274Y-141.732
X160.274Y-144.272
X160.274Y-146.812
X162.814Y-96.012
X162.814Y-98.552
X162.814Y-101.092
X162.814Y-103.632
X162.814Y-106.172
X162.814Y-108.712
X162.814Y-111.252
X162.814Y-113.792
X162.814Y-116.332
X162.814Y-118.872
X162.814Y-121.412
X162.814Y-123.952
X162.814Y-126.492
X162.814Y-129.032
X162.814Y-131.572
X162.814Y-134.112
X162.814Y-136.652
X162.814Y-139.192
X162.814Y-141.732
X162.814Y-144.272
X162.814Y-146.812
X163.068Y-70.358
X165.354Y-90.932
X165.354Y-93.472
X165.354Y-96.012
X165.354Y-98.552
X165.354Y-101.092
X165.354Y-103.632
X165.354Y-106.172
X165.354Y-108.712
X165.354Y-111.252
X165.354Y-113.792
X165.354Y-116.332
X165.354Y-118.872
X165.354Y-121.412
X165.354Y-123.952
X165.354Y-126.492
X165.354Y-129.032
X165.354Y-131.572
X165.354Y-134.112
X165.354Y-136.652
X165.354Y-139.192
X165.354Y-141.732
X165.354Y-144.272
X165.354Y-146.812
X165.608Y-70.358
X167.894Y-90.932
X167.894Y-93.472
X167.894Y-96.012
X167.894Y-98.552
X167.894Y-101.092
X167.894Y-103.632
X167.894Y-106.172
X167.894Y-108.712
X167.894Y-111.252
X167.894Y-113.792
X167.894Y-116.332
X167.894Y-118.872
X167.894Y-121.412
X167.894Y-123.952
X167.894Y-126.492
X167.894Y-129.032
X167.894Y-131.572
X167.894Y-134.112
X167.894Y-136.652
X167.894Y-139.192
X167.894Y-141.732
X167.894Y-144.272
X167.894Y-146.812
X168.148Y-70.358
X170.434Y-85.852
X170.434Y-88.392
X170.434Y-90.932
X170.434Y-93.472
X170.434Y-96.012
X170.434Y-98.552
X170.434Y-101.092
X170.434Y-103.632
X170.434Y-106.172
X170.434Y-108.712
X170.434Y-111.252
X170.434Y-113.792
X170.434Y-116.332
X170.434Y-118.872
X170.434Y-121.412
X170.434Y-123.952
X170.434Y-126.492
X170.434Y-129.032
X170.434Y-131.572
X170.434Y-134.112
X170.434Y-136.652
X170.434Y-139.192
X170.434Y-141.732
X170.434Y-144.272
X170.434Y-146.812
X172.974Y-30.743
X172.974Y-33.283
X172.974Y-85.852
X172.974Y-88.392
X172.974Y-90.932
X172.974Y-93.472
X172.974Y-96.012
X172.974Y-98.552
X172.974Y-101.092
X172.974Y-103.632
X172.974Y-106.172
X172.974Y-108.712
X172.974Y-111.252
X172.974Y-113.792
X172.974Y-116.332
X172.974Y-118.872
X172.974Y-121.412
X172.974Y-123.952
X172.974Y-126.492
X172.974Y-129.032
X172.974Y-131.572
X172.974Y-134.112
X172.974Y-136.652
X172.974Y-139.192
X172.974Y-141.732
X172.974Y-144.272
X172.974Y-146.812
X175.514Y-30.743
X175.514Y-33.283
X175.514Y-80.772
X175.514Y-83.312
X175.514Y-85.852
X175.514Y-88.392
X175.514Y-90.932
X175.514Y-93.472
X175.514Y-96.012
X175.514Y-98.552
X175.514Y-101.092
X175.514Y-103.632
X175.514Y-106.172
X175.514Y-108.712
X175.514Y-111.252
X175.514Y-113.792
X175.514Y-116.332
X175.514Y-118.872
X175.514Y-121.412
X175.514Y-123.952
X175.514Y-126.492
X175.514Y-129.032
X175.514Y-131.572
X175.514Y-134.112
X175.514Y-136.652
X175.514Y-139.192
X175.514Y-141.732
X175.514Y-144.272
X175.514Y-146.812
X178.054Y-30.743
X178.054Y-33.283
X178.054Y-80.772
X178.054Y-83.312
X178.054Y-85.852
X178.054Y-88.392
X178.054Y-90.932
X178.054Y-93.472
X178.054Y-96.012
X178.054Y-98.552
X178.054Y-101.092
X178.054Y-103.632
X178.054Y-106.172
X178.054Y-108.712
X178.054Y-111.252
X178.054Y-113.792
X178.054Y-116.332
X178.054Y-118.872
X178.054Y-121.412
X178.054Y-123.952
X178.054Y-126.492
X178.054Y-129.032
X178.054Y-131.572
X178.054Y-134.112
X178.054Y-136.652
X178.054Y-139.192
X178.054Y-141.732
X178.054Y-144.272
X178.054Y-146.812
X180.594Y-30.743
X180.594Y-33.283
X180.594Y-80.772
X180.594Y-83.312
X180.594Y-85.852
X180.594Y-88.392
X180.594Y-90.932
X180.594Y-93.472
X180.594Y-96.012
X180.594Y-98.552
X180.594Y-101.092
X180.594Y-103.632
X180.594Y-106.172
X180.594Y-108.712
X180.594Y-111.252
X180.594Y-113.792
X180.594Y-116.332
X180.594Y-118.872
X180.594Y-121.412
X180.594Y-123.952
X180.594Y-126.492
X180.594Y-129.032
X180.594Y-131.572
X180.594Y-134.112
X180.594Y-136.652
X180.594Y-139.192
X180.594Y-141.732
X180.594Y-144.272
X180.594Y-146.812
X183.134Y-30.743
X183.134Y-33.283
X183.134Y-80.772
X183.134Y-83.312
X183.134Y-85.852
X183.134Y-88.392
X183.134Y-90.932
X183.134Y-93.472
X183.134Y-96.012
X183.134Y-98.552
X183.134Y-101.092
X183.134Y-103.632
X183.134Y-106.172
X183.134Y-108.712
X183.134Y-111.252
X183.134Y-113.792
X183.134Y-116.332
X183.134Y-118.872
X183.134Y-121.412
X183.134Y-123.952
X183.134Y-126.492
X183.134Y-129.032
X183.134Y-131.572
X183.134Y-134.112
X183.134Y-136.652
X183.134Y-139.192
X183.134Y-141.732
X183.134Y-144.272
X183.134Y-146.812
X185.674Y-30.743
X185.674Y-33.283
X185.674Y-80.772
X185.674Y-83.312
X185.674Y-85.852
X185.674Y-88.392
X185.674Y-90.932
X185.674Y-93.472
X185.674Y-96.012
X185.674Y-98.552
X185.674Y-101.092
X185.674Y-103.632
X185.674Y-106.172
X185.674Y-108.712
X185.674Y-111.252
X185.674Y-113.792
X185.674Y-116.332
X185.674Y-118.872
X185.674Y-121.412
X185.674Y-123.952
X185.674Y-126.492
X185.674Y-129.032
X185.674Y-131.572
X185.674Y-134.112
X185.674Y-136.652
X185.674Y-139.192
X185.674Y-141.732
X185.674Y-144.272
X185.674Y-146.812
X188.214Y-30.743
X188.214Y-33.283
X188.214Y-80.772
X188.214Y-83.312
X188.214Y-85.852
X188.214Y-88.392
X188.214Y-90.932
X188.214Y-93.472
X188.214Y-96.012
X188.214Y-98.552
X188.214Y-101.092
X188.214Y-103.632
X188.214Y-106.172
X188.214Y-108.712
X188.214Y-111.252
X188.214Y-113.792
X188.214Y-116.332
X188.214Y-118.872
X188.214Y-121.412
X188.214Y-123.952
X188.214Y-126.492
X188.214Y-129.032
X188.214Y-131.572
X188.214Y-134.112
X188.214Y-136.652
X188.214Y-139.192
X188.214Y-141.732
X188.214Y-144.272
X188.214Y-146.812
X190.754Y-30.743
X190.754Y-33.283
X190.754Y-80.772
X190.754Y-83.312
X190.754Y-85.852
X190.754Y-88.392
X190.754Y-90.932
X190.754Y-93.472
X190.754Y-96.012
X190.754Y-98.552
X190.754Y-101.092
X190.754Y-103.632
X190.754Y-106.172
X190.754Y-108.712
X190.754Y-111.252
X190.754Y-113.792
X190.754Y-116.332
X190.754Y-118.872
X190.754Y-121.412
X190.754Y-123.952
X190.754Y-126.492
X190.754Y-129.032
X190.754Y-131.572
X190.754Y-134.112
X190.754Y-136.652
X190.754Y-139.192
X190.754Y-141.732
X190.754Y-144.272
X190.754Y-146.812
X191.262Y-70.358
X193.294Y-30.743
X193.294Y-33.283
X193.294Y-80.772
X193.294Y-83.312
X193.294Y-85.852
X193.294Y-88.392
X193.294Y-90.932
X193.294Y-93.472
X193.294Y-96.012
X193.294Y-98.552
X193.294Y-101.092
X193.294Y-103.632
X193.294Y-106.172
X193.294Y-108.712
X193.294Y-111.252
X193.294Y-113.792
X193.294Y-116.332
X193.294Y-118.872
X193.294Y-121.412
X193.294Y-123.952
X193.294Y-126.492
X193.294Y-129.032
X193.294Y-131.572
X193.294Y-134.112
X193.294Y-136.652
X193.294Y-139.192
X193.294Y-141.732
X193.294Y-144.272
X193.294Y-146.812
X193.802Y-70.358
X195.834Y-30.743
X195.834Y-33.283
X195.834Y-80.772
X195.834Y-83.312
X195.834Y-85.852
X195.834Y-88.392
X195.834Y-90.932
X195.834Y-93.472
X195.834Y-96.012
X195.834Y-98.552
X195.834Y-101.092
X195.834Y-103.632
X195.834Y-106.172
X195.834Y-108.712
X195.834Y-111.252
X195.834Y-113.792
X195.834Y-116.332
X195.834Y-118.872
X195.834Y-121.412
X195.834Y-123.952
X195.834Y-126.492
X195.834Y-129.032
X195.834Y-131.572
X195.834Y-134.112
X195.834Y-136.652
X195.834Y-139.192
X195.834Y-141.732
X195.834Y-144.272
X195.834Y-146.812
X198.374Y-30.743
X198.374Y-33.283
X198.374Y-80.772
X198.374Y-83.312
X198.374Y-85.852
X198.374Y-88.392
X198.374Y-90.932
X198.374Y-93.472
X198.374Y-96.012
X198.374Y-98.552
X198.374Y-101.092
X198.374Y-103.632
X198.374Y-106.172
X198.374Y-108.712
X198.374Y-111.252
X198.374Y-113.792
X198.374Y-116.332
X198.374Y-118.872
X198.374Y-121.412
X198.374Y-123.952
X198.374Y-126.492
X198.374Y-129.032
X198.374Y-131.572
X198.374Y-134.112
X198.374Y-136.652
X198.374Y-139.192
X198.374Y-141.732
X198.374Y-144.272
X198.374Y-146.812
X200.914Y-30.743
X200.914Y-33.283
X200.914Y-80.772
X200.914Y-83.312
X200.914Y-85.852
X200.914Y-88.392
X200.914Y-90.932
X200.914Y-93.472
X200.914Y-96.012
X200.914Y-98.552
X200.914Y-101.092
X200.914Y-103.632
X200.914Y-106.172
X200.914Y-108.712
X200.914Y-111.252
X200.914Y-113.792
X200.914Y-116.332
X200.914Y-118.872
X200.914Y-121.412
X200.914Y-123.952
X200.914Y-126.492
X200.914Y-129.032
X200.914Y-131.572
X200.914Y-134.112
X200.914Y-136.652
X200.914Y-139.192
X200.914Y-141.732
X200.914Y-144.272
X200.914Y-146.812
X203.454Y-30.743
X203.454Y-33.283
X203.454Y-80.772
X203.454Y-83.312
X203.454Y-85.852
X203.454Y-88.392
X203.454Y-90.932
X203.454Y-93.472
X203.454Y-96.012
X203.454Y-98.552
X203.454Y-101.092
X203.454Y-103.632
X203.454Y-106.172
X203.454Y-108.712
X203.454Y-111.252
X203.454Y-113.792
X203.454Y-116.332
X203.454Y-118.872
X203.454Y-121.412
X203.454Y-123.952
X203.454Y-126.492
X203.454Y-129.032
X203.454Y-131.572
X203.454Y-134.112
X203.454Y-136.652
X203.454Y-139.192
X203.454Y-141.732
X203.454Y-144.272
X203.454Y-146.812
X205.994Y-30.743
X205.994Y-33.283
X205.994Y-80.772
X205.994Y-83.312
X205.994Y-85.852
X205.994Y-88.392
X205.994Y-90.932
X205.994Y-93.472
X205.994Y-96.012
X205.994Y-98.552
X205.994Y-101.092
X205.994Y-103.632
X205.994Y-106.172
X205.994Y-108.712
X205.994Y-111.252
X205.994Y-113.792
X205.994Y-116.332
X205.994Y-118.872
X205.994Y-121.412
X205.994Y-123.952
X205.994Y-126.492
X205.994Y-129.032
X205.994Y-131.572
X205.994Y-134.112
X205.994Y-136.652
X205.994Y-139.192
X205.994Y-141.732
X205.994Y-144.272
X205.994Y-146.812
X208.534Y-30.743
X208.534Y-33.283
X208.534Y-80.772
X208.534Y-83.312
X208.534Y-85.852
X208.534Y-88.392
X208.534Y-90.932
X208.534Y-93.472
X208.534Y-96.012
X208.534Y-98.552
X208.534Y-101.092
X208.534Y-103.632
X208.534Y-106.172
X208.534Y-108.712
X208.534Y-111.252
X208.534Y-113.792
X208.534Y-116.332
X208.534Y-118.872
X208.534Y-121.412
X208.534Y-123.952
X208.534Y-126.492
X208.534Y-129.032
X208.534Y-131.572
X208.534Y-134.112
X208.534Y-136.652
X208.534Y-139.192
X208.534Y-141.732
X208.534Y-144.272
X208.534Y-146.812
X211.074Y-30.743
X211.074Y-33.283
X211.074Y-80.772
X211.074Y-83.312
X211.074Y-85.852
X211.074Y-88.392
X211.074Y-90.932
X211.074Y-93.472
X211.074Y-96.012
X211.074Y-98.552
X211.074Y-101.092
X211.074Y-103.632
X211.074Y-106.172
X211.074Y-108.712
X211.074Y-111.252
X211.074Y-113.792
X211.074Y-116.332
X211.074Y-118.872
X211.074Y-121.412
X211.074Y-123.952
X211.074Y-126.492
X211.074Y-129.032
X211.074Y-131.572
X211.074Y-134.112
X211.074Y-136.652
X211.074Y-139.192
X211.074Y-141.732
X211.074Y-144.272
X211.074Y-146.812
X213.614Y-30.743
X213.614Y-33.283
X213.614Y-80.772
X213.614Y-83.312
X213.614Y-85.852
X213.614Y-88.392
X213.614Y-90.932
X213.614Y-93.472
X213.614Y-96.012
X213.614Y-98.552
X213.614Y-101.092
X213.614Y-103.632
X213.614Y-106.172
X213.614Y-108.712
X213.614Y-111.252
X213.614Y-113.792
X213.614Y-116.332
X213.614Y-118.872
X213.614Y-121.412
X213.614Y-123.952
X213.614Y-126.492
X213.614Y-129.032
X213.614Y-131.572
X213.614Y-134.112
X213.614Y-136.652
X213.614Y-139.192
X213.614Y-141.732
X213.614Y-144.272
X213.614Y-146.812
X216.154Y-80.772
X216.154Y-83.312
X216.154Y-85.852
X216.154Y-88.392
X216.154Y-90.932
X216.154Y-93.472
X216.154Y-96.012
X216.154Y-98.552
X216.154Y-101.092
X216.154Y-103.632
X216.154Y-106.172
X216.154Y-108.712
X216.154Y-111.252
X216.154Y-113.792
X216.154Y-116.332
X216.154Y-118.872
X216.154Y-121.412
X216.154Y-123.952
X216.154Y-126.492
X216.154Y-129.032
X216.154Y-131.572
X216.154Y-134.112
X216.154Y-136.652
X216.154Y-139.192
X216.154Y-141.732
X216.154Y-144.272
X216.154Y-146.812
X218.694Y-80.772
X218.694Y-83.312
X218.694Y-85.852
X218.694Y-88.392
X218.694Y-90.932
X218.694Y-93.472
X218.694Y-96.012
X218.694Y-98.552
X218.694Y-101.092
X218.694Y-103.632
X218.694Y-106.172
X218.694Y-108.712
X218.694Y-111.252
X218.694Y-113.792
X218.694Y-116.332
X218.694Y-118.872
X218.694Y-121.412
X218.694Y-123.952
X218.694Y-126.492
X218.694Y-129.032
X218.694Y-131.572
X218.694Y-134.112
X218.694Y-136.652
X218.694Y-139.192
X218.694Y-141.732
X218.694Y-144.272
X218.694Y-146.812
X221.234Y-80.772
X221.234Y-83.312
X221.234Y-85.852
X221.234Y-88.392
X221.234Y-90.932
X221.234Y-93.472
X221.234Y-96.012
X221.234Y-98.552
X221.234Y-101.092
X221.234Y-103.632
X221.234Y-106.172
X221.234Y-108.712
X221.234Y-111.252
X221.234Y-113.792
X221.234Y-116.332
X221.234Y-118.872
X221.234Y-121.412
X221.234Y-123.952
X221.234Y-126.492
X221.234Y-129.032
X221.234Y-131.572
X221.234Y-134.112
X221.234Y-136.652
X221.234Y-139.192
X221.234Y-141.732
X221.234Y-144.272
X221.234Y-146.812
X223.774Y-80.772
X223.774Y-83.312
X223.774Y-85.852
X223.774Y-88.392
X223.774Y-90.932
X223.774Y-93.472
X223.774Y-96.012
X223.774Y-98.552
X223.774Y-101.092
X223.774Y-103.632
X223.774Y-106.172
X223.774Y-108.712
X223.774Y-111.252
X223.774Y-113.792
X223.774Y-116.332
X223.774Y-118.872
X223.774Y-121.412
X223.774Y-123.952
X223.774Y-126.492
X223.774Y-129.032
X223.774Y-131.572
X223.774Y-134.112
X223.774Y-136.652
X223.774Y-139.192
X225.298Y-35.052
X225.298Y-37.592
X225.298Y-42.941
X225.298Y-45.481
X225.298Y-48.021
X225.298Y-56.139
X225.298Y-58.679
X225.298Y-61.219
X225.298Y-63.759
X225.298Y-66.299
X226.314Y-80.772
X226.314Y-83.312
X226.314Y-85.852
X226.314Y-88.392
X226.314Y-90.932
X226.314Y-93.472
X226.314Y-96.012
X226.314Y-98.552
X226.314Y-101.092
X226.314Y-103.632
X226.314Y-106.172
X226.314Y-108.712
X226.314Y-111.252
X226.314Y-113.792
X226.314Y-116.332
X226.314Y-118.872
X226.314Y-121.412
X226.314Y-123.952
X226.314Y-126.492
X226.314Y-129.032
X226.314Y-131.572
X226.314Y-134.112
X226.314Y-136.652
X226.314Y-139.192
T7
X13.558Y-8.531
X25.558Y-8.531
T8
X135.091Y-8.541
X174.281Y-8.541
X185.383Y-8.502
X224.573Y-8.502
T9
X44.698Y-8.336
X69.698Y-8.336
X78.299Y-9.566
X125.399Y-9.566
T6
X30.801Y-7.842G85X30.801Y-9.842
G05
X36.502Y-5.842G85X34.502Y-5.842
G05
X36.502Y-11.842G85X34.502Y-11.842
G05
M30
