G04 #@! TF.GenerationSoftware,KiCad,Pcbnew,8.0.3*
G04 #@! TF.CreationDate,2024-07-12T16:59:53+02:00*
G04 #@! TF.ProjectId,Sally2,53616c6c-7932-42e6-9b69-6361645f7063,rev?*
G04 #@! TF.SameCoordinates,Original*
G04 #@! TF.FileFunction,Copper,L2,Bot*
G04 #@! TF.FilePolarity,Positive*
%FSLAX46Y46*%
G04 Gerber Fmt 4.6, Leading zero omitted, Abs format (unit mm)*
G04 Created by KiCad (PCBNEW 8.0.3) date 2024-07-12 16:59:53*
%MOMM*%
%LPD*%
G01*
G04 APERTURE LIST*
G04 Aperture macros list*
%AMRoundRect*
0 Rectangle with rounded corners*
0 $1 Rounding radius*
0 $2 $3 $4 $5 $6 $7 $8 $9 X,Y pos of 4 corners*
0 Add a 4 corners polygon primitive as box body*
4,1,4,$2,$3,$4,$5,$6,$7,$8,$9,$2,$3,0*
0 Add four circle primitives for the rounded corners*
1,1,$1+$1,$2,$3*
1,1,$1+$1,$4,$5*
1,1,$1+$1,$6,$7*
1,1,$1+$1,$8,$9*
0 Add four rect primitives between the rounded corners*
20,1,$1+$1,$2,$3,$4,$5,0*
20,1,$1+$1,$4,$5,$6,$7,0*
20,1,$1+$1,$6,$7,$8,$9,0*
20,1,$1+$1,$8,$9,$2,$3,0*%
G04 Aperture macros list end*
G04 #@! TA.AperFunction,ComponentPad*
%ADD10R,1.700000X1.700000*%
G04 #@! TD*
G04 #@! TA.AperFunction,ComponentPad*
%ADD11O,1.700000X1.700000*%
G04 #@! TD*
G04 #@! TA.AperFunction,ComponentPad*
%ADD12R,1.800000X1.800000*%
G04 #@! TD*
G04 #@! TA.AperFunction,ComponentPad*
%ADD13C,1.800000*%
G04 #@! TD*
G04 #@! TA.AperFunction,ComponentPad*
%ADD14C,1.600000*%
G04 #@! TD*
G04 #@! TA.AperFunction,ComponentPad*
%ADD15R,1.600000X1.600000*%
G04 #@! TD*
G04 #@! TA.AperFunction,ComponentPad*
%ADD16C,4.000000*%
G04 #@! TD*
G04 #@! TA.AperFunction,ComponentPad*
%ADD17O,1.600000X1.600000*%
G04 #@! TD*
G04 #@! TA.AperFunction,ComponentPad*
%ADD18C,1.676400*%
G04 #@! TD*
G04 #@! TA.AperFunction,ComponentPad*
%ADD19R,1.676400X1.676400*%
G04 #@! TD*
G04 #@! TA.AperFunction,ComponentPad*
%ADD20R,1.600000X2.400000*%
G04 #@! TD*
G04 #@! TA.AperFunction,ComponentPad*
%ADD21O,1.600000X2.400000*%
G04 #@! TD*
G04 #@! TA.AperFunction,ComponentPad*
%ADD22C,1.400000*%
G04 #@! TD*
G04 #@! TA.AperFunction,ComponentPad*
%ADD23O,1.400000X1.400000*%
G04 #@! TD*
G04 #@! TA.AperFunction,ComponentPad*
%ADD24RoundRect,0.250000X-0.600000X0.600000X-0.600000X-0.600000X0.600000X-0.600000X0.600000X0.600000X0*%
G04 #@! TD*
G04 #@! TA.AperFunction,ComponentPad*
%ADD25C,1.700000*%
G04 #@! TD*
G04 #@! TA.AperFunction,ComponentPad*
%ADD26R,3.500000X3.500000*%
G04 #@! TD*
G04 #@! TA.AperFunction,ComponentPad*
%ADD27RoundRect,0.750000X-1.000000X0.750000X-1.000000X-0.750000X1.000000X-0.750000X1.000000X0.750000X0*%
G04 #@! TD*
G04 #@! TA.AperFunction,ComponentPad*
%ADD28RoundRect,0.875000X-0.875000X0.875000X-0.875000X-0.875000X0.875000X-0.875000X0.875000X0.875000X0*%
G04 #@! TD*
G04 #@! TA.AperFunction,ViaPad*
%ADD29C,0.800000*%
G04 #@! TD*
G04 #@! TA.AperFunction,Conductor*
%ADD30C,0.350000*%
G04 #@! TD*
G04 #@! TA.AperFunction,Conductor*
%ADD31C,0.800000*%
G04 #@! TD*
G04 APERTURE END LIST*
D10*
X137414000Y-146812000D03*
D11*
X139954000Y-146812000D03*
X142494000Y-146812000D03*
X145034000Y-146812000D03*
X147574000Y-146812000D03*
X150114000Y-146812000D03*
X152654000Y-146812000D03*
X155194000Y-146812000D03*
X157734000Y-146812000D03*
X160274000Y-146812000D03*
X162814000Y-146812000D03*
X165354000Y-146812000D03*
X167894000Y-146812000D03*
X170434000Y-146812000D03*
X172974000Y-146812000D03*
X175514000Y-146812000D03*
X178054000Y-146812000D03*
X180594000Y-146812000D03*
X183134000Y-146812000D03*
X185674000Y-146812000D03*
X188214000Y-146812000D03*
X190754000Y-146812000D03*
X193294000Y-146812000D03*
X195834000Y-146812000D03*
X198374000Y-146812000D03*
X200914000Y-146812000D03*
X203454000Y-146812000D03*
X205994000Y-146812000D03*
X208534000Y-146812000D03*
X211074000Y-146812000D03*
X213614000Y-146812000D03*
X216154000Y-146812000D03*
X218694000Y-146812000D03*
X221234000Y-146812000D03*
D10*
X20574000Y-146812000D03*
D11*
X23114000Y-146812000D03*
X25654000Y-146812000D03*
X28194000Y-146812000D03*
X30734000Y-146812000D03*
X33274000Y-146812000D03*
X35814000Y-146812000D03*
X38354000Y-146812000D03*
X40894000Y-146812000D03*
X43434000Y-146812000D03*
X45974000Y-146812000D03*
X48514000Y-146812000D03*
X51054000Y-146812000D03*
X53594000Y-146812000D03*
X56134000Y-146812000D03*
X58674000Y-146812000D03*
X61214000Y-146812000D03*
X63754000Y-146812000D03*
X66294000Y-146812000D03*
X68834000Y-146812000D03*
X71374000Y-146812000D03*
X73914000Y-146812000D03*
X76454000Y-146812000D03*
X78994000Y-146812000D03*
X81534000Y-146812000D03*
X84074000Y-146812000D03*
X86614000Y-146812000D03*
X89154000Y-146812000D03*
X91694000Y-146812000D03*
X94234000Y-146812000D03*
X96774000Y-146812000D03*
X99314000Y-146812000D03*
X101854000Y-146812000D03*
X104394000Y-146812000D03*
D10*
X137414000Y-141732000D03*
D11*
X137414000Y-144272000D03*
X139954000Y-141732000D03*
X139954000Y-144272000D03*
X142494000Y-141732000D03*
X142494000Y-144272000D03*
X145034000Y-141732000D03*
X145034000Y-144272000D03*
X147574000Y-141732000D03*
X147574000Y-144272000D03*
X150114000Y-141732000D03*
X150114000Y-144272000D03*
X152654000Y-141732000D03*
X152654000Y-144272000D03*
X155194000Y-141732000D03*
X155194000Y-144272000D03*
X157734000Y-141732000D03*
X157734000Y-144272000D03*
X160274000Y-141732000D03*
X160274000Y-144272000D03*
X162814000Y-141732000D03*
X162814000Y-144272000D03*
X165354000Y-141732000D03*
X165354000Y-144272000D03*
X167894000Y-141732000D03*
X167894000Y-144272000D03*
X170434000Y-141732000D03*
X170434000Y-144272000D03*
X172974000Y-141732000D03*
X172974000Y-144272000D03*
X175514000Y-141732000D03*
X175514000Y-144272000D03*
X178054000Y-141732000D03*
X178054000Y-144272000D03*
X180594000Y-141732000D03*
X180594000Y-144272000D03*
X183134000Y-141732000D03*
X183134000Y-144272000D03*
X185674000Y-141732000D03*
X185674000Y-144272000D03*
X188214000Y-141732000D03*
X188214000Y-144272000D03*
X190754000Y-141732000D03*
X190754000Y-144272000D03*
X193294000Y-141732000D03*
X193294000Y-144272000D03*
X195834000Y-141732000D03*
X195834000Y-144272000D03*
X198374000Y-141732000D03*
X198374000Y-144272000D03*
X200914000Y-141732000D03*
X200914000Y-144272000D03*
X203454000Y-141732000D03*
X203454000Y-144272000D03*
X205994000Y-141732000D03*
X205994000Y-144272000D03*
X208534000Y-141732000D03*
X208534000Y-144272000D03*
X211074000Y-141732000D03*
X211074000Y-144272000D03*
X213614000Y-141732000D03*
X213614000Y-144272000D03*
X216154000Y-141732000D03*
X216154000Y-144272000D03*
X218694000Y-141732000D03*
X218694000Y-144272000D03*
X221234000Y-141732000D03*
X221234000Y-144272000D03*
D10*
X20574000Y-141732000D03*
D11*
X20574000Y-144272000D03*
X23114000Y-141732000D03*
X23114000Y-144272000D03*
X25654000Y-141732000D03*
X25654000Y-144272000D03*
X28194000Y-141732000D03*
X28194000Y-144272000D03*
X30734000Y-141732000D03*
X30734000Y-144272000D03*
X33274000Y-141732000D03*
X33274000Y-144272000D03*
X35814000Y-141732000D03*
X35814000Y-144272000D03*
X38354000Y-141732000D03*
X38354000Y-144272000D03*
X40894000Y-141732000D03*
X40894000Y-144272000D03*
X43434000Y-141732000D03*
X43434000Y-144272000D03*
X45974000Y-141732000D03*
X45974000Y-144272000D03*
X48514000Y-141732000D03*
X48514000Y-144272000D03*
X51054000Y-141732000D03*
X51054000Y-144272000D03*
X53594000Y-141732000D03*
X53594000Y-144272000D03*
X56134000Y-141732000D03*
X56134000Y-144272000D03*
X58674000Y-141732000D03*
X58674000Y-144272000D03*
X61214000Y-141732000D03*
X61214000Y-144272000D03*
X63754000Y-141732000D03*
X63754000Y-144272000D03*
X66294000Y-141732000D03*
X66294000Y-144272000D03*
X68834000Y-141732000D03*
X68834000Y-144272000D03*
X71374000Y-141732000D03*
X71374000Y-144272000D03*
X73914000Y-141732000D03*
X73914000Y-144272000D03*
X76454000Y-141732000D03*
X76454000Y-144272000D03*
X78994000Y-141732000D03*
X78994000Y-144272000D03*
X81534000Y-141732000D03*
X81534000Y-144272000D03*
X84074000Y-141732000D03*
X84074000Y-144272000D03*
X86614000Y-141732000D03*
X86614000Y-144272000D03*
X89154000Y-141732000D03*
X89154000Y-144272000D03*
X91694000Y-141732000D03*
X91694000Y-144272000D03*
X94234000Y-141732000D03*
X94234000Y-144272000D03*
X96774000Y-141732000D03*
X96774000Y-144272000D03*
X99314000Y-141732000D03*
X99314000Y-144272000D03*
X101854000Y-141732000D03*
X101854000Y-144272000D03*
X104394000Y-141732000D03*
X104394000Y-144272000D03*
D10*
X226314000Y-106172000D03*
D11*
X226314000Y-108712000D03*
X226314000Y-111252000D03*
X226314000Y-113792000D03*
X226314000Y-116332000D03*
X226314000Y-118872000D03*
X226314000Y-121412000D03*
X226314000Y-123952000D03*
X226314000Y-126492000D03*
X226314000Y-129032000D03*
X226314000Y-131572000D03*
X226314000Y-134112000D03*
X226314000Y-136652000D03*
X226314000Y-139192000D03*
D10*
X223774000Y-106172000D03*
D11*
X221234000Y-106172000D03*
X223774000Y-108712000D03*
X221234000Y-108712000D03*
X223774000Y-111252000D03*
X221234000Y-111252000D03*
X223774000Y-113792000D03*
X221234000Y-113792000D03*
X223774000Y-116332000D03*
X221234000Y-116332000D03*
X223774000Y-118872000D03*
X221234000Y-118872000D03*
X223774000Y-121412000D03*
X221234000Y-121412000D03*
X223774000Y-123952000D03*
X221234000Y-123952000D03*
X223774000Y-126492000D03*
X221234000Y-126492000D03*
X223774000Y-129032000D03*
X221234000Y-129032000D03*
X223774000Y-131572000D03*
X221234000Y-131572000D03*
X223774000Y-134112000D03*
X221234000Y-134112000D03*
X223774000Y-136652000D03*
X221234000Y-136652000D03*
X223774000Y-139192000D03*
X221234000Y-139192000D03*
D10*
X218694000Y-106172000D03*
D11*
X216154000Y-106172000D03*
X218694000Y-108712000D03*
X216154000Y-108712000D03*
X218694000Y-111252000D03*
X216154000Y-111252000D03*
X218694000Y-113792000D03*
X216154000Y-113792000D03*
X218694000Y-116332000D03*
X216154000Y-116332000D03*
X218694000Y-118872000D03*
X216154000Y-118872000D03*
X218694000Y-121412000D03*
X216154000Y-121412000D03*
X218694000Y-123952000D03*
X216154000Y-123952000D03*
X218694000Y-126492000D03*
X216154000Y-126492000D03*
X218694000Y-129032000D03*
X216154000Y-129032000D03*
X218694000Y-131572000D03*
X216154000Y-131572000D03*
X218694000Y-134112000D03*
X216154000Y-134112000D03*
X218694000Y-136652000D03*
X216154000Y-136652000D03*
X218694000Y-139192000D03*
X216154000Y-139192000D03*
D10*
X175514000Y-80772000D03*
D11*
X175514000Y-83312000D03*
X178054000Y-80772000D03*
X178054000Y-83312000D03*
X180594000Y-80772000D03*
X180594000Y-83312000D03*
X183134000Y-80772000D03*
X183134000Y-83312000D03*
X185674000Y-80772000D03*
X185674000Y-83312000D03*
X188214000Y-80772000D03*
X188214000Y-83312000D03*
X190754000Y-80772000D03*
X190754000Y-83312000D03*
X193294000Y-80772000D03*
X193294000Y-83312000D03*
X195834000Y-80772000D03*
X195834000Y-83312000D03*
X198374000Y-80772000D03*
X198374000Y-83312000D03*
X200914000Y-80772000D03*
X200914000Y-83312000D03*
X203454000Y-80772000D03*
X203454000Y-83312000D03*
X205994000Y-80772000D03*
X205994000Y-83312000D03*
X208534000Y-80772000D03*
X208534000Y-83312000D03*
X211074000Y-80772000D03*
X211074000Y-83312000D03*
X213614000Y-80772000D03*
X213614000Y-83312000D03*
X216154000Y-80772000D03*
X216154000Y-83312000D03*
X218694000Y-80772000D03*
X218694000Y-83312000D03*
X221234000Y-80772000D03*
X221234000Y-83312000D03*
X223774000Y-80772000D03*
X223774000Y-83312000D03*
X226314000Y-80772000D03*
X226314000Y-83312000D03*
D10*
X170434000Y-85852000D03*
D11*
X170434000Y-88392000D03*
X172974000Y-85852000D03*
X172974000Y-88392000D03*
X175514000Y-85852000D03*
X175514000Y-88392000D03*
X178054000Y-85852000D03*
X178054000Y-88392000D03*
X180594000Y-85852000D03*
X180594000Y-88392000D03*
X183134000Y-85852000D03*
X183134000Y-88392000D03*
X185674000Y-85852000D03*
X185674000Y-88392000D03*
X188214000Y-85852000D03*
X188214000Y-88392000D03*
X190754000Y-85852000D03*
X190754000Y-88392000D03*
X193294000Y-85852000D03*
X193294000Y-88392000D03*
X195834000Y-85852000D03*
X195834000Y-88392000D03*
X198374000Y-85852000D03*
X198374000Y-88392000D03*
X200914000Y-85852000D03*
X200914000Y-88392000D03*
X203454000Y-85852000D03*
X203454000Y-88392000D03*
X205994000Y-85852000D03*
X205994000Y-88392000D03*
X208534000Y-85852000D03*
X208534000Y-88392000D03*
X211074000Y-85852000D03*
X211074000Y-88392000D03*
X213614000Y-85852000D03*
X213614000Y-88392000D03*
X216154000Y-85852000D03*
X216154000Y-88392000D03*
X218694000Y-85852000D03*
X218694000Y-88392000D03*
X221234000Y-85852000D03*
X221234000Y-88392000D03*
X223774000Y-85852000D03*
X223774000Y-88392000D03*
X226314000Y-85852000D03*
X226314000Y-88392000D03*
D10*
X165354000Y-90932000D03*
D11*
X165354000Y-93472000D03*
X167894000Y-90932000D03*
X167894000Y-93472000D03*
X170434000Y-90932000D03*
X170434000Y-93472000D03*
X172974000Y-90932000D03*
X172974000Y-93472000D03*
X175514000Y-90932000D03*
X175514000Y-93472000D03*
X178054000Y-90932000D03*
X178054000Y-93472000D03*
X180594000Y-90932000D03*
X180594000Y-93472000D03*
X183134000Y-90932000D03*
X183134000Y-93472000D03*
X185674000Y-90932000D03*
X185674000Y-93472000D03*
X188214000Y-90932000D03*
X188214000Y-93472000D03*
X190754000Y-90932000D03*
X190754000Y-93472000D03*
X193294000Y-90932000D03*
X193294000Y-93472000D03*
X195834000Y-90932000D03*
X195834000Y-93472000D03*
X198374000Y-90932000D03*
X198374000Y-93472000D03*
X200914000Y-90932000D03*
X200914000Y-93472000D03*
X203454000Y-90932000D03*
X203454000Y-93472000D03*
X205994000Y-90932000D03*
X205994000Y-93472000D03*
X208534000Y-90932000D03*
X208534000Y-93472000D03*
X211074000Y-90932000D03*
X211074000Y-93472000D03*
X213614000Y-90932000D03*
X213614000Y-93472000D03*
X216154000Y-90932000D03*
X216154000Y-93472000D03*
X218694000Y-90932000D03*
X218694000Y-93472000D03*
X221234000Y-90932000D03*
X221234000Y-93472000D03*
X223774000Y-90932000D03*
X223774000Y-93472000D03*
X226314000Y-90932000D03*
X226314000Y-93472000D03*
D10*
X160274000Y-96012000D03*
D11*
X160274000Y-98552000D03*
X162814000Y-96012000D03*
X162814000Y-98552000D03*
X165354000Y-96012000D03*
X165354000Y-98552000D03*
X167894000Y-96012000D03*
X167894000Y-98552000D03*
X170434000Y-96012000D03*
X170434000Y-98552000D03*
X172974000Y-96012000D03*
X172974000Y-98552000D03*
X175514000Y-96012000D03*
X175514000Y-98552000D03*
X178054000Y-96012000D03*
X178054000Y-98552000D03*
X180594000Y-96012000D03*
X180594000Y-98552000D03*
X183134000Y-96012000D03*
X183134000Y-98552000D03*
X185674000Y-96012000D03*
X185674000Y-98552000D03*
X188214000Y-96012000D03*
X188214000Y-98552000D03*
X190754000Y-96012000D03*
X190754000Y-98552000D03*
X193294000Y-96012000D03*
X193294000Y-98552000D03*
X195834000Y-96012000D03*
X195834000Y-98552000D03*
X198374000Y-96012000D03*
X198374000Y-98552000D03*
X200914000Y-96012000D03*
X200914000Y-98552000D03*
X203454000Y-96012000D03*
X203454000Y-98552000D03*
X205994000Y-96012000D03*
X205994000Y-98552000D03*
X208534000Y-96012000D03*
X208534000Y-98552000D03*
X211074000Y-96012000D03*
X211074000Y-98552000D03*
X213614000Y-96012000D03*
X213614000Y-98552000D03*
X216154000Y-96012000D03*
X216154000Y-98552000D03*
X218694000Y-96012000D03*
X218694000Y-98552000D03*
X221234000Y-96012000D03*
X221234000Y-98552000D03*
X223774000Y-96012000D03*
X223774000Y-98552000D03*
X226314000Y-96012000D03*
X226314000Y-98552000D03*
D10*
X155194000Y-101092000D03*
D11*
X155194000Y-103632000D03*
X157734000Y-101092000D03*
X157734000Y-103632000D03*
X160274000Y-101092000D03*
X160274000Y-103632000D03*
X162814000Y-101092000D03*
X162814000Y-103632000D03*
X165354000Y-101092000D03*
X165354000Y-103632000D03*
X167894000Y-101092000D03*
X167894000Y-103632000D03*
X170434000Y-101092000D03*
X170434000Y-103632000D03*
X172974000Y-101092000D03*
X172974000Y-103632000D03*
X175514000Y-101092000D03*
X175514000Y-103632000D03*
X178054000Y-101092000D03*
X178054000Y-103632000D03*
X180594000Y-101092000D03*
X180594000Y-103632000D03*
X183134000Y-101092000D03*
X183134000Y-103632000D03*
X185674000Y-101092000D03*
X185674000Y-103632000D03*
X188214000Y-101092000D03*
X188214000Y-103632000D03*
X190754000Y-101092000D03*
X190754000Y-103632000D03*
X193294000Y-101092000D03*
X193294000Y-103632000D03*
X195834000Y-101092000D03*
X195834000Y-103632000D03*
X198374000Y-101092000D03*
X198374000Y-103632000D03*
X200914000Y-101092000D03*
X200914000Y-103632000D03*
X203454000Y-101092000D03*
X203454000Y-103632000D03*
X205994000Y-101092000D03*
X205994000Y-103632000D03*
X208534000Y-101092000D03*
X208534000Y-103632000D03*
X211074000Y-101092000D03*
X211074000Y-103632000D03*
X213614000Y-101092000D03*
X213614000Y-103632000D03*
X216154000Y-101092000D03*
X216154000Y-103632000D03*
X218694000Y-101092000D03*
X218694000Y-103632000D03*
X221234000Y-101092000D03*
X221234000Y-103632000D03*
X223774000Y-101092000D03*
X223774000Y-103632000D03*
X226314000Y-101092000D03*
X226314000Y-103632000D03*
X213614000Y-113792000D03*
X213614000Y-111252000D03*
X211074000Y-113792000D03*
X211074000Y-111252000D03*
X208534000Y-113792000D03*
X208534000Y-111252000D03*
X205994000Y-113792000D03*
X205994000Y-111252000D03*
X203454000Y-113792000D03*
X203454000Y-111252000D03*
X200914000Y-113792000D03*
X200914000Y-111252000D03*
X198374000Y-113792000D03*
X198374000Y-111252000D03*
X195834000Y-113792000D03*
X195834000Y-111252000D03*
X193294000Y-113792000D03*
X193294000Y-111252000D03*
X190754000Y-113792000D03*
X190754000Y-111252000D03*
X188214000Y-113792000D03*
X188214000Y-111252000D03*
X185674000Y-113792000D03*
X185674000Y-111252000D03*
X183134000Y-113792000D03*
X183134000Y-111252000D03*
X180594000Y-113792000D03*
X180594000Y-111252000D03*
X178054000Y-113792000D03*
X178054000Y-111252000D03*
X175514000Y-113792000D03*
X175514000Y-111252000D03*
X172974000Y-113792000D03*
X172974000Y-111252000D03*
X170434000Y-113792000D03*
X170434000Y-111252000D03*
X167894000Y-113792000D03*
X167894000Y-111252000D03*
X165354000Y-113792000D03*
X165354000Y-111252000D03*
X162814000Y-113792000D03*
X162814000Y-111252000D03*
X160274000Y-113792000D03*
X160274000Y-111252000D03*
X157734000Y-113792000D03*
X157734000Y-111252000D03*
X155194000Y-113792000D03*
X155194000Y-111252000D03*
X152654000Y-113792000D03*
X152654000Y-111252000D03*
X150114000Y-113792000D03*
X150114000Y-111252000D03*
X147574000Y-113792000D03*
X147574000Y-111252000D03*
X145034000Y-113792000D03*
X145034000Y-111252000D03*
X142494000Y-113792000D03*
X142494000Y-111252000D03*
X139954000Y-113792000D03*
X139954000Y-111252000D03*
X137414000Y-113792000D03*
X137414000Y-111252000D03*
X134874000Y-113792000D03*
X134874000Y-111252000D03*
X132334000Y-113792000D03*
X132334000Y-111252000D03*
X129794000Y-113792000D03*
X129794000Y-111252000D03*
X127254000Y-113792000D03*
X127254000Y-111252000D03*
X124714000Y-113792000D03*
X124714000Y-111252000D03*
X122174000Y-113792000D03*
X122174000Y-111252000D03*
X119634000Y-113792000D03*
X119634000Y-111252000D03*
X117094000Y-113792000D03*
X117094000Y-111252000D03*
X114554000Y-113792000D03*
D10*
X114554000Y-111252000D03*
D11*
X112014000Y-108712000D03*
X112014000Y-106172000D03*
X109474000Y-108712000D03*
X109474000Y-106172000D03*
X106934000Y-108712000D03*
X106934000Y-106172000D03*
X104394000Y-108712000D03*
X104394000Y-106172000D03*
X101854000Y-108712000D03*
X101854000Y-106172000D03*
X99314000Y-108712000D03*
X99314000Y-106172000D03*
X96774000Y-108712000D03*
X96774000Y-106172000D03*
X94234000Y-108712000D03*
X94234000Y-106172000D03*
X91694000Y-108712000D03*
X91694000Y-106172000D03*
X89154000Y-108712000D03*
X89154000Y-106172000D03*
X86614000Y-108712000D03*
X86614000Y-106172000D03*
X84074000Y-108712000D03*
X84074000Y-106172000D03*
X81534000Y-108712000D03*
X81534000Y-106172000D03*
X78994000Y-108712000D03*
X78994000Y-106172000D03*
X76454000Y-108712000D03*
X76454000Y-106172000D03*
X73914000Y-108712000D03*
X73914000Y-106172000D03*
X71374000Y-108712000D03*
X71374000Y-106172000D03*
X68834000Y-108712000D03*
X68834000Y-106172000D03*
X66294000Y-108712000D03*
X66294000Y-106172000D03*
X63754000Y-108712000D03*
X63754000Y-106172000D03*
X61214000Y-108712000D03*
X61214000Y-106172000D03*
X58674000Y-108712000D03*
X58674000Y-106172000D03*
X56134000Y-108712000D03*
X56134000Y-106172000D03*
X53594000Y-108712000D03*
X53594000Y-106172000D03*
X51054000Y-108712000D03*
X51054000Y-106172000D03*
X48514000Y-108712000D03*
X48514000Y-106172000D03*
X45974000Y-108712000D03*
X45974000Y-106172000D03*
X43434000Y-108712000D03*
X43434000Y-106172000D03*
X40894000Y-108712000D03*
X40894000Y-106172000D03*
X38354000Y-108712000D03*
X38354000Y-106172000D03*
X35814000Y-108712000D03*
X35814000Y-106172000D03*
X33274000Y-108712000D03*
X33274000Y-106172000D03*
X30734000Y-108712000D03*
X30734000Y-106172000D03*
X28194000Y-108712000D03*
X28194000Y-106172000D03*
X25654000Y-108712000D03*
X25654000Y-106172000D03*
X23114000Y-108712000D03*
X23114000Y-106172000D03*
X20574000Y-108712000D03*
X20574000Y-106172000D03*
X18034000Y-108712000D03*
X18034000Y-106172000D03*
X15494000Y-108712000D03*
X15494000Y-106172000D03*
X12954000Y-108712000D03*
D10*
X12954000Y-106172000D03*
D11*
X112014000Y-113792000D03*
X112014000Y-111252000D03*
X109474000Y-113792000D03*
X109474000Y-111252000D03*
X106934000Y-113792000D03*
X106934000Y-111252000D03*
X104394000Y-113792000D03*
X104394000Y-111252000D03*
X101854000Y-113792000D03*
X101854000Y-111252000D03*
X99314000Y-113792000D03*
X99314000Y-111252000D03*
X96774000Y-113792000D03*
X96774000Y-111252000D03*
X94234000Y-113792000D03*
X94234000Y-111252000D03*
X91694000Y-113792000D03*
X91694000Y-111252000D03*
X89154000Y-113792000D03*
X89154000Y-111252000D03*
X86614000Y-113792000D03*
X86614000Y-111252000D03*
X84074000Y-113792000D03*
X84074000Y-111252000D03*
X81534000Y-113792000D03*
X81534000Y-111252000D03*
X78994000Y-113792000D03*
X78994000Y-111252000D03*
X76454000Y-113792000D03*
X76454000Y-111252000D03*
X73914000Y-113792000D03*
X73914000Y-111252000D03*
X71374000Y-113792000D03*
X71374000Y-111252000D03*
X68834000Y-113792000D03*
X68834000Y-111252000D03*
X66294000Y-113792000D03*
X66294000Y-111252000D03*
X63754000Y-113792000D03*
X63754000Y-111252000D03*
X61214000Y-113792000D03*
X61214000Y-111252000D03*
X58674000Y-113792000D03*
X58674000Y-111252000D03*
X56134000Y-113792000D03*
X56134000Y-111252000D03*
X53594000Y-113792000D03*
X53594000Y-111252000D03*
X51054000Y-113792000D03*
X51054000Y-111252000D03*
X48514000Y-113792000D03*
X48514000Y-111252000D03*
X45974000Y-113792000D03*
X45974000Y-111252000D03*
X43434000Y-113792000D03*
X43434000Y-111252000D03*
X40894000Y-113792000D03*
X40894000Y-111252000D03*
X38354000Y-113792000D03*
X38354000Y-111252000D03*
X35814000Y-113792000D03*
X35814000Y-111252000D03*
X33274000Y-113792000D03*
X33274000Y-111252000D03*
X30734000Y-113792000D03*
X30734000Y-111252000D03*
X28194000Y-113792000D03*
X28194000Y-111252000D03*
X25654000Y-113792000D03*
X25654000Y-111252000D03*
X23114000Y-113792000D03*
X23114000Y-111252000D03*
X20574000Y-113792000D03*
X20574000Y-111252000D03*
X18034000Y-113792000D03*
X18034000Y-111252000D03*
X15494000Y-113792000D03*
X15494000Y-111252000D03*
X12954000Y-113792000D03*
D10*
X12954000Y-111252000D03*
X12954000Y-116332000D03*
D11*
X12954000Y-118872000D03*
X15494000Y-116332000D03*
X15494000Y-118872000D03*
X18034000Y-116332000D03*
X18034000Y-118872000D03*
X20574000Y-116332000D03*
X20574000Y-118872000D03*
X23114000Y-116332000D03*
X23114000Y-118872000D03*
X25654000Y-116332000D03*
X25654000Y-118872000D03*
X28194000Y-116332000D03*
X28194000Y-118872000D03*
X30734000Y-116332000D03*
X30734000Y-118872000D03*
X33274000Y-116332000D03*
X33274000Y-118872000D03*
X35814000Y-116332000D03*
X35814000Y-118872000D03*
X38354000Y-116332000D03*
X38354000Y-118872000D03*
X40894000Y-116332000D03*
X40894000Y-118872000D03*
X43434000Y-116332000D03*
X43434000Y-118872000D03*
X45974000Y-116332000D03*
X45974000Y-118872000D03*
X48514000Y-116332000D03*
X48514000Y-118872000D03*
X51054000Y-116332000D03*
X51054000Y-118872000D03*
X53594000Y-116332000D03*
X53594000Y-118872000D03*
X56134000Y-116332000D03*
X56134000Y-118872000D03*
X58674000Y-116332000D03*
X58674000Y-118872000D03*
X61214000Y-116332000D03*
X61214000Y-118872000D03*
X63754000Y-116332000D03*
X63754000Y-118872000D03*
X66294000Y-116332000D03*
X66294000Y-118872000D03*
X68834000Y-116332000D03*
X68834000Y-118872000D03*
X71374000Y-116332000D03*
X71374000Y-118872000D03*
X73914000Y-116332000D03*
X73914000Y-118872000D03*
X76454000Y-116332000D03*
X76454000Y-118872000D03*
X78994000Y-116332000D03*
X78994000Y-118872000D03*
X81534000Y-116332000D03*
X81534000Y-118872000D03*
X84074000Y-116332000D03*
X84074000Y-118872000D03*
X86614000Y-116332000D03*
X86614000Y-118872000D03*
X89154000Y-116332000D03*
X89154000Y-118872000D03*
X91694000Y-116332000D03*
X91694000Y-118872000D03*
X94234000Y-116332000D03*
X94234000Y-118872000D03*
X96774000Y-116332000D03*
X96774000Y-118872000D03*
X99314000Y-116332000D03*
X99314000Y-118872000D03*
X101854000Y-116332000D03*
X101854000Y-118872000D03*
X104394000Y-116332000D03*
X104394000Y-118872000D03*
X106934000Y-116332000D03*
X106934000Y-118872000D03*
X109474000Y-116332000D03*
X109474000Y-118872000D03*
X112014000Y-116332000D03*
X112014000Y-118872000D03*
X213614000Y-108712000D03*
X213614000Y-106172000D03*
X211074000Y-108712000D03*
X211074000Y-106172000D03*
X208534000Y-108712000D03*
X208534000Y-106172000D03*
X205994000Y-108712000D03*
X205994000Y-106172000D03*
X203454000Y-108712000D03*
X203454000Y-106172000D03*
X200914000Y-108712000D03*
X200914000Y-106172000D03*
X198374000Y-108712000D03*
X198374000Y-106172000D03*
X195834000Y-108712000D03*
X195834000Y-106172000D03*
X193294000Y-108712000D03*
X193294000Y-106172000D03*
X190754000Y-108712000D03*
X190754000Y-106172000D03*
X188214000Y-108712000D03*
X188214000Y-106172000D03*
X185674000Y-108712000D03*
X185674000Y-106172000D03*
X183134000Y-108712000D03*
X183134000Y-106172000D03*
X180594000Y-108712000D03*
X180594000Y-106172000D03*
X178054000Y-108712000D03*
X178054000Y-106172000D03*
X175514000Y-108712000D03*
X175514000Y-106172000D03*
X172974000Y-108712000D03*
X172974000Y-106172000D03*
X170434000Y-108712000D03*
X170434000Y-106172000D03*
X167894000Y-108712000D03*
X167894000Y-106172000D03*
X165354000Y-108712000D03*
X165354000Y-106172000D03*
X162814000Y-108712000D03*
X162814000Y-106172000D03*
X160274000Y-108712000D03*
X160274000Y-106172000D03*
X157734000Y-108712000D03*
X157734000Y-106172000D03*
X155194000Y-108712000D03*
X155194000Y-106172000D03*
X152654000Y-108712000D03*
X152654000Y-106172000D03*
X150114000Y-108712000D03*
X150114000Y-106172000D03*
X147574000Y-108712000D03*
X147574000Y-106172000D03*
X145034000Y-108712000D03*
X145034000Y-106172000D03*
X142494000Y-108712000D03*
X142494000Y-106172000D03*
X139954000Y-108712000D03*
X139954000Y-106172000D03*
X137414000Y-108712000D03*
X137414000Y-106172000D03*
X134874000Y-108712000D03*
X134874000Y-106172000D03*
X132334000Y-108712000D03*
X132334000Y-106172000D03*
X129794000Y-108712000D03*
X129794000Y-106172000D03*
X127254000Y-108712000D03*
X127254000Y-106172000D03*
X124714000Y-108712000D03*
X124714000Y-106172000D03*
X122174000Y-108712000D03*
X122174000Y-106172000D03*
X119634000Y-108712000D03*
X119634000Y-106172000D03*
X117094000Y-108712000D03*
X117094000Y-106172000D03*
X114554000Y-108712000D03*
D10*
X114554000Y-106172000D03*
X114554000Y-116332000D03*
D11*
X114554000Y-118872000D03*
X117094000Y-116332000D03*
X117094000Y-118872000D03*
X119634000Y-116332000D03*
X119634000Y-118872000D03*
X122174000Y-116332000D03*
X122174000Y-118872000D03*
X124714000Y-116332000D03*
X124714000Y-118872000D03*
X127254000Y-116332000D03*
X127254000Y-118872000D03*
X129794000Y-116332000D03*
X129794000Y-118872000D03*
X132334000Y-116332000D03*
X132334000Y-118872000D03*
X134874000Y-116332000D03*
X134874000Y-118872000D03*
X137414000Y-116332000D03*
X137414000Y-118872000D03*
X139954000Y-116332000D03*
X139954000Y-118872000D03*
X142494000Y-116332000D03*
X142494000Y-118872000D03*
X145034000Y-116332000D03*
X145034000Y-118872000D03*
X147574000Y-116332000D03*
X147574000Y-118872000D03*
X150114000Y-116332000D03*
X150114000Y-118872000D03*
X152654000Y-116332000D03*
X152654000Y-118872000D03*
X155194000Y-116332000D03*
X155194000Y-118872000D03*
X157734000Y-116332000D03*
X157734000Y-118872000D03*
X160274000Y-116332000D03*
X160274000Y-118872000D03*
X162814000Y-116332000D03*
X162814000Y-118872000D03*
X165354000Y-116332000D03*
X165354000Y-118872000D03*
X167894000Y-116332000D03*
X167894000Y-118872000D03*
X170434000Y-116332000D03*
X170434000Y-118872000D03*
X172974000Y-116332000D03*
X172974000Y-118872000D03*
X175514000Y-116332000D03*
X175514000Y-118872000D03*
X178054000Y-116332000D03*
X178054000Y-118872000D03*
X180594000Y-116332000D03*
X180594000Y-118872000D03*
X183134000Y-116332000D03*
X183134000Y-118872000D03*
X185674000Y-116332000D03*
X185674000Y-118872000D03*
X188214000Y-116332000D03*
X188214000Y-118872000D03*
X190754000Y-116332000D03*
X190754000Y-118872000D03*
X193294000Y-116332000D03*
X193294000Y-118872000D03*
X195834000Y-116332000D03*
X195834000Y-118872000D03*
X198374000Y-116332000D03*
X198374000Y-118872000D03*
X200914000Y-116332000D03*
X200914000Y-118872000D03*
X203454000Y-116332000D03*
X203454000Y-118872000D03*
X205994000Y-116332000D03*
X205994000Y-118872000D03*
X208534000Y-116332000D03*
X208534000Y-118872000D03*
X211074000Y-116332000D03*
X211074000Y-118872000D03*
X213614000Y-116332000D03*
X213614000Y-118872000D03*
X112014000Y-123952000D03*
X112014000Y-121412000D03*
X109474000Y-123952000D03*
X109474000Y-121412000D03*
X106934000Y-123952000D03*
X106934000Y-121412000D03*
X104394000Y-123952000D03*
X104394000Y-121412000D03*
X101854000Y-123952000D03*
X101854000Y-121412000D03*
X99314000Y-123952000D03*
X99314000Y-121412000D03*
X96774000Y-123952000D03*
X96774000Y-121412000D03*
X94234000Y-123952000D03*
X94234000Y-121412000D03*
X91694000Y-123952000D03*
X91694000Y-121412000D03*
X89154000Y-123952000D03*
X89154000Y-121412000D03*
X86614000Y-123952000D03*
X86614000Y-121412000D03*
X84074000Y-123952000D03*
X84074000Y-121412000D03*
X81534000Y-123952000D03*
X81534000Y-121412000D03*
X78994000Y-123952000D03*
X78994000Y-121412000D03*
X76454000Y-123952000D03*
X76454000Y-121412000D03*
X73914000Y-123952000D03*
X73914000Y-121412000D03*
X71374000Y-123952000D03*
X71374000Y-121412000D03*
X68834000Y-123952000D03*
X68834000Y-121412000D03*
X66294000Y-123952000D03*
X66294000Y-121412000D03*
X63754000Y-123952000D03*
X63754000Y-121412000D03*
X61214000Y-123952000D03*
X61214000Y-121412000D03*
X58674000Y-123952000D03*
X58674000Y-121412000D03*
X56134000Y-123952000D03*
X56134000Y-121412000D03*
X53594000Y-123952000D03*
X53594000Y-121412000D03*
X51054000Y-123952000D03*
X51054000Y-121412000D03*
X48514000Y-123952000D03*
X48514000Y-121412000D03*
X45974000Y-123952000D03*
X45974000Y-121412000D03*
X43434000Y-123952000D03*
X43434000Y-121412000D03*
X40894000Y-123952000D03*
X40894000Y-121412000D03*
X38354000Y-123952000D03*
X38354000Y-121412000D03*
X35814000Y-123952000D03*
X35814000Y-121412000D03*
X33274000Y-123952000D03*
X33274000Y-121412000D03*
X30734000Y-123952000D03*
X30734000Y-121412000D03*
X28194000Y-123952000D03*
X28194000Y-121412000D03*
X25654000Y-123952000D03*
X25654000Y-121412000D03*
X23114000Y-123952000D03*
X23114000Y-121412000D03*
X20574000Y-123952000D03*
X20574000Y-121412000D03*
X18034000Y-123952000D03*
X18034000Y-121412000D03*
X15494000Y-123952000D03*
X15494000Y-121412000D03*
X12954000Y-123952000D03*
D10*
X12954000Y-121412000D03*
D11*
X213614000Y-129032000D03*
X213614000Y-126492000D03*
X211074000Y-129032000D03*
X211074000Y-126492000D03*
X208534000Y-129032000D03*
X208534000Y-126492000D03*
X205994000Y-129032000D03*
X205994000Y-126492000D03*
X203454000Y-129032000D03*
X203454000Y-126492000D03*
X200914000Y-129032000D03*
X200914000Y-126492000D03*
X198374000Y-129032000D03*
X198374000Y-126492000D03*
X195834000Y-129032000D03*
X195834000Y-126492000D03*
X193294000Y-129032000D03*
X193294000Y-126492000D03*
X190754000Y-129032000D03*
X190754000Y-126492000D03*
X188214000Y-129032000D03*
X188214000Y-126492000D03*
X185674000Y-129032000D03*
X185674000Y-126492000D03*
X183134000Y-129032000D03*
X183134000Y-126492000D03*
X180594000Y-129032000D03*
X180594000Y-126492000D03*
X178054000Y-129032000D03*
X178054000Y-126492000D03*
X175514000Y-129032000D03*
X175514000Y-126492000D03*
X172974000Y-129032000D03*
X172974000Y-126492000D03*
X170434000Y-129032000D03*
X170434000Y-126492000D03*
X167894000Y-129032000D03*
X167894000Y-126492000D03*
X165354000Y-129032000D03*
X165354000Y-126492000D03*
X162814000Y-129032000D03*
X162814000Y-126492000D03*
X160274000Y-129032000D03*
X160274000Y-126492000D03*
X157734000Y-129032000D03*
X157734000Y-126492000D03*
X155194000Y-129032000D03*
X155194000Y-126492000D03*
X152654000Y-129032000D03*
X152654000Y-126492000D03*
X150114000Y-129032000D03*
X150114000Y-126492000D03*
X147574000Y-129032000D03*
X147574000Y-126492000D03*
X145034000Y-129032000D03*
X145034000Y-126492000D03*
X142494000Y-129032000D03*
X142494000Y-126492000D03*
X139954000Y-129032000D03*
X139954000Y-126492000D03*
X137414000Y-129032000D03*
X137414000Y-126492000D03*
X134874000Y-129032000D03*
X134874000Y-126492000D03*
X132334000Y-129032000D03*
X132334000Y-126492000D03*
X129794000Y-129032000D03*
X129794000Y-126492000D03*
X127254000Y-129032000D03*
X127254000Y-126492000D03*
X124714000Y-129032000D03*
X124714000Y-126492000D03*
X122174000Y-129032000D03*
X122174000Y-126492000D03*
X119634000Y-129032000D03*
X119634000Y-126492000D03*
X117094000Y-129032000D03*
X117094000Y-126492000D03*
X114554000Y-129032000D03*
D10*
X114554000Y-126492000D03*
D11*
X213614000Y-123952000D03*
X213614000Y-121412000D03*
X211074000Y-123952000D03*
X211074000Y-121412000D03*
X208534000Y-123952000D03*
X208534000Y-121412000D03*
X205994000Y-123952000D03*
X205994000Y-121412000D03*
X203454000Y-123952000D03*
X203454000Y-121412000D03*
X200914000Y-123952000D03*
X200914000Y-121412000D03*
X198374000Y-123952000D03*
X198374000Y-121412000D03*
X195834000Y-123952000D03*
X195834000Y-121412000D03*
X193294000Y-123952000D03*
X193294000Y-121412000D03*
X190754000Y-123952000D03*
X190754000Y-121412000D03*
X188214000Y-123952000D03*
X188214000Y-121412000D03*
X185674000Y-123952000D03*
X185674000Y-121412000D03*
X183134000Y-123952000D03*
X183134000Y-121412000D03*
X180594000Y-123952000D03*
X180594000Y-121412000D03*
X178054000Y-123952000D03*
X178054000Y-121412000D03*
X175514000Y-123952000D03*
X175514000Y-121412000D03*
X172974000Y-123952000D03*
X172974000Y-121412000D03*
X170434000Y-123952000D03*
X170434000Y-121412000D03*
X167894000Y-123952000D03*
X167894000Y-121412000D03*
X165354000Y-123952000D03*
X165354000Y-121412000D03*
X162814000Y-123952000D03*
X162814000Y-121412000D03*
X160274000Y-123952000D03*
X160274000Y-121412000D03*
X157734000Y-123952000D03*
X157734000Y-121412000D03*
X155194000Y-123952000D03*
X155194000Y-121412000D03*
X152654000Y-123952000D03*
X152654000Y-121412000D03*
X150114000Y-123952000D03*
X150114000Y-121412000D03*
X147574000Y-123952000D03*
X147574000Y-121412000D03*
X145034000Y-123952000D03*
X145034000Y-121412000D03*
X142494000Y-123952000D03*
X142494000Y-121412000D03*
X139954000Y-123952000D03*
X139954000Y-121412000D03*
X137414000Y-123952000D03*
X137414000Y-121412000D03*
X134874000Y-123952000D03*
X134874000Y-121412000D03*
X132334000Y-123952000D03*
X132334000Y-121412000D03*
X129794000Y-123952000D03*
X129794000Y-121412000D03*
X127254000Y-123952000D03*
X127254000Y-121412000D03*
X124714000Y-123952000D03*
X124714000Y-121412000D03*
X122174000Y-123952000D03*
X122174000Y-121412000D03*
X119634000Y-123952000D03*
X119634000Y-121412000D03*
X117094000Y-123952000D03*
X117094000Y-121412000D03*
X114554000Y-123952000D03*
D10*
X114554000Y-121412000D03*
D11*
X112014000Y-129032000D03*
X112014000Y-126492000D03*
X109474000Y-129032000D03*
X109474000Y-126492000D03*
X106934000Y-129032000D03*
X106934000Y-126492000D03*
X104394000Y-129032000D03*
X104394000Y-126492000D03*
X101854000Y-129032000D03*
X101854000Y-126492000D03*
X99314000Y-129032000D03*
X99314000Y-126492000D03*
X96774000Y-129032000D03*
X96774000Y-126492000D03*
X94234000Y-129032000D03*
X94234000Y-126492000D03*
X91694000Y-129032000D03*
X91694000Y-126492000D03*
X89154000Y-129032000D03*
X89154000Y-126492000D03*
X86614000Y-129032000D03*
X86614000Y-126492000D03*
X84074000Y-129032000D03*
X84074000Y-126492000D03*
X81534000Y-129032000D03*
X81534000Y-126492000D03*
X78994000Y-129032000D03*
X78994000Y-126492000D03*
X76454000Y-129032000D03*
X76454000Y-126492000D03*
X73914000Y-129032000D03*
X73914000Y-126492000D03*
X71374000Y-129032000D03*
X71374000Y-126492000D03*
X68834000Y-129032000D03*
X68834000Y-126492000D03*
X66294000Y-129032000D03*
X66294000Y-126492000D03*
X63754000Y-129032000D03*
X63754000Y-126492000D03*
X61214000Y-129032000D03*
X61214000Y-126492000D03*
X58674000Y-129032000D03*
X58674000Y-126492000D03*
X56134000Y-129032000D03*
X56134000Y-126492000D03*
X53594000Y-129032000D03*
X53594000Y-126492000D03*
X51054000Y-129032000D03*
X51054000Y-126492000D03*
X48514000Y-129032000D03*
X48514000Y-126492000D03*
X45974000Y-129032000D03*
X45974000Y-126492000D03*
X43434000Y-129032000D03*
X43434000Y-126492000D03*
X40894000Y-129032000D03*
X40894000Y-126492000D03*
X38354000Y-129032000D03*
X38354000Y-126492000D03*
X35814000Y-129032000D03*
X35814000Y-126492000D03*
X33274000Y-129032000D03*
X33274000Y-126492000D03*
X30734000Y-129032000D03*
X30734000Y-126492000D03*
X28194000Y-129032000D03*
X28194000Y-126492000D03*
X25654000Y-129032000D03*
X25654000Y-126492000D03*
X23114000Y-129032000D03*
X23114000Y-126492000D03*
X20574000Y-129032000D03*
X20574000Y-126492000D03*
X18034000Y-129032000D03*
X18034000Y-126492000D03*
X15494000Y-129032000D03*
X15494000Y-126492000D03*
X12954000Y-129032000D03*
D10*
X12954000Y-126492000D03*
X114554000Y-131572000D03*
D11*
X114554000Y-134112000D03*
X117094000Y-131572000D03*
X117094000Y-134112000D03*
X119634000Y-131572000D03*
X119634000Y-134112000D03*
X122174000Y-131572000D03*
X122174000Y-134112000D03*
X124714000Y-131572000D03*
X124714000Y-134112000D03*
X127254000Y-131572000D03*
X127254000Y-134112000D03*
X129794000Y-131572000D03*
X129794000Y-134112000D03*
X132334000Y-131572000D03*
X132334000Y-134112000D03*
X134874000Y-131572000D03*
X134874000Y-134112000D03*
X137414000Y-131572000D03*
X137414000Y-134112000D03*
X139954000Y-131572000D03*
X139954000Y-134112000D03*
X142494000Y-131572000D03*
X142494000Y-134112000D03*
X145034000Y-131572000D03*
X145034000Y-134112000D03*
X147574000Y-131572000D03*
X147574000Y-134112000D03*
X150114000Y-131572000D03*
X150114000Y-134112000D03*
X152654000Y-131572000D03*
X152654000Y-134112000D03*
X155194000Y-131572000D03*
X155194000Y-134112000D03*
X157734000Y-131572000D03*
X157734000Y-134112000D03*
X160274000Y-131572000D03*
X160274000Y-134112000D03*
X162814000Y-131572000D03*
X162814000Y-134112000D03*
X165354000Y-131572000D03*
X165354000Y-134112000D03*
X167894000Y-131572000D03*
X167894000Y-134112000D03*
X170434000Y-131572000D03*
X170434000Y-134112000D03*
X172974000Y-131572000D03*
X172974000Y-134112000D03*
X175514000Y-131572000D03*
X175514000Y-134112000D03*
X178054000Y-131572000D03*
X178054000Y-134112000D03*
X180594000Y-131572000D03*
X180594000Y-134112000D03*
X183134000Y-131572000D03*
X183134000Y-134112000D03*
X185674000Y-131572000D03*
X185674000Y-134112000D03*
X188214000Y-131572000D03*
X188214000Y-134112000D03*
X190754000Y-131572000D03*
X190754000Y-134112000D03*
X193294000Y-131572000D03*
X193294000Y-134112000D03*
X195834000Y-131572000D03*
X195834000Y-134112000D03*
X198374000Y-131572000D03*
X198374000Y-134112000D03*
X200914000Y-131572000D03*
X200914000Y-134112000D03*
X203454000Y-131572000D03*
X203454000Y-134112000D03*
X205994000Y-131572000D03*
X205994000Y-134112000D03*
X208534000Y-131572000D03*
X208534000Y-134112000D03*
X211074000Y-131572000D03*
X211074000Y-134112000D03*
X213614000Y-131572000D03*
X213614000Y-134112000D03*
D10*
X12954000Y-131572000D03*
D11*
X12954000Y-134112000D03*
X15494000Y-131572000D03*
X15494000Y-134112000D03*
X18034000Y-131572000D03*
X18034000Y-134112000D03*
X20574000Y-131572000D03*
X20574000Y-134112000D03*
X23114000Y-131572000D03*
X23114000Y-134112000D03*
X25654000Y-131572000D03*
X25654000Y-134112000D03*
X28194000Y-131572000D03*
X28194000Y-134112000D03*
X30734000Y-131572000D03*
X30734000Y-134112000D03*
X33274000Y-131572000D03*
X33274000Y-134112000D03*
X35814000Y-131572000D03*
X35814000Y-134112000D03*
X38354000Y-131572000D03*
X38354000Y-134112000D03*
X40894000Y-131572000D03*
X40894000Y-134112000D03*
X43434000Y-131572000D03*
X43434000Y-134112000D03*
X45974000Y-131572000D03*
X45974000Y-134112000D03*
X48514000Y-131572000D03*
X48514000Y-134112000D03*
X51054000Y-131572000D03*
X51054000Y-134112000D03*
X53594000Y-131572000D03*
X53594000Y-134112000D03*
X56134000Y-131572000D03*
X56134000Y-134112000D03*
X58674000Y-131572000D03*
X58674000Y-134112000D03*
X61214000Y-131572000D03*
X61214000Y-134112000D03*
X63754000Y-131572000D03*
X63754000Y-134112000D03*
X66294000Y-131572000D03*
X66294000Y-134112000D03*
X68834000Y-131572000D03*
X68834000Y-134112000D03*
X71374000Y-131572000D03*
X71374000Y-134112000D03*
X73914000Y-131572000D03*
X73914000Y-134112000D03*
X76454000Y-131572000D03*
X76454000Y-134112000D03*
X78994000Y-131572000D03*
X78994000Y-134112000D03*
X81534000Y-131572000D03*
X81534000Y-134112000D03*
X84074000Y-131572000D03*
X84074000Y-134112000D03*
X86614000Y-131572000D03*
X86614000Y-134112000D03*
X89154000Y-131572000D03*
X89154000Y-134112000D03*
X91694000Y-131572000D03*
X91694000Y-134112000D03*
X94234000Y-131572000D03*
X94234000Y-134112000D03*
X96774000Y-131572000D03*
X96774000Y-134112000D03*
X99314000Y-131572000D03*
X99314000Y-134112000D03*
X101854000Y-131572000D03*
X101854000Y-134112000D03*
X104394000Y-131572000D03*
X104394000Y-134112000D03*
X106934000Y-131572000D03*
X106934000Y-134112000D03*
X109474000Y-131572000D03*
X109474000Y-134112000D03*
X112014000Y-131572000D03*
X112014000Y-134112000D03*
D10*
X114554000Y-136652000D03*
D11*
X114554000Y-139192000D03*
X117094000Y-136652000D03*
X117094000Y-139192000D03*
X119634000Y-136652000D03*
X119634000Y-139192000D03*
X122174000Y-136652000D03*
X122174000Y-139192000D03*
X124714000Y-136652000D03*
X124714000Y-139192000D03*
X127254000Y-136652000D03*
X127254000Y-139192000D03*
X129794000Y-136652000D03*
X129794000Y-139192000D03*
X132334000Y-136652000D03*
X132334000Y-139192000D03*
X134874000Y-136652000D03*
X134874000Y-139192000D03*
X137414000Y-136652000D03*
X137414000Y-139192000D03*
X139954000Y-136652000D03*
X139954000Y-139192000D03*
X142494000Y-136652000D03*
X142494000Y-139192000D03*
X145034000Y-136652000D03*
X145034000Y-139192000D03*
X147574000Y-136652000D03*
X147574000Y-139192000D03*
X150114000Y-136652000D03*
X150114000Y-139192000D03*
X152654000Y-136652000D03*
X152654000Y-139192000D03*
X155194000Y-136652000D03*
X155194000Y-139192000D03*
X157734000Y-136652000D03*
X157734000Y-139192000D03*
X160274000Y-136652000D03*
X160274000Y-139192000D03*
X162814000Y-136652000D03*
X162814000Y-139192000D03*
X165354000Y-136652000D03*
X165354000Y-139192000D03*
X167894000Y-136652000D03*
X167894000Y-139192000D03*
X170434000Y-136652000D03*
X170434000Y-139192000D03*
X172974000Y-136652000D03*
X172974000Y-139192000D03*
X175514000Y-136652000D03*
X175514000Y-139192000D03*
X178054000Y-136652000D03*
X178054000Y-139192000D03*
X180594000Y-136652000D03*
X180594000Y-139192000D03*
X183134000Y-136652000D03*
X183134000Y-139192000D03*
X185674000Y-136652000D03*
X185674000Y-139192000D03*
X188214000Y-136652000D03*
X188214000Y-139192000D03*
X190754000Y-136652000D03*
X190754000Y-139192000D03*
X193294000Y-136652000D03*
X193294000Y-139192000D03*
X195834000Y-136652000D03*
X195834000Y-139192000D03*
X198374000Y-136652000D03*
X198374000Y-139192000D03*
X200914000Y-136652000D03*
X200914000Y-139192000D03*
X203454000Y-136652000D03*
X203454000Y-139192000D03*
X205994000Y-136652000D03*
X205994000Y-139192000D03*
X208534000Y-136652000D03*
X208534000Y-139192000D03*
X211074000Y-136652000D03*
X211074000Y-139192000D03*
X213614000Y-136652000D03*
X213614000Y-139192000D03*
D10*
X12954000Y-136652000D03*
D11*
X12954000Y-139192000D03*
X15494000Y-136652000D03*
X15494000Y-139192000D03*
X18034000Y-136652000D03*
X18034000Y-139192000D03*
X20574000Y-136652000D03*
X20574000Y-139192000D03*
X23114000Y-136652000D03*
X23114000Y-139192000D03*
X25654000Y-136652000D03*
X25654000Y-139192000D03*
X28194000Y-136652000D03*
X28194000Y-139192000D03*
X30734000Y-136652000D03*
X30734000Y-139192000D03*
X33274000Y-136652000D03*
X33274000Y-139192000D03*
X35814000Y-136652000D03*
X35814000Y-139192000D03*
X38354000Y-136652000D03*
X38354000Y-139192000D03*
X40894000Y-136652000D03*
X40894000Y-139192000D03*
X43434000Y-136652000D03*
X43434000Y-139192000D03*
X45974000Y-136652000D03*
X45974000Y-139192000D03*
X48514000Y-136652000D03*
X48514000Y-139192000D03*
X51054000Y-136652000D03*
X51054000Y-139192000D03*
X53594000Y-136652000D03*
X53594000Y-139192000D03*
X56134000Y-136652000D03*
X56134000Y-139192000D03*
X58674000Y-136652000D03*
X58674000Y-139192000D03*
X61214000Y-136652000D03*
X61214000Y-139192000D03*
X63754000Y-136652000D03*
X63754000Y-139192000D03*
X66294000Y-136652000D03*
X66294000Y-139192000D03*
X68834000Y-136652000D03*
X68834000Y-139192000D03*
X71374000Y-136652000D03*
X71374000Y-139192000D03*
X73914000Y-136652000D03*
X73914000Y-139192000D03*
X76454000Y-136652000D03*
X76454000Y-139192000D03*
X78994000Y-136652000D03*
X78994000Y-139192000D03*
X81534000Y-136652000D03*
X81534000Y-139192000D03*
X84074000Y-136652000D03*
X84074000Y-139192000D03*
X86614000Y-136652000D03*
X86614000Y-139192000D03*
X89154000Y-136652000D03*
X89154000Y-139192000D03*
X91694000Y-136652000D03*
X91694000Y-139192000D03*
X94234000Y-136652000D03*
X94234000Y-139192000D03*
X96774000Y-136652000D03*
X96774000Y-139192000D03*
X99314000Y-136652000D03*
X99314000Y-139192000D03*
X101854000Y-136652000D03*
X101854000Y-139192000D03*
X104394000Y-136652000D03*
X104394000Y-139192000D03*
X106934000Y-136652000D03*
X106934000Y-139192000D03*
X109474000Y-136652000D03*
X109474000Y-139192000D03*
X112014000Y-136652000D03*
X112014000Y-139192000D03*
D12*
X24135000Y-22860000D03*
D13*
X24135000Y-25400000D03*
D10*
X225298000Y-37592000D03*
D11*
X225298000Y-35052000D03*
D10*
X13965000Y-65278000D03*
D11*
X16505000Y-65278000D03*
D14*
X45506000Y-44958000D03*
X50506000Y-44958000D03*
D15*
X18308000Y-13391500D03*
D14*
X20808000Y-13391500D03*
X20808000Y-11391500D03*
X18308000Y-11391500D03*
D16*
X13558000Y-8531500D03*
X25558000Y-8531500D03*
D15*
X176271000Y-47498000D03*
D17*
X178811000Y-47498000D03*
X181351000Y-47498000D03*
X183891000Y-47498000D03*
X186431000Y-47498000D03*
X188971000Y-47498000D03*
X191511000Y-47498000D03*
X191511000Y-39878000D03*
X188971000Y-39878000D03*
X186431000Y-39878000D03*
X183891000Y-39878000D03*
X181351000Y-39878000D03*
X178811000Y-39878000D03*
X176271000Y-39878000D03*
D10*
X50546000Y-41656000D03*
D11*
X48006000Y-41656000D03*
X45466000Y-41656000D03*
D10*
X225298000Y-42941000D03*
D11*
X225298000Y-45481000D03*
X225298000Y-48021000D03*
D14*
X39756000Y-22733000D03*
D17*
X39756000Y-32893000D03*
D15*
X71189900Y-22850000D03*
D14*
X73689900Y-22850000D03*
X33406000Y-22733000D03*
D17*
X33406000Y-32893000D03*
D15*
X81793000Y-100828000D03*
D17*
X84333000Y-100828000D03*
X86873000Y-100828000D03*
X89413000Y-100828000D03*
X91953000Y-100828000D03*
X94493000Y-100828000D03*
X97033000Y-100828000D03*
X99573000Y-100828000D03*
X102113000Y-100828000D03*
X104653000Y-100828000D03*
X104653000Y-93208000D03*
X102113000Y-93208000D03*
X99573000Y-93208000D03*
X97033000Y-93208000D03*
X94493000Y-93208000D03*
X91953000Y-93208000D03*
X89413000Y-93208000D03*
X86873000Y-93208000D03*
X84333000Y-93208000D03*
X81793000Y-93208000D03*
D15*
X170947000Y-66030000D03*
D17*
X173487000Y-66030000D03*
X176027000Y-66030000D03*
X178567000Y-66030000D03*
X181107000Y-66030000D03*
X183647000Y-66030000D03*
X186187000Y-66030000D03*
X188727000Y-66030000D03*
X191267000Y-66030000D03*
X193807000Y-66030000D03*
X193807000Y-58410000D03*
X191267000Y-58410000D03*
X188727000Y-58410000D03*
X186187000Y-58410000D03*
X183647000Y-58410000D03*
X181107000Y-58410000D03*
X178567000Y-58410000D03*
X176027000Y-58410000D03*
X173487000Y-58410000D03*
X170947000Y-58410000D03*
D15*
X109474000Y-66040000D03*
D17*
X112014000Y-66040000D03*
X114554000Y-66040000D03*
X117094000Y-66040000D03*
X119634000Y-66040000D03*
X122174000Y-66040000D03*
X124714000Y-66040000D03*
X127254000Y-66040000D03*
X129794000Y-66040000D03*
X132334000Y-66040000D03*
X132334000Y-58420000D03*
X129794000Y-58420000D03*
X127254000Y-58420000D03*
X124714000Y-58420000D03*
X122174000Y-58420000D03*
X119634000Y-58420000D03*
X117094000Y-58420000D03*
X114554000Y-58420000D03*
X112014000Y-58420000D03*
X109474000Y-58420000D03*
D15*
X47757000Y-101082000D03*
D17*
X50297000Y-101082000D03*
X52837000Y-101082000D03*
X55377000Y-101082000D03*
X57917000Y-101082000D03*
X60457000Y-101082000D03*
X62997000Y-101082000D03*
X65537000Y-101082000D03*
X68077000Y-101082000D03*
X70617000Y-101082000D03*
X70617000Y-93462000D03*
X68077000Y-93462000D03*
X65537000Y-93462000D03*
X62997000Y-93462000D03*
X60457000Y-93462000D03*
X57917000Y-93462000D03*
X55377000Y-93462000D03*
X52837000Y-93462000D03*
X50297000Y-93462000D03*
X47757000Y-93462000D03*
D15*
X109474000Y-45720000D03*
D17*
X112014000Y-45720000D03*
X114554000Y-45720000D03*
X117094000Y-45720000D03*
X119634000Y-45720000D03*
X122174000Y-45720000D03*
X124714000Y-45720000D03*
X127254000Y-45720000D03*
X129794000Y-45720000D03*
X132334000Y-45720000D03*
X132334000Y-38100000D03*
X129794000Y-38100000D03*
X127254000Y-38100000D03*
X124714000Y-38100000D03*
X122174000Y-38100000D03*
X119634000Y-38100000D03*
X117094000Y-38100000D03*
X114554000Y-38100000D03*
X112014000Y-38100000D03*
X109474000Y-38100000D03*
D18*
X147606000Y-20580700D03*
D19*
X165306000Y-20580700D03*
D18*
X154686000Y-20580700D03*
X163496000Y-17310700D03*
X161766000Y-20580700D03*
X158226000Y-20580700D03*
X159956000Y-17310700D03*
X156416000Y-17310700D03*
D16*
X135091000Y-8540700D03*
X174281000Y-8540700D03*
D18*
X144066000Y-20580700D03*
X152876000Y-17310700D03*
X145796000Y-17310700D03*
X151146000Y-20580700D03*
X149336000Y-17310700D03*
D20*
X112024000Y-100818000D03*
D21*
X114564000Y-100818000D03*
X117104000Y-100818000D03*
X119644000Y-100818000D03*
X122184000Y-100818000D03*
X124724000Y-100818000D03*
X127264000Y-100818000D03*
X129804000Y-100818000D03*
X132344000Y-100818000D03*
X134884000Y-100818000D03*
X137424000Y-100818000D03*
X139964000Y-100818000D03*
X142504000Y-100818000D03*
X145044000Y-100818000D03*
X145044000Y-85578000D03*
X142504000Y-85578000D03*
X139964000Y-85578000D03*
X137424000Y-85578000D03*
X134884000Y-85578000D03*
X132344000Y-85578000D03*
X129804000Y-85578000D03*
X127264000Y-85578000D03*
X124724000Y-85578000D03*
X122184000Y-85578000D03*
X119644000Y-85578000D03*
X117104000Y-85578000D03*
X114564000Y-85578000D03*
X112024000Y-85578000D03*
D15*
X48648800Y-31994000D03*
D14*
X51148800Y-31994000D03*
D22*
X28961000Y-22733000D03*
D23*
X28961000Y-24633000D03*
D15*
X62865000Y-44323000D03*
D17*
X62865000Y-46863000D03*
X62865000Y-49403000D03*
X62865000Y-51943000D03*
X62865000Y-54483000D03*
X62865000Y-57023000D03*
X62865000Y-59563000D03*
X62865000Y-62103000D03*
X62865000Y-64643000D03*
X62865000Y-67183000D03*
X62865000Y-69723000D03*
X62865000Y-72263000D03*
X62865000Y-74803000D03*
X62865000Y-77343000D03*
X62865000Y-79883000D03*
X62865000Y-82423000D03*
X78105000Y-82423000D03*
X78105000Y-79883000D03*
X78105000Y-77343000D03*
X78105000Y-74803000D03*
X78105000Y-72263000D03*
X78105000Y-69723000D03*
X78105000Y-67183000D03*
X78105000Y-64643000D03*
X78105000Y-62103000D03*
X78105000Y-59563000D03*
X78105000Y-57023000D03*
X78105000Y-54483000D03*
X78105000Y-51943000D03*
X78105000Y-49403000D03*
X78105000Y-46863000D03*
X78105000Y-44323000D03*
D15*
X216140000Y-68580000D03*
D17*
X216140000Y-58420000D03*
D15*
X56203900Y-31994000D03*
D14*
X58703900Y-31994000D03*
D16*
X125399000Y-9566300D03*
X78299000Y-9566300D03*
D15*
X85229000Y-10986300D03*
D14*
X87999000Y-10986300D03*
X90769000Y-10986300D03*
X93539000Y-10986300D03*
X96309000Y-10986300D03*
X99079000Y-10986300D03*
X101849000Y-10986300D03*
X104619000Y-10986300D03*
X107389000Y-10986300D03*
X110159000Y-10986300D03*
X112929000Y-10986300D03*
X115699000Y-10986300D03*
X118469000Y-10986300D03*
X86614000Y-8146300D03*
X89384000Y-8146300D03*
X92154000Y-8146300D03*
X94924000Y-8146300D03*
X97694000Y-8146300D03*
X100464000Y-8146300D03*
X103234000Y-8146300D03*
X106004000Y-8146300D03*
X108774000Y-8146300D03*
X111544000Y-8146300D03*
X114314000Y-8146300D03*
X117084000Y-8146300D03*
X87122000Y-44958000D03*
X92122000Y-44958000D03*
D15*
X23876000Y-44948000D03*
D17*
X26416000Y-44948000D03*
X28956000Y-44948000D03*
X31496000Y-44948000D03*
X34036000Y-44948000D03*
X36576000Y-44948000D03*
X39116000Y-44948000D03*
X39116000Y-37328000D03*
X36576000Y-37328000D03*
X34036000Y-37328000D03*
X31496000Y-37328000D03*
X28956000Y-37328000D03*
X26416000Y-37328000D03*
X23876000Y-37328000D03*
D15*
X198369000Y-47488000D03*
D17*
X200909000Y-47488000D03*
X203449000Y-47488000D03*
X205989000Y-47488000D03*
X208529000Y-47488000D03*
X211069000Y-47488000D03*
X213609000Y-47488000D03*
X213609000Y-39868000D03*
X211069000Y-39868000D03*
X208529000Y-39868000D03*
X205989000Y-39868000D03*
X203449000Y-39868000D03*
X200909000Y-39868000D03*
X198369000Y-39868000D03*
D24*
X213614000Y-30743500D03*
D25*
X213614000Y-33283500D03*
X211074000Y-30743500D03*
X211074000Y-33283500D03*
X208534000Y-30743500D03*
X208534000Y-33283500D03*
X205994000Y-30743500D03*
X205994000Y-33283500D03*
X203454000Y-30743500D03*
X203454000Y-33283500D03*
X200914000Y-30743500D03*
X200914000Y-33283500D03*
X198374000Y-30743500D03*
X198374000Y-33283500D03*
X195834000Y-30743500D03*
X195834000Y-33283500D03*
X193294000Y-30743500D03*
X193294000Y-33283500D03*
X190754000Y-30743500D03*
X190754000Y-33283500D03*
X188214000Y-30743500D03*
X188214000Y-33283500D03*
X185674000Y-30743500D03*
X185674000Y-33283500D03*
X183134000Y-30743500D03*
X183134000Y-33283500D03*
X180594000Y-30743500D03*
X180594000Y-33283500D03*
X178054000Y-30743500D03*
X178054000Y-33283500D03*
X175514000Y-30743500D03*
X175514000Y-33283500D03*
X172974000Y-30743500D03*
X172974000Y-33283500D03*
D15*
X48280000Y-26269000D03*
D17*
X50820000Y-26269000D03*
X53360000Y-26269000D03*
X55900000Y-26269000D03*
X58440000Y-26269000D03*
X60980000Y-26269000D03*
X63520000Y-26269000D03*
X66060000Y-26269000D03*
X66060000Y-18649000D03*
X63520000Y-18649000D03*
X60980000Y-18649000D03*
X58440000Y-18649000D03*
X55900000Y-18649000D03*
X53360000Y-18649000D03*
X50820000Y-18649000D03*
X48280000Y-18649000D03*
D18*
X197898000Y-20542000D03*
D19*
X215598000Y-20542000D03*
D18*
X204978000Y-20542000D03*
X213788000Y-17272000D03*
X212058000Y-20542000D03*
X208518000Y-20542000D03*
X210248000Y-17272000D03*
X206708000Y-17272000D03*
D16*
X185383000Y-8502000D03*
X224573000Y-8502000D03*
D18*
X194358000Y-20542000D03*
X203168000Y-17272000D03*
X196088000Y-17272000D03*
X199628000Y-17272000D03*
X201438000Y-20542000D03*
D14*
X95798000Y-87122000D03*
X100798000Y-87122000D03*
D10*
X13970000Y-53848000D03*
D11*
X16510000Y-53848000D03*
D14*
X203948000Y-68580000D03*
D17*
X203948000Y-58420000D03*
D14*
X29290000Y-101600000D03*
X34290000Y-101600000D03*
X72863000Y-40640000D03*
X67863000Y-40640000D03*
X197852000Y-58420000D03*
D17*
X197852000Y-68580000D03*
D10*
X225298000Y-56139000D03*
D11*
X225298000Y-58679000D03*
X225298000Y-61219000D03*
X225298000Y-63759000D03*
X225298000Y-66299000D03*
D15*
X86365000Y-26152000D03*
D17*
X88905000Y-26152000D03*
X91445000Y-26152000D03*
X93985000Y-26152000D03*
X96525000Y-26152000D03*
X99065000Y-26152000D03*
X101605000Y-26152000D03*
X104145000Y-26152000D03*
X106685000Y-26152000D03*
X109225000Y-26152000D03*
X109225000Y-18532000D03*
X106685000Y-18532000D03*
X104145000Y-18532000D03*
X101605000Y-18532000D03*
X99065000Y-18532000D03*
X96525000Y-18532000D03*
X93985000Y-18532000D03*
X91445000Y-18532000D03*
X88905000Y-18532000D03*
X86365000Y-18532000D03*
D14*
X91948000Y-87122000D03*
D17*
X81788000Y-87122000D03*
D15*
X18223100Y-92456000D03*
D14*
X15723100Y-92456000D03*
D10*
X14986000Y-17526000D03*
D11*
X17526000Y-17526000D03*
D15*
X140213000Y-45710000D03*
D17*
X142753000Y-45710000D03*
X145293000Y-45710000D03*
X147833000Y-45710000D03*
X150373000Y-45710000D03*
X152913000Y-45710000D03*
X155453000Y-45710000D03*
X157993000Y-45710000D03*
X160533000Y-45710000D03*
X163073000Y-45710000D03*
X163073000Y-38090000D03*
X160533000Y-38090000D03*
X157993000Y-38090000D03*
X155453000Y-38090000D03*
X152913000Y-38090000D03*
X150373000Y-38090000D03*
X147833000Y-38090000D03*
X145293000Y-38090000D03*
X142753000Y-38090000D03*
X140213000Y-38090000D03*
D10*
X13965000Y-85598000D03*
D11*
X16505000Y-85598000D03*
D14*
X210044000Y-68580000D03*
D17*
X210044000Y-58420000D03*
D14*
X213176000Y-68580000D03*
D17*
X213176000Y-58420000D03*
D15*
X43820000Y-49403000D03*
D17*
X43820000Y-51943000D03*
X43820000Y-54483000D03*
X43820000Y-57023000D03*
X43820000Y-59563000D03*
X43820000Y-62103000D03*
X43820000Y-64643000D03*
X43820000Y-67183000D03*
X43820000Y-69723000D03*
X43820000Y-72263000D03*
X43820000Y-74803000D03*
X43820000Y-77343000D03*
X43820000Y-79883000D03*
X43820000Y-82423000D03*
X59060000Y-82423000D03*
X59060000Y-79883000D03*
X59060000Y-77343000D03*
X59060000Y-74803000D03*
X59060000Y-72263000D03*
X59060000Y-69723000D03*
X59060000Y-67183000D03*
X59060000Y-64643000D03*
X59060000Y-62103000D03*
X59060000Y-59563000D03*
X59060000Y-57023000D03*
X59060000Y-54483000D03*
X59060000Y-51943000D03*
X59060000Y-49403000D03*
D14*
X42931000Y-22733000D03*
D17*
X42931000Y-32893000D03*
D14*
X207010000Y-68580000D03*
D17*
X207010000Y-58420000D03*
D26*
X35501500Y-11842000D03*
D27*
X35501500Y-5842000D03*
D28*
X30801500Y-8842000D03*
D15*
X81920000Y-49540000D03*
D17*
X81920000Y-52080000D03*
X81920000Y-54620000D03*
X81920000Y-57160000D03*
X81920000Y-59700000D03*
X81920000Y-62240000D03*
X81920000Y-64780000D03*
X81920000Y-67320000D03*
X81920000Y-69860000D03*
X81920000Y-72400000D03*
X81920000Y-74940000D03*
X81920000Y-77480000D03*
X81920000Y-80020000D03*
X81920000Y-82560000D03*
X97160000Y-82560000D03*
X97160000Y-80020000D03*
X97160000Y-77480000D03*
X97160000Y-74940000D03*
X97160000Y-72400000D03*
X97160000Y-69860000D03*
X97160000Y-67320000D03*
X97160000Y-64780000D03*
X97160000Y-62240000D03*
X97160000Y-59700000D03*
X97160000Y-57160000D03*
X97160000Y-54620000D03*
X97160000Y-52080000D03*
X97160000Y-49540000D03*
D15*
X63888800Y-31994000D03*
D14*
X66388800Y-31994000D03*
D15*
X23876000Y-49408000D03*
D17*
X23876000Y-51948000D03*
X23876000Y-54488000D03*
X23876000Y-57028000D03*
X23876000Y-59568000D03*
X23876000Y-62108000D03*
X23876000Y-64648000D03*
X23876000Y-67188000D03*
X23876000Y-69728000D03*
X23876000Y-72268000D03*
X23876000Y-74808000D03*
X23876000Y-77348000D03*
X23876000Y-79888000D03*
X23876000Y-82428000D03*
X23876000Y-84968000D03*
X23876000Y-87508000D03*
X23876000Y-90048000D03*
X23876000Y-92588000D03*
X23876000Y-95128000D03*
X23876000Y-97668000D03*
X39116000Y-97668000D03*
X39116000Y-95128000D03*
X39116000Y-92588000D03*
X39116000Y-90048000D03*
X39116000Y-87508000D03*
X39116000Y-84968000D03*
X39116000Y-82428000D03*
X39116000Y-79888000D03*
X39116000Y-77348000D03*
X39116000Y-74808000D03*
X39116000Y-72268000D03*
X39116000Y-69728000D03*
X39116000Y-67188000D03*
X39116000Y-64648000D03*
X39116000Y-62108000D03*
X39116000Y-59568000D03*
X39116000Y-57028000D03*
X39116000Y-54488000D03*
X39116000Y-51948000D03*
X39116000Y-49408000D03*
D14*
X172466000Y-41188000D03*
X172466000Y-46188000D03*
D10*
X13960000Y-81788000D03*
D11*
X16500000Y-81788000D03*
D14*
X200900000Y-68580000D03*
D17*
X200900000Y-58420000D03*
D14*
X14518000Y-99060000D03*
X19518000Y-99060000D03*
D15*
X145303000Y-66030000D03*
D17*
X147843000Y-66030000D03*
X150383000Y-66030000D03*
X152923000Y-66030000D03*
X155463000Y-66030000D03*
X158003000Y-66030000D03*
X160543000Y-66030000D03*
X163083000Y-66030000D03*
X163083000Y-58410000D03*
X160543000Y-58410000D03*
X158003000Y-58410000D03*
X155463000Y-58410000D03*
X152923000Y-58410000D03*
X150383000Y-58410000D03*
X147843000Y-58410000D03*
X145303000Y-58410000D03*
D14*
X36581000Y-22733000D03*
D17*
X36581000Y-32893000D03*
D15*
X71189900Y-31994000D03*
D14*
X73689900Y-31994000D03*
D10*
X193802000Y-70358000D03*
D11*
X191262000Y-70358000D03*
D10*
X34036000Y-17526000D03*
D11*
X36576000Y-17526000D03*
D14*
X149098000Y-90464000D03*
X149098000Y-95464000D03*
D10*
X58928000Y-44323000D03*
D11*
X58928000Y-41783000D03*
D10*
X168148000Y-70358000D03*
D11*
X165608000Y-70358000D03*
X163068000Y-70358000D03*
D10*
X13970000Y-59436000D03*
D11*
X16510000Y-59436000D03*
D16*
X69698000Y-8336000D03*
X44698000Y-8336000D03*
D15*
X62738000Y-8636000D03*
D14*
X59968000Y-8636000D03*
X57198000Y-8636000D03*
X54428000Y-8636000D03*
X51658000Y-8636000D03*
X61353000Y-5796000D03*
X58583000Y-5796000D03*
X55813000Y-5796000D03*
X53043000Y-5796000D03*
D29*
X166878000Y-86614000D03*
X169154100Y-23141600D03*
X144328400Y-54215900D03*
X161340700Y-75027600D03*
X172185800Y-54252500D03*
X151083300Y-74622800D03*
X168921800Y-39970900D03*
X176547300Y-54361900D03*
X180437600Y-64653100D03*
X157278300Y-35681600D03*
X124740700Y-50999500D03*
X146485800Y-62853300D03*
X101022600Y-67719100D03*
X125093900Y-55312700D03*
X131395000Y-62345800D03*
X113002700Y-62555400D03*
X138878000Y-77275600D03*
X125796200Y-84002900D03*
X176466100Y-61784800D03*
X94286500Y-37054500D03*
X117305300Y-51867900D03*
X122863000Y-49136100D03*
X136186200Y-41884400D03*
X136154900Y-67547300D03*
X105980300Y-99242900D03*
X87542000Y-31735700D03*
X98733700Y-45068700D03*
X126732500Y-55305000D03*
X176996700Y-73589100D03*
X100496900Y-43464200D03*
X135341800Y-45627000D03*
X105290700Y-42384100D03*
X134171400Y-49071400D03*
X143710100Y-99632000D03*
X154193400Y-93779200D03*
X195024600Y-39670900D03*
X113889700Y-35283700D03*
X62035700Y-89599500D03*
X178072500Y-62504800D03*
X118242700Y-17155200D03*
X115779400Y-31304400D03*
X83339000Y-63415200D03*
X89733400Y-98357500D03*
X195048800Y-34618900D03*
X114026300Y-34025700D03*
X140174100Y-98454800D03*
X141196400Y-34830400D03*
X102626700Y-73670000D03*
X60423200Y-85592400D03*
X145806500Y-73586200D03*
X145049100Y-70673800D03*
X198336300Y-61675900D03*
X64462800Y-79769300D03*
X83150900Y-83335500D03*
X92380100Y-40907100D03*
X92053700Y-75820000D03*
X57165300Y-87460500D03*
X146509700Y-87403200D03*
X109809100Y-93859500D03*
X103222200Y-80719400D03*
X12753700Y-63784300D03*
X37727700Y-99339200D03*
X54375300Y-59563000D03*
X65288100Y-86275700D03*
X95169900Y-71087800D03*
X101047000Y-70275700D03*
X40839300Y-84403100D03*
X80574500Y-61219800D03*
X107566500Y-96113200D03*
X138817500Y-72167700D03*
X151380300Y-69310500D03*
X76229900Y-70914900D03*
X29101700Y-76169300D03*
X37322700Y-76169300D03*
X40241800Y-71092800D03*
X63829600Y-76310600D03*
X36795000Y-70254900D03*
X37652200Y-69253300D03*
X42768700Y-76083300D03*
X33591500Y-68293600D03*
X35263900Y-81247800D03*
X72755500Y-83057300D03*
X54583400Y-57350300D03*
X34528500Y-47453700D03*
X90703400Y-81783100D03*
X71168600Y-82137100D03*
X83941000Y-43967500D03*
X25992300Y-88301300D03*
D30*
X185166000Y-67818000D02*
X166878000Y-86106000D01*
X191255884Y-67818000D02*
X185166000Y-67818000D01*
X192442100Y-66631784D02*
X191255884Y-67818000D01*
X166878000Y-86106000D02*
X166878000Y-86614000D01*
X193807000Y-62314900D02*
X192442100Y-63679800D01*
X193807000Y-58410000D02*
X193807000Y-62314900D01*
X192442100Y-63679800D02*
X192442100Y-66631784D01*
X225298000Y-66299000D02*
X225298000Y-65700700D01*
X225298000Y-65700700D02*
X225298000Y-65073900D01*
X224595800Y-65700700D02*
X217315100Y-58420000D01*
X225298000Y-65700700D02*
X224595800Y-65700700D01*
X216140000Y-58420000D02*
X217315100Y-58420000D01*
X219842800Y-28326800D02*
X212058000Y-20542000D01*
X219842800Y-45632800D02*
X219842800Y-28326800D01*
X227155600Y-52945600D02*
X219842800Y-45632800D01*
X227155600Y-63675700D02*
X227155600Y-52945600D01*
X225757400Y-65073900D02*
X227155600Y-63675700D01*
X225298000Y-65073900D02*
X225757400Y-65073900D01*
X144345100Y-20580700D02*
X144066000Y-20580700D01*
X148843800Y-16082000D02*
X144345100Y-20580700D01*
X153454400Y-16082000D02*
X148843800Y-16082000D01*
X155915500Y-18543100D02*
X153454400Y-16082000D01*
X156976000Y-18543100D02*
X155915500Y-18543100D01*
X159421800Y-16097300D02*
X156976000Y-18543100D01*
X160566800Y-16097300D02*
X159421800Y-16097300D01*
X163618600Y-19149100D02*
X160566800Y-16097300D01*
X192965100Y-19149100D02*
X163618600Y-19149100D01*
X194358000Y-20542000D02*
X192965100Y-19149100D01*
X195298400Y-23141600D02*
X169154100Y-23141600D01*
X197898000Y-20542000D02*
X195298400Y-23141600D01*
X165314600Y-15492100D02*
X163496000Y-17310700D01*
X212008100Y-15492100D02*
X165314600Y-15492100D01*
X213788000Y-17272000D02*
X212008100Y-15492100D01*
X141539100Y-57005200D02*
X144328400Y-54215900D01*
X141539100Y-82427800D02*
X141539100Y-57005200D01*
X139964000Y-84002900D02*
X141539100Y-82427800D01*
X139964000Y-85578000D02*
X139964000Y-84002900D01*
X164338000Y-72030300D02*
X161340700Y-75027600D01*
X164338000Y-65322800D02*
X164338000Y-72030300D01*
X168366300Y-61294500D02*
X164338000Y-65322800D01*
X168366300Y-58072000D02*
X168366300Y-61294500D01*
X172185800Y-54252500D02*
X168366300Y-58072000D01*
X167150300Y-39970900D02*
X168921800Y-39970900D01*
X161803000Y-45318200D02*
X167150300Y-39970900D01*
X161803000Y-61081200D02*
X161803000Y-45318200D01*
X159273000Y-63611200D02*
X161803000Y-61081200D01*
X159273000Y-66763900D02*
X159273000Y-63611200D01*
X151414100Y-74622800D02*
X159273000Y-66763900D01*
X151083300Y-74622800D02*
X151414100Y-74622800D01*
X173674300Y-57234900D02*
X176547300Y-54361900D01*
X173487000Y-57234900D02*
X173674300Y-57234900D01*
X173487000Y-58410000D02*
X173487000Y-57234900D01*
X191267000Y-66030000D02*
X191267000Y-64854900D01*
X203449000Y-47488000D02*
X202273900Y-47488000D01*
X191267000Y-64076900D02*
X191267000Y-64854900D01*
X192442100Y-62901800D02*
X191267000Y-64076900D01*
X192442100Y-58091100D02*
X192442100Y-62901800D01*
X202273900Y-48259300D02*
X192442100Y-58091100D01*
X202273900Y-47488000D02*
X202273900Y-48259300D01*
X195438800Y-47488000D02*
X198369000Y-47488000D01*
X184917000Y-58009800D02*
X195438800Y-47488000D01*
X184917000Y-59714700D02*
X184917000Y-58009800D01*
X180437600Y-64194100D02*
X184917000Y-59714700D01*
X180437600Y-64653100D02*
X180437600Y-64194100D01*
X54980700Y-51943000D02*
X59060000Y-51943000D01*
X48006000Y-44968300D02*
X54980700Y-51943000D01*
X48006000Y-41656000D02*
X48006000Y-44968300D01*
X160543000Y-58410000D02*
X160543000Y-57234900D01*
X159357800Y-37761100D02*
X157278300Y-35681600D01*
X159357800Y-56049700D02*
X159357800Y-37761100D01*
X160543000Y-57234900D02*
X159357800Y-56049700D01*
X146657900Y-37724800D02*
X146657900Y-38090000D01*
X142972700Y-34039600D02*
X146657900Y-37724800D01*
X139801900Y-34039600D02*
X142972700Y-34039600D01*
X128577100Y-45264400D02*
X139801900Y-34039600D01*
X128577100Y-47163100D02*
X128577100Y-45264400D01*
X124740700Y-50999500D02*
X128577100Y-47163100D01*
X147833000Y-38090000D02*
X146657900Y-38090000D01*
X80695900Y-84854800D02*
X81788000Y-85946900D01*
X80695900Y-82052000D02*
X80695900Y-84854800D01*
X81552800Y-81195100D02*
X80695900Y-82052000D01*
X81920000Y-81195100D02*
X81552800Y-81195100D01*
X81920000Y-80020000D02*
X81920000Y-81195100D01*
X81788000Y-87122000D02*
X81788000Y-85946900D01*
X39116000Y-87508000D02*
X39116000Y-86332900D01*
X33406000Y-32893000D02*
X34581100Y-32893000D01*
X38817900Y-86332900D02*
X39116000Y-86332900D01*
X36589100Y-84104100D02*
X38817900Y-86332900D01*
X36589100Y-78185400D02*
X36589100Y-84104100D01*
X35439400Y-77035700D02*
X36589100Y-78185400D01*
X35439400Y-50574500D02*
X35439400Y-77035700D01*
X44106200Y-41907700D02*
X35439400Y-50574500D01*
X44106200Y-32402200D02*
X44106200Y-41907700D01*
X42785200Y-31081200D02*
X44106200Y-32402200D01*
X36392900Y-31081200D02*
X42785200Y-31081200D01*
X34581100Y-32893000D02*
X36392900Y-31081200D01*
X86365000Y-26152000D02*
X86365000Y-27327100D01*
X147843000Y-58410000D02*
X147843000Y-59585100D01*
X147843000Y-61496100D02*
X147843000Y-59585100D01*
X146485800Y-62853300D02*
X147843000Y-61496100D01*
X100244600Y-68497100D02*
X101022600Y-67719100D01*
X94449500Y-68497100D02*
X100244600Y-68497100D01*
X94394800Y-74714800D02*
X97160000Y-77480000D01*
X94394800Y-68551800D02*
X94394800Y-74714800D01*
X94449500Y-68497100D02*
X94394800Y-68551800D01*
X97525200Y-78655100D02*
X97160000Y-78655100D01*
X99111600Y-80241500D02*
X97525200Y-78655100D01*
X99111600Y-89031500D02*
X99111600Y-80241500D01*
X102113000Y-92032900D02*
X99111600Y-89031500D01*
X102113000Y-93208000D02*
X102113000Y-92032900D01*
X97160000Y-77480000D02*
X97160000Y-78655100D01*
X93693100Y-67740700D02*
X94449500Y-68497100D01*
X93693100Y-46926100D02*
X93693100Y-67740700D01*
X93899400Y-46719800D02*
X93693100Y-46926100D01*
X93899400Y-41330100D02*
X93899400Y-46719800D01*
X86365000Y-33795700D02*
X93899400Y-41330100D01*
X86365000Y-27327100D02*
X86365000Y-33795700D01*
X193802000Y-70358000D02*
X193802000Y-69132900D01*
X197561200Y-65373700D02*
X193802000Y-69132900D01*
X197561200Y-58710800D02*
X197561200Y-65373700D01*
X197852000Y-58420000D02*
X197561200Y-58710800D01*
X112024000Y-85578000D02*
X112024000Y-84002900D01*
X123444000Y-56962600D02*
X125093900Y-55312700D01*
X123444000Y-59968000D02*
X123444000Y-56962600D01*
X120904000Y-62508000D02*
X123444000Y-59968000D01*
X120904000Y-75122900D02*
X120904000Y-62508000D01*
X112024000Y-84002900D02*
X120904000Y-75122900D01*
X130984600Y-62756200D02*
X131395000Y-62345800D01*
X130984600Y-67112800D02*
X130984600Y-62756200D01*
X127128500Y-70968900D02*
X130984600Y-67112800D01*
X127128500Y-81245000D02*
X127128500Y-70968900D01*
X128458200Y-82574700D02*
X127128500Y-81245000D01*
X128458200Y-98048700D02*
X128458200Y-82574700D01*
X127264000Y-99242900D02*
X128458200Y-98048700D01*
X127264000Y-100818000D02*
X127264000Y-99242900D01*
X108810500Y-62555400D02*
X113002700Y-62555400D01*
X98335100Y-52080000D02*
X108810500Y-62555400D01*
X97160000Y-52080000D02*
X98335100Y-52080000D01*
X97160000Y-52080000D02*
X97160000Y-50904900D01*
X101605000Y-43466500D02*
X101605000Y-26152000D01*
X99227700Y-45843800D02*
X101605000Y-43466500D01*
X98828500Y-45843800D02*
X99227700Y-45843800D01*
X95951800Y-48720500D02*
X98828500Y-45843800D01*
X95951800Y-50047900D02*
X95951800Y-48720500D01*
X96808800Y-50904900D02*
X95951800Y-50047900D01*
X97160000Y-50904900D02*
X96808800Y-50904900D01*
X141483000Y-40724900D02*
X145293000Y-44534900D01*
X141483000Y-37694600D02*
X141483000Y-40724900D01*
X140697000Y-36908600D02*
X141483000Y-37694600D01*
X139664900Y-36908600D02*
X140697000Y-36908600D01*
X138033400Y-38540100D02*
X139664900Y-36908600D01*
X138033400Y-56301300D02*
X138033400Y-38540100D01*
X139614800Y-57882700D02*
X138033400Y-56301300D01*
X139614800Y-76538800D02*
X139614800Y-57882700D01*
X138878000Y-77275600D02*
X139614800Y-76538800D01*
X145293000Y-45710000D02*
X145293000Y-44534900D01*
X119644000Y-85578000D02*
X119644000Y-87153100D01*
X111522200Y-87153100D02*
X119644000Y-87153100D01*
X110846500Y-86477400D02*
X111522200Y-87153100D01*
X110846500Y-82663500D02*
X110846500Y-86477400D01*
X119634000Y-73876000D02*
X110846500Y-82663500D01*
X119634000Y-66040000D02*
X119634000Y-73876000D01*
X129794000Y-66040000D02*
X129794000Y-67215100D01*
X125796200Y-71212900D02*
X125796200Y-84002900D01*
X129794000Y-67215100D02*
X125796200Y-71212900D01*
X124714000Y-83992900D02*
X124724000Y-84002900D01*
X124714000Y-66040000D02*
X124714000Y-83992900D01*
X124724000Y-85578000D02*
X124724000Y-84002900D01*
X178567000Y-66030000D02*
X178567000Y-64854900D01*
X124724000Y-87873000D02*
X124724000Y-100818000D01*
X123520400Y-86669400D02*
X124724000Y-87873000D01*
X123520400Y-65527100D02*
X123520400Y-86669400D01*
X124225300Y-64822200D02*
X123520400Y-65527100D01*
X125205900Y-64822200D02*
X124225300Y-64822200D01*
X126078800Y-65695100D02*
X125205900Y-64822200D01*
X126078800Y-66597900D02*
X126078800Y-65695100D01*
X126707400Y-67226500D02*
X126078800Y-66597900D01*
X127786100Y-67226500D02*
X126707400Y-67226500D01*
X128618900Y-66393700D02*
X127786100Y-67226500D01*
X128618900Y-60770200D02*
X128618900Y-66393700D01*
X129794000Y-59595100D02*
X128618900Y-60770200D01*
X176466100Y-62754000D02*
X176466100Y-61784800D01*
X178567000Y-64854900D02*
X176466100Y-62754000D01*
X129794000Y-58703000D02*
X129794000Y-59595100D01*
X129794000Y-58703000D02*
X129794000Y-58420000D01*
X129794000Y-58420000D02*
X129794000Y-57244900D01*
X119634000Y-38100000D02*
X119634000Y-39275100D01*
X97160000Y-54620000D02*
X97160000Y-53444900D01*
X95648800Y-38416800D02*
X94286500Y-37054500D01*
X95648800Y-48169900D02*
X95648800Y-38416800D01*
X95401700Y-48417000D02*
X95648800Y-48169900D01*
X95401700Y-51985700D02*
X95401700Y-48417000D01*
X96860900Y-53444900D02*
X95401700Y-51985700D01*
X97160000Y-53444900D02*
X96860900Y-53444900D01*
X93985000Y-36753000D02*
X94286500Y-37054500D01*
X93985000Y-26152000D02*
X93985000Y-36753000D01*
X129794000Y-57163100D02*
X129794000Y-57244900D01*
X120998900Y-48368000D02*
X129794000Y-57163100D01*
X120998900Y-40639900D02*
X120998900Y-48368000D01*
X120998800Y-40639900D02*
X120998900Y-40639900D01*
X119634000Y-39275100D02*
X120998800Y-40639900D01*
X104145000Y-26152000D02*
X104145000Y-27327100D01*
X97160000Y-49540000D02*
X97160000Y-48364900D01*
X119634000Y-54196600D02*
X119634000Y-58420000D01*
X117305300Y-51867900D02*
X119634000Y-54196600D01*
X119634000Y-58420000D02*
X119634000Y-59595100D01*
X129804000Y-100818000D02*
X129804000Y-102393100D01*
X104145000Y-41780200D02*
X104145000Y-27327100D01*
X97560300Y-48364900D02*
X104145000Y-41780200D01*
X97160000Y-48364900D02*
X97560300Y-48364900D01*
X124233100Y-102393100D02*
X129804000Y-102393100D01*
X123454000Y-101614000D02*
X124233100Y-102393100D01*
X123454000Y-99899600D02*
X123454000Y-101614000D01*
X110295800Y-86741400D02*
X123454000Y-99899600D01*
X110295800Y-82275700D02*
X110295800Y-86741400D01*
X118458900Y-74112600D02*
X110295800Y-82275700D01*
X118458900Y-60770200D02*
X118458900Y-74112600D01*
X119634000Y-59595100D02*
X118458900Y-60770200D01*
X126032900Y-43036200D02*
X129794000Y-39275100D01*
X126032900Y-46079000D02*
X126032900Y-43036200D01*
X122975800Y-49136100D02*
X126032900Y-46079000D01*
X122863000Y-49136100D02*
X122975800Y-49136100D01*
X129794000Y-38100000D02*
X129794000Y-39275100D01*
X132344000Y-85578000D02*
X132344000Y-84002900D01*
X132344000Y-83224900D02*
X132344000Y-84002900D01*
X136094600Y-79474300D02*
X132344000Y-83224900D01*
X136094600Y-68583000D02*
X136094600Y-79474300D01*
X135379800Y-67868200D02*
X136094600Y-68583000D01*
X135379800Y-46761100D02*
X135379800Y-67868200D01*
X134566700Y-45948000D02*
X135379800Y-46761100D01*
X134566700Y-43503900D02*
X134566700Y-45948000D01*
X136186200Y-41884400D02*
X134566700Y-43503900D01*
X136644800Y-68037200D02*
X136154900Y-67547300D01*
X136644800Y-80091000D02*
X136644800Y-68037200D01*
X134884000Y-81851800D02*
X136644800Y-80091000D01*
X134884000Y-85578000D02*
X134884000Y-81851800D01*
X100894300Y-80493200D02*
X119644000Y-99242900D01*
X100894300Y-76942200D02*
X100894300Y-80493200D01*
X97527200Y-73575100D02*
X100894300Y-76942200D01*
X97160000Y-73575100D02*
X97527200Y-73575100D01*
X97160000Y-72400000D02*
X97160000Y-73575100D01*
X119644000Y-100818000D02*
X119644000Y-99242900D01*
X97160000Y-74940000D02*
X97160000Y-76115100D01*
X117104000Y-100818000D02*
X117104000Y-99242900D01*
X100344100Y-82483000D02*
X117104000Y-99242900D01*
X100344100Y-78932000D02*
X100344100Y-82483000D01*
X97527200Y-76115100D02*
X100344100Y-78932000D01*
X97160000Y-76115100D02*
X97527200Y-76115100D01*
X94493000Y-93208000D02*
X95668100Y-93208000D01*
X101887100Y-95149700D02*
X105980300Y-99242900D01*
X97244500Y-95149700D02*
X101887100Y-95149700D01*
X95668100Y-93573300D02*
X97244500Y-95149700D01*
X95668100Y-93208000D02*
X95668100Y-93573300D01*
X87542000Y-34194600D02*
X87542000Y-31735700D01*
X94449600Y-41102200D02*
X87542000Y-34194600D01*
X94449600Y-47336500D02*
X94449600Y-41102200D01*
X94292000Y-47494100D02*
X94449600Y-47336500D01*
X94292000Y-63644200D02*
X94292000Y-47494100D01*
X96792700Y-66144900D02*
X94292000Y-63644200D01*
X97160000Y-66144900D02*
X96792700Y-66144900D01*
X97160000Y-67320000D02*
X97160000Y-66144900D01*
X63154700Y-25093900D02*
X63520000Y-25093900D01*
X57198000Y-19137200D02*
X63154700Y-25093900D01*
X57198000Y-8636000D02*
X57198000Y-19137200D01*
X63520000Y-26269000D02*
X63520000Y-25093900D01*
X64790000Y-23823900D02*
X66060000Y-25093900D01*
X64790000Y-13458000D02*
X64790000Y-23823900D01*
X59968000Y-8636000D02*
X64790000Y-13458000D01*
X66060000Y-26269000D02*
X66060000Y-25093900D01*
X99573000Y-93208000D02*
X99573000Y-92032900D01*
X98360900Y-90820800D02*
X99573000Y-92032900D01*
X98360900Y-82075500D02*
X98360900Y-90820800D01*
X97575400Y-81290000D02*
X98360900Y-82075500D01*
X96365900Y-81290000D02*
X97575400Y-81290000D01*
X91278600Y-76202700D02*
X96365900Y-81290000D01*
X91278600Y-69918400D02*
X91278600Y-76202700D01*
X82330200Y-60970000D02*
X91278600Y-69918400D01*
X81519300Y-60970000D02*
X82330200Y-60970000D01*
X79836100Y-59286800D02*
X81519300Y-60970000D01*
X79836100Y-51922600D02*
X79836100Y-59286800D01*
X78586500Y-50673000D02*
X79836100Y-51922600D01*
X77694600Y-50673000D02*
X78586500Y-50673000D01*
X71644100Y-44622500D02*
X77694600Y-50673000D01*
X71644100Y-40058900D02*
X71644100Y-44622500D01*
X72365100Y-39337900D02*
X71644100Y-40058900D01*
X72365100Y-28041300D02*
X72365100Y-39337900D01*
X85229000Y-15177400D02*
X72365100Y-28041300D01*
X85229000Y-10986300D02*
X85229000Y-15177400D01*
X61689900Y-45859800D02*
X60153100Y-44323000D01*
X61689900Y-46863000D02*
X61689900Y-45859800D01*
X58928000Y-44323000D02*
X60153100Y-44323000D01*
X62865000Y-46863000D02*
X61689900Y-46863000D01*
X36576000Y-15041600D02*
X36576000Y-17526000D01*
X35501500Y-13967100D02*
X36576000Y-15041600D01*
X35501500Y-11842000D02*
X35501500Y-13967100D01*
X101849000Y-14572900D02*
X101849000Y-10986300D01*
X99065000Y-17356900D02*
X101849000Y-14572900D01*
X99065000Y-18532000D02*
X99065000Y-17356900D01*
X103234000Y-13905900D02*
X106685000Y-17356900D01*
X103234000Y-10707500D02*
X103234000Y-13905900D01*
X102335800Y-9809300D02*
X103234000Y-10707500D01*
X100256000Y-9809300D02*
X102335800Y-9809300D01*
X99079000Y-10986300D02*
X100256000Y-9809300D01*
X106685000Y-18532000D02*
X106685000Y-17356900D01*
X106685000Y-20521900D02*
X106685000Y-26152000D01*
X108049800Y-19157100D02*
X106685000Y-20521900D01*
X108049800Y-17907200D02*
X108049800Y-19157100D01*
X108592900Y-17364100D02*
X108049800Y-17907200D01*
X108592900Y-10390200D02*
X108592900Y-17364100D01*
X107462400Y-9259700D02*
X108592900Y-10390200D01*
X107462400Y-7885000D02*
X107462400Y-9259700D01*
X106512500Y-6935100D02*
X107462400Y-7885000D01*
X99968600Y-6935100D02*
X106512500Y-6935100D01*
X99079000Y-7824700D02*
X99968600Y-6935100D01*
X99079000Y-8445300D02*
X99079000Y-7824700D01*
X96538000Y-10986300D02*
X99079000Y-8445300D01*
X96309000Y-10986300D02*
X96538000Y-10986300D01*
X99065000Y-26152000D02*
X99065000Y-24976900D01*
X97889900Y-15337200D02*
X93539000Y-10986300D01*
X97889900Y-23801800D02*
X97889900Y-15337200D01*
X99065000Y-24976900D02*
X97889900Y-23801800D01*
X95160200Y-23612100D02*
X96525000Y-24976900D01*
X95160200Y-15377500D02*
X95160200Y-23612100D01*
X90769000Y-10986300D02*
X95160200Y-15377500D01*
X96525000Y-26152000D02*
X96525000Y-24976900D01*
X88905000Y-26152000D02*
X88905000Y-24976900D01*
X87726000Y-11259300D02*
X87999000Y-10986300D01*
X87726000Y-23797900D02*
X87726000Y-11259300D01*
X88905000Y-24976900D02*
X87726000Y-23797900D01*
X114554000Y-38100000D02*
X114554000Y-45720000D01*
X114554000Y-45720000D02*
X114554000Y-58420000D01*
X176027000Y-58410000D02*
X176027000Y-59585100D01*
X139964000Y-100818000D02*
X139964000Y-99242900D01*
X98733700Y-40329300D02*
X98733700Y-45068700D01*
X95255000Y-36850600D02*
X98733700Y-40329300D01*
X95255000Y-25725100D02*
X95255000Y-36850600D01*
X91445000Y-21915100D02*
X95255000Y-25725100D01*
X91445000Y-18532000D02*
X91445000Y-21915100D01*
X174851900Y-60760200D02*
X176027000Y-59585100D01*
X174851900Y-67222500D02*
X174851900Y-60760200D01*
X149372600Y-92701800D02*
X174851900Y-67222500D01*
X149050000Y-92701800D02*
X149372600Y-92701800D01*
X142508900Y-99242900D02*
X149050000Y-92701800D01*
X139964000Y-99242900D02*
X142508900Y-99242900D01*
X178567000Y-58410000D02*
X178567000Y-59585100D01*
X137424000Y-100818000D02*
X137424000Y-102393100D01*
X179662500Y-60680600D02*
X178567000Y-59585100D01*
X179662500Y-64974100D02*
X179662500Y-60680600D01*
X179768200Y-65079800D02*
X179662500Y-64974100D01*
X179768200Y-66953500D02*
X179768200Y-65079800D01*
X152647700Y-94074000D02*
X179768200Y-66953500D01*
X152647700Y-95336300D02*
X152647700Y-94074000D01*
X145590900Y-102393100D02*
X152647700Y-95336300D01*
X137424000Y-102393100D02*
X145590900Y-102393100D01*
X119634000Y-45720000D02*
X119634000Y-46895100D01*
X92809900Y-18166800D02*
X92809900Y-18532000D01*
X91974500Y-17331400D02*
X92809900Y-18166800D01*
X90926900Y-17331400D02*
X91974500Y-17331400D01*
X90175000Y-18083300D02*
X90926900Y-17331400D01*
X90175000Y-26614000D02*
X90175000Y-18083300D01*
X89416200Y-27372800D02*
X90175000Y-26614000D01*
X88422800Y-27372800D02*
X89416200Y-27372800D01*
X87540200Y-26490200D02*
X88422800Y-27372800D01*
X87540200Y-25167500D02*
X87540200Y-26490200D01*
X87349500Y-24976800D02*
X87540200Y-25167500D01*
X85405900Y-24976800D02*
X87349500Y-24976800D01*
X83095100Y-27287600D02*
X85405900Y-24976800D01*
X83095100Y-52637100D02*
X83095100Y-27287600D01*
X82287300Y-53444900D02*
X83095100Y-52637100D01*
X81920000Y-53444900D02*
X82287300Y-53444900D01*
X81920000Y-54620000D02*
X81920000Y-53444900D01*
X93985000Y-18532000D02*
X92809900Y-18532000D01*
X126732500Y-54879600D02*
X126732500Y-55305000D01*
X119634100Y-47781200D02*
X126732500Y-54879600D01*
X119634100Y-46895100D02*
X119634100Y-47781200D01*
X119634000Y-46895100D02*
X119634100Y-46895100D01*
X98208100Y-101193300D02*
X98208100Y-100828000D01*
X100568100Y-103553300D02*
X98208100Y-101193300D01*
X148156900Y-103553300D02*
X100568100Y-103553300D01*
X184917000Y-66793200D02*
X148156900Y-103553300D01*
X184917000Y-65567900D02*
X184917000Y-66793200D01*
X190899800Y-59585100D02*
X184917000Y-65567900D01*
X191267000Y-59585100D02*
X190899800Y-59585100D01*
X191267000Y-58410000D02*
X191267000Y-59585100D01*
X97033000Y-100828000D02*
X98208100Y-100828000D01*
X183380700Y-67205100D02*
X183647000Y-67205100D01*
X176996700Y-73589100D02*
X183380700Y-67205100D01*
X183647000Y-66030000D02*
X183647000Y-67205100D01*
X186187000Y-58410000D02*
X186187000Y-59585100D01*
X134884000Y-101605500D02*
X134884000Y-102393100D01*
X134884000Y-101605500D02*
X134884000Y-100818000D01*
X182320200Y-63451900D02*
X186187000Y-59585100D01*
X182320200Y-66773500D02*
X182320200Y-63451900D01*
X146139800Y-102953900D02*
X182320200Y-66773500D01*
X135444800Y-102953900D02*
X146139800Y-102953900D01*
X134884000Y-102393100D02*
X135444800Y-102953900D01*
X101605000Y-18532000D02*
X101605000Y-19707100D01*
X100403400Y-43370700D02*
X100496900Y-43464200D01*
X100403400Y-20908700D02*
X100403400Y-43370700D01*
X101605000Y-19707100D02*
X100403400Y-20908700D01*
X134884000Y-100818000D02*
X134884000Y-99242900D01*
X136803600Y-47088800D02*
X135341800Y-45627000D01*
X136803600Y-61645400D02*
X136803600Y-47088800D01*
X137247400Y-62089200D02*
X136803600Y-61645400D01*
X137247400Y-82779800D02*
X137247400Y-62089200D01*
X136154000Y-83873200D02*
X137247400Y-82779800D01*
X136154000Y-97972900D02*
X136154000Y-83873200D01*
X134884000Y-99242900D02*
X136154000Y-97972900D01*
X105354800Y-20916900D02*
X104145000Y-19707100D01*
X105354800Y-42320000D02*
X105354800Y-20916900D01*
X105290700Y-42384100D02*
X105354800Y-42320000D01*
X104145000Y-18532000D02*
X104145000Y-19707100D01*
X132344000Y-100818000D02*
X132344000Y-99242900D01*
X129794000Y-45720000D02*
X130969100Y-45720000D01*
X134016600Y-48916600D02*
X134171400Y-49071400D01*
X134016600Y-45727200D02*
X134016600Y-48916600D01*
X132828200Y-44538800D02*
X134016600Y-45727200D01*
X131785000Y-44538800D02*
X132828200Y-44538800D01*
X130969100Y-45354700D02*
X131785000Y-44538800D01*
X130969100Y-45720000D02*
X130969100Y-45354700D01*
X131153400Y-98052300D02*
X132344000Y-99242900D01*
X131153400Y-82827100D02*
X131153400Y-98052300D01*
X135534400Y-78446100D02*
X131153400Y-82827100D01*
X135534400Y-68800900D02*
X135534400Y-78446100D01*
X134829700Y-68096200D02*
X135534400Y-68800900D01*
X134829700Y-49729700D02*
X134829700Y-68096200D01*
X134171400Y-49071400D02*
X134829700Y-49729700D01*
X97160000Y-57160000D02*
X97160000Y-55984900D01*
X97160000Y-57160000D02*
X97160000Y-58335100D01*
X176027000Y-66030000D02*
X176027000Y-67205100D01*
X149430200Y-93801900D02*
X176027000Y-67205100D01*
X149029900Y-93801900D02*
X149430200Y-93801900D01*
X143710100Y-99121700D02*
X149029900Y-93801900D01*
X143710100Y-99632000D02*
X143710100Y-99121700D01*
X101851600Y-80485600D02*
X122184000Y-100818000D01*
X101851600Y-62661500D02*
X101851600Y-80485600D01*
X97525200Y-58335100D02*
X101851600Y-62661500D01*
X97160000Y-58335100D02*
X97525200Y-58335100D01*
X91445000Y-37223500D02*
X91445000Y-26152000D01*
X95043100Y-40821600D02*
X91445000Y-37223500D01*
X95043100Y-47910100D02*
X95043100Y-40821600D01*
X94851600Y-48101600D02*
X95043100Y-47910100D01*
X94851600Y-54067600D02*
X94851600Y-48101600D01*
X96768900Y-55984900D02*
X94851600Y-54067600D01*
X97160000Y-55984900D02*
X96768900Y-55984900D01*
X181107000Y-66030000D02*
X181107000Y-67205100D01*
X154532900Y-93779200D02*
X154193400Y-93779200D01*
X181107000Y-67205100D02*
X154532900Y-93779200D01*
X210044000Y-58420000D02*
X210044000Y-57244900D01*
X196979700Y-41626000D02*
X195024600Y-39670900D01*
X199317100Y-41626000D02*
X196979700Y-41626000D01*
X204719000Y-47027900D02*
X199317100Y-41626000D01*
X204719000Y-51919900D02*
X204719000Y-47027900D01*
X210044000Y-57244900D02*
X204719000Y-51919900D01*
X115918900Y-58785200D02*
X115918900Y-58420000D01*
X115102700Y-59601400D02*
X115918900Y-58785200D01*
X114031900Y-59601400D02*
X115102700Y-59601400D01*
X113359700Y-58929200D02*
X114031900Y-59601400D01*
X113359700Y-35813700D02*
X113359700Y-58929200D01*
X113889700Y-35283700D02*
X113359700Y-35813700D01*
X117094000Y-58420000D02*
X115918900Y-58420000D01*
X225298000Y-63759000D02*
X225298000Y-62533900D01*
X200857700Y-16042300D02*
X199628000Y-17272000D01*
X207207500Y-16042300D02*
X200857700Y-16042300D01*
X208478100Y-17312900D02*
X207207500Y-16042300D01*
X208478100Y-18786100D02*
X208478100Y-17312900D01*
X219292600Y-29600600D02*
X208478100Y-18786100D01*
X219292600Y-47114500D02*
X219292600Y-29600600D01*
X226523200Y-54345100D02*
X219292600Y-47114500D01*
X226523200Y-61768100D02*
X226523200Y-54345100D01*
X225757400Y-62533900D02*
X226523200Y-61768100D01*
X225298000Y-62533900D02*
X225757400Y-62533900D01*
X127619200Y-44544900D02*
X127254000Y-44544900D01*
X149336000Y-22828100D02*
X127619200Y-44544900D01*
X149336000Y-17310700D02*
X149336000Y-22828100D01*
X127254000Y-45720000D02*
X127254000Y-44544900D01*
X155453000Y-45710000D02*
X155453000Y-44534900D01*
X212339000Y-27903000D02*
X204978000Y-20542000D01*
X212339000Y-47953700D02*
X212339000Y-27903000D01*
X224379200Y-59993900D02*
X212339000Y-47953700D01*
X225298000Y-59993900D02*
X224379200Y-59993900D01*
X225298000Y-61219000D02*
X225298000Y-59993900D01*
X156630100Y-43357800D02*
X155453000Y-44534900D01*
X156630100Y-36250500D02*
X156630100Y-43357800D01*
X156442500Y-36062900D02*
X156630100Y-36250500D01*
X156442500Y-35420900D02*
X156442500Y-36062900D01*
X159498900Y-32364500D02*
X156442500Y-35420900D01*
X159498900Y-20108700D02*
X159498900Y-32364500D01*
X158751500Y-19361300D02*
X159498900Y-20108700D01*
X155905400Y-19361300D02*
X158751500Y-19361300D01*
X154686000Y-20580700D02*
X155905400Y-19361300D01*
X215760500Y-27784500D02*
X208518000Y-20542000D01*
X215760500Y-48835200D02*
X215760500Y-27784500D01*
X224379200Y-57453900D02*
X215760500Y-48835200D01*
X225298000Y-57453900D02*
X224379200Y-57453900D01*
X225298000Y-58679000D02*
X225298000Y-57453900D01*
X154183000Y-43264900D02*
X152913000Y-44534900D01*
X154183000Y-24623700D02*
X154183000Y-43264900D01*
X158226000Y-20580700D02*
X154183000Y-24623700D01*
X152913000Y-45710000D02*
X152913000Y-44534900D01*
X78105000Y-69723000D02*
X78105000Y-70898100D01*
X89413000Y-93208000D02*
X88237900Y-93208000D01*
X78472300Y-70898100D02*
X78105000Y-70898100D01*
X79280100Y-71705900D02*
X78472300Y-70898100D01*
X79280100Y-87106400D02*
X79280100Y-71705900D01*
X81291300Y-89117600D02*
X79280100Y-87106400D01*
X84512700Y-89117600D02*
X81291300Y-89117600D01*
X88237900Y-92842800D02*
X84512700Y-89117600D01*
X88237900Y-93208000D02*
X88237900Y-92842800D01*
X61779500Y-89599500D02*
X57917000Y-93462000D01*
X62035700Y-89599500D02*
X61779500Y-89599500D01*
X177356500Y-61788800D02*
X178072500Y-62504800D01*
X177356500Y-57958500D02*
X177356500Y-61788800D01*
X177541000Y-57774000D02*
X177356500Y-57958500D01*
X177541000Y-36336500D02*
X177541000Y-57774000D01*
X180594000Y-33283500D02*
X177541000Y-36336500D01*
X127254000Y-16622300D02*
X127254000Y-38100000D01*
X117577400Y-6945700D02*
X127254000Y-16622300D01*
X116544000Y-6945700D02*
X117577400Y-6945700D01*
X115903900Y-7585800D02*
X116544000Y-6945700D01*
X115903900Y-8643900D02*
X115903900Y-7585800D01*
X118246300Y-10986300D02*
X115903900Y-8643900D01*
X118469000Y-10986300D02*
X118246300Y-10986300D01*
X116207100Y-19190800D02*
X118242700Y-17155200D01*
X116207100Y-30566300D02*
X116207100Y-19190800D01*
X122174000Y-36533200D02*
X116207100Y-30566300D01*
X122174000Y-38100000D02*
X122174000Y-36533200D01*
X117094000Y-38100000D02*
X117094000Y-36924900D01*
X115779400Y-35610300D02*
X115779400Y-31304400D01*
X117094000Y-36924900D02*
X115779400Y-35610300D01*
X132334000Y-20924200D02*
X132334000Y-38100000D01*
X117805300Y-6395500D02*
X132334000Y-20924200D01*
X114391600Y-6395500D02*
X117805300Y-6395500D01*
X112929000Y-7858100D02*
X114391600Y-6395500D01*
X112929000Y-8439000D02*
X112929000Y-7858100D01*
X110381700Y-10986300D02*
X112929000Y-8439000D01*
X110159000Y-10986300D02*
X110381700Y-10986300D01*
X83339000Y-72682800D02*
X83339000Y-63415200D01*
X82351800Y-73670000D02*
X83339000Y-72682800D01*
X81447800Y-73670000D02*
X82351800Y-73670000D01*
X80145600Y-74972200D02*
X81447800Y-73670000D01*
X80145600Y-87193800D02*
X80145600Y-74972200D01*
X81329300Y-88377500D02*
X80145600Y-87193800D01*
X86315200Y-88377500D02*
X81329300Y-88377500D01*
X90623600Y-92685900D02*
X86315200Y-88377500D01*
X90623600Y-97467300D02*
X90623600Y-92685900D01*
X89733400Y-98357500D02*
X90623600Y-97467300D01*
X199639000Y-39209100D02*
X195048800Y-34618900D01*
X199639000Y-40284300D02*
X199639000Y-39209100D01*
X200430500Y-41075800D02*
X199639000Y-40284300D01*
X201240500Y-41075800D02*
X200430500Y-41075800D01*
X207259000Y-47094300D02*
X201240500Y-41075800D01*
X207259000Y-50051100D02*
X207259000Y-47094300D01*
X211269000Y-54061100D02*
X207259000Y-50051100D01*
X211269000Y-58906000D02*
X211269000Y-54061100D01*
X210518700Y-59656300D02*
X211269000Y-58906000D01*
X206359400Y-59656300D02*
X210518700Y-59656300D01*
X205123100Y-58420000D02*
X206359400Y-59656300D01*
X203948000Y-58420000D02*
X205123100Y-58420000D01*
X187701000Y-45052900D02*
X188971000Y-46322900D01*
X187701000Y-35310500D02*
X187701000Y-45052900D01*
X185674000Y-33283500D02*
X187701000Y-35310500D01*
X188971000Y-47498000D02*
X188971000Y-46322900D01*
X191511000Y-36580500D02*
X191511000Y-39878000D01*
X188214000Y-33283500D02*
X191511000Y-36580500D01*
X18308000Y-15518900D02*
X17526000Y-16300900D01*
X18308000Y-13391500D02*
X18308000Y-15518900D01*
X17526000Y-17526000D02*
X17526000Y-16300900D01*
X155463000Y-49415100D02*
X157993000Y-46885100D01*
X155463000Y-58410000D02*
X155463000Y-49415100D01*
X157993000Y-45710000D02*
X157993000Y-46885100D01*
X127254000Y-66040000D02*
X127254000Y-64864900D01*
X125889200Y-63500100D02*
X127254000Y-64864900D01*
X125889200Y-54814300D02*
X125889200Y-63500100D01*
X118364000Y-47289100D02*
X125889200Y-54814300D01*
X118364000Y-44306400D02*
X118364000Y-47289100D01*
X115729200Y-41671600D02*
X118364000Y-44306400D01*
X115729200Y-36700500D02*
X115729200Y-41671600D01*
X114664800Y-35636100D02*
X115729200Y-36700500D01*
X114664800Y-34664200D02*
X114664800Y-35636100D01*
X114026300Y-34025700D02*
X114664800Y-34664200D01*
X146477400Y-92151500D02*
X140174100Y-98454800D01*
X149072500Y-92151500D02*
X146477400Y-92151500D01*
X160543000Y-80681000D02*
X149072500Y-92151500D01*
X160543000Y-66030000D02*
X160543000Y-80681000D01*
X144023000Y-37657000D02*
X141196400Y-34830400D01*
X144023000Y-38547300D02*
X144023000Y-37657000D01*
X146235300Y-40759600D02*
X144023000Y-38547300D01*
X147097400Y-40759600D02*
X146235300Y-40759600D01*
X151643000Y-45305200D02*
X147097400Y-40759600D01*
X151643000Y-59841600D02*
X151643000Y-45305200D01*
X155463000Y-63661600D02*
X151643000Y-59841600D01*
X155463000Y-66030000D02*
X155463000Y-63661600D01*
X149197900Y-61129800D02*
X152923000Y-64854900D01*
X149197900Y-53330000D02*
X149197900Y-61129800D01*
X142753000Y-46885100D02*
X149197900Y-53330000D01*
X142753000Y-45710000D02*
X142753000Y-46885100D01*
X152923000Y-66030000D02*
X152923000Y-64854900D01*
X16500000Y-81788000D02*
X17725100Y-81788000D01*
X26734400Y-24633000D02*
X25051200Y-26316200D01*
X28961000Y-24633000D02*
X26734400Y-24633000D01*
X24135000Y-25400000D02*
X25051200Y-26316200D01*
X23435100Y-76078000D02*
X17725100Y-81788000D01*
X24323600Y-76078000D02*
X23435100Y-76078000D01*
X25051200Y-75350400D02*
X24323600Y-76078000D01*
X25051200Y-26316200D02*
X25051200Y-75350400D01*
X183891000Y-47498000D02*
X185066100Y-47498000D01*
X192720900Y-35250400D02*
X190754000Y-33283500D01*
X192720900Y-43534200D02*
X192720900Y-35250400D01*
X190335800Y-45919300D02*
X192720900Y-43534200D01*
X190335800Y-47797400D02*
X190335800Y-45919300D01*
X189438000Y-48695200D02*
X190335800Y-47797400D01*
X185898000Y-48695200D02*
X189438000Y-48695200D01*
X185066100Y-47863300D02*
X185898000Y-48695200D01*
X185066100Y-47498000D02*
X185066100Y-47863300D01*
X109225000Y-18532000D02*
X109225000Y-19707100D01*
X52837000Y-93178600D02*
X60423200Y-85592400D01*
X52837000Y-93462000D02*
X52837000Y-93178600D01*
X102626700Y-70748000D02*
X102626700Y-73670000D01*
X108744100Y-64630600D02*
X102626700Y-70748000D01*
X112077300Y-64630600D02*
X108744100Y-64630600D01*
X113812200Y-62895700D02*
X112077300Y-64630600D01*
X113812200Y-62208200D02*
X113812200Y-62895700D01*
X113043800Y-61439800D02*
X113812200Y-62208200D01*
X109361400Y-61439800D02*
X113043800Y-61439800D01*
X106254600Y-58333000D02*
X109361400Y-61439800D01*
X106254600Y-28315100D02*
X106254600Y-58333000D01*
X108049900Y-26519800D02*
X106254600Y-28315100D01*
X108049900Y-20882200D02*
X108049900Y-26519800D01*
X109225000Y-19707100D02*
X108049900Y-20882200D01*
X61838900Y-27444100D02*
X66388800Y-31994000D01*
X60980000Y-27444100D02*
X61838900Y-27444100D01*
X60980000Y-26269000D02*
X60980000Y-27444100D01*
X182621000Y-42512900D02*
X178811000Y-46322900D01*
X182621000Y-36964100D02*
X182621000Y-42512900D01*
X184359200Y-35225900D02*
X182621000Y-36964100D01*
X184359200Y-32833500D02*
X184359200Y-35225900D01*
X185179200Y-32013500D02*
X184359200Y-32833500D01*
X192024000Y-32013500D02*
X185179200Y-32013500D01*
X193294000Y-33283500D02*
X192024000Y-32013500D01*
X178811000Y-47498000D02*
X178811000Y-46322900D01*
X151391600Y-68001100D02*
X145806500Y-73586200D01*
X152674100Y-68001100D02*
X151391600Y-68001100D01*
X154107500Y-66567700D02*
X152674100Y-68001100D01*
X154107500Y-65139300D02*
X154107500Y-66567700D01*
X150383000Y-61414800D02*
X154107500Y-65139300D01*
X150383000Y-58410000D02*
X150383000Y-61414800D01*
X203449000Y-39868000D02*
X202273900Y-39868000D01*
X195987900Y-33283500D02*
X195834000Y-33283500D01*
X202273900Y-39569500D02*
X195987900Y-33283500D01*
X202273900Y-39868000D02*
X202273900Y-39569500D01*
X207353900Y-39502800D02*
X207353900Y-39868000D01*
X206071400Y-38220300D02*
X207353900Y-39502800D01*
X203310800Y-38220300D02*
X206071400Y-38220300D01*
X198374000Y-33283500D02*
X203310800Y-38220300D01*
X208529000Y-39868000D02*
X207353900Y-39868000D01*
X200909000Y-47488000D02*
X200909000Y-46312900D01*
X200570500Y-46312900D02*
X200909000Y-46312900D01*
X194243100Y-39985500D02*
X200570500Y-46312900D01*
X194243100Y-34243800D02*
X194243100Y-39985500D01*
X194551800Y-33935100D02*
X194243100Y-34243800D01*
X194551800Y-32818100D02*
X194551800Y-33935100D01*
X195311600Y-32058300D02*
X194551800Y-32818100D01*
X199688800Y-32058300D02*
X195311600Y-32058300D01*
X200914000Y-33283500D02*
X199688800Y-32058300D01*
X150373000Y-45710000D02*
X149197900Y-45710000D01*
X146478200Y-69244700D02*
X145049100Y-70673800D01*
X146478200Y-65070300D02*
X146478200Y-69244700D01*
X145698700Y-64290800D02*
X146478200Y-65070300D01*
X145698700Y-61357100D02*
X145698700Y-64290800D01*
X146495600Y-60560200D02*
X145698700Y-61357100D01*
X146495600Y-51527800D02*
X146495600Y-60560200D01*
X141571000Y-46603200D02*
X146495600Y-51527800D01*
X141571000Y-45228700D02*
X141571000Y-46603200D01*
X142291500Y-44508200D02*
X141571000Y-45228700D01*
X143234400Y-44508200D02*
X142291500Y-44508200D01*
X144023000Y-45296800D02*
X143234400Y-44508200D01*
X144023000Y-46190300D02*
X144023000Y-45296800D01*
X144777800Y-46945100D02*
X144023000Y-46190300D01*
X148328000Y-46945100D02*
X144777800Y-46945100D01*
X149197900Y-46075200D02*
X148328000Y-46945100D01*
X149197900Y-45710000D02*
X149197900Y-46075200D01*
X55900000Y-30515000D02*
X56203900Y-30818900D01*
X55900000Y-26269000D02*
X55900000Y-30515000D01*
X56203900Y-31994000D02*
X56203900Y-30818900D01*
X203607000Y-33283500D02*
X203454000Y-33283500D01*
X209893900Y-39570400D02*
X203607000Y-33283500D01*
X209893900Y-45137800D02*
X209893900Y-39570400D01*
X211069000Y-46312900D02*
X209893900Y-45137800D01*
X211069000Y-47488000D02*
X211069000Y-46312900D01*
X200417100Y-59595100D02*
X198336300Y-61675900D01*
X200900000Y-59595100D02*
X200417100Y-59595100D01*
X200900000Y-58420000D02*
X200900000Y-59595100D01*
X55813000Y-17386900D02*
X55900000Y-17473900D01*
X55813000Y-5796000D02*
X55813000Y-17386900D01*
X55900000Y-18649000D02*
X55900000Y-17473900D01*
X54428000Y-16405900D02*
X53360000Y-17473900D01*
X54428000Y-8636000D02*
X54428000Y-16405900D01*
X53360000Y-18649000D02*
X53360000Y-17473900D01*
X59060000Y-69723000D02*
X59060000Y-70898100D01*
X91953000Y-93208000D02*
X91953000Y-92032900D01*
X91848300Y-92032900D02*
X83150900Y-83335500D01*
X91953000Y-92032900D02*
X91848300Y-92032900D01*
X64624400Y-79607700D02*
X64462800Y-79769300D01*
X64624400Y-74852000D02*
X64624400Y-79607700D01*
X63305400Y-73533000D02*
X64624400Y-74852000D01*
X62468800Y-73533000D02*
X63305400Y-73533000D01*
X59833900Y-70898100D02*
X62468800Y-73533000D01*
X59060000Y-70898100D02*
X59833900Y-70898100D01*
X50297000Y-93462000D02*
X51472100Y-93462000D01*
X51472100Y-93153700D02*
X57165300Y-87460500D01*
X51472100Y-93462000D02*
X51472100Y-93153700D01*
X92053700Y-47787500D02*
X92053700Y-75820000D01*
X93349300Y-46491900D02*
X92053700Y-47787500D01*
X93349300Y-41876300D02*
X93349300Y-46491900D01*
X92380100Y-40907100D02*
X93349300Y-41876300D01*
X158003000Y-66030000D02*
X158003000Y-67205100D01*
X146509700Y-78100300D02*
X146509700Y-87403200D01*
X157404900Y-67205100D02*
X146509700Y-78100300D01*
X158003000Y-67205100D02*
X157404900Y-67205100D01*
X112024000Y-100818000D02*
X112024000Y-102393100D01*
X110043700Y-93859500D02*
X109809100Y-93859500D01*
X115739300Y-99555100D02*
X110043700Y-93859500D01*
X115739300Y-101730600D02*
X115739300Y-99555100D01*
X115076800Y-102393100D02*
X115739300Y-101730600D01*
X112024000Y-102393100D02*
X115076800Y-102393100D01*
X104769200Y-79172400D02*
X103222200Y-80719400D01*
X104769200Y-70965100D02*
X104769200Y-79172400D01*
X108519200Y-67215100D02*
X104769200Y-70965100D01*
X109474000Y-67215100D02*
X108519200Y-67215100D01*
X109474000Y-66040000D02*
X109474000Y-67215100D01*
X58703900Y-27708000D02*
X58703900Y-31994000D01*
X58440000Y-27444100D02*
X58703900Y-27708000D01*
X58440000Y-26269000D02*
X58440000Y-27444100D01*
X77630200Y-103815700D02*
X80617900Y-100828000D01*
X17577500Y-103815700D02*
X77630200Y-103815700D01*
X10777100Y-97015300D02*
X17577500Y-103815700D01*
X10777100Y-65760900D02*
X10777100Y-97015300D01*
X12753700Y-63784300D02*
X10777100Y-65760900D01*
X81793000Y-100828000D02*
X80617900Y-100828000D01*
X59060000Y-67183000D02*
X57884900Y-67183000D01*
X39116000Y-49408000D02*
X39116000Y-50583100D01*
X38778000Y-50583100D02*
X39116000Y-50583100D01*
X37932800Y-51428300D02*
X38778000Y-50583100D01*
X37932800Y-57512400D02*
X37932800Y-51428300D01*
X38718400Y-58298000D02*
X37932800Y-57512400D01*
X48999900Y-58298000D02*
X38718400Y-58298000D01*
X57884900Y-67183000D02*
X48999900Y-58298000D01*
X59060000Y-59563000D02*
X57884900Y-59563000D01*
X39116000Y-51948000D02*
X40291100Y-51948000D01*
X55700000Y-59563000D02*
X57884900Y-59563000D01*
X49430500Y-53293500D02*
X55700000Y-59563000D01*
X41636600Y-53293500D02*
X49430500Y-53293500D01*
X40291100Y-51948000D02*
X41636600Y-53293500D01*
X75739300Y-55832400D02*
X76929900Y-57023000D01*
X61425700Y-55832400D02*
X75739300Y-55832400D01*
X60235100Y-57023000D02*
X61425700Y-55832400D01*
X59060000Y-57023000D02*
X60235100Y-57023000D01*
X78105000Y-57023000D02*
X76929900Y-57023000D01*
X42644900Y-54674200D02*
X42644900Y-54483000D01*
X40291100Y-57028000D02*
X42644900Y-54674200D01*
X39116000Y-57028000D02*
X40291100Y-57028000D01*
X43820000Y-54483000D02*
X42644900Y-54483000D01*
X56552100Y-100716700D02*
X56552100Y-101082000D01*
X60052700Y-97216100D02*
X56552100Y-100716700D01*
X60960300Y-97216100D02*
X60052700Y-97216100D01*
X64267000Y-93909400D02*
X60960300Y-97216100D01*
X64267000Y-90020600D02*
X64267000Y-93909400D01*
X67267000Y-87020600D02*
X64267000Y-90020600D01*
X67267000Y-62241100D02*
X67267000Y-87020600D01*
X63318900Y-58293000D02*
X67267000Y-62241100D01*
X58646400Y-58293000D02*
X63318900Y-58293000D01*
X57873400Y-57520000D02*
X58646400Y-58293000D01*
X57873400Y-56536000D02*
X57873400Y-57520000D01*
X58656400Y-55753000D02*
X57873400Y-56536000D01*
X60039600Y-55753000D02*
X58656400Y-55753000D01*
X61309600Y-54483000D02*
X60039600Y-55753000D01*
X62865000Y-54483000D02*
X61309600Y-54483000D01*
X55377000Y-101082000D02*
X56552100Y-101082000D01*
X37727700Y-92217500D02*
X37727700Y-99339200D01*
X38627200Y-91318000D02*
X37727700Y-92217500D01*
X39563900Y-91318000D02*
X38627200Y-91318000D01*
X41614500Y-89267400D02*
X39563900Y-91318000D01*
X41614500Y-83248800D02*
X41614500Y-89267400D01*
X39523700Y-81158000D02*
X41614500Y-83248800D01*
X38662700Y-81158000D02*
X39523700Y-81158000D01*
X37440300Y-79935600D02*
X38662700Y-81158000D01*
X37440300Y-77639900D02*
X37440300Y-79935600D01*
X35989600Y-76189200D02*
X37440300Y-77639900D01*
X35989600Y-63502200D02*
X35989600Y-76189200D01*
X38748700Y-60743100D02*
X35989600Y-63502200D01*
X39116000Y-60743100D02*
X38748700Y-60743100D01*
X39116000Y-59568000D02*
X39116000Y-60743100D01*
X62865000Y-59563000D02*
X61689900Y-59563000D01*
X50297000Y-101082000D02*
X51472100Y-101082000D01*
X60471000Y-60781900D02*
X61689900Y-59563000D01*
X55594200Y-60781900D02*
X54375300Y-59563000D01*
X60471000Y-60781900D02*
X55594200Y-60781900D01*
X51472100Y-100716700D02*
X51472100Y-101082000D01*
X53552000Y-98636800D02*
X51472100Y-100716700D01*
X54501700Y-98636800D02*
X53552000Y-98636800D01*
X59187000Y-93951500D02*
X54501700Y-98636800D01*
X59187000Y-93058200D02*
X59187000Y-93951500D01*
X61870600Y-90374600D02*
X59187000Y-93058200D01*
X62356800Y-90374600D02*
X61870600Y-90374600D01*
X66088900Y-86642500D02*
X62356800Y-90374600D01*
X66088900Y-68739300D02*
X66088900Y-86642500D01*
X63262600Y-65913000D02*
X66088900Y-68739300D01*
X62460100Y-65913000D02*
X63262600Y-65913000D01*
X60471000Y-63923900D02*
X62460100Y-65913000D01*
X60471000Y-60781900D02*
X60471000Y-63923900D01*
X62865000Y-62103000D02*
X62865000Y-63278100D01*
X47757000Y-101082000D02*
X48932100Y-101082000D01*
X48932100Y-101449300D02*
X48932100Y-101082000D01*
X49739900Y-102257100D02*
X48932100Y-101449300D01*
X53405500Y-102257100D02*
X49739900Y-102257100D01*
X54107000Y-101555600D02*
X53405500Y-102257100D01*
X54107000Y-100653300D02*
X54107000Y-101555600D01*
X55573300Y-99187000D02*
X54107000Y-100653300D01*
X56451900Y-99187000D02*
X55573300Y-99187000D01*
X61727000Y-93911900D02*
X56451900Y-99187000D01*
X61727000Y-91782500D02*
X61727000Y-93911900D01*
X66665500Y-86844000D02*
X61727000Y-91782500D01*
X66665500Y-66711400D02*
X66665500Y-86844000D01*
X63232200Y-63278100D02*
X66665500Y-66711400D01*
X62865000Y-63278100D02*
X63232200Y-63278100D01*
X42644900Y-64834200D02*
X42644900Y-64643000D01*
X40291100Y-67188000D02*
X42644900Y-64834200D01*
X39116000Y-67188000D02*
X40291100Y-67188000D01*
X43820000Y-64643000D02*
X42644900Y-64643000D01*
X60499300Y-68373600D02*
X61689900Y-67183000D01*
X46185700Y-68373600D02*
X60499300Y-68373600D01*
X44995100Y-67183000D02*
X46185700Y-68373600D01*
X43820000Y-67183000D02*
X44995100Y-67183000D01*
X62415000Y-67183000D02*
X62415200Y-67183000D01*
X62415000Y-67183000D02*
X61689900Y-67183000D01*
X62865000Y-67183000D02*
X62415200Y-67183000D01*
X65288100Y-70055900D02*
X65288100Y-86275700D01*
X62415200Y-67183000D02*
X65288100Y-70055900D01*
X95169900Y-71087700D02*
X95169900Y-71087800D01*
X100235000Y-71087700D02*
X95169900Y-71087700D01*
X101047000Y-70275700D02*
X100235000Y-71087700D01*
X81920000Y-82560000D02*
X83095100Y-82560000D01*
X97160000Y-82560000D02*
X95984900Y-82560000D01*
X83095100Y-82560000D02*
X95984900Y-82560000D01*
X40039300Y-83603100D02*
X40839300Y-84403100D01*
X39116000Y-83603100D02*
X40039300Y-83603100D01*
X39116000Y-82428000D02*
X39116000Y-83603100D01*
X68077000Y-93462000D02*
X68077000Y-92286900D01*
X80574500Y-61326600D02*
X80574500Y-61219800D01*
X78528100Y-63373000D02*
X80574500Y-61326600D01*
X77629000Y-63373000D02*
X78528100Y-63373000D01*
X68813700Y-72188300D02*
X77629000Y-63373000D01*
X68813700Y-91550200D02*
X68813700Y-72188300D01*
X68077000Y-92286900D02*
X68813700Y-91550200D01*
X62997000Y-101082000D02*
X62997000Y-99906900D01*
X78105000Y-51943000D02*
X78105000Y-53118100D01*
X78470200Y-53118100D02*
X78105000Y-53118100D01*
X79285900Y-53933800D02*
X78470200Y-53118100D01*
X79285900Y-57571600D02*
X79285900Y-53933800D01*
X78564500Y-58293000D02*
X79285900Y-57571600D01*
X77644200Y-58293000D02*
X78564500Y-58293000D01*
X68263500Y-67673700D02*
X77644200Y-58293000D01*
X68263500Y-86980000D02*
X68263500Y-67673700D01*
X66888500Y-88355000D02*
X68263500Y-86980000D01*
X66888500Y-96015400D02*
X66888500Y-88355000D01*
X62997000Y-99906900D02*
X66888500Y-96015400D01*
X114564000Y-100818000D02*
X114564000Y-99242900D01*
X111434300Y-96113200D02*
X107566500Y-96113200D01*
X114564000Y-99242900D02*
X111434300Y-96113200D01*
X80744900Y-63178200D02*
X79280100Y-64643000D01*
X80744900Y-62240000D02*
X80744900Y-63178200D01*
X78105000Y-64643000D02*
X79280100Y-64643000D01*
X81920000Y-62240000D02*
X80744900Y-62240000D01*
X60457000Y-101082000D02*
X61632100Y-101082000D01*
X78105000Y-64643000D02*
X78105000Y-65818100D01*
X77790900Y-65818100D02*
X78105000Y-65818100D01*
X69363800Y-74245200D02*
X77790900Y-65818100D01*
X69363800Y-95584900D02*
X69363800Y-74245200D01*
X64267000Y-100681700D02*
X69363800Y-95584900D01*
X64267000Y-101489900D02*
X64267000Y-100681700D01*
X63494200Y-102262700D02*
X64267000Y-101489900D01*
X62445600Y-102262700D02*
X63494200Y-102262700D01*
X61632100Y-101449200D02*
X62445600Y-102262700D01*
X61632100Y-101082000D02*
X61632100Y-101449200D01*
X81280900Y-71224900D02*
X81920000Y-71224900D01*
X78592000Y-68536000D02*
X81280900Y-71224900D01*
X77498700Y-68536000D02*
X78592000Y-68536000D01*
X70381600Y-75653100D02*
X77498700Y-68536000D01*
X70381600Y-85779100D02*
X70381600Y-75653100D01*
X71835000Y-87232500D02*
X70381600Y-85779100D01*
X71835000Y-94614000D02*
X71835000Y-87232500D01*
X66807000Y-99642000D02*
X71835000Y-94614000D01*
X66807000Y-101479800D02*
X66807000Y-99642000D01*
X65418800Y-102868000D02*
X66807000Y-101479800D01*
X60510900Y-102868000D02*
X65418800Y-102868000D01*
X59092100Y-101449200D02*
X60510900Y-102868000D01*
X59092100Y-101082000D02*
X59092100Y-101449200D01*
X57917000Y-101082000D02*
X59092100Y-101082000D01*
X81920000Y-72400000D02*
X81920000Y-71224900D01*
X138817500Y-62103200D02*
X138817500Y-72167700D01*
X137483200Y-60768900D02*
X138817500Y-62103200D01*
X137483200Y-38312200D02*
X137483200Y-60768900D01*
X139489800Y-36305600D02*
X137483200Y-38312200D01*
X140968600Y-36305600D02*
X139489800Y-36305600D01*
X142753000Y-38090000D02*
X140968600Y-36305600D01*
X43820000Y-77343000D02*
X44995100Y-77343000D01*
X62865000Y-77343000D02*
X61689900Y-77343000D01*
X60499300Y-76152400D02*
X61689900Y-77343000D01*
X46185700Y-76152400D02*
X60499300Y-76152400D01*
X44995100Y-77343000D02*
X46185700Y-76152400D01*
X152923000Y-58410000D02*
X152923000Y-59585100D01*
X153851500Y-69310500D02*
X151380300Y-69310500D01*
X156647500Y-66514500D02*
X153851500Y-69310500D01*
X156647500Y-63309600D02*
X156647500Y-66514500D01*
X152923000Y-59585100D02*
X156647500Y-63309600D01*
X76929900Y-71614900D02*
X76229900Y-70914900D01*
X76929900Y-72263000D02*
X76929900Y-71614900D01*
X78105000Y-72263000D02*
X76929900Y-72263000D01*
X43820000Y-79883000D02*
X44995100Y-79883000D01*
X62865000Y-79883000D02*
X61689900Y-79883000D01*
X60499300Y-78692400D02*
X61689900Y-79883000D01*
X46185700Y-78692400D02*
X60499300Y-78692400D01*
X44995100Y-79883000D02*
X46185700Y-78692400D01*
X40106300Y-76169300D02*
X43820000Y-79883000D01*
X37322700Y-76169300D02*
X40106300Y-76169300D01*
X27923000Y-77348000D02*
X29101700Y-76169300D01*
X23876000Y-77348000D02*
X27923000Y-77348000D01*
X47231200Y-74803000D02*
X59060000Y-74803000D01*
X46055800Y-73627600D02*
X47231200Y-74803000D01*
X42776600Y-73627600D02*
X46055800Y-73627600D01*
X40241800Y-71092800D02*
X42776600Y-73627600D01*
X60911800Y-77343000D02*
X59060000Y-77343000D01*
X62135200Y-78566400D02*
X60911800Y-77343000D01*
X63308400Y-78566400D02*
X62135200Y-78566400D01*
X64040200Y-77834600D02*
X63308400Y-78566400D01*
X64040200Y-76521200D02*
X64040200Y-77834600D01*
X63829600Y-76310600D02*
X64040200Y-76521200D01*
X63497200Y-75978200D02*
X63829600Y-76310600D01*
X62240200Y-75978200D02*
X63497200Y-75978200D01*
X59795000Y-73533000D02*
X62240200Y-75978200D01*
X46833400Y-73533000D02*
X59795000Y-73533000D01*
X44293400Y-70993000D02*
X46833400Y-73533000D01*
X42156400Y-70993000D02*
X44293400Y-70993000D01*
X39621400Y-68458000D02*
X42156400Y-70993000D01*
X37330100Y-68458000D02*
X39621400Y-68458000D01*
X36795000Y-68993100D02*
X37330100Y-68458000D01*
X36795000Y-70254900D02*
X36795000Y-68993100D01*
X37652200Y-72477000D02*
X37652200Y-69253300D01*
X38713200Y-73538000D02*
X37652200Y-72477000D01*
X40223400Y-73538000D02*
X38713200Y-73538000D01*
X42768700Y-76083300D02*
X40223400Y-73538000D01*
X86873000Y-93208000D02*
X85697900Y-93208000D01*
X81229200Y-91531000D02*
X72755500Y-83057300D01*
X84386100Y-91531000D02*
X81229200Y-91531000D01*
X85697900Y-92842800D02*
X84386100Y-91531000D01*
X85697900Y-93208000D02*
X85697900Y-92842800D01*
X33591500Y-79575400D02*
X35263900Y-81247800D01*
X33591500Y-68293600D02*
X33591500Y-79575400D01*
X62125700Y-50578100D02*
X62865000Y-50578100D01*
X59396000Y-53307800D02*
X62125700Y-50578100D01*
X58530600Y-53307800D02*
X59396000Y-53307800D01*
X54583400Y-57255000D02*
X58530600Y-53307800D01*
X54583400Y-57350300D02*
X54583400Y-57255000D01*
X62865000Y-49403000D02*
X62865000Y-50578100D01*
X75754200Y-53307300D02*
X76929900Y-54483000D01*
X61410800Y-53307300D02*
X75754200Y-53307300D01*
X60235100Y-54483000D02*
X61410800Y-53307300D01*
X59060000Y-54483000D02*
X60235100Y-54483000D01*
X78105000Y-54483000D02*
X76929900Y-54483000D01*
X64088900Y-50719100D02*
X62865000Y-51943000D01*
X64088900Y-48961200D02*
X64088900Y-50719100D01*
X63260700Y-48133000D02*
X64088900Y-48961200D01*
X52019200Y-48133000D02*
X63260700Y-48133000D01*
X49249200Y-45363000D02*
X52019200Y-48133000D01*
X49249200Y-41164100D02*
X49249200Y-45363000D01*
X48515900Y-40430800D02*
X49249200Y-41164100D01*
X47429700Y-40430800D02*
X48515900Y-40430800D01*
X46736000Y-41124500D02*
X47429700Y-40430800D01*
X46736000Y-48659800D02*
X46736000Y-41124500D01*
X44627900Y-50767900D02*
X46736000Y-48659800D01*
X43820000Y-50767900D02*
X44627900Y-50767900D01*
X43820000Y-51943000D02*
X43820000Y-50767900D01*
X39116000Y-90048000D02*
X39116000Y-88872900D01*
X39756000Y-32893000D02*
X39756000Y-34068100D01*
X38748700Y-88872900D02*
X39116000Y-88872900D01*
X36039000Y-86163200D02*
X38748700Y-88872900D01*
X36039000Y-78413400D02*
X36039000Y-86163200D01*
X34889300Y-77263700D02*
X36039000Y-78413400D01*
X34889300Y-49754100D02*
X34889300Y-77263700D01*
X37751200Y-46892200D02*
X34889300Y-49754100D01*
X37751200Y-36072900D02*
X37751200Y-46892200D01*
X39756000Y-34068100D02*
X37751200Y-36072900D01*
X23876000Y-90048000D02*
X23876000Y-88872900D01*
X24243200Y-88872900D02*
X23876000Y-88872900D01*
X30480900Y-82635200D02*
X24243200Y-88872900D01*
X30480900Y-51501300D02*
X30480900Y-82635200D01*
X34528500Y-47453700D02*
X30480900Y-51501300D01*
D31*
X21529600Y-71752700D02*
X16505000Y-66728100D01*
X21529600Y-72461600D02*
X21529600Y-71752700D01*
X23876000Y-74808000D02*
X21529600Y-72461600D01*
X16505000Y-65278000D02*
X16505000Y-66728100D01*
X48280000Y-18649000D02*
X46879900Y-18649000D01*
X168148000Y-62609100D02*
X168148000Y-70358000D01*
X170947000Y-59810100D02*
X168148000Y-62609100D01*
X170947000Y-59110000D02*
X170947000Y-59810100D01*
X170947000Y-59110000D02*
X170947000Y-58410000D01*
X23876000Y-37328000D02*
X23876000Y-38728100D01*
X16510000Y-63822900D02*
X16505000Y-63827900D01*
X16510000Y-59436000D02*
X16510000Y-63822900D01*
X16505000Y-65278000D02*
X16505000Y-63827900D01*
X45406500Y-40146400D02*
X45466000Y-40205900D01*
X45406500Y-22733000D02*
X45406500Y-40146400D01*
X45406500Y-22733000D02*
X42931000Y-22733000D01*
X45466000Y-41656000D02*
X45466000Y-40205900D01*
X45406500Y-20122400D02*
X45406500Y-22733000D01*
X46879900Y-18649000D02*
X45406500Y-20122400D01*
X108073800Y-55619700D02*
X109474000Y-57019900D01*
X108073800Y-40900300D02*
X108073800Y-55619700D01*
X109474000Y-39500100D02*
X108073800Y-40900300D01*
X109474000Y-38100000D02*
X109474000Y-39500100D01*
X109474000Y-58420000D02*
X109474000Y-57019900D01*
X145044000Y-85578000D02*
X145044000Y-83777900D01*
X145303000Y-58410000D02*
X145303000Y-59810100D01*
X140213000Y-38090000D02*
X140213000Y-39490100D01*
X148129900Y-90464000D02*
X145044000Y-87378100D01*
X149098000Y-90464000D02*
X148129900Y-90464000D01*
X145044000Y-85578000D02*
X145044000Y-87378100D01*
X173876800Y-54080100D02*
X170947000Y-57009900D01*
X173876800Y-42598800D02*
X173876800Y-54080100D01*
X172466000Y-41188000D02*
X173876800Y-42598800D01*
X170947000Y-58410000D02*
X170947000Y-57009900D01*
X16510000Y-46094100D02*
X16510000Y-53848000D01*
X23876000Y-38728100D02*
X16510000Y-46094100D01*
X16510000Y-53848000D02*
X16510000Y-59436000D01*
X45466000Y-44918000D02*
X45466000Y-41656000D01*
X45506000Y-44958000D02*
X45466000Y-44918000D01*
X43820000Y-46644000D02*
X43820000Y-49403000D01*
X45506000Y-44958000D02*
X43820000Y-46644000D01*
X78105000Y-44323000D02*
X76704900Y-44323000D01*
X76704900Y-44323000D02*
X73021900Y-40640000D01*
X73021900Y-40640000D02*
X72863000Y-40640000D01*
X73689900Y-39972000D02*
X73689900Y-31994000D01*
X73021900Y-40640000D02*
X73689900Y-39972000D01*
X85751800Y-19932100D02*
X86365000Y-19932100D01*
X73689900Y-31994000D02*
X85751800Y-19932100D01*
X86365000Y-18532000D02*
X86365000Y-19932100D01*
X143855000Y-61258100D02*
X145303000Y-59810100D01*
X143855000Y-82588900D02*
X143855000Y-61258100D01*
X145044000Y-83777900D02*
X143855000Y-82588900D01*
X47757000Y-93462000D02*
X46356900Y-93462000D01*
X138812800Y-40890300D02*
X140213000Y-39490100D01*
X138812800Y-47192400D02*
X138812800Y-40890300D01*
X145328500Y-53708100D02*
X138812800Y-47192400D01*
X145328500Y-56984400D02*
X145328500Y-53708100D01*
X145303000Y-57009900D02*
X145328500Y-56984400D01*
X145303000Y-58410000D02*
X145303000Y-57009900D01*
X46356900Y-93859900D02*
X46356900Y-93462000D01*
X38616800Y-101600000D02*
X46356900Y-93859900D01*
X34290000Y-101600000D02*
X38616800Y-101600000D01*
X32869700Y-103020300D02*
X34290000Y-101600000D01*
X27190900Y-103020300D02*
X32869700Y-103020300D01*
X21960600Y-97790000D02*
X27190900Y-103020300D01*
X21960600Y-93684200D02*
X21960600Y-97790000D01*
X15324500Y-87048100D02*
X21960600Y-93684200D01*
X13965000Y-87048100D02*
X15324500Y-87048100D01*
X13965000Y-85598000D02*
X13965000Y-87048100D01*
D30*
X86400300Y-77480000D02*
X90703400Y-81783100D01*
X81920000Y-77480000D02*
X86400300Y-77480000D01*
X32766000Y-36708000D02*
X36581000Y-32893000D01*
X32766000Y-48072600D02*
X32766000Y-36708000D01*
X29876800Y-50961800D02*
X32766000Y-48072600D01*
X29876800Y-80699300D02*
X29876800Y-50961800D01*
X24243200Y-86332900D02*
X29876800Y-80699300D01*
X23876000Y-86332900D02*
X24243200Y-86332900D01*
X23876000Y-87508000D02*
X23876000Y-86332900D01*
X53360000Y-29782800D02*
X51148800Y-31994000D01*
X53360000Y-26269000D02*
X53360000Y-29782800D01*
X48648800Y-27812900D02*
X48648800Y-31994000D01*
X48280000Y-27444100D02*
X48648800Y-27812900D01*
X48280000Y-26269000D02*
X48280000Y-27444100D01*
D31*
X192329200Y-68907900D02*
X193807000Y-67430100D01*
X191262000Y-68907900D02*
X192329200Y-68907900D01*
X193807000Y-66030000D02*
X193807000Y-67430100D01*
X191262000Y-70358000D02*
X191262000Y-68907900D01*
X43820000Y-82052000D02*
X43820000Y-82423000D01*
X39116000Y-77348000D02*
X43820000Y-82052000D01*
X15723100Y-97854900D02*
X14518000Y-99060000D01*
X15723100Y-92456000D02*
X15723100Y-97854900D01*
X13688900Y-83238100D02*
X13960000Y-83238100D01*
X12514800Y-84412200D02*
X13688900Y-83238100D01*
X12514800Y-89247700D02*
X12514800Y-84412200D01*
X15723100Y-92456000D02*
X12514800Y-89247700D01*
X163083000Y-68892900D02*
X163068000Y-68907900D01*
X163083000Y-66030000D02*
X163083000Y-68892900D01*
X163068000Y-70358000D02*
X163068000Y-68907900D01*
X109225000Y-26152000D02*
X109225000Y-24751900D01*
X163073000Y-45710000D02*
X163073000Y-47110100D01*
X132334000Y-45720000D02*
X132334000Y-47120100D01*
X132334000Y-66040000D02*
X132334000Y-64639900D01*
X70617000Y-101082000D02*
X72017100Y-101082000D01*
X163083000Y-66030000D02*
X163083000Y-64629900D01*
X13960000Y-81788000D02*
X13960000Y-83238100D01*
X13970000Y-59436000D02*
X13970000Y-60886100D01*
X112014000Y-58420000D02*
X112014000Y-59570000D01*
X109225000Y-26152000D02*
X109225000Y-27552100D01*
X107030000Y-29747100D02*
X109225000Y-27552100D01*
X107030000Y-58012000D02*
X107030000Y-29747100D01*
X108838100Y-59820100D02*
X107030000Y-58012000D01*
X111763900Y-59820100D02*
X108838100Y-59820100D01*
X112014000Y-59570000D02*
X111763900Y-59820100D01*
X73408200Y-99690900D02*
X73408200Y-99421000D01*
X72017100Y-101082000D02*
X73408200Y-99690900D01*
X103246000Y-99421000D02*
X104653000Y-100828000D01*
X73408200Y-99421000D02*
X103246000Y-99421000D01*
X104653000Y-100828000D02*
X106053100Y-100828000D01*
X13960000Y-81788000D02*
X13960000Y-80337900D01*
X13965000Y-60891100D02*
X13965000Y-65278000D01*
X13970000Y-60886100D02*
X13965000Y-60891100D01*
X13416200Y-80337900D02*
X13960000Y-80337900D01*
X11558400Y-78480100D02*
X13416200Y-80337900D01*
X11558400Y-69134700D02*
X11558400Y-78480100D01*
X13965000Y-66728100D02*
X11558400Y-69134700D01*
X13965000Y-65278000D02*
X13965000Y-66728100D01*
X46667600Y-83870500D02*
X45220100Y-82423000D01*
X60017400Y-83870500D02*
X46667600Y-83870500D01*
X61464900Y-82423000D02*
X60017400Y-83870500D01*
X43820000Y-82423000D02*
X45220100Y-82423000D01*
X50820000Y-9474000D02*
X50820000Y-18649000D01*
X51658000Y-8636000D02*
X50820000Y-9474000D01*
X46879800Y-36539700D02*
X50546000Y-40205900D01*
X46879800Y-23989300D02*
X46879800Y-36539700D01*
X50820000Y-20049100D02*
X46879800Y-23989300D01*
X50820000Y-18649000D02*
X50820000Y-20049100D01*
X50546000Y-41656000D02*
X50546000Y-40205900D01*
X62865000Y-82423000D02*
X61464900Y-82423000D01*
X119869300Y-14107600D02*
X109225000Y-24751900D01*
X119869300Y-10347900D02*
X119869300Y-14107600D01*
X117667700Y-8146300D02*
X119869300Y-10347900D01*
X117084000Y-8146300D02*
X117667700Y-8146300D01*
X13970000Y-59436000D02*
X13970000Y-53848000D01*
X20429100Y-38794700D02*
X20429100Y-22860000D01*
X13970000Y-45253800D02*
X20429100Y-38794700D01*
X13970000Y-53848000D02*
X13970000Y-45253800D01*
X24135000Y-22860000D02*
X20429100Y-22860000D01*
X43820000Y-82423000D02*
X43820000Y-83823100D01*
X73408200Y-85382900D02*
X73408200Y-99421000D01*
X71168600Y-83143300D02*
X73408200Y-85382900D01*
X71168600Y-82137100D02*
X71168600Y-83143300D01*
X115229600Y-4460700D02*
X111544000Y-8146300D01*
X143566000Y-4460700D02*
X115229600Y-4460700D01*
X156416000Y-17310700D02*
X143566000Y-4460700D01*
X132334000Y-53246200D02*
X132334000Y-47120100D01*
X133735700Y-54647900D02*
X132334000Y-53246200D01*
X133735700Y-63238200D02*
X133735700Y-54647900D01*
X132334000Y-64639900D02*
X133735700Y-63238200D01*
X15230600Y-17526000D02*
X14986000Y-17526000D01*
X15230600Y-17661500D02*
X15230600Y-17526000D01*
X20429100Y-22860000D02*
X15230600Y-17661500D01*
X17823600Y-11391500D02*
X18308000Y-11391500D01*
X15230600Y-13984500D02*
X17823600Y-11391500D01*
X15230600Y-17526000D02*
X15230600Y-13984500D01*
X43820000Y-94964000D02*
X43820000Y-83823100D01*
X38407600Y-100376400D02*
X43820000Y-94964000D01*
X37350600Y-100376400D02*
X38407600Y-100376400D01*
X37161900Y-100187700D02*
X37350600Y-100376400D01*
X30702300Y-100187700D02*
X37161900Y-100187700D01*
X29290000Y-101600000D02*
X30702300Y-100187700D01*
X106986900Y-99894200D02*
X106053100Y-100828000D01*
X106986900Y-97036800D02*
X106986900Y-99894200D01*
X106138400Y-96188300D02*
X106986900Y-97036800D01*
X106138400Y-92462400D02*
X106138400Y-96188300D01*
X100798000Y-87122000D02*
X106138400Y-92462400D01*
X58928000Y-41783000D02*
X57477900Y-41783000D01*
X50546000Y-41783000D02*
X57477900Y-41783000D01*
X50546000Y-41656000D02*
X50546000Y-41783000D01*
X50546000Y-44918000D02*
X50506000Y-44958000D01*
X50546000Y-41783000D02*
X50546000Y-44918000D01*
X73689900Y-20075700D02*
X73689900Y-22850000D01*
X84179500Y-9586100D02*
X73689900Y-20075700D01*
X93484200Y-9586100D02*
X84179500Y-9586100D01*
X94924000Y-8146300D02*
X93484200Y-9586100D01*
X67023700Y-39800700D02*
X67023700Y-33394200D01*
X67863000Y-40640000D02*
X67023700Y-39800700D01*
X69789700Y-30628200D02*
X67023700Y-33394200D01*
X69789700Y-26750200D02*
X69789700Y-30628200D01*
X73689900Y-22850000D02*
X69789700Y-26750200D01*
X65289000Y-33394200D02*
X63888800Y-31994000D01*
X67023700Y-33394200D02*
X65289000Y-33394200D01*
X145544100Y-99017900D02*
X149098000Y-95464000D01*
X145044000Y-99017900D02*
X145544100Y-99017900D01*
X145044000Y-100818000D02*
X145044000Y-99017900D01*
X163838700Y-21711000D02*
X172871200Y-30743500D01*
X163838700Y-20542200D02*
X163838700Y-21711000D01*
X160607200Y-17310700D02*
X163838700Y-20542200D01*
X159956000Y-17310700D02*
X160607200Y-17310700D01*
X172871200Y-30743500D02*
X172974000Y-30743500D01*
X164483200Y-63229700D02*
X164483200Y-48520300D01*
X163083000Y-64629900D02*
X164483200Y-63229700D01*
X164483200Y-48520300D02*
X163073000Y-47110100D01*
X168224200Y-44779300D02*
X164483200Y-48520300D01*
X171057300Y-44779300D02*
X168224200Y-44779300D01*
X171057300Y-32557400D02*
X171057300Y-44779300D01*
X172871200Y-30743500D02*
X171057300Y-32557400D01*
X171057300Y-44779300D02*
X172466000Y-46188000D01*
X90680800Y-43516800D02*
X92122000Y-44958000D01*
X84391700Y-43516800D02*
X90680800Y-43516800D01*
X83941000Y-43967500D02*
X84391700Y-43516800D01*
X83941000Y-57679000D02*
X83941000Y-43967500D01*
X81920000Y-59700000D02*
X83941000Y-57679000D01*
X206197300Y-17272000D02*
X206708000Y-17272000D01*
X203454000Y-20015300D02*
X206197300Y-17272000D01*
X203454000Y-30743500D02*
X203454000Y-20015300D01*
D30*
X18223100Y-97765100D02*
X18223100Y-92456000D01*
X19518000Y-99060000D02*
X18223100Y-97765100D01*
X40564700Y-31701800D02*
X41755900Y-32893000D01*
X39225200Y-31701800D02*
X40564700Y-31701800D01*
X38168500Y-32758500D02*
X39225200Y-31701800D01*
X38168500Y-33105500D02*
X38168500Y-32758500D01*
X35306000Y-35968000D02*
X38168500Y-33105500D01*
X35306000Y-48559300D02*
X35306000Y-35968000D01*
X32765500Y-51099800D02*
X35306000Y-48559300D01*
X32765500Y-81528100D02*
X32765500Y-51099800D01*
X25992300Y-88301300D02*
X32765500Y-81528100D01*
X42931000Y-32893000D02*
X41755900Y-32893000D01*
M02*
